<?xml version="1.0" encoding="UTF-8"?>
<svg id="Livello_1" xmlns="http://www.w3.org/2000/svg" version="1.1" viewBox="0 0 20 20">
  <!-- Generator: Adobe Illustrator 30.1.0, SVG Export Plug-In . SVG Version: 2.1.1 Build 136)  -->
  <defs>
    <style>
      .st0 {
        fill: #6b3519;
      }

      .st1, .st2 {
        fill: #010101;
      }

      .st3 {
        opacity: .2;
      }

      .st3, .st4 {
        fill: #fff;
      }

      .st2, .st5 {
        opacity: .15;
      }

      .st6 {
        fill: #d11c22;
      }

      .st7 {
        fill: #dcf0fc;
      }

      .st8 {
        fill: #e84247;
      }
    </style>
  </defs>
  <path class="st7" d="M8.82,2.17c-.03.78-.16,2.19-.7,3.68.12,0,.24-.02.36-.04.63-.1.72-.28,1.38-.47.24-.07.9-.26,1.67-.26-.35-1.19-.45-2.27-.47-2.91h.04c.1,0,.18-.08.18-.18,0-.1-.08-.18-.18-.18h-.05c0-.17,0-.26,0-.26,0-.17-1-.14-1.12-.14-.12,0-1.13-.02-1.12.15,0,0,0,.09,0,.26h0c-.1,0-.18.08-.18.18,0,.1.08.18.18.18Z"/>
  <path class="st0" d="M12.79,18.45c.16-.62-.25-1.9-.51-2.75-.2-.67.01-1.43.12-1.72.03-.1.06-.2.08-.3.15-.87.72-4.8-.34-7.03-.25-.53-.44-1.06-.59-1.57-.78,0-1.44.19-1.68.26-.67.19-.76.37-1.38.47-.12.02-.25.03-.36.04-.1.27-.21.54-.33.8-1.05,2.24-.44,6.16-.29,7.04.02.1.05.2.08.3.1.29.33,1.05.13,1.72-.25.85-.65,2.13-.49,2.75.16.62,1.78.48,2.78.53h0s0,0,.01,0c0,0,0,0,.01,0h0c1-.06,2.62.07,2.77-.55Z"/>
  <path class="st3" d="M10.62,13.56c-.02.09-.04.18-.08.27-.1.27-.31.95-.14,1.56.22.78.57,1.94.42,2.51-.09.32-.59.41-1.18.43.12,0,.24,0,.34.01h0s0,0,.01,0c0,0,0,0,.01,0h0c.56-.03,1.33,0,1.92-.09.13-.06.23-.15.26-.27.15-.56-.2-1.73-.42-2.51-.17-.61.04-1.29.14-1.56.03-.09.06-.18.08-.27.15-.79.74-4.35-.19-6.39-.22-.48-.38-.97-.51-1.43-.53,0-1,.08-1.3.15.12.39.26.79.44,1.2.93,2.05.33,5.6.19,6.39Z"/>
  <g class="st5">
    <path class="st1" d="M12.79,17.8c-.16.62-1.78.49-2.77.55h0s0,0-.01,0c0,0,0,0-.01,0h0c-1-.05-2.62.09-2.78-.53,0-.02,0-.04-.01-.06-.03.28-.04.53.01.71.16.62,1.78.48,2.78.53h0s0,0,.01,0c0,0,0,0,.01,0h0c1-.06,2.62.07,2.77-.55.05-.19.04-.43,0-.7,0,.02,0,.03,0,.05Z"/>
  </g>
  <path class="st8" d="M9.24,1.57c.07,0,.12.04.14.1h.01c.02-.06.07-.11.14-.11.07,0,.12.04.14.1h.01c.02-.06.07-.11.14-.11.07,0,.12.04.14.1h.01c.02-.06.07-.11.14-.11.07,0,.12.04.14.1h.01c.02-.06.07-.11.14-.11.07,0,.12.04.14.1h.01c.02-.06.07-.11.14-.11.07,0,.12.04.14.1h.01c.02-.06.07-.11.14-.11.06,0,.11.03.13.08.09-.07.14-.17.14-.29,0-.2-.16-.36-.36-.36h-1.84c-.2,0-.36.17-.36.37,0,.13.07.24.17.31.02-.06.07-.1.13-.1.07,0,.12.04.14.1h.01c.02-.06.07-.11.14-.11Z"/>
  <path class="st6" d="M9.53,1h-.53c-.2,0-.36.16-.36.36,0,.13.07.24.17.31.02-.06.07-.1.13-.1.07,0,.12.04.14.1h.01c.02-.06.07-.11.14-.11s.12.04.14.1h.01c.02-.06.07-.11.14-.11,0,0,0,0,.01,0v-.57Z"/>
  <path class="st8" d="M7.36,12.82h5.23c.15-1.23.31-3.32-.08-5.02h-5.1c-.38,1.7-.21,3.79-.05,5.02Z"/>
  <path class="st2" d="M7.29,8.52c-.15,1.15-.11,2.39-.02,3.38.82-.32,1.88-.81,3.57-.8.74,0,1.37.11,1.9.2.02-.39.03-.8.03-1.23-.22.11-.46.22-.72.29-1.75.47-3.41-.82-4.75-1.85Z"/>
  <path class="st2" d="M12.66,12.27c.15-1.15.11-2.39.02-3.38-.82.32-1.88.81-3.57.8-.74,0-1.37-.11-1.9-.2-.02.39-.03.8-.03,1.23.22-.11.46-.22.72-.29,1.75-.47,3.41.82,4.75,1.85Z"/>
  <rect class="st4" x="10.25" y="1.21" width=".73" height=".21" rx=".11" ry=".11"/>
  <g class="st5">
    <path class="st1" d="M9.52,2.45h1.57c0-.1-.01-.2-.01-.28h-1.54s0,0,0,0c0-.04,0-.36,0-.36,0-.13,0-.22,0-.25,0,0,0,0,0,0-.07,0-.12.04-.14.11h-.01c-.02-.06-.07-.1-.14-.1-.07,0-.12.04-.14.11h-.01c-.02-.06-.07-.1-.14-.1-.06,0-.11.04-.13.1,0,.04,0,.09,0,.15h0c-.08,0-.16.06-.18.14-.03.12.06.22.17.22,0,0,0,0,0,0h0s0,0,0,0c0,.02,0,.05,0,.07,0,0,0,.02,0,.03,0,.02,0,.03,0,.05,0,.01,0,.02,0,.04,0,.02,0,.04,0,.06,0,0,0,.02,0,.02h0c-.06.97-.27,2.6-1.02,4.21-1,2.14-.49,5.82-.31,6.9.03.16.07.33.12.48.11.32.3,1.03.11,1.67-.25.85-.65,2.13-.49,2.75.16.62,1.78.48,2.78.53h0s0,0,.01,0c0,0,0,0,.01,0h0c.11,0,.22-.01.34-.01-.99-.02-2.29.03-2.44-.52-.16-.62.24-1.9.49-2.75.19-.63,0-1.34-.11-1.67-.05-.16-.09-.32-.12-.48-.18-1.08-.69-4.76.31-6.9.75-1.61.97-3.24,1.02-4.21Z"/>
  </g>
  <circle class="st2" cx="11.21" cy="16.79" r=".57"/>
  <path class="st2" d="M10.89,15.95c0,.08-.07.15-.15.15s-.15-.07-.15-.15.07-.15.15-.15.15.07.15.15Z"/>
  <path class="st2" d="M11.28,14.53c0,.06-.05.11-.11.11s-.11-.05-.11-.11.05-.11.11-.11.11.05.11.11Z"/>
  <path class="st2" d="M9.24,7.12c0,.06-.05.11-.11.11s-.11-.05-.11-.11.05-.11.11-.11.11.05.11.11Z"/>
  <circle class="st2" cx="11.66" cy="13.56" r=".11"/>
  <circle class="st2" cx="11.17" cy="6.44" r=".11"/>
  <path class="st2" d="M10.62,6.17c0,.06-.05.11-.11.11s-.11-.05-.11-.11.05-.11.11-.11.11.05.11.11Z"/>
  <path class="st2" d="M9.78,15.8c0,.08-.07.15-.15.15s-.15-.07-.15-.15.07-.15.15-.15.15.07.15.15Z"/>
  <path class="st2" d="M9.63,14.39c0,.18-.15.32-.32.32s-.32-.15-.32-.32.15-.32.32-.32.32.15.32.32Z"/>
  <path class="st2" d="M10.1,17.8c0,.18-.15.32-.32.32s-.32-.15-.32-.32.15-.32.32-.32.32.15.32.32Z"/>
  <path class="st2" d="M10.58,13.69c0,.13-.1.23-.23.23s-.23-.1-.23-.23.1-.23.23-.23.23.1.23.23Z"/>
  <circle class="st2" cx="10.74" cy="7.12" r=".23"/>
  <circle class="st2" cx="9.22" cy="16.39" r=".23"/>
  <g class="st5">
    <path class="st1" d="M12.79,17.8c-.16.62-1.78.49-2.77.55h0s0,0-.01,0c0,0,0,0-.01,0h0c-1-.05-2.62.09-2.78-.53,0-.02,0-.04-.01-.06-.03.28-.04.53.01.71.16.62,1.78.48,2.78.53h0s0,0,.01,0c0,0,0,0,.01,0h0c1-.06,2.62.07,2.77-.55.05-.19.04-.43,0-.7,0,.02,0,.03,0,.05Z"/>
  </g>
</svg>