<?xml version="1.0" encoding="UTF-8"?>
<svg id="Livello_1" xmlns="http://www.w3.org/2000/svg" version="1.1" viewBox="0 0 20 20">
  <!-- Generator: Adobe Illustrator 30.1.0, SVG Export Plug-In . SVG Version: 2.1.1 Build 136)  -->
  <defs>
    <style>
      .st0 {
        fill: #dc5252;
      }

      .st1 {
        fill: #ae3737;
      }

      .st2 {
        fill: #e3ab3a;
      }

      .st3 {
        fill: #de8e53;
      }

      .st4 {
        fill: #e7a67e;
      }

      .st5 {
        fill: #f7af61;
      }

      .st6 {
        fill: #7d8123;
      }

      .st7 {
        fill: #f4d48d;
      }

      .st8 {
        fill: #e38181;
      }

      .st9 {
        fill: #9a2a29;
      }

      .st10 {
        fill: #cd8a24;
      }

      .st11 {
        fill: #a4a826;
      }

      .st12 {
        fill: #d0d184;
      }
    </style>
  </defs>
  <path class="st5" d="M18.33,13.15c-.12.09-.25.17-.37.25-1.1.65-2.46.78-3.74.82-1.61.05-3.22-.02-4.82-.15-1.73-.14-3.45-.36-5.13-.78-.85-.21-1.69-.47-2.46-.87-.31-.16-.63-.37-.76-.67-.02-.05-.04-.11-.05-.17-.06-.33.11-.66.33-.92.05-.06.11-.13.17-.18.06-.06.11-.11.17-.16.45-.38,1.01-.63,1.56-.84,2.82-1.04,5.89-1.15,8.85-.82,1.69.19,3.79.32,5.13,1.33.4.3.74.68.98,1.17.14.29.26.58.36.88.03.1.07.21.1.31.03.12.07.25.04.38-.04.18-.19.31-.33.42Z"/>
  <path class="st3" d="M17.96,13.4c-1.1.65-2.46.78-3.74.82-1.61.05-3.22-.02-4.82-.15-1.73-.14-3.45-.36-5.13-.78-.85-.21-1.69-.47-2.46-.87-.31-.16-.63-.37-.76-.67-.02-.05-.04-.11-.05-.17-.06-.33.11-.66.33-.92.05-.06.11-.13.17-.18.17.12.33.24.5.36,2.39,1.77,5.3,2.77,8.26,3.09,2.57.27,5.18.04,7.71-.52Z"/>
  <path class="st3" d="M17.58,12.55c-.26-.01-.51-.13-.77-.13-.05,0-.11,0-.16.01-.24.05-.44.21-.64.37-.11.08-.22.17-.34.23-.49.24-1.04.09-1.54-.05-.05-.01-.09-.03-.14-.04-.1-.02-.19-.02-.29,0-.17.06-.27.23-.41.36-.03.03-.07.06-.1.08-.34.24-.81.23-1.2.14-.36-.08-.71-.21-1.08-.23-.08,0-.17,0-.25,0-.3.03-.59.16-.87.27-.22.08-.45.16-.68.17-.49.03-.92-.21-1.35-.43-.38-.2-.77-.4-1.2-.4-.06,0-.12,0-.17.01-.59.07-1.22.42-1.73.16-.15-.07-.26-.19-.37-.31-.09-.1-.18-.2-.28-.28-.07-.06-.17-.1-.26-.13-.21-.05-.44-.01-.55.17-.38.16-.49-.18-.68-.34-.05-.05-.11-.08-.19-.09-.02,0-.04,0-.06,0-.42-.04-.87-.15-1.21-.36-.02-.05-.04-.11-.05-.17-.06-.33.11-.66.33-.92.1-.12.22-.24.34-.34,1.9-.54,3.88-.68,5.83-.78,1.3-.07,2.6-.12,3.9-.12,1.82,0,3.63.12,5.4.48.14.03.28.06.41.1.16.04.32.1.47.17.38.17.73.45.95.94.06.13.09.28.08.44,0,.16-.05.32-.13.46-.01.02-.02.04-.03.06,0,.02-.02.03-.03.05-.21.29-.57.47-.92.46Z"/>
  <path class="st11" d="M17.68,12.46c-.25-.02-.5-.14-.75-.15-.05,0-.1,0-.16,0-.23.04-.42.19-.61.34-.1.08-.2.15-.32.21-.46.22-1,.05-1.48-.1-.04-.01-.09-.03-.14-.04-.09-.02-.19-.03-.28,0-.16.05-.26.22-.38.33-.03.03-.06.05-.1.08-.32.22-.77.19-1.16.1-.35-.09-.69-.23-1.05-.26-.08,0-.16,0-.24,0-.29.02-.56.13-.83.23-.21.07-.42.14-.65.15-.47.01-.89-.23-1.31-.47-.38-.21-.75-.41-1.17-.42-.06,0-.11,0-.17,0-.57.05-1.16.36-1.66.1-.14-.08-.26-.19-.37-.31-.09-.1-.18-.2-.28-.28-.07-.06-.16-.1-.26-.13-.2-.06-.42-.03-.52.14-.36.14-.48-.19-.67-.35-.05-.05-.11-.08-.19-.09-.02,0-.04,0-.06,0-.67-.09-1.42-.34-1.67-.94-.02-.04-.03-.07-.04-.11-.02-.08-.04-.16-.01-.24.05-.14.2-.2.34-.25,0,0,0,0,0,0,2.03-.65,4.2-.73,6.34-.77,1.25-.02,2.51-.03,3.76.02,1.76.07,3.51.24,5.22.65.29.07.58.15.86.28.38.18.72.46.94.94.06.13.09.28.09.42,0,.15-.04.3-.11.44-.02.03-.04.07-.06.1-.19.28-.54.44-.87.41Z"/>
  <g>
    <path class="st12" d="M1.21,10.57c.52.38,1.08.69,1.67.94-.67-.09-1.42-.34-1.67-.94Z"/>
    <path class="st12" d="M4.11,11.75c.08,0,.15.04.21.08-.2-.06-.42-.03-.52.14-.36.14-.48-.19-.67-.35.13.05.25.09.38.14.07.02.14.04.21.05.13,0,.26-.06.4-.05Z"/>
    <path class="st12" d="M6.41,12.37c.16.01.32.04.48.08-.57.05-1.16.36-1.66.1-.14-.08-.26-.19-.37-.31.45.21,1.03.1,1.55.14Z"/>
    <path class="st12" d="M10.19,13.19c-.21.07-.42.14-.65.15-.47.01-.89-.23-1.31-.47.48.14.96.23,1.45.29.17.02.34.03.5.03Z"/>
    <path class="st12" d="M13.47,13.13c-.32.22-.77.19-1.16.1-.35-.09-.69-.23-1.05-.26.08-.03.16-.05.25-.07.41-.06.81.18,1.22.26.24.05.5.04.74-.03Z"/>
    <path class="st12" d="M16.16,12.65c-.1.08-.2.15-.32.21-.46.22-1,.05-1.48-.1-.04-.01-.09-.03-.14-.04.03-.02.07-.03.11-.04.13-.04.26-.03.4-.01.48.05.98.15,1.44-.01Z"/>
    <path class="st12" d="M17.68,12.46c-.25-.02-.5-.14-.75-.15,0,0,.01,0,.02,0,.35-.1.73,0,1.09-.05.21-.03.44-.14.57-.3-.02.03-.04.07-.06.1-.19.28-.54.44-.87.41Z"/>
  </g>
  <path class="st6" d="M18.3,11.85c-.52.28-1.14.3-1.73.31-2.66.05-5.32.04-7.98-.03-2.11-.05-4.26-.15-6.23-.92-.25-.1-.51-.21-.7-.41-.19-.2-.3-.49-.2-.75.01-.03.03-.07.05-.09,2.03-.65,4.2-.73,6.34-.77,1.25-.02,2.51-.03,3.76.02,2.01.23,4.04.57,6.08.93.38.18.72.46.94.94.06.13.09.28.09.42-.12.14-.26.26-.42.34Z"/>
  <path class="st1" d="M17.84,11.86c-.33.07-.66.03-.99,0-2.81-.25-5.63-.1-8.45-.11-.34,0-.68,0-1.01,0h0s0,0,0,0c-.64-.01-1.29-.04-1.94-.1-.64-.07-1.27-.18-1.88-.35h0c-.36-.11-.72-.24-1.06-.4-.1-.05-.21-.1-.31-.16-.2-.11-.42-.28-.37-.5.04-.16.19-.25.34-.31.41-.17.85-.25,1.29-.32,2.71-.44,5.46-.62,8.2-.72,1.52-.06,3.06-.09,4.54.23.9.2,1.86.59,2.13,1.21.02.05.04.1.05.15.3.13.4.55.26.85-.14.3-.47.49-.79.56Z"/>
  <path class="st9" d="M17.44,11.41c-.55.13-1.1-.29-1.65-.15-.13.03-.25.09-.38.13-.76.23-1.55-.38-2.32-.16-.27.07-.5.24-.77.32-.5.14-1.01-.08-1.48-.27-.47-.19-1.02-.36-1.49-.12-.22.11-.4.3-.61.44-.11.07-.23.13-.35.17h-1.01s0,0,0,0h0c-.2-.08-.38-.19-.58-.26-.44-.15-.95-.09-1.35.15-.64-.07-1.27-.18-1.88-.35h0c-.08-.06-.15-.11-.24-.16-.24-.15-.54-.25-.82-.23-.1-.05-.21-.1-.31-.16-.2-.11-.42-.28-.37-.5.04-.16.19-.25.34-.31.41-.17.85-.25,1.29-.32,2.71-.44,5.46-.62,8.2-.72,1.52-.06,3.06-.09,4.54.23.9.2,1.86.59,2.13,1.21-.03.13-.07.26-.13.39-.14.33-.41.62-.76.71Z"/>
  <path class="st11" d="M17.72,10.98c-.08.05-.17.09-.26.11-.43.1-.87-.15-1.3-.19-.1,0-.2,0-.31.02-.13.03-.24.09-.37.12-.11.03-.22.05-.33.05-.64,0-1.29-.4-1.92-.23-.18.05-.34.14-.51.22-.08.03-.15.06-.23.08-.09.02-.18.04-.27.04-.4,0-.79-.17-1.17-.32-.42-.18-.91-.33-1.34-.18h0s-.07.03-.11.05c-.22.11-.38.29-.58.42-.11.07-.23.13-.35.17-.29.09-.61.09-.9,0-.22-.07-.42-.2-.64-.28-.19-.07-.39-.1-.6-.08-.31.02-.61.12-.86.31-.04.03-.09.07-.13.1-.09.07-.18.13-.28.16-.23.06-.46-.07-.65-.21-.29-.22-.55-.48-.86-.67-.04-.02-.08-.05-.12-.07-.28-.15-.62-.22-.92-.13-.16.05-.3.15-.47.17-.01,0-.03,0-.04,0-.14.01-.29-.03-.42-.09-.22-.09-.38-.56-.27-1.12.18-.88,1.03-1.97,3.35-2.18,4.41-.39,9.01-.19,12.94,1.75.43.21.9.52.57.4-.03.34-.07.69-.2,1-.1.23-.26.44-.47.57Z"/>
  <g>
    <path class="st12" d="M2.26,10.62s-.03,0-.04,0c-.14.01-.29-.03-.42-.09-.22-.09-.38-.56-.27-1.12.02.03.03.06.04.09.09.24.08.5.2.73.1.19.28.31.49.38Z"/>
    <path class="st12" d="M5.35,11.34c.07.02.14.03.21.03-.09.07-.18.13-.28.16-.23.06-.46-.07-.65-.21-.29-.22-.55-.48-.86-.67-.04-.02-.08-.05-.12-.07.15-.01.31,0,.45.05.12.05.22.13.32.21.28.22.59.42.94.5Z"/>
    <path class="st12" d="M8.44,11.29c.08.02.15.03.23.03-.29.09-.61.09-.9,0-.22-.07-.42-.2-.64-.28-.19-.07-.39-.1-.6-.08.02-.02.05-.04.08-.06.25-.16.58-.06.85.05.32.13.63.28.97.35Z"/>
    <path class="st12" d="M11.13,10.7c.36.18.72.35,1.09.49-.4,0-.79-.17-1.17-.32-.42-.18-.91-.33-1.34-.18.2-.18.47-.28.74-.25.24.03.46.15.67.26Z"/>
    <path class="st12" d="M14.12,10.77c.35.1.69.21,1.04.31-.64,0-1.29-.4-1.92-.23-.18.05-.34.14-.51.22.04-.06.08-.12.12-.17.14-.18.38-.26.61-.26.23,0,.45.07.67.13Z"/>
    <path class="st12" d="M17.72,10.98c-.08.05-.17.09-.26.11-.43.1-.87-.15-1.3-.19.04-.03.08-.05.13-.06.21-.08.44-.01.66.04.25.06.52.11.77.1Z"/>
  </g>
  <path class="st0" d="M16.79,10.7s-.1.02-.15.02c-.16.01-.32,0-.48-.02-.18-.02-.35-.06-.53-.08-.87-.13-1.79-.08-2.61-.37-.1-.03-.19-.07-.29-.12-.13-.06-.26-.14-.3-.27-.09-.25.17-.49.41-.61,1.11-.54,2.43-.39,3.63-.1.49.12,1.01.29,1.37.57-.05.18-.13.35-.25.49-.2.25-.49.44-.8.5Z"/>
  <path class="st8" d="M16.79,10.7s-.1.02-.15.02c0-.05.02-.09.04-.14.03-.08.07-.15.13-.2.12-.12.3-.16.47-.18.1-.01.21-.02.31,0-.2.25-.49.44-.8.5Z"/>
  <path class="st8" d="M16.57,10.46s-.09-.01-.13,0c-.04,0-.09.02-.1.06-.01.03,0,.07.02.1,0,.02.02.04.04.05.02.01.05,0,.07,0,.03-.01.07-.02.1-.05.03-.03.03-.08,0-.14Z"/>
  <path class="st1" d="M16.17,10.7c-.18-.02-.35-.06-.53-.08-.87-.13-1.79-.08-2.61-.37.06-.05.13-.09.2-.11.2-.08.43-.22.62-.12.26.15.57.18.86.21.44.04.89.09,1.33.13.03,0,.06,0,.09.02.04.03.06.08.06.13,0,.06,0,.13-.02.19Z"/>
  <path class="st0" d="M10.5,10.08c-.32.16-.66.26-1,.33-.15.03-.3.06-.45.08-.05,0-.11.02-.16.03-.92.14-1.87.22-2.78.1-.4-.05-.78-.14-1.16-.29-.26-.1-.56-.28-.56-.56,0-.29.3-.47.57-.57,1.42-.55,2.97-.15,3.94-.22.61-.05,1.3-.06,1.73.37.13.13.23.33.15.5,0,0,0,.01,0,.02-.05.1-.16.17-.27.22Z"/>
  <path class="st1" d="M9.05,10.5c-.05,0-.11.02-.16.03-.92.14-1.87.22-2.78.1,0-.04,0-.08,0-.12,0-.07.02-.14.07-.18.03-.02.07-.03.11-.03.19-.02.38,0,.56.02.66.04,1.32-.09,1.98-.2.02,0,.04,0,.06,0,.02,0,.03.03.04.05.05.11.1.22.12.33Z"/>
  <path class="st8" d="M10.5,10.08c-.32.16-.66.26-1,.33-.04-.13-.01-.29.07-.41.13-.18.36-.27.59-.27.21,0,.41.06.61.13-.05.1-.16.17-.27.22Z"/>
  <path class="st2" d="M15.34,9.47c-.1.06-.2.12-.3.18-.19.13-.38.26-.57.4-.5.38-.96.81-1.38,1.28-.08.09-.18.19-.29.2-.03,0-.07,0-.1-.01-.05-.02-.09-.06-.13-.1-.16-.17-.35-.3-.55-.42-.96-.65-1.94-1.3-3.06-1.61-.08-.02-.16-.04-.24-.07-.19-.06-.38-.16-.46-.33.19-.07.39-.1.59-.1.08,0,.16,0,.24,0,1.62,0,3.23.1,4.71.32.53.08,1.04.17,1.53.28Z"/>
  <path class="st2" d="M15.45,9.49s-.07-.02-.1-.02c0,0,.02-.01.03-.02.04-.02.09-.04.12-.02.03.03-.02.09-.04.06Z"/>
  <path class="st10" d="M11.43,10.02c-.18-.02-.36-.04-.52-.11.5.28.95.63,1.34,1.05.18.19.36.4.57.57-.03,0-.07,0-.1-.01-.05-.02-.09-.06-.13-.1-.16-.17-.35-.3-.55-.42-.96-.65-1.94-1.3-3.06-1.61-.08-.02-.16-.04-.24-.07,0-.07,0-.14,0-.2.02-.09.06-.17.12-.24.12-.13.29-.23.46-.29.46-.17.97-.22,1.46-.18.49.04.98.15,1.46.28.53.15,1.06.32,1.57.51.41.15.82.3,1.23.46-.19.13-.38.26-.57.4-.22.05-.45.07-.68.08-.79.04-1.58-.03-2.37-.11Z"/>
  <path class="st2" d="M9.96,9.03c-.36.11-.71.23-1.06.35-.24.08-.47.17-.71.27-.14.06-.28.11-.43.17-.4.16-.8.35-1.1.65-.32.32-.51.77-.89,1.02-.01-.01-.02-.02-.04-.03-.31-.27-.69-.45-1.07-.61-1.24-.54-2.47-1.09-3.71-1.63-.08-.03-.16-.07-.24-.1.09-.02.19-.05.29-.07,1.65-.38,3.36-.54,5.2-.46,1.19.05,2.44.2,3.76.44Z"/>
  <path class="st10" d="M2.97,9.74c.84.61,2.12,1.07,2.77,1.72-.31-.27-.69-.45-1.07-.61-1.24-.54-2.47-1.09-3.71-1.63,0-.02,0-.03,0-.05,0-.04.02-.08.04-.13.08-.2.26-.36.46-.46.24-.12.51-.15.77-.18,1.32-.14,2.66-.07,3.97.18.92.18,1.83.45,2.7.8-.24.08-.47.17-.71.27-1.56.18-4.33.28-5.23.09Z"/>
  <path class="st5" d="M18.86,10.51c-5.6-.88-11.29-1.19-16.95-.92-.27.01-.56.02-.79-.13-.11-.08-.18-.18-.23-.29-.08-.21-.06-.46,0-.69.04-.15.11-.3.19-.43,1.75-2.83,4.49-2.4,4.54-2.43,2.24-1.25,4.86-.2,4.98-.24.98-.4,4.73.48,5.48,1.37.05.06.86.13,1.72.67.55.34,1.13.88,1.56,1.74,0,.01.01.02.02.03,0,.01.01.03.02.04.02.03.03.07.05.1.01.03.03.05.04.08,0,.01.01.02.02.04,0,.01.01.02.02.04,0,.01.01.02.02.04,0,.01.01.02.02.03,0,0,0,0,0,0,0,.01.01.02.02.04,0,0,0,.02.01.03,0,0,0,0,0,.02,0,0,0,.02.01.03,0,0,0,0,0,0,0,0,0,.02,0,.02,0,0,0,.01,0,.02,0,0,0,0,0,.01,0,0,0,.02.01.03,0,0,0,.01,0,.02,0,0,0,.01,0,.02,0,.02,0,.03.01.05,0,0,0,.01,0,.02,0,.01,0,.03,0,.04,0,0,0,.01,0,.02,0,0,0,0,0,.01,0,0,0,0,0,.01,0,0,0,.01,0,.01,0,0,0,0,0,.01,0,0,0,.01,0,.02,0,0,0,0,0,.01,0,0,0,0,0,0,0,0,0,0,0,.01,0,0,0,0,0,0,0,0,0,0,0,.01,0,0,0,0,0,0,0,0,0,.01,0,.02,0,0,0,0,0,0,0,0,0,0,0,.01,0,.01,0,.02,0,.03,0,0,0,0,0,.01,0,0,0,0,0,.01,0,0,0,0,0,.01,0,0,0,0,0,0,0,0,0,0,0,.01,0,0,0,0,0,.01,0,0,0,.01,0,.02,0,0,0,0,0,.01,0,.02-.02.04-.03.06,0,0-.01.02-.02.03-.25.32-.75.24-.76.26Z"/>
  <g>
    <path class="st4" d="M12.58,8.52c.02-.09.05-.18.09-.26,0-.02.02-.04.03-.06.01-.02.02-.04.03-.06l.02-.03.02-.03s.02-.04.04-.06c.03-.04.05-.08.08-.11.01-.02.03-.04.04-.05.01-.02.03-.04.04-.05.03-.03.06-.07.09-.1l.05-.05.02-.02.02-.02c.13-.13.28-.24.43-.34.15-.1.31-.19.47-.27.16-.08.33-.14.51-.19.17-.05.35-.09.53-.11.18-.02.36-.03.54-.02.05,0,.09,0,.14.01.02,0,.05,0,.07,0,.02,0,.04,0,.07,0,.04,0,.09.02.13.03.04.01.09.02.13.04-.04.02-.08.04-.13.05-.04.02-.08.03-.12.05l-.24.1c-.16.06-.31.13-.47.19-.31.13-.61.26-.9.4-.3.14-.59.28-.87.44-.14.08-.29.16-.43.25-.02.01-.04.02-.05.03l-.03.02-.03.02s-.04.02-.05.04c-.02.01-.04.02-.05.04-.07.05-.14.1-.22.15Z"/>
    <path class="st4" d="M7.7,7.8s0-.05,0-.07c0-.02,0-.05,0-.07v-.07s.02-.05.03-.07c0-.02.01-.05.02-.07,0-.02.01-.04.02-.07.01-.04.03-.09.04-.13.06-.17.15-.34.25-.5.1-.16.22-.31.34-.44.13-.14.27-.26.42-.37.3-.23.63-.4.98-.52.02,0,.04-.01.07-.02l.07-.02s.09-.03.13-.03c.02,0,.04-.01.07-.02.02,0,.04-.01.07-.01.05,0,.09-.02.14-.02.05,0,.09-.01.14-.02.05,0,.09,0,.14,0,.09,0,.18,0,.28,0-.07.06-.15.11-.23.16l-.06.04s-.04.02-.06.04c-.04.02-.07.05-.11.07l-.43.28c-.14.09-.28.18-.42.28-.14.09-.27.19-.4.29-.26.2-.51.41-.76.63-.12.11-.24.23-.36.35-.12.12-.24.25-.37.39Z"/>
    <path class="st4" d="M3.41,8.01c0-.08,0-.16,0-.24,0-.04,0-.08.02-.12,0-.02,0-.04,0-.06,0-.02,0-.04.01-.06,0-.04.02-.08.03-.12,0-.02.01-.04.02-.06,0,0,0-.02,0-.03v-.03s.04-.08.05-.11l.02-.06s.02-.04.02-.05c.13-.29.32-.56.55-.79.23-.23.5-.41.78-.54.04-.02.07-.03.11-.05.04-.02.07-.03.11-.04.07-.03.15-.05.23-.07.04,0,.08-.02.12-.03.04,0,.08-.02.12-.02.08-.01.16-.02.24-.02-.05.06-.11.12-.16.18-.03.03-.05.06-.08.08-.03.03-.05.05-.08.08-.06.05-.11.1-.16.15-.01.01-.03.03-.04.04-.01.01-.03.02-.04.04-.03.03-.05.05-.08.07-.21.2-.42.38-.62.58-.2.19-.39.4-.58.61-.01.01-.02.03-.04.04l-.03.04s-.05.05-.07.08c-.03.03-.05.06-.07.08-.02.03-.05.06-.07.08-.01.01-.02.03-.04.04-.01.01-.02.03-.04.04-.02.03-.05.06-.08.09-.05.06-.1.12-.16.18Z"/>
  </g>
  <g>
    <path class="st3" d="M12.72,8.59c.02-.09.05-.18.09-.26,0-.02.02-.04.03-.06.01-.02.02-.04.03-.06l.02-.03.02-.03s.02-.04.04-.06c.03-.04.05-.08.08-.11.01-.02.03-.04.04-.05.01-.02.03-.04.04-.05.03-.03.06-.07.09-.1l.05-.05.02-.02.02-.02c.13-.13.28-.24.43-.34.15-.1.31-.19.47-.27.16-.08.33-.14.51-.19.17-.05.35-.09.53-.11.18-.02.36-.03.54-.02.05,0,.09,0,.14.01.02,0,.05,0,.07,0,.02,0,.04,0,.07,0,.04,0,.09.02.13.03.04.01.09.02.13.04-.04.02-.08.04-.13.05-.04.02-.08.03-.12.05l-.24.1c-.16.06-.31.13-.47.19-.31.13-.61.26-.9.4-.3.14-.59.28-.87.44-.14.08-.29.16-.43.25-.02.01-.04.02-.05.03l-.03.02-.03.02s-.04.02-.05.04c-.02.01-.04.02-.05.04-.07.05-.14.1-.22.15Z"/>
    <path class="st3" d="M7.84,7.88s0-.05,0-.07c0-.02,0-.05,0-.07v-.07s.02-.05.03-.07c0-.02.01-.05.02-.07,0-.02.01-.04.02-.07.01-.04.03-.09.04-.13.06-.17.15-.34.25-.5.1-.16.22-.31.34-.44.13-.14.27-.26.42-.37.3-.23.63-.4.98-.52.02,0,.04-.01.07-.02l.07-.02s.09-.03.13-.03c.02,0,.04-.01.07-.02.02,0,.04-.01.07-.01.05,0,.09-.02.14-.02.05,0,.09-.01.14-.02.05,0,.09,0,.14,0,.09,0,.18,0,.28,0-.07.06-.15.11-.23.16l-.06.04s-.04.02-.06.04c-.04.02-.07.05-.11.07l-.43.28c-.14.09-.28.18-.42.28-.14.09-.27.19-.4.29-.26.2-.51.41-.76.63-.12.11-.24.23-.36.35-.12.12-.24.25-.37.39Z"/>
    <path class="st3" d="M3.56,8.09c0-.08,0-.16,0-.24,0-.04,0-.08.02-.12,0-.02,0-.04,0-.06,0-.02,0-.04.01-.06,0-.04.02-.08.03-.12,0-.02.01-.04.02-.06,0,0,0-.02,0-.03v-.03s.04-.08.05-.11l.02-.06s.02-.04.02-.05c.13-.29.32-.56.55-.79.23-.23.5-.41.78-.54.04-.02.07-.03.11-.05.04-.02.07-.03.11-.04.07-.03.15-.05.23-.07.04,0,.08-.02.12-.03.04,0,.08-.02.12-.02.08-.01.16-.02.24-.02-.05.06-.11.12-.16.18-.03.03-.05.06-.08.08-.03.03-.05.05-.08.08-.06.05-.11.1-.16.15-.01.01-.03.03-.04.04-.01.01-.03.02-.04.04-.03.03-.05.05-.08.07-.21.2-.42.38-.62.58-.2.19-.39.4-.58.61-.01.01-.02.03-.04.04l-.03.04s-.05.05-.07.08c-.03.03-.05.06-.07.08-.02.03-.05.06-.07.08-.01.01-.02.03-.04.04-.01.01-.02.03-.04.04-.02.03-.05.06-.08.09-.05.06-.1.12-.16.18Z"/>
  </g>
  <path class="st3" d="M18.86,10.51c-5.6-.88-11.29-1.19-16.95-.92-.27.01-.56.02-.79-.13-.11-.08-.18-.18-.23-.29-.08-.21-.06-.46,0-.69,2.51.47,10.85.59,15.83.75.35.01.73-.02,1.01-.24.38-.3.42-.88.23-1.32-.04-.09-.09-.18-.14-.26.55.34,1.13.88,1.56,1.74,0,.01.01.02.02.03,0,.01.01.03.02.04.02.03.03.07.05.1.01.03.03.05.04.08,0,.01.01.02.02.04,0,.01.01.02.02.04,0,.01.01.02.02.04,0,.01.01.02.02.03,0,0,0,0,0,0,0,.01.01.02.02.04,0,0,0,.02.01.03,0,0,0,0,0,.02,0,0,0,.02.01.03,0,0,0,0,0,0,0,0,0,.02,0,.02,0,0,0,.01,0,.02,0,0,0,0,0,.01,0,0,0,.02.01.03,0,0,0,.01,0,.02,0,0,0,.01,0,.02,0,.02,0,.03.01.05,0,0,0,.01,0,.02,0,.01,0,.03,0,.04,0,0,0,.01,0,.02,0,0,0,0,0,.01,0,0,0,0,0,.01,0,0,0,.01,0,.01,0,0,0,0,0,.01,0,0,0,.01,0,.02,0,0,0,0,0,.01,0,0,0,0,0,0,0,0,0,0,0,.01,0,0,0,0,0,0,0,0,0,0,0,.01,0,0,0,0,0,0,0,0,0,.01,0,.02,0,0,0,0,0,0,0,0,0,0,0,.01,0,.01,0,.02,0,.03,0,0,0,0,0,.01,0,0,0,0,0,.01,0,0,0,0,0,.01,0,0,0,0,0,0,0,0,0,0,0,.01,0,0,0,0,0,.01,0,0,0,.01,0,.02,0,0,0,0,0,.01,0,.02-.02.04-.03.06,0,0-.01.02-.02.03-.25.32-.75.24-.76.26Z"/>
  <path class="st3" d="M18.86,10.51c-5.6-.88-11.29-1.19-16.95-.92-.27.01-.56.02-.79-.13-.03-.02-.06-.05-.09-.07,1.46.01,2.93-.12,4.39-.17,4.03-.14,8.06.32,12.1.52.48.02.98.04,1.41-.17.18-.09.35-.23.47-.4.19.36.46.77.22,1.09-.25.32-.75.24-.76.26Z"/>
  <path class="st3" d="M14.09,6.19c-.84-.39-1.82-.52-2.7-.25-.25.08-.51.2-.64.43-.03.05-.05.1-.03.16.01.07.08.12.15.14.07.02.14.01.21,0,.68-.05,1.36-.03,2.03.07.24.03.48.08.72.03.24-.04.47-.2.26-.59Z"/>
  <path class="st3" d="M8.79,5.47c-1.05.05-2.13.24-3.02.8-.18.11-.35.24-.44.43-.05.1-.06.23,0,.33.04.06.09.09.15.12.23.1.49.03.73-.04.81-.24,1.59-.57,2.3-1.03.17-.11.35-.26.29-.61Z"/>
  <path class="st3" d="M10.18,6.59c-.14,0-.28-.07-.42-.04-.08.02-.15.09-.21.15-.05.05-.1.11-.09.18,0,.07.07.12.14.13s.13,0,.2-.03c.13-.05.26-.12.39-.4Z"/>
  <path class="st7" d="M6.96,10.06c-.16.11-.33.22-.46.36-.17.18-.3.4-.45.6-.07.1-.17.19-.29.2.13-.15.22-.33.33-.5.18-.27.4-.52.7-.64.08-.03.17-.05.17-.03Z"/>
  <path class="st7" d="M7.23,9.89s-.07.02-.1.04c-.03.02-.06.05-.07.08.09,0,.19-.04.23-.12,0,0-.02-.01-.07,0Z"/>
  <path class="st7" d="M13.96,10.29c-.24.17-.47.35-.67.57-.08.09-.17.18-.22.29.28-.3.64-.52.89-.86Z"/>
  <path class="st7" d="M14.14,10.17s-.09.06-.14.09c0,.01.02.02.03.02.01,0,.02,0,.03-.02.04-.03.07-.06.07-.09Z"/>
</svg>