<?xml version="1.0" encoding="UTF-8"?>
<svg id="Livello_1" xmlns="http://www.w3.org/2000/svg" version="1.1" viewBox="0 0 20 20">
  <!-- Generator: Adobe Illustrator 30.1.0, SVG Export Plug-In . SVG Version: 2.1.1 Build 136)  -->
  <defs>
    <style>
      .st0 {
        fill: #be1622;
      }

      .st1 {
        fill: #b2161f;
      }

      .st2 {
        fill: #f39200;
      }

      .st3 {
        fill: #e73b23;
      }

      .st4 {
        fill: #fab942;
      }

      .st5 {
        fill: #cc101d;
      }

      .st6 {
        fill: #52802f;
      }

      .st7 {
        fill: #f1862f;
      }

      .st8 {
        fill: #f6a541;
      }

      .st9 {
        fill: #ef9532;
      }
    </style>
  </defs>
  <path class="st5" d="M6.2,5.01c-.11.12-.17.27-.22.42-.05.18-.11.35-.22.5-.12.15-.27.26-.43.37-.33.24-.7.49-.83.9-.08.24-.05.48.05.69,0,0,.01,0,.02,0,.03.02.05.05.05.09,0,0,0,.01,0,.02.05.08.12.15.19.22.36.33.87.45,1.34.48.53.03,1.06-.06,1.56-.22.47-.16.92-.38,1.41-.47.24-.04.48-.06.72,0,.23.05.44.16.66.26.47.22.96.41,1.46.55.5.14,1.04.26,1.56.18.25-.04.49-.12.71-.25.15-.09.3-.2.41-.34,0-.01-.02-.03-.02-.04,0-.01,0-.02,0-.03,0-.02.02-.03.04-.04.01,0,.03-.01.05-.02h0s0,0,0,0c0,0,0,0,.01,0,.09-.17.11-.36.04-.54-.07-.19-.24-.35-.4-.47-.32-.22-.7-.31-1.05-.47-.15-.07-.31-.16-.41-.28-.13-.14-.17-.3-.14-.48.03-.18.11-.36.16-.54.05-.19.05-.38-.02-.56-.18-.53-.7-.76-1.22-.84-.34.06-.68.17-1.01.28-.55.19-1.11.41-1.69.48-.58.07-1.17,0-1.75,0-.33,0-.67.01-.99.08,0,0,0,0,0,0-.02.02-.04.04-.05.06Z"/>
  <path class="st3" d="M6.76,6.18c-.34.17-.65.44-.8.8-.14.31-.21.78.09,1.03.21.18.53.16.8.09.38-.09.75-.24,1.11-.38-.03,0-.06-.02-.08-.03-.02-.02-.03-.04-.03-.07,0-.01,0-.03,0-.04.01-.02.03-.04.05-.05.02-.01.04-.02.07-.02h0s0,0,0,0h0s.06-.01.1-.01c.05,0,.11,0,.15.04.03.02.04.04.05.07,0,0,0,0,.01,0,.48-.16.99-.28,1.49-.19.05,0,.11.02.16.04,0,0,0,0,.01,0h0s.04,0,.07,0c.04,0,.07,0,.11.03.02.01.03.03.04.05.38.14.74.36,1.11.52.43.19.89.31,1.36.33.22,0,.44-.01.63-.1.18-.08.33-.23.39-.42h0s-.04-.21-.04-.21h.06c-.01-.12-.07-.25-.15-.35-.02-.02-.04-.05-.06-.07-.15-.15-.35-.24-.55-.3-.17-.05-.36-.09-.5-.21-.2-.17-.25-.46-.21-.71.03-.26.14-.5.2-.75.04-.15.05-.32-.01-.46-.12-.26-.46-.32-.75-.29-.84.11-1.51.75-2.31,1.05-.41.15-.85.21-1.28.28-.43.07-.87.15-1.26.35Z"/>
  <path class="st0" d="M4.08,6.72c-.2.18-.43.33-.65.48-.08.05-.16.11-.23.16-.04.03-.08.06-.13.09-.06.05-.12.1-.18.15-.02.01-.03.03-.05.05-.04.09-.07.18-.09.28-.08.3-.06.61.1.87.2.33.58.5.93.61.96.3,1.98.39,2.98.31.49-.04.96-.13,1.43-.25.52-.14,1.04-.32,1.57-.41.52-.08,1.03-.05,1.53.15.46.18.89.45,1.38.56.34.08.7.09,1.05.07.37-.02.75-.1,1.1-.22.34-.12.66-.31.92-.57.28-.28.44-.67.43-1.07,0-.36-.19-.69-.44-.95-.01.01-.03.02-.04.03-.02,0-.05.01-.07.01-.07,0-.14-.03-.19-.06-.02-.01-.04-.02-.05-.04-.01-.01-.02-.03-.02-.05,0-.02,0-.03.01-.04,0-.01.02-.02.03-.03.02-.01.04-.02.06-.03,0,0,.01,0,.02,0-.3-.22-.65-.34-1-.47-.36-.14-.69-.32-.9-.66-.23-.38-.28-.85-.56-1.2-.15-.18-.34-.32-.55-.42-.02,0-.04,0-.07,0-.03,0-.07,0-.1,0-.01,0-.02,0-.04,0-.02,0-.04,0-.06,0-.01,0-.03,0-.04,0-.02,0-.03,0-.05,0-.02,0-.03,0-.05,0-.01,0-.02,0-.03,0-.08,0-.15.02-.23.03,0,0,0,0,0,0-.03,0-.06,0-.09.01,0,0,0,0,0,0h0c.51.08,1.04.31,1.22.84.06.18.06.37.02.56-.05.18-.13.36-.16.54-.03.18.01.34.14.48.11.12.26.21.41.28.35.16.73.25,1.05.47.17.11.33.27.4.47.07.18.05.37-.04.54.02,0,.04,0,.05,0,.04,0,.07,0,.11.03.02.02.04.04.04.07,0,.02-.01.05-.03.06-.01.01-.03.02-.04.02-.02,0-.03,0-.05,0-.03,0-.07,0-.1-.01-.02,0-.04-.01-.06-.03,0,0,0,0-.01-.01-.11.14-.26.25-.41.34-.22.13-.46.21-.71.25-.52.08-1.06-.04-1.56-.18-.5-.14-.99-.33-1.46-.55-.21-.1-.43-.21-.66-.26-.24-.05-.48-.04-.72,0-.49.09-.94.31-1.41.47-.5.17-1.03.26-1.56.22-.47-.03-.98-.16-1.34-.48-.07-.07-.14-.14-.19-.22,0,.02-.02.05-.03.06-.02.02-.04.03-.06.03-.02,0-.04,0-.07,0-.05,0-.1,0-.14-.02-.03,0-.06-.02-.08-.04-.02-.02-.03-.04-.03-.07,0-.01,0-.03,0-.04.01-.02.03-.04.05-.05.02-.01.04-.02.07-.02h0s.06-.01.1-.01c.05,0,.09,0,.14.03-.1-.21-.13-.45-.05-.69.13-.41.5-.66.83-.9.15-.11.31-.22.43-.37.12-.15.17-.32.22-.5.05-.15.11-.3.22-.42.02-.02.04-.04.05-.06,0,0,0,0,0,0-.03,0-.06.01-.09.02-.01,0-.03,0-.04.01-.02,0-.04,0-.05.02-.02,0-.03,0-.04.01-.02,0-.04.01-.05.02-.01,0-.03.01-.04.02-.02,0-.04.01-.05.02-.01,0-.03.01-.04.02-.02,0-.04.02-.06.02-.01,0-.03.01-.04.02-.02,0-.04.02-.06.03-.01,0-.02.01-.03.02-.03.02-.06.03-.09.05-.46.28-.77.73-1.12,1.14-.11.13-.23.25-.35.36Z"/>
  <path class="st1" d="M13.02,4.48c.28.36.33.82.56,1.2.21.34.54.51.9.66.35.14.7.26,1,.47.02,0,.03,0,.05,0h.01s.08,0,.12.02c.04.01.08.04.1.07,0,.01.01.03.01.05,0,.03-.01.05-.03.07,0,0-.01,0-.02.01.25.26.43.59.44.95,0,.4-.16.79-.43,1.07-.25.26-.58.44-.92.57-.35.13-.73.2-1.1.22-.35.02-.71.01-1.05-.07-.49-.12-.92-.38-1.38-.56-.49-.2-1-.23-1.53-.15-.54.09-1.05.27-1.57.41-.47.13-.95.22-1.43.25-1,.08-2.02-.01-2.98-.31-.35-.11-.73-.28-.93-.61-.16-.27-.18-.58-.1-.87.02-.09.06-.19.09-.28h0s0,0,0,0c-.03.03-.06.05-.08.08,0,0,0,0,0,0-.03.03-.05.05-.07.08,0,0,0,0,0,0-.02.03-.05.06-.07.09,0,0,0,0-.01.01-.02.03-.04.06-.06.09,0,0,0,0,0,0-.02.03-.04.06-.06.09,0,0,0,.01-.01.02-.02.03-.03.06-.05.09,0,0,0,0,0,0-.01.03-.03.06-.04.1,0,0,0,.02,0,.02-.01.03-.02.07-.03.1-.02.09-.03.17-.04.25,0,.07,0,.13.01.19.02.11.05.21.1.3,1.52.84,4.5,1.41,7.94,1.41,2.54,0,4.84-.31,6.48-.82.62-.48.54-1.44.22-2.09-.06-.13-.14-.25-.23-.37-.28-.37-.68-.66-1.13-.8-.12-.04-.26-.07-.39-.1-.05-.01-.1-.03-.16-.04-.03,0-.05-.01-.08-.02-.13-.04-.25-.08-.36-.14-.03-.01-.05-.03-.08-.05-.04-.03-.08-.06-.11-.09-.17-.16-.27-.37-.35-.58-.08-.22-.16-.45-.28-.65-.02-.03-.04-.06-.06-.09,0-.01-.02-.02-.02-.03-.01-.02-.03-.04-.04-.05-.01-.01-.02-.02-.03-.03-.01-.01-.03-.03-.04-.04-.01-.01-.03-.02-.04-.04-.01-.01-.03-.02-.04-.04-.01-.01-.03-.02-.04-.04-.01-.01-.02-.02-.04-.03-.02-.01-.03-.02-.05-.04-.01,0-.02-.02-.04-.03-.02-.01-.04-.02-.06-.04-.01,0-.02-.01-.03-.02-.02-.01-.04-.02-.06-.03-.01,0-.02-.01-.03-.02-.02-.01-.05-.02-.07-.03,0,0-.02,0-.03-.01-.02-.01-.05-.02-.07-.03,0,0-.02,0-.02,0-.03-.01-.05-.02-.08-.03,0,0-.01,0-.02,0-.03,0-.06-.02-.09-.03,0,0,0,0-.01,0-.03,0-.06-.02-.09-.02,0,0,0,0,0,0-.03,0-.06-.01-.1-.02,0,0,0,0,0,0-.03,0-.07-.01-.1-.02,0,0,0,0,0,0-.03,0-.07,0-.1-.01h0c.21.1.4.23.55.42Z"/>
  <path class="st4" d="M15.08,6.36s.05.01.08.02c.05.01.1.03.16.04.13.03.26.06.39.1.45.14.84.43,1.13.8.78.38,1.24.84,1.24,1.33,0,.32-.19.62-.54.9.63-.25,1.12-.53,1.44-.83.03-.08.04-.17.04-.25,0-.97-1.75-1.82-4.36-2.29.02.02.05.03.08.05.11.06.23.11.36.14Z"/>
  <path class="st4" d="M1.98,8.91c-.03-.09-.04-.17-.04-.26,0-.54.55-1.04,1.5-1.44.22-.15.45-.3.65-.48.12-.11.24-.23.35-.36-1.42.33-2.49.79-3.04,1.32-.03.08-.04.17-.04.25,0,.35.22.68.63.98Z"/>
  <path class="st7" d="M2.3,8.7c0-.08.01-.16.04-.25,0-.03.02-.07.03-.1,0,0,0-.02,0-.02.01-.03.02-.07.04-.1,0,0,0,0,0,0,.01-.03.03-.06.05-.09,0,0,0-.01.01-.02,0,0,0-.01.01-.02.01-.02.03-.05.04-.07,0,0,0,0,0,0,.01-.02.03-.04.04-.06,0,0,.01-.02.02-.03,0,0,0-.01.01-.01.02-.03.05-.06.07-.09,0,0,0,0,0,0,.02-.03.05-.05.07-.08,0,0,0,0,0,0,.03-.03.05-.05.08-.08h0s0,0,0,0c.02-.02.03-.03.05-.05.06-.05.12-.1.18-.15.04-.03.08-.06.13-.09.08-.06.16-.11.23-.16-.94.41-1.5.91-1.5,1.44,0,.09.01.17.04.26.13.1.27.19.44.28-.05-.09-.09-.19-.1-.3,0-.06-.01-.12-.01-.19Z"/>
  <path class="st7" d="M18.06,8.65c0-.49-.45-.94-1.24-1.33.09.11.16.24.23.37.32.65.4,1.61-.22,2.09.24-.07.47-.15.68-.24.35-.28.54-.58.54-.9Z"/>
  <path class="st9" d="M18.73,9.11s.02-.02.03-.03c0-.01.02-.02.02-.03,0-.01.02-.02.02-.03,0-.01.01-.02.02-.03,0-.01.01-.02.02-.03,0-.01.01-.02.02-.03,0-.01.01-.02.02-.03,0-.01.01-.02.02-.03,0-.01.01-.02.02-.03,0-.01,0-.02.01-.03,0-.01,0-.02.01-.03,0-.01,0-.02.01-.03,0,0,0,0,0-.01,0,0,0,0,0,0-.31.3-.81.58-1.44.83-.21.08-.44.16-.68.24-1.64.5-3.93.82-6.48.82-3.44,0-6.42-.57-7.94-1.41h0c-.16-.09-.31-.18-.44-.28-.4-.3-.63-.64-.63-.98,0-.08.01-.17.04-.25,0,0,0,0,0,0-.02.02-.03.03-.05.05,0,0,0,.01-.01.02-.01.01-.03.03-.04.04,0,0-.01.01-.02.02-.01.01-.02.03-.04.04,0,0,0,0-.01.01-.01.02-.03.04-.04.06,0,0,0,.01-.01.02,0,.01-.02.03-.03.04,0,0,0,.01-.01.02,0,.02-.02.03-.03.05,0,0,0,0,0,0-.01.02-.02.04-.03.06,0,0,0,.01,0,.02,0,.02-.01.03-.02.05,0,0,0,.01,0,.02,0,.02-.01.04-.02.06,0,0,0,0,0,0,0,.02,0,.04-.01.06,0,0,0,.01,0,.02,0,.02,0,.03,0,.05,0,0,0,.01,0,.02,0,.02,0,.04,0,.06,0,.3.17.59.47.86,1.2,1.05,4.55,1.81,8.5,1.82,0,0,.01,0,.02,0,0,0,0,0,0,0,1.01,0,1.99-.05,2.9-.14.04,0,.08,0,.12-.01.03,0,.06,0,.09,0,.04,0,.08,0,.12-.01.03,0,.05,0,.08,0,.05,0,.09-.01.14-.02.02,0,.04,0,.06,0,.06,0,.13-.02.19-.03.02,0,.04,0,.06,0,.04,0,.09-.01.13-.02.03,0,.05,0,.08-.01.04,0,.07-.01.11-.02.03,0,.06,0,.09-.01.03,0,.07-.01.1-.02.03,0,.06,0,.09-.01.03,0,.07-.01.1-.02.03,0,.06,0,.09-.01.03,0,.06-.01.1-.02.03,0,.06-.01.08-.02.03,0,.06-.01.09-.02.03,0,.06-.01.08-.02.03,0,.06-.01.09-.02.03,0,.06-.01.08-.02.03,0,.06-.01.09-.02.03,0,.05-.01.08-.02.03,0,.06-.01.09-.02.03,0,.05-.01.08-.02.03,0,.06-.01.09-.02.03,0,.05-.01.08-.02.03,0,.06-.01.09-.02.03,0,.05-.01.08-.02.03,0,.06-.01.09-.02.03,0,.05-.01.07-.02.03,0,.06-.01.09-.02.02,0,.05-.01.07-.02.03,0,.06-.02.09-.02.02,0,.04-.01.07-.02.03,0,.06-.02.09-.03.02,0,.04-.01.06-.02,0,0,0,0,0,0-.23.42-.51.83-.81,1.2-.49.59-1.06,1.1-1.7,1.52-.63.41-1.32.74-2.04.98-.74.24-1.5.39-2.27.46-.79.07-1.6.07-2.38-.03-.83-.11-1.63-.4-2.36-.82-.2-.12-.4-.24-.6-.37h0s0,0,0,0c0,0,0,0,0,0,.09.1.18.19.28.29.13.13.27.27.41.4.32.29.65.56,1.02.78.12.07.25.14.38.21,0,.1.06.2.17.29.04.03.08.06.12.09.05.03.1.06.16.09.06.03.12.05.19.08.07.03.14.05.21.08.19.06.4.11.64.16.05,0,.1.02.15.03.59.11,1.31.17,2.07.17s1.48-.06,2.07-.17c.05,0,.1-.02.15-.03.24-.05.45-.1.64-.16.08-.02.15-.05.21-.08.07-.03.13-.05.19-.08.06-.03.11-.06.16-.09.05-.03.09-.06.12-.09.11-.09.17-.19.17-.29.13-.06.26-.13.38-.21.37-.22.71-.49,1.02-.78.14-.13.28-.26.41-.4.07-.07.15-.15.22-.23.14-.15.29-.31.42-.46.07-.08.14-.16.2-.24.2-.24.4-.48.58-.73.06-.08.12-.17.18-.25.51-.71.96-1.46,1.34-2.24.02-.04.03-.07.05-.11,0,0,0,0,0,0,.01,0,.02-.02.03-.03.01-.01.02-.02.04-.03.01,0,.02-.02.03-.03.01-.01.02-.02.03-.03,0,0,.02-.02.03-.03,0-.01.02-.02.03-.03,0-.01.02-.02.03-.03Z"/>
  <path class="st4" d="M10.01,11.14s0,0,0,0c0,0-.01,0-.02,0-3.95,0-7.3-.76-8.5-1.82.39.82.86,1.6,1.39,2.34.06.08.11.16.17.23.35.16.7.3,1.07.42,1.19.38,2.46.57,3.71.49,1.22-.08,2.43-.4,3.54-.93.52-.25,1.02-.54,1.48-.87-.89.09-1.84.14-2.83.14Z"/>
  <path class="st8" d="M4.8,13.66c.73.41,1.53.71,2.36.82.79.1,1.6.11,2.38.03.77-.07,1.54-.22,2.27-.46.72-.24,1.41-.56,2.04-.98.64-.42,1.21-.93,1.7-1.52.31-.37.58-.77.81-1.2-.02,0-.04.01-.06.02-.03,0-.06.02-.09.03-.02,0-.04.01-.07.02-.03,0-.06.02-.09.02-.02,0-.05.01-.07.02-.03,0-.06.02-.09.02-.02,0-.05.01-.07.02-.03,0-.06.01-.09.02-.03,0-.05.01-.08.02-.03,0-.06.01-.09.02-.03,0-.05.01-.08.02-.03,0-.06.01-.09.02-.03,0-.05.01-.08.02-.03,0-.06.01-.09.02-.03,0-.05.01-.08.02-.03,0-.06.01-.09.02-.03,0-.06.01-.08.02-.03,0-.06.01-.09.02-.03,0-.06.01-.08.02-.03,0-.06.01-.09.02-.03,0-.06.01-.08.02-.03,0-.06.01-.1.02-.03,0-.06,0-.09.01-.03,0-.07.01-.1.02-.03,0-.06,0-.09.01-.03,0-.07.01-.1.02-.03,0-.06,0-.09.01-.04,0-.07.01-.11.02-.03,0-.05,0-.08.01-.04,0-.09.01-.13.02-.02,0-.04,0-.06,0-.06,0-.13.02-.19.03-.02,0-.04,0-.06,0-.05,0-.09.01-.14.02-.03,0-.05,0-.08,0-.04,0-.08,0-.12.01-.03,0-.06,0-.09,0-.04,0-.08,0-.12.01-.02,0-.05,0-.07,0-.46.34-.96.63-1.48.87-1.11.52-2.32.84-3.54.93-1.25.08-2.52-.11-3.71-.49-.37-.12-.73-.25-1.07-.42h0s.07.09.1.13c.03.03.05.07.08.1.03.04.07.08.1.12.03.04.06.07.09.11.03.04.06.08.1.12.03.04.06.07.09.11.03.04.06.07.09.11.03.04.07.08.1.12.03.03.06.07.09.1.04.04.07.08.11.12.03.03.06.06.09.09.04.05.09.09.13.14,0,0,0,0,0,0,.19.13.39.26.6.37Z"/>
  <path class="st5" d="M10.07,7.55h0s-.04-.02-.06-.02c-.02,0-.03,0-.05,0v-.04s0,.04,0,.04c-.01,0-.02,0-.03.01,0,0,.01,0,.02,0,.03,0,.06.01.08.01.01,0,.02,0,.03,0,0,0,.01,0,.01,0h0s0,0,0,0Z"/>
  <path class="st5" d="M8.11,7.68s.04,0,.05,0c.01,0,.02,0,.03-.01,0,0,0,0,0-.01-.03.01-.06.02-.09.03,0,0,0,0,0,0Z"/>
  <path class="st3" d="M7.99,7.59s-.03,0-.04.01c-.01,0-.02.01-.02.01h0s0,.01,0,.01c0,0,0,0,0,0,0,0,.02.01.05.02.04,0,.09.02.13.02.03-.01.06-.02.09-.03,0,0,0,0,0-.01,0,0,0-.01-.02-.03-.02-.02-.06-.03-.11-.03-.03,0-.06,0-.08,0"/>
  <path class="st0" d="M4.35,7.95s-.03,0-.04.01c-.01,0-.02.01-.02.01h0s0,.01,0,.01c0,0,0,0,0,0,0,0,.02.01.05.02.04,0,.09.02.13.02.02,0,.04,0,.05,0,.01,0,.02,0,.03-.01,0,0,.01-.02.01-.02,0,0,0-.01-.02-.03-.02-.02-.06-.03-.11-.03-.03,0-.06,0-.08,0"/>
  <path class="st0" d="M15.6,6.91s-.02-.02-.03-.02c-.01,0-.03,0-.04,0h-.01s-.04,0-.05,0c-.01,0-.02,0-.02,0,0,0-.01.01-.01.01h0s0,0,0,0c0,0,.01.01.03.02.05.03.11.05.15.05.01,0,.03,0,.04,0,0,0,.01,0,.02-.01-.02-.02-.05-.05-.08-.07Z"/>
  <path class="st0" d="M14.86,8.38h0s-.04-.02-.06-.02c-.02,0-.03,0-.05,0h0s-.02,0-.03.01c0,0,.01,0,.02,0,.03,0,.06.01.08.01.01,0,.02,0,.03,0,0,0,.01,0,.01,0h0s0,0,0,0h0Z"/>
  <path class="st1" d="M15.68,6.98s0,0,.01-.01c0,0,0-.01,0-.02,0,0,0,0,0-.01,0-.01-.03-.03-.06-.04-.02,0-.04-.01-.06-.01,0,0,.02.02.03.02.03.02.05.04.08.07Z"/>
  <path class="st2" d="M8.22,7.54s-.1-.04-.15-.04c-.03,0-.07,0-.1.01h0s0,0,0,0h0s-.05.01-.07.02c-.02.01-.04.02-.05.05,0,.01,0,.03,0,.04,0,.02.01.05.03.07.02.02.04.03.08.03,0,0,0,0,0,0,.04,0,.1.02.14.02.02,0,.05,0,.07,0,.02,0,.04-.02.06-.03.02-.02.04-.05.04-.08,0,0,0,0,0-.01,0-.03-.02-.05-.05-.07ZM7.99,7.59s.05,0,.08,0c.04,0,.09,0,.11.03.02.01.02.02.02.03,0,0,0,0,0,.01,0,0,0,0,0,.01,0,0-.01.01-.03.01-.01,0-.03,0-.05,0,0,0,0,0,0,0-.04,0-.08,0-.13-.02-.03,0-.04-.01-.05-.02,0,0,0,0,0,0,0,0,0,0,0-.01h0s0,0,.02-.01c.01,0,.03-.01.04-.01"/>
  <path class="st2" d="M12.49,8.58h-.01s-.05,0-.07,0c-.02,0-.04.01-.06.03-.01,0-.02.02-.03.03,0,.01-.01.03-.01.04,0,.02,0,.04.02.05.01.01.03.03.05.04.05.03.12.06.19.06.02,0,.05,0,.07-.01.02,0,.04-.02.06-.04.02-.02.03-.04.03-.07,0-.02,0-.03-.01-.05-.02-.04-.06-.06-.1-.07-.04-.01-.08-.02-.12-.02ZM12.48,8.66s.07,0,.1.02c.03.01.05.03.06.04,0,0,0,0,0,.01,0,0,0,0,0,.02,0,0-.02.01-.03.02-.01,0-.02,0-.04,0-.05,0-.11-.03-.15-.05-.01,0-.02-.02-.03-.02h0s0,0,0,0c0,0,0,0,.01-.01,0,0,.01,0,.02,0,.01,0,.03,0,.05,0h.01"/>
  <path class="st2" d="M10.11,7.48s-.07-.03-.11-.03c-.02,0-.05,0-.07,0h0s0,0-.01,0c-.01,0-.02,0-.04.01-.01,0-.03.02-.04.04,0,0,0,.02,0,.03,0,.02,0,.04.03.05.02.01.04.02.06.03.03,0,.06.01.1.01.02,0,.03,0,.05,0,.02,0,.03-.01.04-.02.02-.02.03-.04.03-.06,0,0,0-.01,0-.02,0-.02-.02-.04-.04-.05ZM10.06,7.56s-.02,0-.03,0c-.02,0-.05,0-.08-.01-.01,0-.02,0-.02,0,0,0,.02,0,.03-.01v-.04s0,.04,0,.04c.01,0,.03,0,.05,0,.03,0,.05,0,.06.01h0s0,0,0,0h0s0,0-.01.01Z"/>
  <polygon class="st6" points="7.65 6.96 7.97 6.96 8.08 6.81 7.65 6.76 7.65 6.96"/>
  <polygon class="st6" points="16.06 9.57 16.38 9.57 16.49 9.41 16.06 9.37 16.06 9.57"/>
  <polygon class="st6" points="14.1 9.32 13.67 9.27 13.67 9.47 13.99 9.47 14.1 9.32"/>
  <polygon class="st6" points="11.58 8 11.89 8 12 7.85 11.58 7.8 11.58 8"/>
  <polygon class="st6" points="11.03 5.04 10.61 5 10.61 5.2 10.92 5.2 11.03 5.04"/>
  <polygon class="st6" points="5.49 5.93 5.52 5.75 5.16 5.84 5.24 6.03 5.49 5.93"/>
  <polygon class="st6" points="4.46 9.27 4.72 9.17 4.75 8.99 4.39 9.08 4.46 9.27"/>
  <polygon class="st6" points="6.56 7.81 6.88 7.85 7.01 7.69 6.6 7.57 6.56 7.81"/>
  <polygon class="st6" points="7.1 9.32 7.06 9.09 6.65 9.21 6.79 9.37 7.1 9.32"/>
  <polygon class="st6" points="9.15 10.13 9.44 10.23 9.52 10.01 9.1 9.92 9.15 10.13"/>
  <polygon class="st6" points="13.63 7.85 13.64 7.86 13.93 7.96 14.01 7.74 13.65 7.66 13.59 7.65 13.63 7.85"/>
  <polygon class="st6" points="8.33 5.55 8.17 5.44 7.87 5.56 7.95 5.75 8.33 5.55"/>
  <polygon class="st6" points="11.08 6.41 11.15 6.59 11.54 6.39 11.37 6.29 11.08 6.41"/>
  <polygon class="st6" points="9.31 8.48 9.15 8.38 8.86 8.5 8.93 8.69 9.31 8.48"/>
  <polygon class="st6" points="3.17 8.39 3.6 8.38 3.5 8.21 3.18 8.19 3.17 8.39"/>
  <polygon class="st6" points="13.52 6.35 13.22 6.23 13.15 6.41 13.56 6.54 13.52 6.35"/>
  <polygon class="st6" points="13.67 4.99 13.42 4.89 13.36 5.04 13.7 5.14 13.67 4.99"/>
  <polygon class="st6" points="5.59 7.11 5.33 7.29 5.33 7.5 5.72 7.31 5.59 7.11"/>
  <path class="st2" d="M6.6,6.01s.04.02.06.03c.03,0,.06.01.1.01.02,0,.03,0,.05,0,.02,0,.03-.01.04-.02.02-.02.03-.04.03-.06,0-.03-.02-.05-.04-.07-.03-.02-.07-.03-.11-.03-.02,0-.05,0-.07,0h0s-.03,0-.05.02c-.01,0-.03.02-.04.04,0,0,0,.02,0,.03,0,.02,0,.04.03.05ZM6.68,5.94s.03,0,.05,0c.03,0,.05,0,.06.01h0s0,0,0,0h0s0,0,0,0c0,0,0,0-.01,0,0,0-.02,0-.03,0-.02,0-.05,0-.08-.01-.01,0-.02,0-.02,0,0,0,.02,0,.03-.01"/>
  <path class="st2" d="M9.21,6.16s.04-.05.04-.08c0-.03-.02-.07-.05-.09-.04-.03-.1-.04-.15-.04-.03,0-.07,0-.1.01h0s-.05.01-.07.02c-.02.01-.04.02-.05.05,0,.01,0,.03,0,.04,0,.02.01.05.03.07.02.02.05.03.08.04.04,0,.1.02.14.02.02,0,.05,0,.07,0,.02,0,.04-.02.06-.03ZM8.96,6.04s.05,0,.08,0c.04,0,.09,0,.11.03.02.01.02.02.02.03,0,0,0,.01-.01.02,0,0-.01.01-.03.01-.01,0-.03,0-.05,0-.04,0-.09,0-.13-.02-.03,0-.04-.01-.05-.02,0,0,0,0,0,0,0,0,0,0,0-.01h0s0,0,.02-.01c.01,0,.03-.01.04-.01"/>
  <path class="st2" d="M9.98,6.18s-.08-.02-.12-.02h-.01s-.05,0-.07,0c-.02,0-.04.01-.06.03-.01,0-.02.02-.03.03,0,.01-.01.03-.01.04,0,.02,0,.04.02.05.01.01.03.03.05.04.05.03.12.06.19.06.02,0,.05,0,.07-.01.02,0,.04-.02.06-.04.02-.02.03-.04.03-.07,0-.02,0-.03-.01-.05-.02-.04-.06-.06-.1-.07ZM9.86,6.23s.07,0,.1.02c.03.01.05.03.06.04,0,0,0,0,0,.01,0,0,0,0,0,.02,0,0-.02.02-.03.02-.01,0-.02,0-.04,0-.05,0-.11-.03-.15-.05-.01,0-.02-.02-.03-.02h0s0,0,0,0c0,0,0,0,.01-.01,0,0,.01,0,.02,0,.01,0,.03,0,.05,0h.01"/>
  <path class="st2" d="M9.75,5.83s-.07-.03-.11-.03c-.02,0-.05,0-.07,0h0s0,0,0,0h0s-.03,0-.05.02c-.01,0-.03.02-.04.04,0,0,0,.02,0,.03,0,.02,0,.04.03.05.02.01.04.02.06.03.03,0,.06.01.1.01.02,0,.03,0,.05,0,.02,0,.03-.01.04-.02.02-.02.03-.04.03-.06,0-.03-.02-.05-.04-.07ZM9.59,5.89s.03,0,.05,0c.03,0,.05,0,.06.01h0s0,0,0,0h0s0,0,0,0c0,0,0,0-.01,0,0,0-.02,0-.03,0-.02,0-.05,0-.08-.01-.01,0-.02,0-.02,0,0,0,.02,0,.03-.01"/>
  <path class="st2" d="M12.01,5.3s-.03,0-.05.02c-.01,0-.03.02-.04.04,0,0,0,.02,0,.03,0,.02,0,.04.03.05.02.01.04.02.06.03.03,0,.06.01.1.01.02,0,.03,0,.05,0,.02,0,.03-.01.04-.02.02-.02.03-.04.03-.06,0-.03-.02-.05-.04-.07-.03-.02-.07-.03-.11-.03-.02,0-.05,0-.07,0h0s0,0,0,0h0ZM12.03,5.38s.03,0,.05,0c.03,0,.05,0,.06.01h0s0,0,0,0h0s0,0,0,0c0,0,0,0-.01,0,0,0-.02,0-.03,0-.02,0-.05,0-.08-.01-.01,0-.02,0-.02,0,0,0,.02,0,.03-.01"/>
  <path class="st2" d="M11.65,5.07c.05.03.12.06.19.06.02,0,.05,0,.07-.01.02,0,.04-.02.06-.04.02-.02.03-.04.03-.07,0-.02,0-.03-.01-.05-.02-.04-.06-.06-.1-.07-.04-.01-.08-.02-.12-.02h0s-.01,0-.01,0c-.02,0-.05,0-.07,0-.02,0-.04.01-.06.03-.01,0-.02.02-.03.03,0,.01-.01.03-.01.04,0,.02,0,.04.02.05.01.01.03.03.05.04ZM11.76,4.95s.07,0,.1.02c.03.01.05.03.06.04,0,0,0,0,0,.01,0,0,0,0,0,.02,0,0-.02.01-.03.02-.01,0-.02,0-.04,0-.05,0-.11-.03-.15-.05-.01,0-.02-.02-.03-.02h0s0,0,0,0c0,0,0,0,.01-.01,0,0,.01,0,.02,0,.01,0,.03,0,.05,0h.01"/>
  <path class="st2" d="M15.77,6.96s0-.03-.01-.05c-.02-.04-.06-.06-.1-.07-.04-.01-.08-.02-.12-.02h-.01s-.03,0-.05,0c0,0-.01,0-.02,0-.02,0-.04.01-.06.03-.01,0-.02.02-.03.03,0,.01-.01.03-.01.04,0,.02,0,.04.02.05.01.01.03.03.05.04.05.03.12.06.19.06.02,0,.05,0,.07-.01.02,0,.03-.02.04-.03,0,0,.01,0,.02-.01.02-.02.03-.04.03-.07ZM15.54,6.89s.02,0,.04,0c.02,0,.04,0,.06.01.03.01.05.03.06.04,0,0,0,0,0,.01,0,0,0,0,0,.02,0,0,0,0-.01.01,0,0-.01,0-.02.01-.01,0-.02,0-.04,0-.05,0-.11-.03-.15-.05-.01,0-.02-.02-.03-.02h0s0,0,0,0c0,0,0,0,.01-.01,0,0,.01,0,.02,0,.01,0,.03,0,.05,0h.01"/>
  <path class="st2" d="M15.02,6.86s.03-.04.03-.06c0-.03-.02-.05-.04-.07-.03-.02-.07-.03-.11-.03-.02,0-.05,0-.07,0h0s-.03,0-.05.02c-.01,0-.03.02-.04.04,0,0,0,.02,0,.03,0,.02,0,.04.03.05.02.01.04.02.06.03.03,0,.06.01.1.01.02,0,.03,0,.05,0,.02,0,.03-.01.04-.02ZM14.86,6.78s.03,0,.05,0c.03,0,.05,0,.06.01h0s0,0,0,0h0s0,0,0,0c0,0,0,0-.01,0,0,0-.02,0-.03,0-.02,0-.05,0-.08-.01-.01,0-.02,0-.02,0,0,0,.02,0,.03-.01"/>
  <path class="st2" d="M15.31,8.18s-.05.01-.07.02c-.02.01-.04.02-.05.05,0,.01,0,.03,0,.04,0,.02.01.05.03.07.02.02.05.03.08.04.04,0,.1.02.14.02.02,0,.05,0,.07,0,.02,0,.04-.02.06-.03.02-.02.04-.05.04-.08,0-.03-.02-.07-.05-.09-.04-.03-.1-.04-.15-.04-.03,0-.07,0-.1.01h0ZM15.32,8.26s.05,0,.08,0c.04,0,.09,0,.11.03.02.01.02.02.02.03,0,0,0,.01-.01.02,0,0-.01.01-.03.01-.01,0-.03,0-.05,0-.04,0-.09,0-.13-.02-.03,0-.04-.01-.05-.02,0,0,0,0,0,0,0,0,0,0,0-.01h0s0,0,.02-.01c.01,0,.03-.01.04-.01"/>
  <path class="st2" d="M14.73,8.29h0s0,0,0,0h0s-.03,0-.05.02c-.01,0-.03.02-.04.04,0,0,0,.02,0,.03,0,.01,0,.03.02.04,0,0,0,0,.01.01.02.01.04.02.06.03.03,0,.06.01.1.01.02,0,.03,0,.05,0,.02,0,.03-.01.04-.02.02-.02.03-.04.03-.06,0-.03-.02-.05-.04-.07-.03-.02-.07-.03-.11-.03-.02,0-.04,0-.05,0,0,0,0,0-.01,0h0ZM14.74,8.37s.03,0,.05,0c.03,0,.05,0,.06.01h0s0,0,0,0h0s0,0,0,0c0,0,0,0-.01,0,0,0-.02,0-.03,0-.02,0-.05,0-.08-.01-.01,0-.02,0-.02,0,0,0,.02,0,.03-.01"/>
  <path class="st2" d="M16.96,8.77s-.06-.06-.1-.07c-.04-.01-.08-.02-.12-.02h0s-.01,0-.01,0c-.02,0-.05,0-.07,0-.02,0-.04.01-.06.03-.01,0-.02.02-.03.03,0,.01-.01.03-.01.04,0,.02,0,.04.02.05.01.01.03.03.05.04.05.03.12.06.19.06.02,0,.05,0,.07-.01.02,0,.04-.02.06-.04.02-.02.03-.04.03-.07,0-.02,0-.03-.01-.05ZM16.74,8.75s.07,0,.1.02c.03.01.05.03.06.04,0,0,0,0,0,.01,0,0,0,0,0,.02,0,0-.02.02-.03.02-.01,0-.02,0-.04,0-.05,0-.11-.03-.15-.05-.01,0-.02-.02-.03-.02h0s0,0,0,0c0,0,0,0,.01-.01,0,0,.01,0,.02,0,.01,0,.03,0,.05,0h.01"/>
  <path class="st2" d="M11.45,9.35s-.07-.03-.11-.03c-.02,0-.05,0-.07,0h0s0,0,0,0h0s-.03,0-.05.02c-.01,0-.03.02-.04.04,0,0,0,.02,0,.03,0,.02,0,.04.03.05.02.01.04.02.06.03.03,0,.06.01.1.01.02,0,.03,0,.05,0,.02,0,.03-.01.04-.02.02-.02.03-.04.03-.06,0-.03-.02-.05-.04-.07ZM11.3,9.4s.03,0,.05,0c.03,0,.05,0,.06.01h0s0,0,0,0h0s0,0,0,0c0,0,0,0-.01,0,0,0-.02,0-.03,0-.02,0-.05,0-.08-.01-.01,0-.02,0-.02,0,0,0,.02,0,.03-.01"/>
  <path class="st2" d="M11.01,9.64s-.08-.02-.12-.02h-.01s-.05,0-.07,0c-.02,0-.04.01-.06.03-.01,0-.02.02-.03.03,0,.01-.01.03-.01.04,0,.02,0,.04.02.05.01.01.03.03.05.04.05.03.12.06.19.06.02,0,.05,0,.07-.01.02,0,.04-.02.06-.04.02-.02.03-.04.03-.07,0-.02,0-.03-.01-.05-.02-.04-.06-.06-.1-.07ZM10.88,9.69s.07,0,.1.02c.03.01.05.03.06.04,0,0,0,0,0,.01,0,0,0,0,0,.02,0,0-.02.01-.03.02-.01,0-.02,0-.04,0-.05,0-.11-.03-.15-.05-.01,0-.02-.02-.03-.02h0s0,0,0,0c0,0,0,0,.01-.01,0,0,.01,0,.02,0,.01,0,.03,0,.05,0h.01"/>
  <path class="st2" d="M5.51,9.08h0s0,0,0,0h0s-.06.02-.09.03c-.03.01-.05.03-.07.06-.02.02-.03.05-.03.08,0,.03.01.06.03.08.02.02.05.03.08.04.05.01.11.02.17.02.06,0,.12-.01.17-.05.02-.02.04-.04.05-.06.01-.02.02-.05.02-.07,0-.03-.01-.06-.04-.09-.02-.02-.05-.04-.08-.05-.03,0-.06-.01-.1-.01-.04,0-.09,0-.13.02ZM5.53,9.18s.07-.01.1-.01c.03,0,.05,0,.07,0,.02,0,.03.01.04.02,0,0,0,.01,0,.02,0,0,0,.01,0,.02,0,0-.01.02-.03.03-.03.02-.06.03-.11.03-.05,0-.1,0-.15-.02-.02,0-.04-.01-.04-.02h0s0-.02.01-.03c0,0,.01-.01.03-.02.02,0,.04-.02.07-.02"/>
  <path class="st2" d="M5.95,8.97s.09.02.14.02c.03,0,.07,0,.1-.03.02-.02.04-.05.04-.08,0-.03-.02-.06-.04-.08-.02-.02-.05-.03-.08-.04-.03,0-.05,0-.08,0-.02,0-.04,0-.06,0h0s-.04,0-.06.02c-.02,0-.04.02-.05.05,0,.01-.01.03-.01.04,0,.02.01.05.03.07.02.02.04.03.07.04ZM5.98,8.86s.03,0,.04,0c.02,0,.04,0,.06,0,.02,0,.03.01.04.02h0s0,0,0,0h0s-.02.02-.04.02c-.03,0-.07,0-.11-.02-.01,0-.02,0-.03-.01,0,0,.02,0,.04-.01"/>
  <path class="st2" d="M4.58,7.9s-.01,0-.02,0c-.04-.02-.09-.03-.14-.03-.03,0-.07,0-.1.01h0s-.05.01-.07.02c-.02.01-.04.02-.05.05,0,.01,0,.03,0,.04,0,.02.01.05.03.07.02.02.05.03.08.04.04,0,.1.02.14.02.02,0,.05,0,.07,0,.02,0,.04-.02.06-.03.02-.02.03-.04.03-.06,0,0,0-.01,0-.02,0-.03-.02-.07-.05-.09ZM4.35,7.95s.05,0,.08,0c.04,0,.09,0,.11.03.02.01.02.02.02.03,0,0,0,.01-.01.02,0,0-.01.01-.03.01-.01,0-.03,0-.05,0-.04,0-.09,0-.13-.02-.03,0-.04-.01-.05-.02,0,0,0,0,0,0,0,0,0,0,0-.01h0s0,0,.02-.01c.01,0,.03-.01.04-.01"/>
</svg>