<?xml version="1.0" encoding="UTF-8"?>
<svg id="Livello_1" xmlns="http://www.w3.org/2000/svg" version="1.1" viewBox="0 0 20 20">
  <!-- Generator: Adobe Illustrator 30.1.0, SVG Export Plug-In . SVG Version: 2.1.1 Build 136)  -->
  <defs>
    <style>
      .st0 {
        fill: #a1a334;
      }

      .st1 {
        fill: #f9bd7e;
      }

      .st2 {
        fill: #de8e53;
      }

      .st3 {
        fill: #f4b038;
      }

      .st4 {
        fill: #ffe269;
      }

      .st5 {
        fill: #f7af61;
      }

      .st6 {
        fill: #cacd4e;
      }

      .st7 {
        fill: #a9b239;
      }

      .st8 {
        fill: #fdc53c;
      }

      .st9 {
        fill: #a45a46;
      }

      .st10 {
        fill: #8f3d37;
      }

      .st11 {
        fill: #fedaa0;
      }

      .st12 {
        fill: #783432;
      }
    </style>
  </defs>
  <path class="st5" d="M17.7,13.66c.76.67.81,2.56-.76,3.43s-4.15.91-6.94.91c-2.8,0-5.32,0-6.94-.91s-1.59-2.7-.89-3.57l15.53.14Z"/>
  <path class="st2" d="M16.94,17.09c-1.62.91-4.15.91-6.94.91s-5.32,0-6.94-.91c-.66-.37-1.04-.9-1.22-1.47.2.35.5.66.93.9,1.51.84,3.85.84,6.45.84s4.94,0,6.45-.84c.86-.48,1.19-1.29,1.18-2-2.08.83-4.4,1.09-6.86,1.09s-4.89-.28-7.01-1.15c-.4-.16-.71-.45-.9-.81.03-.05.06-.09.1-.13l14.46.13h1.08s.02.03.03.04c0,0,0,0,.01.01.02.02.04.04.06.06,0,0,0,0,.01.01,0,0,0,0,0,.01.64.76.6,2.48-.88,3.31Z"/>
  <path class="st10" d="M17.94,11.72c.06.11.09.23.12.34.02.09.03.17.04.26.08.79-.37,1.54-1.11,1.85-2.12.87-4.49,1.15-7.01,1.15s-4.89-.28-7.01-1.15c-.74-.3-1.19-1.06-1.11-1.85,0-.09.02-.18.04-.26.03-.12.06-.24.12-.35h15.92Z"/>
  <path class="st12" d="M17,14.18c-2.12.87-4.49,1.15-7.01,1.15s-4.89-.28-7.01-1.15c-.38-.16-.69-.44-.88-.78.15.13.32.24.51.32,2.08.86,4.4,1.13,6.87,1.13s4.79-.27,6.87-1.13c.69-.28,1.13-.97,1.1-1.71-2.53.33-5.17,1.07-7.45,2.38-2.47-1.42-5.34-2.17-8.05-2.46.02-.08.05-.15.09-.22h15.38s.54,0,.54,0c0,0,.04.08.04.09.04.08.06.17.08.26.02.09.03.17.04.26.08.79-.37,1.54-1.11,1.85Z"/>
  <polygon class="st12" points="18.03 11.94 18.03 11.94 18.03 11.94 18.03 11.94"/>
  <path class="st8" d="M18.15,10.7c.34.26.64.58.9.92-2.99.2-6.29.94-9.07,2.54-2.77-1.6-6.05-2.34-9.04-2.54.3-.4.66-.76,1.07-1.05l5.62-.3,10.51.43Z"/>
  <path class="st3" d="M19.05,11.63c-2.99.2-6.29.94-9.07,2.54-2.77-1.6-6.05-2.34-9.04-2.54.08-.11.16-.21.25-.31,2.8.22,5.85.93,8.44,2.42,2.66-1.53,5.83-2.25,8.7-2.44-.07-.1-.15-.19-.23-.28-.19.16-.43.28-.68.3-.62.07-1.22-.32-1.85-.28-.55.04-1.03.41-1.57.51-.81.15-1.61-.33-2.43-.41-1.4-.13-2.75.88-4.12.6-.87-.18-1.62-.86-2.51-.88-.8-.02-1.46.32-2.25.2-.29-.04-.64-.14-.85-.37.05-.04.11-.08.17-.12l5.62-.3,10.15.41h.37s.07.07.11.1c.01,0,.02.02.03.03.28.24.54.51.76.81Z"/>
  <path class="st7" d="M17.95,8.69c.37.24.63.67.62,1.11-.01.61-.53,1.18-1.14,1.24-.62.07-1.22-.32-1.85-.28-.55.04-1.03.41-1.57.51-.81.15-1.61-.33-2.43-.41-1.4-.13-2.75.88-4.12.6-.87-.18-1.62-.86-2.51-.88-.8-.02-1.6.5-2.36.26-.48-.16-1.05-.43-1.05-1.34,0-.25.16-.67.35-.98l16.06.16Z"/>
  <path class="st0" d="M18.57,9.8c-.01.61-.53,1.18-1.14,1.24-.62.07-1.22-.32-1.85-.28-.55.04-1.03.41-1.57.51-.81.15-1.61-.33-2.43-.41-1.4-.13-2.75.88-4.12.6-.87-.18-1.62-.86-2.51-.88-.8-.02-1.6.5-2.36.26-.45-.15-.99-.4-1.04-1.19.15.54.59.74.97.86.74.24,1.53-.27,2.31-.25.87.02,1.6.69,2.45.86,1.34.27,2.67-.72,4.03-.59.81.08,1.58.54,2.38.4.53-.1,1-.46,1.54-.5.61-.04,1.2.34,1.81.27.6-.06,1.1-.61,1.11-1.21,0-.17-.03-.33-.1-.49-.03.03-.07.06-.1.09-.37.28-1.28,1.13-7.94,1.13s-7.57-.85-7.94-1.13c-.12-.09-.22-.21-.29-.33.04-.08.08-.16.12-.23l15.97.16h.09c.06.04.12.09.17.13,0,0,.01.01.02.02,0,0,.02.01.02.02,0,0,0,0,0,0,.25.24.41.59.4.94Z"/>
  <path class="st5" d="M17.94,8.69c-.37.28-1.28,1.13-7.94,1.13s-7.57-.85-7.94-1.13c-.48-.37-.57-1.07-.49-1.68.2-1.55,1.24-2.92,2.56-3.76,1.32-.84,2.91-1.18,4.47-1.24.43-.02,2.37-.02,2.8,0,1.56.06,3.15.41,4.47,1.24s2.36,2.2,2.56,3.76c.08.61,0,1.31-.49,1.68Z"/>
  <path class="st11" d="M4.09,6.18c.12-.06.24-.07.36-.07.12,0,.24.02.36.07.06.03.08.1.05.15-.01.02-.03.04-.05.05-.12.06-.24.07-.36.07-.12,0-.24-.02-.36-.07-.08-.04-.08-.16,0-.21h0Z"/>
  <path class="st11" d="M5.53,4.96c.11-.06.22-.07.33-.07.11,0,.22.02.33.07.06.03.08.1.05.16-.01.02-.03.04-.05.05-.11.05-.22.07-.33.07-.11,0-.22-.02-.33-.07-.08-.04-.08-.16,0-.21h0Z"/>
  <path class="st11" d="M7.29,6.25c.11-.06.22-.07.33-.07.11,0,.22.02.33.07.06.03.08.1.05.16-.01.02-.03.04-.05.05-.11.05-.22.07-.33.07-.11,0-.22-.02-.33-.07-.08-.04-.08-.16,0-.21h0Z"/>
  <path class="st11" d="M9.65,5.23c.11-.06.22-.07.33-.07.11,0,.22.02.33.07.06.03.08.1.05.16-.01.02-.03.04-.05.05-.11.05-.22.07-.33.07-.11,0-.22-.02-.33-.07-.08-.04-.08-.16,0-.21h0Z"/>
  <path class="st11" d="M13.1,5.12c.11-.06.22-.07.33-.07.11,0,.22.02.33.07.06.03.08.1.05.16-.01.02-.03.04-.05.05-.11.05-.22.07-.33.07-.11,0-.22-.02-.33-.07-.08-.04-.08-.16,0-.21h0Z"/>
  <path class="st11" d="M15.16,6.18c.11-.06.22-.07.33-.07.11,0,.22.02.33.07.06.03.08.1.05.16-.01.02-.03.04-.05.05-.11.05-.22.07-.33.07-.11,0-.22-.02-.33-.07-.08-.04-.08-.16,0-.21h0Z"/>
  <path class="st11" d="M9.58,7.37c.11-.06.22-.07.33-.07.11,0,.22.02.33.07.06.03.08.1.05.16-.01.02-.03.04-.05.05-.11.05-.22.07-.33.07-.11,0-.22-.02-.33-.07-.08-.04-.08-.16,0-.21h0Z"/>
  <path class="st11" d="M12.54,6.71c.11-.06.22-.07.33-.07.11,0,.22.02.33.07.06.03.08.1.05.16-.01.02-.03.04-.05.05-.11.05-.22.07-.33.07-.11,0-.22-.02-.33-.07-.08-.04-.08-.16,0-.21h0Z"/>
  <path class="st11" d="M7.62,4.14c.11-.06.22-.07.33-.07.11,0,.22.02.33.07.06.03.08.1.05.16-.01.02-.03.04-.05.05-.11.05-.22.07-.33.07-.11,0-.22-.02-.33-.07-.08-.04-.08-.16,0-.21h0Z"/>
  <path class="st11" d="M11.01,3.82c.11-.06.22-.07.33-.07.11,0,.22.02.33.07.06.03.08.1.05.16-.01.02-.03.04-.05.05-.11.05-.22.07-.33.07-.11,0-.22-.02-.33-.07-.08-.04-.08-.16,0-.21h0Z"/>
  <path class="st11" d="M6,7.75c.11-.06.22-.07.33-.07.11,0,.22.02.33.07.06.03.08.1.05.16-.01.02-.03.04-.05.05-.11.05-.22.07-.33.07-.11,0-.22-.02-.33-.07-.08-.04-.08-.16,0-.21h0Z"/>
  <path class="st2" d="M17.94,8.7c-.37.28-1.28,1.13-7.94,1.13s-7.57-.85-7.94-1.13c-.17-.13-.3-.31-.38-.51.36.28,1.25,1.08,7.56,1.08s7.22-.81,7.57-1.08c.46-.35.54-1.02.47-1.6-.2-1.48-1.18-2.78-2.44-3.58-.57-.36-1.19-.62-1.84-.81,1.02.18,2,.52,2.87,1.07,1.32.84,2.36,2.2,2.56,3.76.08.61,0,1.31-.49,1.68Z"/>
  <path class="st1" d="M7.89,2.9c-.13,0-.25.02-.37.04-1.44.24-2.81,1-3.71,2.16-.06.07-.12.15-.17.23-.05.07-.11.16-.16.23-.14.21-.26.43-.37.66-.08.16-.27.23-.43.15-.17-.08-.23-.28-.14-.45.17-.3.35-.6.56-.87.08-.11.17-.22.26-.32.59-.68,1.32-1.23,2.14-1.6.72-.33,1.49-.53,2.28-.58,0,0,.05,0,.05,0h.03s.03,0,.03,0c.1,0,.18.08.18.17,0,.1-.08.18-.17.18h0Z"/>
  <path class="st9" d="M2.4,12.26c.02.21.06.41.13.61.03.1.08.21.15.28.07.07.07.19,0,.26-.08.08-.22.07-.28-.03-.12-.18-.15-.38-.18-.58-.01-.14-.02-.27-.02-.41,0-.05,0-.09,0-.14,0-.06.05-.1.11-.1.05,0,.09.04.1.09h0Z"/>
  <path class="st1" d="M2.4,14.54c-.01.21,0,.42.02.62.02.1.04.22.1.3.06.08.04.2-.04.26-.09.07-.23.03-.28-.07-.09-.19-.09-.4-.08-.61,0-.14.03-.27.05-.4,0-.05.02-.09.03-.13.01-.05.07-.09.12-.08.05.01.08.06.08.11h0Z"/>
  <circle class="st1" cx="2.54" cy="7.42" r=".36"/>
  <path class="st6" d="M1.97,9.49c.12.14.26.26.42.34.16.09.33.14.51.16.09.01.15.09.14.18-.01.1-.11.16-.2.14-.11-.03-.21-.06-.31-.11-.24-.11-.45-.28-.62-.49-.03-.04-.07-.09-.09-.13-.06-.1.08-.19.15-.1h0Z"/>
  <path class="st4" d="M1.99,11.08c1.25.07,2.49.27,3.71.6.09.02.14.11.12.2s-.11.14-.2.12c-1.18-.36-2.4-.61-3.64-.73-.05,0-.08-.05-.08-.1,0-.05.05-.08.09-.08h0Z"/>
</svg>