<?xml version="1.0" encoding="UTF-8"?>
<svg id="Livello_1" xmlns="http://www.w3.org/2000/svg" version="1.1" viewBox="0 0 20 20">
  <!-- Generator: Adobe Illustrator 30.1.0, SVG Export Plug-In . SVG Version: 2.1.1 Build 136)  -->
  <defs>
    <style>
      .st0 {
        fill: #fec713;
      }

      .st1 {
        fill: #d72228;
      }

      .st2 {
        fill: #fdc212;
      }

      .st3 {
        fill: #f8a91e;
      }

      .st4 {
        fill: #fab61d;
      }

      .st5 {
        fill: #e62c2a;
      }

      .st6 {
        fill: #ffd107;
      }
    </style>
  </defs>
  <g>
    <g>
      <rect class="st6" x="10.43" y="1.87" width="1.89" height="12.18"/>
      <rect class="st4" x="11.59" y="1.87" width=".72" height="12.18"/>
    </g>
    <g>
      <rect class="st0" x="4.65" y="1.22" width="2.08" height="13.42" transform="translate(-.68 .53) rotate(-5.08)"/>
      <rect class="st4" x="5.92" y="1.16" width=".8" height="13.42" transform="translate(-.67 .59) rotate(-5.08)"/>
    </g>
    <g>
      <rect class="st0" x="12.22" y="1.25" width="2.08" height="13.42" transform="translate(1.3 -1.85) rotate(8.37)"/>
      <rect class="st4" x="13.49" y="1.35" width=".8" height="13.42" transform="translate(1.32 -1.94) rotate(8.37)"/>
    </g>
    <g>
      <rect class="st0" x="8.26" y="1.01" width="2.08" height="13.42" transform="translate(-.08 .1) rotate(-.63)"/>
      <rect class="st4" x="9.53" y="1" width=".8" height="13.42" transform="translate(-.08 .11) rotate(-.63)"/>
    </g>
    <g>
      <rect class="st6" x="4.08" y="3.67" width="1.89" height="12.18" transform="translate(-1.31 .79) rotate(-8)"/>
      <rect class="st3" x="5.23" y="3.59" width=".72" height="12.18" transform="translate(-1.29 .87) rotate(-8)"/>
    </g>
    <g>
      <rect class="st6" x="7.32" y="3.59" width="1.89" height="12.18" transform="translate(-.15 .13) rotate(-.87)"/>
      <rect class="st3" x="8.49" y="3.58" width=".72" height="12.18" transform="translate(-.15 .14) rotate(-.87)"/>
    </g>
    <g>
      <rect class="st6" x="12.1" y="3.47" width="1.89" height="12.18"/>
      <rect class="st2" x="13.26" y="3.47" width=".72" height="12.18"/>
    </g>
    <g>
      <rect class="st6" x="5.65" y="2.17" width="1.89" height="12.18" transform="translate(.48 -.36) rotate(3.29)"/>
      <rect class="st2" x="6.81" y="2.21" width=".72" height="12.18" transform="translate(.49 -.4) rotate(3.29)"/>
    </g>
    <g>
      <rect class="st6" x="9.57" y="3.87" width="1.89" height="12.18" transform="translate(-1.28 1.56) rotate(-8)"/>
      <rect class="st2" x="10.73" y="3.79" width=".72" height="12.18" transform="translate(-1.27 1.64) rotate(-8)"/>
    </g>
    <g>
      <rect class="st6" x="13.93" y="2.91" width="1.91" height="12.34" transform="translate(1.54 -2.14) rotate(8.66)"/>
      <rect class="st3" x="15.1" y="3" width=".73" height="12.34" transform="translate(1.56 -2.22) rotate(8.66)"/>
    </g>
    <path class="st5" d="M16.48,7.29h0l-1.48.22s-1.19,1.63-5.07,1.64c-3.88-.02-5.07-1.64-5.07-1.64l-1.48-.22,1.49,10.81.76.9s1.67-.39,4.31-.46c2.64.07,4.31.46,4.31.46l.76-.9,1.49-10.81h0Z"/>
    <path class="st1" d="M14.23,19l.76-.9,1.49-10.81c-.88,4.63-4.17,9.94-6.42,11.26,2.56.08,4.17.45,4.17.45Z"/>
  </g>
  <polygon class="st3" points="9.92 10.51 10.58 12.52 12.69 12.52 10.98 13.76 11.64 15.78 9.92 14.53 8.21 15.78 8.87 13.76 7.15 12.52 9.27 12.52 9.92 10.51"/>
</svg>