<?xml version="1.0" encoding="UTF-8"?>
<svg id="Livello_1" xmlns="http://www.w3.org/2000/svg" version="1.1" viewBox="0 0 20 20">
  <!-- Generator: Adobe Illustrator 30.1.0, SVG Export Plug-In . SVG Version: 2.1.1 Build 136)  -->
  <defs>
    <style>
      .st0 {
        fill: #612b24;
      }

      .st1 {
        fill: #602a24;
      }

      .st2 {
        fill: #ccd856;
      }

      .st3 {
        fill: #4f231d;
      }

      .st4 {
        fill: #ed6a54;
      }

      .st5 {
        fill: #f9da0d;
      }

      .st6 {
        fill: #f6c707;
      }

      .st7 {
        fill: #fdec68;
      }

      .st8 {
        fill: #f6d00d;
      }

      .st9 {
        fill: #efa658;
      }

      .st10 {
        fill: #ec634c;
      }

      .st11 {
        fill: #da964b;
      }

      .st12 {
        fill: #b35e52;
      }

      .st13 {
        fill: #cadc88;
      }

      .st14 {
        fill: #733329;
      }

      .st15 {
        fill: #602a23;
      }

      .st16 {
        fill: #f9bb77;
      }

      .st17 {
        fill: #a2544b;
      }

      .st18 {
        fill: #fdee6d;
      }

      .st19 {
        fill: #ed6852;
      }

      .st20 {
        fill: #eca153;
      }

      .st21 {
        fill: #da944c;
      }

      .st22 {
        fill: #cadc87;
      }

      .st23 {
        fill: #d8944a;
      }

      .st24 {
        fill: #f6c409;
      }

      .st25 {
        fill: #fbda0f;
      }

      .st26 {
        fill: #da934a;
      }

      .st27 {
        fill: #9f5847;
      }

      .st28 {
        fill: #cadc86;
      }

      .st29 {
        fill: #b3cf58;
      }

      .st30 {
        fill: #d89249;
      }

      .st31 {
        fill: #e29545;
      }

      .st32 {
        fill: #dc964d;
      }

      .st33 {
        fill: #85453d;
      }

      .st34 {
        fill: #743129;
      }

      .st35 {
        fill: #fae10e;
      }

      .st36 {
        fill: #e6a056;
      }

      .st37 {
        fill: #dc974e;
      }

      .st38 {
        fill: #da954c;
      }

      .st39 {
        fill: #5cb130;
      }

      .st40 {
        fill: #602b24;
      }

      .st41 {
        fill: #ccdb73;
      }

      .st42 {
        fill: #50231d;
      }

      .st43 {
        fill: #d0873a;
      }

      .st44 {
        fill: #cb8032;
      }

      .st45 {
        fill: #8cbe23;
      }

      .st46 {
        fill: #ba5f56;
      }

      .st47 {
        fill: #f6c30a;
      }

      .st48 {
        fill: #cf873a;
      }

      .st49 {
        fill: #e22b13;
      }

      .st50 {
        fill: #e9eebf;
      }

      .st51 {
        fill: #dc964b;
      }

      .st52 {
        fill: #e59849;
      }

      .st53 {
        fill: #c46459;
      }

      .st54 {
        fill: #e49e56;
      }

      .st55 {
        fill: #f6ca09;
      }

      .st56 {
        fill: #da934b;
      }

      .st57 {
        fill: #e6381f;
      }
    </style>
  </defs>
  <path class="st16" d="M14.29,3.51s.02.07.03.1c.03.08.04.16.04.25,0,.26-.02.51-.04.76-.01.13,0,.25-.02.38-.02.18-.02.36-.03.54-.02.29-.04.58-.06.87,0,.12,0,.25-.02.37-.02.19-.02.38-.03.57-.02.28-.04.56-.06.84,0,.13-.01.26-.02.39-.02.31-.03.63-.05.94-.02.36-.05.71-.07,1.07-.01.24-.04.49-.04.73,0,.03,0,.05-.02.07,0,0,0,0,0,0,0,0-.01,0-.01,0-.08.25-.21.48-.33.72-.3.59-.67,1.13-1.12,1.62-.39.43-.83.79-1.35,1.04-.3.14-.61.24-.94.25-.53.02-.98-.18-1.34-.58-.13-.15-.25-.3-.32-.49-.02-.25,0-.5,0-.74-.01-1.24.11-2.47.34-3.69.18-.94.44-1.86.84-2.74.16-.35.33-.69.54-1.01.46-.73,1.02-1.35,1.76-1.8.5-.3,1.03-.47,1.61-.54.19-.02.38-.04.56,0,.02,0,.04,0,.06,0,.04.02.06.06.1.08Z"/>
  <path class="st16" d="M6.77,14.29c-.04-.08-.02-.16-.03-.25-.03-.16-.03-.32-.05-.48-.03-.25-.06-.5-.08-.75-.02-.16-.03-.32-.05-.48-.03-.26-.06-.51-.08-.77-.02-.16-.03-.32-.05-.48-.03-.25-.06-.5-.08-.75-.02-.16-.03-.33-.05-.49-.03-.25-.05-.49-.08-.74-.02-.16-.03-.33-.05-.49-.03-.25-.06-.51-.08-.76-.02-.17-.03-.33-.05-.5-.03-.24-.05-.48-.08-.73-.02-.16-.03-.33-.05-.49-.03-.25-.06-.51-.08-.76-.02-.16-.03-.33-.05-.49-.01-.14-.04-.27-.05-.41,0-.04-.02-.05-.06-.05-.03,0-.06,0-.09,0,.13-.05.14-.18.18-.28.2-.49.6-.75,1.13-.77.57-.02,1.08.17,1.56.45.69.41,1.24.96,1.66,1.64.03.04.06.09.04.14-.01.03-.03.05-.05.07-.54.47-.92,1.06-1.21,1.71-.49,1.09-.75,2.24-.89,3.41-.06.46-.09.91-.11,1.37-.03.47-.01.93-.01,1.4,0,.15.02.31.02.46,0,.28-.08.53-.22.76-.13.21-.32.24-.5.08-.16-.14-.26-.33-.35-.52-.01-.02,0-.05-.04-.06Z"/>
  <path class="st9" d="M8.51,13.96c.05.07.09.15.14.22.17.28.41.49.69.63.17.09.36.16.56.16.06,0,.11.03.17.02.28-.01.55-.07.82-.17.37-.15.7-.36,1-.61.14-.12.29-.24.41-.37.35-.38.67-.79.94-1.23.17-.28.32-.58.47-.88.06-.13.12-.27.18-.4.02.02,0,.05.02.07,0,.35-.04.71-.06,1.06,0,.13-.01.27-.02.4-.02.3-.03.6-.05.89-.02.38-.05.76-.07,1.15,0,.02,0,.03-.01.05-.03-.02-.02-.05-.01-.07-.19.63-.48,1.2-.91,1.69-.36.41-.78.73-1.29.93-.27.11-.55.17-.85.19-.52.03-.97-.1-1.38-.41-.24-.18-.42-.41-.57-.67-.05-.24-.06-.48-.09-.73-.05-.52-.08-1.05-.11-1.58,0-.12-.03-.24.03-.35Z"/>
  <path class="st52" d="M8.7,16.64c.09.1.15.22.23.32.13.16.29.3.46.41.24.15.49.25.77.29.13.02.26.04.4.01.11-.02.22,0,.33-.02.2-.04.39-.09.58-.17.19-.08.36-.17.53-.28.14-.09.26-.19.38-.29.07-.06.14-.11.2-.17.25-.27.47-.56.65-.88.18-.31.31-.64.42-.97,0-.02.01-.03.03-.07,0,.06,0,.1,0,.13,0,.24-.02.48-.04.72,0,.13-.02.27-.03.4-.02.3-.03.61-.02.91,0,.25-.08.46-.21.65-.16.25-.37.44-.61.63-.4.32-.86.49-1.36.58-.4.07-.8.1-1.21.09-.1,0-.2,0-.3.02-.22.02-.44-.02-.67-.04-.05,0-.09-.03-.13-.04-.1-.08-.14-.19-.16-.31-.11-.59-.2-1.18-.27-1.78,0-.05-.02-.1.02-.14Z"/>
  <path class="st31" d="M8.7,16.64c0,.11.02.21.04.31.02.13.03.26.05.39.03.17.06.35.08.52.03.24.08.47.12.71.01.1.03.2.13.27.02.01,0,.03,0,.04-.28.03-.55.02-.82-.07-.4-.12-.76-.31-.97-.7-.1-.19-.17-.4-.19-.62-.01-.15-.03-.31-.08-.46-.04-.11-.04-.24-.05-.36-.04-.32-.07-.65-.1-.97-.01-.12-.04-.25-.03-.37-.02-.05,0-.11-.02-.16,0-.01,0-.03,0-.04.08,0,.08.07.09.12.06.23.12.46.24.67.04.08.09.15.15.21.19.18.38.16.52-.06.13-.21.21-.43.26-.67.04-.18.06-.37.05-.56-.02-.49-.02-.97,0-1.46.04-1.14.15-2.28.35-3.41.18-.98.41-1.95.81-2.86.2-.46.44-.9.77-1.28.03-.03.05-.06.07-.1.04-.03.05,0,.06.03-.18.3-.35.61-.5.92-.11.24-.21.48-.3.73-.17.46-.31.92-.43,1.4-.09.39-.17.78-.24,1.17-.05.28-.08.56-.12.84-.02.17-.03.34-.05.51-.03.23-.03.47-.06.71,0,.01,0,.02,0,.03-.01.42-.03.84-.02,1.26,0,.21,0,.42,0,.64-.01.28.02.56.03.84,0,.21.03.41.04.62.02.24.04.48.07.72.02.16.02.33.06.49Z"/>
  <path class="st20" d="M10.2,5.71s0,.06-.03.09c-.25.29-.45.6-.63.94-.22.42-.38.87-.53,1.32-.15.47-.26.95-.36,1.42-.07.33-.13.66-.18,1-.04.24-.07.49-.1.73-.02.21-.05.42-.07.63-.01.18-.03.35-.05.53-.01.11,0,.23-.02.34-.02.17,0,.34-.02.5-.03.28-.01.57-.02.85,0,.23,0,.47,0,.7,0,.06,0,.12.02.18.02.07,0,.15-.02.23-.05.27-.11.53-.24.78-.03.06-.06.12-.1.17-.16.19-.3.21-.5.05-.15-.12-.22-.3-.3-.47-.07-.16-.11-.34-.15-.51,0-.03-.01-.06-.05-.08-.03-.08-.02-.16-.03-.24-.02-.2-.05-.39-.06-.59,0,0,0-.05.03-.02.04.07.08.15.11.22.07.13.15.25.26.35.03.03.07.06.11.07.13.06.25.03.33-.09.15-.23.25-.48.24-.76-.02-.55-.03-1.11-.02-1.66,0-.21,0-.41.03-.62.02-.11.01-.22.02-.34.01-.24.04-.48.07-.73.06-.47.14-.95.25-1.41.08-.35.18-.71.29-1.05.09-.28.2-.55.32-.81.16-.35.34-.69.56-1.01.21-.31.46-.58.74-.81,0,0,.01-.02.02-.03.05.02.09.05.06.11Z"/>
  <path class="st45" d="M13.57,1.57c.15.13.27.28.31.48-.17-.01-.33-.06-.49-.13-.13-.05-.26-.12-.39-.19-.17-.12-.33-.27-.54-.32-.28-.06-.55,0-.8.11-.22.1-.44.1-.66.03-.08-.03-.17-.05-.25-.08-.2-.07-.4-.08-.61-.06-.21.01-.41.07-.61.13-.29.09-.59.1-.89.04-.25-.05-.5-.05-.74.07-.05.03-.1.03-.16.03-.16-.03-.32-.02-.49,0-.31-.03-.59.04-.84.23-.07.02-.14,0-.22,0-.19.01-.35.11-.5.2-.21.06-.39.15-.49.37,0,.02-.02.08-.07.04.01-.33.26-.65.59-.74.17-.05.29-.13.41-.26.26-.27.59-.39.98-.34.18.02.36.1.55.06.14-.03.27-.08.41-.12.16-.05.32-.11.5-.13.13-.02.25-.01.36.05.17.1.35.11.54.06.17-.04.35-.07.53-.09.16-.01.32-.01.47.06.28.13.56.14.84.05.33-.11.64-.06.95.1.23.12.49.14.75.17.19.02.39.04.54.18Z"/>
  <path class="st45" d="M5.78,4.16c-.02.07-.05.13-.06.2,0,.06-.03.08-.08.07-.02,0-.04,0-.06,0-.04,0-.08,0-.12,0-.29-.02-.45-.28-.32-.55.06-.09.14-.17.24-.23.22-.15.36-.35.4-.61.02-.16.1-.29.22-.39.14-.12.33-.12.47,0,.05.04.09.09.14.13.16.13.34.15.52.05.06-.03.12-.06.19-.08.09-.02.16,0,.21.07.03.05.07.1.12.14.1.06.2.04.29-.02.07-.04.14-.09.22-.12.22-.09.39-.05.53.23.03.07.06.14.08.22.07.24.22.37.46.41.1.01.2.03.3.04.11.01.19.08.24.17.06.11.1.22.14.33.01.04.01.08.03.12,0,.02.01.04.02.05.06.08.15.13.24.17.06.05.13.08.21.11.04.01.07.03.08.07,0,.07.06.09.11.11.05.1.03.2,0,.3-.01.06-.05.08-.1.03-.07-.07-.15-.11-.24-.14-.09-.03-.16-.1-.21-.18-.08-.15-.19-.25-.34-.33-.13-.07-.25-.17-.31-.31-.09-.19-.27-.26-.45-.32-.16-.06-.28-.15-.38-.28-.13-.16-.3-.25-.52-.2-.12.02-.21,0-.3-.11-.15-.19-.36-.2-.57-.13-.11.04-.2.04-.31-.03-.12-.07-.25-.05-.37,0-.11.04-.21.09-.3.16-.05.05-.12.08-.19.08-.1.01-.17.07-.21.16-.1.2-.14.4,0,.6Z"/>
  <path class="st50" d="M13.57,1.57c-.17-.12-.36-.15-.55-.16-.3-.01-.59-.09-.86-.22-.21-.1-.44-.13-.67-.07-.15.04-.3.08-.46.09-.13.02-.26,0-.38-.06-.3-.14-.62-.12-.93-.06-.11.02-.23.04-.34.06-.11.02-.22,0-.32-.05-.21-.12-.43-.11-.65-.04-.19.06-.37.12-.55.18-.17.06-.34.07-.52.01-.32-.1-.63-.04-.92.11-.1.05-.19.11-.25.2-.09.13-.21.2-.36.23-.24.05-.41.21-.53.41-.06.1-.09.21-.1.32.05.12.05.23,0,.35-.06-.12-.06-.25-.04-.37.02-.22.11-.41.27-.57.1-.1.22-.16.35-.19.16-.04.29-.11.38-.25.09-.13.22-.2.36-.25.18-.08.38-.12.58-.1.06,0,.13.02.19.04.21.08.42.04.63-.03.19-.06.37-.13.56-.18.19-.05.37-.04.54.06.16.09.32.07.49.03.23-.05.46-.09.7-.08.11,0,.21.03.31.06.08.03.17.06.25.09.13.05.27.01.4,0,.13-.02.26-.06.38-.08.19-.04.38-.01.56.06.17.07.34.16.52.19.09.02.18.03.27.04.17.02.35.02.51.09.07.03.15.06.19.14Z"/>
  <path class="st22" d="M7.61,2.97c-.06-.03-.09-.09-.12-.14-.05-.08-.09-.1-.18-.07-.06.02-.12.05-.18.08-.22.11-.42.08-.6-.09-.02-.02-.04-.03-.05-.05-.06-.09-.15-.1-.25-.12-.06-.01-.11,0-.16.04-.14.1-.24.23-.26.41-.02.11-.06.2-.09.3-.01.05-.04.08-.08.12-.15.16-.33.29-.5.42.01-.1.1-.15.17-.22.05-.05.13-.08.16-.15.09-.14.14-.29.15-.45.01-.14.06-.26.15-.37,0-.01.02-.03.03-.04.25-.22.49-.26.74-.13.09.05.13.13.2.2.09.09.09.09.21,0,.24-.17.52-.12.66.13.02.03.04.06.03.1,0,.02-.01.03-.04.03Z"/>
  <path class="st39" d="M5.18,2.88c0-.12-.02-.23,0-.35.02-.01.02-.04.03-.06.07-.16.18-.27.34-.33.05-.02.1-.06.16-.05,0,.04-.02.06-.04.09-.22.25-.28.55-.25.87,0,.02,0,.04,0,.07,0,.07.04.13-.01.2-.11-.09-.17-.21-.21-.34,0-.03-.02-.06-.02-.08Z"/>
  <path class="st39" d="M13.03,1.72c.08.03.16.07.23.11.15.09.32.13.49.17.05.01.09.03.13.05.04.07.09.13.15.18.17.15.32.32.38.55.03.11.05.23.02.35-.01.05-.03.1-.07.13-.02-.01-.03-.03-.04-.05,0-.2-.09-.37-.19-.53-.04-.07-.07-.15-.1-.22-.11-.22-.27-.38-.51-.44-.15-.04-.29-.13-.43-.2-.04-.02-.07-.04-.08-.09,0,0,0,0,0-.01Z"/>
  <path class="st1" d="M5.41,3.31c0-.07-.03-.14-.02-.21.01-.21.13-.36.28-.48.03-.03.07-.07.11-.04.04.03.01.07,0,.11-.1.14-.15.28-.16.45,0,.09-.04.18-.08.27-.02.04-.04.08-.09.09-.02-.06-.03-.13-.05-.19Z"/>
  <path class="st40" d="M14.34,3.21s.01.03.02.05c-.02.08-.03.17-.07.24-.06.01-.08-.02-.09-.07-.02-.05,0-.1,0-.15,0-.11-.03-.2-.14-.24-.02,0-.04-.02-.05-.04-.04-.12-.1-.22-.2-.3-.02-.02-.05-.05-.05-.08.04-.07.08-.02.12,0,.22.12.36.3.44.53,0,.02,0,.05.03.07Z"/>
  <path class="st20" d="M6.86,15.17s.02.1.02.16c-.03-.05-.02-.1-.02-.16Z"/>
  <path class="st39" d="M5.78,4.16c-.14-.09-.14-.22-.12-.36.02-.1.06-.2.11-.3.04-.08.11-.13.2-.13.08,0,.14-.04.2-.09.16-.12.33-.21.54-.2.07,0,.13.01.18.06.06.06.13.06.21.02.17-.07.35-.09.52.01.06.04.11.08.14.13.04.06.09.09.16.08.03,0,.06,0,.09,0,.25-.06.43.05.58.24.08.1.17.18.29.22.1.03.19.07.28.12.1.05.19.13.24.24.07.16.2.24.33.32.12.07.23.14.29.27.04.07.08.15.16.19.02.01.04.03.07.04.11.03.21.08.28.2.06-.12.03-.24.03-.35-.02-.05.02-.08.05-.11.08-.09.18-.16.29-.21.23-.09.39-.25.52-.45.05-.09.11-.17.16-.26.07-.11.17-.17.29-.2.03,0,.06-.02.09-.02.22,0,.35-.14.45-.31.06-.12.15-.2.28-.24.13-.04.24-.01.33.09.06.08.13.1.23.09.17-.02.26.05.31.22-.34.05-.68.12-1.01.25-.64.26-1.18.66-1.64,1.17-.25.27-.47.57-.67.88-.01-.01-.02-.03-.04-.04-.01-.04-.04-.08-.06-.11-.09-.19-.21-.35-.33-.51-.46-.6-1.02-1.08-1.7-1.4-.4-.19-.83-.31-1.28-.27-.25.02-.47.09-.67.24-.13.09-.22.23-.29.36-.03.05-.05.1-.07.15Z"/>
  <path class="st45" d="M13.55,3.45s-.08-.08-.11-.14c-.05-.08-.13-.07-.2-.06-.12.03-.19-.01-.26-.11-.06-.08-.15-.11-.24-.09-.13.02-.24.1-.31.22-.05.1-.12.18-.19.25-.06.07-.16.06-.24.08-.05.01-.11.01-.16.03-.09.03-.17.07-.23.16-.09.15-.18.3-.29.44-.11.13-.24.23-.4.3-.15.07-.29.16-.37.31-.11,0-.11,0-.13-.11,0-.02-.01-.04-.04-.04-.05,0-.09-.05-.14-.05-.04,0-.06-.07-.1-.08.13-.06.22.01.31.09.02.02.04.05.05.08,0-.03-.04-.05-.04-.08.07-.22.19-.41.4-.52.13-.07.23-.17.32-.29.03-.05.07-.1.1-.15.1-.16.19-.31.34-.43.08-.07.17-.09.27-.08.23.03.26.02.36-.19.04-.09.09-.18.13-.26.11-.22.37-.26.55-.1.03.02.05.04.07.07.07.08.16.09.26.06.17-.05.24-.03.32.13.06.12.16.17.28.17.01,0,.03,0,.04,0,.21-.02.34.08.25.38-.17-.03-.35-.03-.53,0-.03,0-.06,0-.09,0Z"/>
  <path class="st13" d="M14.16,3.45c0-.06,0-.12,0-.19,0-.1-.06-.16-.16-.16-.05,0-.1,0-.15,0-.13,0-.23-.05-.28-.17-.01-.03-.03-.06-.05-.08-.06-.08-.12-.09-.21-.06-.14.06-.25.04-.34-.08-.06-.08-.14-.11-.23-.13-.14-.03-.24.02-.31.15-.04.08-.08.16-.12.25-.02.04-.03.07-.05.11-.07.14-.16.18-.32.15-.03,0-.06-.01-.1-.02-.07-.01-.13.02-.19.06-.13.1-.22.23-.3.37-.01.03-.03.05-.05.07-.03,0-.04-.02-.04-.04,0-.09.06-.16.11-.24.08-.14.21-.24.35-.32.09-.05.19-.06.28,0,.07.04.12.02.15-.05.05-.1.08-.2.12-.3.09-.23.26-.33.48-.33.09,0,.15.04.22.09.04.03.09.06.11.1.05.07.11.08.18.04.18-.05.38.03.46.19.04.08.09.13.18.1.04,0,.08,0,.11.03,0,0,0,0,0,0,.22.1.26.21.18.44-.01,0-.02,0-.03.01Z"/>
  <path class="st30" d="M12.82,8.54c.17-.03.31.17.31.32,0,.17-.12.29-.3.29-.19,0-.3-.14-.31-.32,0-.17.16-.32.29-.3Z"/>
  <path class="st23" d="M12.11,6.46c-.15.01-.29-.14-.29-.29,0-.16.13-.29.3-.3.15,0,.3.15.29.3-.01.15-.11.29-.3.29Z"/>
  <path class="st23" d="M10.81,8.73c0,.11-.07.18-.17.18-.12,0-.2-.07-.2-.18,0-.11.09-.21.21-.21.11,0,.17.08.17.21Z"/>
  <path class="st26" d="M13.51,11.88c0,.1-.07.17-.17.17-.1,0-.18-.07-.17-.16,0-.09.1-.17.19-.17.08,0,.15.08.15.16Z"/>
  <path class="st38" d="M10.98,11.24c0,.1-.05.15-.16.15-.11,0-.17-.05-.17-.15,0-.08.07-.16.16-.16.09,0,.17.06.17.16Z"/>
  <path class="st11" d="M9.99,12.71s-.08-.04-.08-.08c0-.04.07-.1.12-.09.03,0,.07.04.07.07,0,.04-.07.09-.11.09Z"/>
  <path class="st51" d="M12.17,10.03s-.04.09-.09.09c-.05,0-.08-.02-.08-.07,0-.05.04-.09.09-.09.05,0,.08.02.08.06Z"/>
  <path class="st54" d="M12.37,7.32s-.03.08-.07.08c-.05,0-.06-.03-.07-.07,0-.04.04-.08.08-.08.03,0,.05.03.06.07Z"/>
  <path class="st21" d="M7.39,9.22c-.18.02-.31-.15-.31-.28,0-.15.13-.29.3-.29.16,0,.31.15.3.29-.02.17-.12.28-.29.28Z"/>
  <path class="st56" d="M7.07,6.59c-.1,0-.18-.07-.18-.16,0-.09.1-.2.19-.2.08,0,.17.08.17.17,0,.12-.07.2-.18.2Z"/>
  <path class="st51" d="M7.45,12.32s-.05.08-.14.1c-.05.01-.09,0-.11-.05-.01-.03,0-.06.02-.08.02-.03.14-.05.17-.04.03.01.05.03.05.06Z"/>
  <path class="st37" d="M7.47,10.42s-.05.08-.1.08c-.05,0-.09-.04-.09-.09,0-.05.05-.09.09-.09.05,0,.1.05.1.1Z"/>
  <path class="st32" d="M8.05,7.14s-.11-.05-.11-.09c0-.04.04-.08.09-.08.05,0,.09.05.09.1,0,.04-.02.07-.06.07Z"/>
  <path class="st43" d="M9.6,16.72c.2-.02.31.16.3.29,0,.19-.14.31-.31.3-.18,0-.3-.13-.3-.29,0-.15.09-.31.3-.3Z"/>
  <path class="st48" d="M11.92,15.82c-.08,0-.16-.08-.16-.16,0-.1.09-.19.19-.19.1,0,.16.06.16.16,0,.1-.1.19-.19.19Z"/>
  <path class="st43" d="M12.43,14.18s0,.02-.01.03c-.02.03-.12.07-.16.06-.03-.01-.06-.03-.06-.07,0-.03.02-.06.04-.07.03-.01.07-.02.1-.03.04,0,.08.04.08.08Z"/>
  <path class="st44" d="M8.09,16.46c0,.06-.04.11-.09.11-.05,0-.08-.02-.08-.07,0-.05.04-.1.09-.11.05,0,.08.02.08.06Z"/>
  <path class="st36" d="M7.31,16.28s.04.05.02.08c-.04-.02-.04-.05-.02-.08Z"/>
  <path class="st34" d="M5.79,2.69s0-.06,0-.1c-.02,0-.03,0-.04,0-.12.11-.24.21-.29.37-.01.04-.02.09-.05.13-.04-.18-.01-.36.03-.54.04-.19.15-.34.28-.47.21-.18.45-.24.72-.2.06-.02.12,0,.18,0,.11.02.21,0,.31-.07.1-.09.21-.15.35-.17.09,0,.17-.03.26-.02.08,0,.17.01.25.03.06.02.14,0,.18.09-.01.05-.06.06-.1.07-.1.03-.2.08-.3.13-.03,0-.05,0-.08,0-.2-.03-.37,0-.51.17-.1.12-.23.16-.39.1-.24-.09-.56-.03-.68.27-.04.06-.03.13-.06.19,0,0-.01.02-.02.02Z"/>
  <path class="st39" d="M7.94,1.75c-.06-.03-.11-.06-.17-.08.1,0,.17-.05.26-.08.09-.03.18-.05.28-.05.14,0,.27.01.41.04.2.03.4.04.61,0,.13-.02.25-.06.37-.1.11-.04.22-.06.34-.07.09,0,.19-.02.28-.02.17,0,.33.02.49.08.11.04.23.08.34.1.16.03.32.03.48-.05.19-.1.39-.14.6-.15.19,0,.38.04.53.16.09.07.19.12.27.21,0,0,0,0,0,0-.05.02-.09-.02-.13-.05-.2-.13-.41-.21-.65-.21-.24,0-.48.05-.68.2-.05.04-.1.09-.16.12-.07.01-.12-.05-.18-.06-.05-.02-.1-.03-.15-.03-.16-.02-.31-.06-.45-.13-.18-.09-.36-.08-.54-.01-.19.08-.37.12-.58.1-.14-.02-.29,0-.44.03-.11.01-.21.07-.31.1-.07,0-.14-.02-.21-.03-.06,0-.12,0-.18.01-.1,0-.19.03-.29.03-.05,0-.11,0-.14-.05Z"/>
  <path class="st39" d="M7.26,1.66c-.14.07-.28.15-.4.25-.04.03-.08.04-.13.04-.1,0-.2-.03-.3-.05.13-.09.26-.18.42-.21.14-.02.27-.03.41-.02Z"/>
  <path class="st47" d="M9.89,4.35s-.02-.09-.03-.13c-.01-.11-.04-.21-.06-.31,0-.02,0-.04-.01-.06,0,0,0-.02-.01-.03,0,0,0-.02,0-.03,0-.01,0-.02.01-.03.06-.04.12,0,.17.01.24.09.48.2.72.29.01,0,.02.02.03.03,0,.01,0,.02,0,.03,0,.01,0,.02-.01.03-.09.12-.17.24-.22.37-.02.05-.06.08-.11.05-.1-.07-.22-.1-.34-.11-.03,0-.06-.02-.09-.05-.02-.02-.04-.04-.05-.06Z"/>
  <path class="st22" d="M9.82,3.87c.03.11.05.23.04.35-.05-.11-.08-.22-.13-.32-.05-.1-.12-.15-.24-.17-.15-.02-.3-.03-.44-.08-.17-.06-.28-.19-.33-.36-.03-.09-.06-.17-.09-.26-.03-.08-.09-.14-.16-.19-.07-.05-.14-.06-.22-.04-.11.03-.21.07-.3.14-.07.05-.15.08-.23.07-.04,0-.08-.01-.11-.05,0,0,.01-.02.02-.02.11.03.17-.06.24-.11.08-.05.17-.07.26-.1.1-.03.19-.02.29-.02.08,0,.14.06.19.11.06.06.12.12.16.19.06.11.11.21.14.33.03.11.11.18.22.21.11.03.22.04.33.06.11.02.24.03.3.16,0,0,0,.01,0,.02,0,0,.01.02.02.02h0s0,.03.02.04Z"/>
  <path class="st28" d="M9.93,4.4s.07.03.1.04c.14.01.26.05.38.15.08-.16.15-.32.26-.44,0,0,.01-.02.02-.02h0s0-.01.01-.02c0,0,.02-.01.03-.02,0,0,.02,0,.02,0,.02,0,.03-.01.05-.02,0,0,.02,0,.03,0,.04-.01.08-.04.13-.06,0,0,.02-.01.02-.02,0,0,0,0,.01,0,.07-.04.1-.13.19-.14.02,0,.03.01.02.03-.07.13-.17.23-.31.3-.15.07-.25.19-.32.33-.03.06-.06.12-.09.18,0,.02,0,.03-.03.03-.09-.08-.19-.11-.31-.11-.1-.03-.19-.08-.24-.17,0,0,.02-.01.02,0Z"/>
  <path class="st2" d="M9.93,4.4s-.02,0-.02,0c-.02-.01-.02-.03-.02-.05.02.01.04.02.04.04Z"/>
  <path class="st17" d="M7.47,1.92s.05.01.07.02c.07-.03.13,0,.19.03.03.05-.01.07-.04.09-.06.04-.12.09-.19.13-.08.05-.15.12-.23.17-.02.01-.03.02-.05.03,0,0-.01.01-.02.02-.12.11-.26.19-.39.3-.02.02-.05.04-.09.03-.02-.02-.05-.05-.07-.07-.18-.22-.43-.26-.68-.13-.06.04-.12.08-.17.13,0-.07,0-.14.04-.2.23-.13.48-.07.72-.04.13.02.24,0,.35-.08.19-.14.37-.28.56-.42Z"/>
  <path class="st24" d="M6.73,2.74c.12-.09.25-.19.37-.28.03-.03.07-.05.11-.07,0,0,.02.01.02.02.05.09.13.15.22.19.11.05.22.11.33.16.05.02.1.04.09.12-.03.03-.07.06-.1.09-.05.04-.09.04-.14,0-.08-.19-.24-.31-.42-.31-.05,0-.09.02-.14.04-.05.02-.09.06-.14.09-.11.08-.11.08-.2-.03Z"/>
  <path class="st34" d="M11.4,1.79c.17-.2.4-.3.66-.33.33-.04.62.04.89.23.02.02.05.03.07.05.15.12.32.2.5.26.15.04.28.12.39.23.05.05.09.11.12.18.08.15.15.3.23.45.06.12.09.24.09.37-.05-.04-.06-.1-.09-.15-.09-.2-.23-.35-.43-.45-.02,0-.04-.02-.06,0-.06,0-.06-.06-.09-.08-.03-.04-.07-.08-.1-.13-.17-.24-.41-.36-.7-.39-.07,0-.14-.02-.21-.03-.16-.04-.32-.09-.48-.09-.28-.01-.54.07-.77.23,0,0,0,0-.01.01,0,0-.02.01-.03.02-.11.1-.23.18-.36.25-.1.06-.19.15-.28.22-.04.04-.06.1-.12.11-.08,0-.14.08-.23.05-.01-.03,0-.05,0-.07.15-.26.28-.53.54-.71.14-.09.3-.15.47-.2Z"/>
  <path class="st17" d="M10.61,2.71c.05-.02.06-.09.11-.11.11-.06.19-.14.28-.22,0,0,.01-.02.02-.02.13-.05.23-.14.33-.24,0,0,.01,0,.02,0h0c.39-.24.8-.29,1.24-.15.21.1.42.22.63.33.15.09.29.19.46.24.03.02.03.07.06.09.03.05.08.09.12.12.07.07.12.15.12.24-.06,0-.13,0-.19,0-.05,0-.08,0-.09-.06-.05-.17-.18-.22-.33-.26-.05-.01-.1.02-.15.02-.09-.15-.19-.3-.35-.39-.29-.17-.59-.2-.91-.17-.05,0-.09,0-.14.01-.37.05-.65.26-.89.53-.12.13-.2.29-.31.42-.07,0-.13-.03-.17-.09.02-.11.04-.22.15-.29Z"/>
  <path class="st41" d="M11.21,3.85s-.02-.02-.02-.02c0-.07.01-.13.09-.15,0,.02,0,.04.02.05-.02.05-.05.09-.09.13Z"/>
  <path class="st29" d="M10.46,4.68s.02-.02.03-.03c.03.04.06.08.05.14l-.08-.11Z"/>
  <path class="st57" d="M11.84,2.12s.09-.02.13,0c.27-.01.53.04.76.18.09.05.16.12.22.19.02.02.05.04,0,.07-.07-.04-.14-.09-.22-.09-.19,0-.32.08-.41.23-.03.05-.05.11-.07.17-.03.09-.07.19-.12.27-.04.06-.06.06-.12.02-.11-.07-.21-.06-.32,0-.13.07-.24.17-.32.3-.13,0-.24-.06-.33-.15.05-.14.17-.22.28-.3.13-.1.27-.18.41-.26.1-.06.16-.13.19-.24.03-.11.03-.21-.07-.29-.02-.02-.08-.05-.02-.09Z"/>
  <path class="st8" d="M11.05,3.3c.1.07.21.11.32.16-.04.07-.08.14-.1.22-.04.05-.06.1-.09.15-.06.04-.11.11-.18.15-.08-.05-.17-.07-.25-.1-.04-.02-.09-.03-.11-.08,0-.03.01-.05.03-.06,0,0,.02-.01.03-.02.01,0,.02-.02.04-.03.09-.08.14-.19.2-.29.02-.04.04-.07.08-.1,0,0,.02,0,.03,0Z"/>
  <path class="st4" d="M12.96,2.55s0-.02,0-.03c-.15-.18-.35-.29-.58-.35-.12-.03-.23-.05-.36-.04-.02,0-.04,0-.06-.02,0,0,.01-.01.02-.01.2,0,.39-.02.59.03.17.05.32.12.46.23.11.09.19.19.21.33-.11.05-.11.05-.18-.04-.03-.04-.07-.07-.11-.11Z"/>
  <path class="st53" d="M7.47,1.92s.02.03,0,.04c-.23.16-.43.35-.67.49-.07.04-.14.02-.21.02-.16-.02-.32-.04-.47-.05-.08,0-.15.04-.21.07-.02.01-.05.03-.05-.02.09-.2.23-.29.45-.31.11,0,.2,0,.3.04.11.05.2.02.29-.05.03-.02.05-.05.08-.08.13-.14.29-.17.47-.15.01,0,.03,0,.04,0Z"/>
  <path class="st15" d="M7.74,1.99c-.07-.02-.13-.03-.2-.05.05-.06.13-.08.19-.11.07-.03.14-.03.2-.08.09.03.18.03.28,0,.05-.01.11,0,.16-.01.06,0,.13.02.19.05.22.1.46.18.67.31.07.06.15.11.23.16.06.04.12.08.15.15.01.03.04.07,0,.09-.03,0-.05,0-.07-.02-.15-.1-.32-.18-.48-.29-.08-.12-.21-.15-.33-.18-.07-.01-.14-.03-.21-.03-.05-.01-.1-.04-.14-.08-.11-.09-.23-.09-.36-.03-.05.03-.1.05-.15.08-.03.02-.07.05-.11.03Z"/>
  <path class="st34" d="M9.06,1.66c.21-.04.43-.05.64-.02.08.01.14-.02.21-.04.11-.04.21-.09.32-.11.13-.02.26-.02.38.04.16.09.34.14.52.15.04,0,.08.01.11.04.01.04-.02.06-.04.08-.11.07-.22.13-.34.17-.01,0-.02,0-.04,0-.22-.08-.44-.08-.66.01-.13.05-.26.05-.4.02-.13-.03-.26-.07-.4-.07-.02,0-.03,0-.05,0-.1-.07-.22-.13-.27-.26Z"/>
  <path class="st14" d="M9.23,2.12c-.11-.03-.2-.09-.3-.13-.19-.08-.37-.16-.56-.24.1-.03.19-.01.29,0,.04,0,.07.02.11.02.15,0,.27.08.38.18.03.05.1.09.08.16Z"/>
  <path class="st3" d="M9.14,1.97s0,0-.01,0c-.11-.09-.24-.13-.36-.19.09-.06.18-.1.28-.11.07.09.18.15.26.24-.03.09-.1.08-.17.07Z"/>
  <path class="st42" d="M10.87,1.94c.11-.05.21-.11.31-.17.02-.02.05-.03.06-.06.06,0,.1.05.15.07-.05.05-.11.07-.17.09-.1.04-.19.09-.29.13-.04,0-.07-.01-.07-.07Z"/>
  <path class="st6" d="M10.77,4.09h0s0,0,0,0c-.01,0-.02.01-.03.02,0,0-.01,0-.02,0-.05-.06-.12-.06-.19-.08-.22-.09-.43-.2-.67-.26-.03,0-.06-.02-.08.02-.09-.09-.2-.12-.32-.14-.09-.01-.19-.03-.28-.05-.15-.03-.25-.11-.28-.26-.02-.11-.08-.2-.12-.3,0-.04.03-.03.05-.03.05.01.1.04.14.07.44.23.88.46,1.31.72.04.03.09.04.14.03.15.02.28.07.41.14.03.02.08.04.02.09,0,0-.01,0-.02,0-.01.01-.03,0-.05.02Z"/>
  <path class="st6" d="M9.82,3.87s-.02-.03-.02-.04c.02,0,.02.03.02.04Z"/>
  <path class="st6" d="M10.7,4.11s-.01.02-.02.02c0,0,.02-.01.02-.02Z"/>
  <path class="st6" d="M9.8,3.83s-.02-.01-.02-.02c0,0,.01.01.02.02Z"/>
  <path class="st35" d="M8.94,3.1s-.09-.04-.13-.07c-.02,0-.03-.02-.05,0-.06-.08-.12-.14-.19-.21-.05-.05-.12-.08-.19-.08-.08,0-.17,0-.25.02-.05-.05-.12-.05-.18-.1-.09-.08-.21-.09-.31-.17-.07-.05-.14-.12-.22-.16-.04-.02-.04-.06,0-.1.02-.02.05-.04.07-.07.07-.08.17-.12.25-.19.06-.02.1-.06.15-.08.06-.03.12-.06.18-.08.11-.03.2-.02.29.05.05.03.09.08.15.09.2.05.39.11.56.22.18.1.35.2.53.3.15.05.28.16.42.23.1.05.21.11.31.17.05.03.11.06.15.11.05.03.09.07.15.08.15.04.29.1.4.22-.09.14-.14.31-.28.42,0,0-.02.01-.02.02,0,0-.01,0-.02,0-.17-.02-.33-.1-.48-.16-.31-.12-.62-.22-.92-.34-.11-.05-.23-.1-.35-.13Z"/>
  <path class="st55" d="M7.98,2.67s.1.04.14.06c.02,0,.02.03.01.04-.09.03-.18.06-.26.1-.03-.05-.07-.08-.12-.1-.12-.05-.23-.11-.35-.17-.06-.03-.11-.08-.17-.13-.02-.02-.02-.05-.02-.07.03-.03.07-.01.1,0,.15.05.31.09.46.17.06.04.15.03.21.09Z"/>
  <path class="st6" d="M10.83,4.07s.02-.04,0-.05c-.14-.06-.28-.14-.44-.15.04-.08.13-.05.19-.09.01,0,.03,0,.05-.01.01,0,.02,0,.03.01.06.07.15.08.23.11.05.02.11.02.12.09,0,0,0,0,0,0,0,0-.01.01-.02.02-.05.03-.1.06-.15.07Z"/>
  <path class="st6" d="M10.77,4.09s.03-.02.05-.02c-.01.02-.03.02-.05.02Z"/>
  <path class="st6" d="M10.72,4.11s.02-.02.03-.02c0,0-.02.01-.03.02Z"/>
  <path class="st8" d="M10.99,4s.01-.01.02-.02c0,.01,0,.02-.02.02Z"/>
  <path class="st5" d="M7.98,2.67c-.18-.06-.35-.12-.53-.19-.08-.03-.16-.05-.24-.07,0,0,0-.01,0-.02,0,0,0,0,0,0,0-.01.03-.01.04-.03.08-.06.15-.13.24-.17-.01.05-.08.06-.08.11,0,.06.09.04.11.08.06.1.18.1.25.19.01.02.04.02.06.02.07,0,.11.03.15.09Z"/>
  <path class="st55" d="M7.25,2.36s-.02.02-.04.03c0-.02.02-.02.04-.03Z"/>
  <path class="st33" d="M10.32,2.91c-.25-.13-.49-.26-.72-.42.01-.08-.04-.13-.1-.17-.06-.04-.12-.08-.18-.11-.04-.02-.07-.05-.09-.09-.01-.06-.08-.09-.09-.15.06-.03.13-.01.17-.07.02,0,.03,0,.05,0,.21.16.4.35.55.58.09.15.19.17.32.12.06-.02.09-.07.12-.12.11-.17.21-.34.38-.46.04-.03.08-.05.12-.07,0,0,.02,0,.03,0,0,.03.05.04.07.07-.02.05-.07.06-.11.09-.11.1-.19.23-.27.35-.06.11-.15.2-.18.32,0,.06,0,.11-.07.13Z"/>
  <path class="st53" d="M13.7,2.53c-.08.02-.15-.02-.21-.05-.22-.14-.44-.26-.67-.38-.07-.03-.13-.08-.19-.12,0-.04.02-.03.05-.02.16.02.33.04.48.09.15.05.27.14.37.26.06.07.13.14.17.23Z"/>
  <path class="st46" d="M12.68,1.96s-.04,0-.05.02c-.22-.09-.44-.07-.67-.06-.16,0-.31.07-.45.14-.04.02-.08.05-.13.05.06-.09.17-.12.26-.16.17-.07.34-.11.52-.1.18.01.35.04.52.11Z"/>
  <path class="st0" d="M10.32,2.91s.05-.09.07-.13c.06-.03.12-.05.18-.08.02,0,.03,0,.05.01-.06.09-.1.19-.13.29-.06-.02-.11-.05-.16-.09Z"/>
  <path class="st12" d="M11,2.38s.01.02,0,.02c-.08.07-.17.15-.26.22-.01.01-.03,0-.04-.01.09-.08.17-.17.28-.22Z"/>
  <path class="st46" d="M11.38,2.12s-.01.02-.02,0c0,0,.01,0,.02,0Z"/>
  <path class="st49" d="M11.03,3.3c-.13-.07-.26-.15-.4-.22.19-.34.44-.63.78-.82.13-.08.28-.12.43-.14,0,.02-.02.03,0,.05.1.06.14.15.12.27-.02.12-.07.22-.17.29-.14.09-.28.17-.42.26-.13.09-.23.2-.33.31,0,0-.01,0-.02,0Z"/>
  <path class="st19" d="M12.22,2.27c.06,0,.11,0,.16.02.02,0,.05.02.04.05,0,.03-.03.06-.06.05-.09-.02-.17,0-.26-.01-.03,0-.06-.02-.06-.05,0-.03.03-.04.05-.05.04-.01.09,0,.13,0Z"/>
  <path class="st10" d="M12.54,2.4s-.06-.02-.06-.06c0-.03.02-.05.05-.05.03,0,.07.04.07.07,0,.02-.03.04-.06.04Z"/>
  <path class="st25" d="M10.61,3.81c-.07.03-.15.03-.22.07-.05,0-.1-.01-.14-.04-.26-.16-.53-.31-.79-.46-.13-.07-.27-.14-.41-.21-.04-.02-.08-.03-.1-.06.09,0,.16.02.24.05.07.03.15.06.22.09.23.09.47.16.69.26.2.08.41.13.6.24-.01.01-.03.03-.04.04,0,0-.01,0-.02,0,0,0-.02.01-.02.02Z"/>
  <path class="st25" d="M10.72,3.74s.01-.01.02-.02c0,0-.01.01-.02.02Z"/>
  <path class="st27" d="M9.07,2.19c-.08-.02-.16-.06-.23-.09-.11-.04-.22-.09-.33-.13.14,0,.29.03.42.09.07.03.11.07.14.14Z"/>
  <path class="st53" d="M10.85,1.94c-.04.05-.09.08-.14.12-.1.08-.18.17-.24.28-.04.07-.08.14-.13.2-.07.1-.26.13-.35.05-.05-.04-.1-.09-.14-.15-.1-.17-.22-.32-.4-.43-.04-.02-.09-.06-.09-.12.13-.01.25.02.36.05.17.05.33.05.49-.02.09-.04.18-.06.27-.06.13,0,.24.02.36.07Z"/>
  <path class="st18" d="M9.34,3.04c-.07,0-.15-.03-.22-.09-.16-.11-.31-.23-.46-.35-.07-.06-.14-.1-.22-.13-.05-.02-.1-.05-.14-.09-.03-.03-.04-.07-.02-.11.02-.04.06-.05.1-.03.08.03.15.05.22.1.16.12.33.21.5.3.11.06.22.13.32.21.01.01.03.02.04.04.02.03.04.06.02.1-.02.03-.05.05-.09.05-.01,0-.02,0-.05,0Z"/>
  <path class="st7" d="M7.99,2.03s.15.08.16.13c.01.06-.03.1-.09.09-.07-.02-.12-.04-.14-.12-.01-.05.03-.11.08-.11Z"/>
  <path class="st8" d="M10.61,3.81s.01-.01.02-.02c0,0-.01.01-.02.02Z"/>
</svg>