<?xml version="1.0" encoding="UTF-8"?>
<svg id="Livello_1" xmlns="http://www.w3.org/2000/svg" xmlns:xlink="http://www.w3.org/1999/xlink" version="1.1" viewBox="0 0 20 20">
  <!-- Generator: Adobe Illustrator 30.1.0, SVG Export Plug-In . SVG Version: 2.1.1 Build 136)  -->
  <defs>
    <style>
      .st0 {
        fill: #0297d1;
      }

      .st1 {
        fill: url(#Gradiente_sem_nome_2);
      }

      .st2 {
        fill: #f9c228;
      }

      .st3 {
        fill: #dbdbdb;
      }

      .st4 {
        fill: #caf1fc;
      }

      .st5 {
        opacity: .58;
      }

      .st5, .st6, .st7 {
        fill: #f7f7f7;
      }

      .st6 {
        opacity: .1;
      }

      .st7 {
        opacity: .2;
      }

      .st8 {
        fill: #2e3192;
        font-family: OpenSans-Bold, 'Open Sans';
        font-size: .8px;
        font-weight: 700;
      }

      .st9 {
        fill: #ffe36c;
      }

      .st10 {
        clip-path: url(#clippath);
      }
    </style>
    <linearGradient id="Gradiente_sem_nome_2" data-name="Gradiente sem nome 2" x1="12.71" y1="11.02" x2="12.71" y2="6.52" gradientUnits="userSpaceOnUse">
      <stop offset="0" stop-color="#29abe2"/>
      <stop offset=".36" stop-color="#29abe2"/>
      <stop offset=".4" stop-color="#29abe2"/>
      <stop offset=".62" stop-color="#158ecf"/>
      <stop offset=".85" stop-color="#0579c1"/>
      <stop offset=".99" stop-color="#0071bc"/>
    </linearGradient>
    <clipPath id="clippath">
      <path class="st4" d="M11.89,6.86c0-.42.32-.77.73-.81.05,0,.11,0,.11,0l-4.53-.02c-.44,0-.79.35-.79.79v6.72h4.49v-6.68Z"/>
    </clipPath>
  </defs>
  <g>
    <ellipse class="st3" cx="10.13" cy="17.98" rx="5.05" ry=".69"/>
    <path class="st2" d="M11.5,1.95l1.63,3.3,3.65.53c1.25.18,1.75,1.72.85,2.6l-2.64,2.57.62,3.63c.21,1.25-1.1,2.2-2.21,1.61l-3.26-1.71-3.26,1.71c-1.12.59-2.43-.36-2.21-1.61l.62-3.63-2.64-2.57c-.91-.88-.41-2.42.85-2.6l3.65-.53,1.63-3.3c.56-1.13,2.18-1.13,2.74,0Z"/>
    <path class="st9" d="M3.63,6.34l3.18-.45c.09-.01.12.11.04.15-.64.28-1.96.77-3.93,1.08,0,0,0-.03,0-.07.05-.36.34-.65.7-.7Z"/>
  </g>
  <g>
    <path class="st1" d="M12.71,6.04s-.06,0-.09,0c-.41.04-.73.39-.73.81v2.74s.04.08.08.08h1.45c.05,0,.09-.05.08-.1h0c-.09-.5-.12-1.01-.11-1.52,0-.23.02-.47.05-.7.04-.29.15-.64-.02-.91-.15-.24-.43-.41-.72-.41Z"/>
    <g>
      <path class="st4" d="M11.89,6.86c0-.42.32-.77.73-.81.05,0,.11,0,.11,0l-4.53-.02c-.44,0-.79.35-.79.79v6.72h4.49v-6.68Z"/>
      <g class="st10">
        <rect class="st5" x="4.33" y="5.46" width="9.5" height="2.3"/>
        <rect class="st7" x="4.4" y="6.57" width="9.5" height="2.3"/>
        <rect class="st6" x="5.05" y="5.92" width="9.5" height="7.82"/>
      </g>
    </g>
    <g>
      <polygon class="st4" points="7.61 13.75 7.82 13.54 7.41 13.54 7.61 13.75"/>
      <polygon class="st4" points="8.02 13.75 8.23 13.54 7.82 13.54 8.02 13.75"/>
      <polygon class="st4" points="8.43 13.75 8.64 13.54 8.23 13.54 8.43 13.75"/>
      <polygon class="st4" points="8.84 13.75 9.05 13.54 8.64 13.54 8.84 13.75"/>
      <polygon class="st4" points="9.25 13.75 9.46 13.54 9.05 13.54 9.25 13.75"/>
      <polygon class="st4" points="9.85 13.54 9.46 13.54 9.66 13.75 9.86 13.55 10.05 13.75 10.26 13.54 9.87 13.54 9.85 13.54"/>
      <polygon class="st4" points="10.46 13.75 10.67 13.54 10.26 13.54 10.46 13.75"/>
      <polygon class="st4" points="10.87 13.75 11.08 13.54 10.67 13.54 10.87 13.75"/>
      <polygon class="st4" points="11.28 13.75 11.48 13.54 11.08 13.54 11.28 13.75"/>
      <polygon class="st4" points="11.48 13.54 11.69 13.75 11.89 13.54 11.48 13.54"/>
    </g>
    <text class="st8" transform="translate(8.37 7.08)"><tspan x="0" y="0">YOUR </tspan><tspan x="-.34" y=".96">RECEIPT</tspan></text>
    <rect class="st0" x="7.81" y="8.64" width="3.58" height=".48"/>
    <rect class="st0" x="7.79" y="9.4" width="2.77" height=".48"/>
    <rect class="st0" x="7.83" y="11.59" width="2.77" height=".48"/>
    <rect class="st0" x="7.81" y="10.1" width="3.21" height=".48"/>
    <rect class="st0" x="7.83" y="10.83" width="3.49" height=".48"/>
  </g>
</svg>