<?xml version="1.0" encoding="UTF-8"?>
<svg xmlns="http://www.w3.org/2000/svg" xmlns:xlink="http://www.w3.org/1999/xlink" version="1.1" viewBox="0 0 240 100">
  <!-- Generator: Adobe Illustrator 30.1.0, SVG Export Plug-In . SVG Version: 2.1.1 Build 136)  -->
  <defs>
    <style>
      .st0 {
        fill: #f8f8f9;
      }

      .st1 {
        fill: #e4e5e5;
      }

      .st2 {
        fill: #f4f4f5;
      }

      .st3 {
        fill: #a1a3a5;
      }

      .st4 {
        fill: #dfdfe0;
      }

      .st5 {
        fill: #d1d2d3;
      }

      .st6 {
        fill: #e7e7e8;
      }

      .st7 {
        fill: #b6b8ba;
      }

      .st8 {
        fill: #a2a4a6;
      }

      .st9 {
        fill: #bec0c1;
      }

      .st10 {
        fill: #e8e9e9;
      }

      .st11 {
        fill: #a5a6a9;
      }

      .st12 {
        fill: #dcddde;
      }

      .st13 {
        fill: #f6f6f6;
      }

      .st14 {
        fill: #aeb0b2;
      }

      .st15 {
        fill: #9fa1a4;
      }

      .st16 {
        fill: #e9eaea;
      }

      .st17 {
        fill: #e1e2e3;
      }

      .st18 {
        fill: #e0e1e1;
      }

      .st19 {
        fill: #9ea0a3;
      }

      .st20 {
        fill: url(#linear-gradient);
      }

      .st21 {
        fill: #f0f0f1;
      }

      .st22 {
        fill: #c2c4c5;
      }

      .st23 {
        fill: #a6a8aa;
      }

      .st24 {
        fill: #ebebec;
      }

      .st25 {
        fill: #b2b4b6;
      }

      .st26 {
        isolation: isolate;
      }

      .st27 {
        fill: #b4b5b7;
      }

      .st28 {
        fill: #d5d6d7;
      }

      .st29 {
        fill: #d0d1d2;
      }

      .st30 {
        mix-blend-mode: multiply;
      }

      .st31 {
        fill: #c0c1c3;
      }

      .st32 {
        fill: #c8c9ca;
      }

      .st33 {
        fill: #d4d5d6;
      }

      .st34 {
        fill: #c9cacc;
      }

      .st35 {
        fill: #c4c5c7;
      }

      .st36 {
        fill: #999b9d;
      }

      .st37 {
        fill: #9a9c9f;
      }

      .st38 {
        fill: #fff;
      }

      .st39 {
        fill: #a9aaad;
      }

      .st40 {
        fill: #eceded;
      }

      .st41 {
        fill: #c1c2c4;
      }

      .st42 {
        fill: #c5c6c8;
      }

      .st43 {
        fill: #9d9fa1;
      }

      .st44 {
        fill: #fafafa;
      }

      .st45 {
        fill: #bcbdbf;
      }

      .st46 {
        fill: #e3e3e4;
      }

      .st47 {
        fill: #d9dadb;
      }

      .st48 {
        fill: #9b9da0;
      }

      .st49 {
        fill: #f7f7f7;
      }

      .st50 {
        fill: #fefefe;
      }

      .st51 {
        fill: #dddedf;
      }

      .st52 {
        fill: #efeff0;
      }

      .st53 {
        fill: #96989b;
      }

      .st54 {
        fill: #f2f2f2;
      }

      .st55 {
        fill: #dbdbdc;
      }

      .st56 {
        fill: #acadaf;
      }

      .st57 {
        fill: #cccdce;
      }

      .st58 {
        fill: #f3f3f3;
      }

      .st59 {
        fill: #95979a;
      }

      .st60 {
        fill: #fbfbfb;
      }

      .st61 {
        fill: #fcfcfc;
      }

      .st62 {
        fill: #929497;
      }

      .st63 {
        fill: #b9babc;
      }

      .st64 {
        fill: #e5e6e7;
      }

      .st65 {
        fill: #bdbec0;
      }

      .st66 {
        fill: #939598;
      }

      .st67 {
        fill: #cdcecf;
      }

      .st68 {
        fill: #cbcbcd;
      }

      .st69 {
        fill: #a8a9ac;
      }

      .st70 {
        fill: #a3a5a8;
      }

      .st71 {
        fill: #d7d7d8;
      }

      .st72 {
        fill: #b5b6b8;
      }

      .st73 {
        fill: #aaacae;
      }

      .st74 {
        fill: #b8b9bb;
      }

      .st75 {
        fill: #babcbe;
      }

      .st76 {
        fill: #eee;
      }

      .st77 {
        fill: #d3d3d5;
      }

      .st78 {
        fill: #c6c8c9;
      }

      .st79 {
        fill: #b0b1b3;
      }

      .st80 {
        fill: #adaeb1;
      }

      .st81 {
        fill: #b1b2b5;
      }

      .st82 {
        fill: #97999c;
      }

      .st83 {
        fill: #cfcfd1;
      }

      .st84 {
        fill: #d8d9da;
      }
    </style>
    <linearGradient id="linear-gradient" x1="2621" y1="86.65" x2="2621" y2="0" gradientTransform="translate(2741) rotate(-180) scale(1 -1)" gradientUnits="userSpaceOnUse">
      <stop offset="0" stop-color="#ffff54"/>
      <stop offset="1" stop-color="#ffa200"/>
    </linearGradient>
  </defs>
  <g class="st26">
    <g id="_Слой_1" data-name="Слой_1">
      <g>
        <g class="st30">
          <path class="st38" d="M73.04,91.49c8.76,0,9.28-12.55,15.54-16.29,8.27-4.94,17.13-3.13,22.47,4.76,2.64,3.9,7.12,6.05,12.63,6.05,7.27,0,12.08-4.67,16.75-9.63,3.94-4.19,24.03,14.68,31.75,14.68h0c5.43,0,35.83-20.17,41.04-12.26,3.19,4.84,7.19,7.94,13.21,7.25,6.94-.79,13.56-7.14,13.56-14.37V19.16H0v57.44s5.18-1.77,5.3-1.81c4.82-1.65,3.94,1.53,5.55,5.07,2.37,5.21,7.59,8.68,13.32,8.68,6.22,0,10.16-3.77,12.89-9.04,2.51-4.84,4.62-7.88,9.21-2.7,3.82,4.32,5.67,9.01,12.52,6.87.77-.24,1.49-.46,1.96-.46h.04c3.38.06,6.49,7.54,10.77,8.17.52.08,1.02.11,1.49.11Z"/>
          <path class="st50" d="M0,18.93h240v52.45c0,1.42-.25,2.79-.7,4.08-1.86,5.39-7.23,9.64-12.83,10.28-6.05.69-10.01-2.44-13.2-7.26-.48-.72-1.17-1.21-2.03-1.51-1.78-.6-4.27-.36-7.16.39-8.24,2.12-19.68,8.37-26.58,11.5-2.38,1.08-4.24,1.77-5.26,1.77h0c-3.14.01-8.3-3.04-13.52-6.42-7.72-5-15.84-10.67-18.23-8.19-.47.49-.94.99-1.42,1.47-3.56,3.64-7.27,6.89-12.22,7.88-.98.2-2,.3-3.08.31-5.49.02-9.98-2.1-12.64-5.97-.98-1.43-2.08-2.67-3.26-3.7-5.28-4.61-12.41-5.12-19.19-1.13-4.9,2.87-6.36,11.06-10.86,14.58-1.28,1-2.8,1.63-4.72,1.65-.47,0-.96-.03-1.48-.1-.73-.1-1.44-.4-2.11-.83-3.26-2.06-5.88-7.2-8.67-7.24h-.04c-.47,0-1.19.21-1.95.44-1.84.55-3.32.62-4.58.35-2.51-.54-4.12-2.46-5.92-4.69-.65-.8-1.31-1.64-2.05-2.47-.96-1.09-1.82-1.82-2.59-2.25-2.89-1.6-4.64,1.04-6.63,4.81-1.26,2.37-2.76,4.45-4.61,6.04-2.19,1.87-4.88,3.02-8.26,3.04-1.2,0-2.38-.14-3.52-.42-4.29-1.07-7.95-4.1-9.83-8.2-.58-1.28-.84-2.51-1.16-3.48-.56-1.73-1.28-2.52-4.39-1.61-.15.04-5.3,1.8-5.3,1.8V18.93Z"/>
          <path class="st61" d="M0,18.69h240v52.38c0,1.43-.25,2.8-.69,4.08-1.85,5.36-7.19,9.63-12.8,10.27-6.07.69-9.99-2.47-13.18-7.27-.48-.72-1.17-1.21-2.03-1.51-1.78-.61-4.27-.36-7.16.37-8.24,2.08-19.71,8.26-26.58,11.41-2.36,1.08-4.22,1.77-5.25,1.78h0c-3.17.01-8.34-3.01-13.52-6.38-7.65-4.99-15.81-10.64-18.23-8.16-.48.49-.95.98-1.42,1.46-3.57,3.63-7.23,6.9-12.18,7.91-.98.2-2,.31-3.08.32-5.48.04-9.98-2.04-12.65-5.89-.99-1.42-2.09-2.66-3.27-3.69-5.26-4.61-12.36-5.16-19.16-1.22-4.92,2.84-6.46,10.96-10.94,14.49-1.28,1.01-2.78,1.65-4.69,1.69-.47.01-.96-.01-1.47-.08-.73-.09-1.43-.38-2.11-.8-3.28-2.01-5.9-7.07-8.69-7.18,0,0-.04,0-.04,0-.47-.01-1.19.2-1.95.42-1.83.54-3.31.59-4.58.32-2.51-.54-4.13-2.41-5.95-4.62-.66-.8-1.33-1.63-2.06-2.46-.96-1.08-1.81-1.82-2.58-2.25-2.88-1.62-4.64.97-6.65,4.69-1.27,2.34-2.78,4.41-4.63,6.01-2.18,1.89-4.84,3.05-8.22,3.09-1.2.01-2.38-.13-3.52-.41-4.31-1.04-7.98-4.07-9.86-8.16-.59-1.28-.85-2.51-1.16-3.49-.55-1.74-1.27-2.45-4.39-1.63-.18.05-5.31,1.79-5.31,1.79V18.69Z"/>
          <path class="st60" d="M0,18.45h239.99v52.31c0,1.44-.25,2.81-.68,4.07-1.83,5.34-7.15,9.62-12.77,10.26-6.09.69-9.98-2.49-13.16-7.27-.48-.72-1.17-1.21-2.03-1.51-1.78-.62-4.27-.37-7.16.35-8.25,2.04-19.73,8.16-26.58,11.32-2.34,1.08-4.2,1.77-5.24,1.78h0c-3.19.02-8.39-2.98-13.52-6.33-7.59-4.97-15.78-10.6-18.23-8.14-.48.48-.95.97-1.42,1.45-3.58,3.62-7.2,6.9-12.15,7.94-.98.2-2,.32-3.08.33-5.46.06-9.98-1.99-12.66-5.81-.99-1.41-2.1-2.64-3.28-3.68-5.24-4.61-12.31-5.2-19.13-1.3-4.95,2.81-6.56,10.86-11.02,14.4-1.28,1.02-2.77,1.67-4.65,1.74-.46.02-.95,0-1.46-.06-.73-.08-1.42-.37-2.1-.77-3.29-1.95-5.92-6.97-8.72-7.12,0,0-.04,0-.04,0-.47-.02-1.18.18-1.94.4-1.83.51-3.3.56-4.58.3-2.52-.53-4.14-2.37-5.97-4.55-.66-.79-1.34-1.62-2.07-2.45-.96-1.08-1.81-1.82-2.58-2.26-2.87-1.64-4.64.89-6.67,4.56-1.28,2.31-2.8,4.37-4.65,5.99-2.16,1.9-4.81,3.09-8.18,3.15-1.19.02-2.37-.11-3.52-.38-4.33-1.02-8.01-4.05-9.88-8.13-.59-1.28-.85-2.51-1.16-3.49-.54-1.75-1.26-2.4-4.38-1.65-.21.05-5.31,1.77-5.31,1.77V18.45Z"/>
          <path class="st44" d="M0,18.22h239.99v52.24c0,1.45-.24,2.82-.67,4.07-1.82,5.32-7.11,9.62-12.74,10.25-6.11.69-9.96-2.52-13.15-7.28-.48-.72-1.17-1.21-2.03-1.51-1.79-.62-4.27-.38-7.15.33-8.25,2-19.76,8.05-26.58,11.23-2.33,1.09-4.18,1.78-5.24,1.79h0c-3.22.02-8.44-2.95-13.52-6.29-7.52-4.96-15.75-10.57-18.22-8.12-.48.48-.96.96-1.43,1.44-3.59,3.61-7.17,6.91-12.12,7.96-.97.21-2,.32-3.07.34-5.45.08-9.97-1.94-12.68-5.73-1-1.4-2.1-2.62-3.28-3.67-5.22-4.61-12.27-5.24-19.11-1.39-4.98,2.78-6.65,10.76-11.1,14.3-1.28,1.02-2.75,1.69-4.62,1.78-.46.02-.94.01-1.45-.04-.72-.07-1.41-.35-2.1-.74-3.31-1.89-5.94-6.97-8.74-7.07,0,0-.04,0-.04,0-.47-.02-1.18.17-1.94.37-1.82.5-3.3.53-4.57.27-2.52-.53-4.15-2.32-6-4.48-.67-.78-1.35-1.61-2.09-2.44-.96-1.08-1.8-1.82-2.57-2.27-2.85-1.65-4.64.82-6.68,4.44-1.29,2.28-2.83,4.33-4.67,5.97-2.15,1.91-4.77,3.12-8.14,3.21-1.19.03-2.37-.1-3.52-.37-4.34-1-8.03-4.02-9.91-8.09-.59-1.28-.85-2.51-1.16-3.49-.54-1.76-1.26-2.36-4.38-1.67-.24.05-5.32,1.76-5.32,1.76V18.22Z"/>
          <path class="st0" d="M0,17.98h239.99v52.17c0,1.46-.24,2.83-.66,4.06-1.8,5.29-7.08,9.61-12.71,10.24-6.13.69-9.95-2.55-13.13-7.29-.48-.72-1.17-1.21-2.03-1.51-1.79-.63-4.27-.38-7.15.31-8.26,1.96-19.79,7.94-26.58,11.14-2.31,1.09-4.17,1.78-5.23,1.79h0c-3.24.03-8.49-2.91-13.52-6.25-7.45-4.95-15.71-10.53-18.22-8.09-.49.47-.96.96-1.43,1.43-3.6,3.6-7.14,6.92-12.09,7.99-.97.21-1.99.33-3.07.35-5.44.1-9.97-1.89-12.69-5.65-1.01-1.39-2.11-2.61-3.29-3.66-5.2-4.61-12.21-5.26-19.08-1.47-5,2.76-6.75,10.66-11.18,14.21-1.28,1.03-2.73,1.71-4.58,1.82-.45.03-.93.02-1.44-.02-.72-.06-1.41-.33-2.09-.71-3.33-1.83-5.96-6.79-8.76-7.01,0,0-.04,0-.04,0-.47-.03-1.18.15-1.93.35-1.81.47-3.29.5-4.57.24-2.53-.52-4.16-2.27-6.02-4.41-.68-.78-1.36-1.6-2.1-2.43-.96-1.08-1.8-1.83-2.57-2.28-2.84-1.67-4.64.75-6.7,4.31-1.3,2.25-2.85,4.29-4.69,5.95-2.13,1.92-4.73,3.17-8.1,3.27-1.19.04-2.37-.09-3.52-.35-4.36-.97-8.06-4-9.94-8.06-.59-1.27-.86-2.51-1.16-3.49-.53-1.76-1.26-2.34-4.37-1.69-.27.06-5.33,1.75-5.33,1.75V17.98Z"/>
          <path class="st49" d="M0,17.74h239.99v52.11c0,1.47-.24,2.84-.65,4.06-1.78,5.27-7.04,9.6-12.69,10.23-6.15.69-9.93-2.57-13.11-7.3-.48-.72-1.17-1.21-2.03-1.51-1.79-.64-4.27-.38-7.14.29-8.26,1.93-19.81,7.83-26.58,11.05-2.29,1.09-4.15,1.78-5.23,1.8h0c-3.27.03-8.54-2.88-13.52-6.21-7.38-4.94-15.68-10.49-18.22-8.07-.49.47-.96.95-1.44,1.42-3.61,3.6-7.11,6.92-12.06,8.02-.97.21-1.99.34-3.06.37-5.42.12-9.97-1.84-12.7-5.57-1.01-1.38-2.12-2.6-3.3-3.64-5.18-4.61-12.16-5.3-19.06-1.56-5.02,2.73-6.85,10.56-11.26,14.12-1.27,1.03-2.71,1.72-4.55,1.86-.45.03-.93.04-1.43,0-.71-.05-1.4-.31-2.09-.67-3.35-1.77-5.99-6.7-8.79-6.95,0,0-.04,0-.04,0-.47-.02-1.18.14-1.93.33-1.8.45-3.28.47-4.57.21-2.53-.51-4.17-2.22-6.05-4.34-.69-.77-1.37-1.59-2.11-2.42-.96-1.07-1.79-1.83-2.56-2.28-2.83-1.68-4.65.67-6.72,4.19-1.31,2.22-2.87,4.25-4.71,5.92-2.12,1.93-4.7,3.2-8.07,3.32-1.18.04-2.36-.07-3.52-.33-4.38-.95-8.09-3.97-9.96-8.02-.59-1.27-.86-2.51-1.15-3.49-.52-1.77-1.26-2.32-4.37-1.71-.31.06-5.33,1.73-5.33,1.73V17.74Z"/>
          <path class="st13" d="M0,17.51h239.98v52.04c0,1.48-.24,2.85-.64,4.05-1.77,5.25-7,9.59-12.66,10.23-6.18.69-9.92-2.6-13.1-7.31-.49-.72-1.17-1.21-2.02-1.51-1.8-.64-4.27-.39-7.14.27-8.26,1.9-19.84,7.72-26.58,10.96-2.27,1.09-4.13,1.79-5.22,1.8h0c-3.29.04-8.59-2.85-13.52-6.16-7.31-4.92-15.64-10.46-18.21-8.04-.49.46-.97.94-1.44,1.41-3.63,3.58-7.07,6.93-12.02,8.05-.97.22-1.99.35-3.06.38-5.41.14-9.96-1.79-12.72-5.49-1.02-1.37-2.13-2.58-3.3-3.63-5.16-4.6-12.11-5.34-19.03-1.64-5.05,2.7-6.95,10.45-11.35,14.02-1.27,1.04-2.69,1.75-4.51,1.9-.45.04-.92.05-1.42.02-.71-.04-1.39-.29-2.08-.64-3.36-1.72-6.01-6.61-8.81-6.89,0,0-.04,0-.04,0-.47-.04-1.18.12-1.92.3-1.8.43-3.27.44-4.57.18-2.53-.51-4.18-2.17-6.08-4.26-.69-.77-1.39-1.58-2.12-2.4-.96-1.07-1.79-1.83-2.55-2.29-2.82-1.7-4.65.6-6.74,4.06-1.32,2.19-2.89,4.21-4.72,5.9-2.1,1.94-4.66,3.24-8.03,3.38-1.18.05-2.36-.06-3.52-.31-4.4-.92-8.11-3.95-9.99-7.99-.59-1.27-.86-2.51-1.15-3.5-.51-1.78-1.27-2.32-4.36-1.74-.34.06-5.34,1.72-5.34,1.72V17.51Z"/>
          <path class="st2" d="M0,17.27h239.98v51.97c0,1.49-.24,2.86-.63,4.05-1.75,5.23-6.96,9.58-12.63,10.22-6.2.69-9.91-2.63-13.08-7.31-.49-.71-1.17-1.21-2.02-1.51-1.8-.65-4.27-.4-7.13.25-8.27,1.86-19.87,7.61-26.58,10.87-2.25,1.09-4.11,1.79-5.21,1.81h0c-3.32.04-8.63-2.82-13.52-6.12-7.25-4.91-15.61-10.42-18.21-8.02-.5.46-.97.93-1.45,1.4-3.64,3.58-7.04,6.94-11.99,8.08-.97.22-1.98.35-3.05.39-5.39.16-9.96-1.74-12.73-5.42-1.03-1.36-2.14-2.57-3.31-3.62-5.14-4.6-12.06-5.38-19.01-1.73-5.07,2.67-7.05,10.35-11.43,13.93-1.27,1.04-2.67,1.76-4.48,1.94-.44.04-.91.06-1.41.04-.7-.04-1.38-.27-2.08-.61-3.38-1.66-6.03-6.51-8.83-6.83,0,0-.04,0-.04,0-.47-.05-1.17.11-1.92.28-1.79.41-3.26.41-4.56.16-2.54-.5-4.19-2.13-6.1-4.19-.7-.76-1.4-1.57-2.13-2.39-.96-1.07-1.78-1.83-2.55-2.3-2.8-1.72-4.65.53-6.75,3.94-1.34,2.16-2.91,4.16-4.74,5.88-2.09,1.95-4.62,3.28-7.99,3.44-1.18.06-2.35-.05-3.52-.29-4.41-.9-8.14-3.92-10.02-7.95-.6-1.27-.87-2.51-1.15-3.5-.51-1.79-1.27-2.31-4.36-1.76-.37.07-5.35,1.71-5.35,1.71V17.27Z"/>
          <path class="st58" d="M0,17.03h239.98v51.9c0,1.5-.24,2.87-.63,4.05-1.73,5.2-6.92,9.58-12.6,10.21-6.22.69-9.89-2.65-13.07-7.32-.49-.71-1.17-1.21-2.02-1.51-1.81-.65-4.27-.4-7.13.23-8.27,1.82-19.9,7.5-26.58,10.78-2.23,1.1-4.09,1.79-5.21,1.81h0c-3.34.05-8.68-2.79-13.52-6.08-7.18-4.9-15.57-10.38-18.21-8-.5.45-.98.93-1.45,1.39-3.64,3.57-7.01,6.96-11.96,8.11-.96.22-1.98.36-3.05.4-5.38.19-9.95-1.68-12.74-5.33-1.03-1.35-2.15-2.55-3.31-3.61-5.12-4.6-12.01-5.41-18.98-1.81-5.1,2.63-7.15,10.25-11.51,13.84-1.27,1.05-2.66,1.78-4.44,1.99-.44.05-.9.07-1.4.06-.7-.03-1.38-.25-2.07-.58-3.4-1.6-6.05-6.42-8.85-6.77,0,0-.04,0-.04,0-.47-.05-1.17.09-1.92.25-1.78.39-3.26.38-4.56.13-2.54-.49-4.21-2.08-6.13-4.12-.71-.75-1.41-1.56-2.15-2.38-.96-1.07-1.78-1.83-2.54-2.31-2.79-1.73-4.65.46-6.77,3.81-1.35,2.13-2.93,4.12-4.76,5.86-2.07,1.96-4.59,3.31-7.95,3.5-1.17.06-2.35-.03-3.52-.27-4.43-.88-8.16-3.89-10.05-7.92-.6-1.27-.87-2.51-1.15-3.5-.51-1.8-1.28-2.31-4.35-1.78-.4.07-5.35,1.69-5.35,1.69V17.03Z"/>
          <path class="st54" d="M0,16.8h239.98v51.83c0,1.52-.23,2.89-.62,4.04-1.72,5.18-6.89,9.57-12.57,10.2-6.24.69-9.88-2.68-13.05-7.33-.49-.71-1.17-1.21-2.02-1.52-1.81-.66-4.27-.41-7.12.21-8.28,1.78-19.92,7.39-26.58,10.69-2.22,1.1-4.07,1.79-5.2,1.82h0c-3.37.05-8.73-2.75-13.53-6.03-7.11-4.89-15.53-10.34-18.21-7.97-.5.45-.98.92-1.46,1.38-3.66,3.57-6.97,6.96-11.93,8.13-.96.23-1.98.37-3.05.41-5.37.21-9.95-1.63-12.75-5.25-1.04-1.34-2.16-2.54-3.32-3.6-5.1-4.6-11.96-5.45-18.95-1.9-5.13,2.6-7.24,10.15-11.59,13.75-1.27,1.05-2.64,1.8-4.41,2.03-.44.06-.9.09-1.39.08-.7-.02-1.37-.24-2.06-.55-3.42-1.54-6.07-6.33-8.88-6.71,0,0-.04,0-.04,0-.47-.06-1.17.08-1.91.23-1.78.37-3.25.35-4.56.1-2.55-.49-4.22-2.03-6.15-4.05-.72-.75-1.42-1.55-2.16-2.37-.96-1.06-1.77-1.84-2.54-2.32-2.78-1.75-4.65.39-6.79,3.69-1.36,2.1-2.95,4.08-4.78,5.83-2.06,1.97-4.55,3.35-7.91,3.55-1.17.07-2.35-.02-3.52-.25-4.45-.85-8.19-3.87-10.07-7.88-.6-1.27-.88-2.5-1.15-3.5-.5-1.8-1.29-2.3-4.35-1.8-.43.07-5.36,1.68-5.36,1.68V16.8Z"/>
          <path class="st21" d="M0,16.56h239.97v51.76c0,1.53-.23,2.89-.61,4.04-1.7,5.16-6.85,9.56-12.54,10.19-6.26.69-9.86-2.71-13.03-7.34-.49-.71-1.17-1.21-2.02-1.52-1.82-.67-4.27-.41-7.12.19-8.28,1.75-19.95,7.28-26.58,10.59-2.2,1.1-4.05,1.8-5.2,1.82h0c-3.4.06-8.78-2.72-13.53-5.99-7.04-4.87-15.5-10.31-18.2-7.95-.51.44-.99.91-1.46,1.37-3.66,3.56-6.94,6.97-11.89,8.16-.96.23-1.98.38-3.04.42-5.35.22-9.95-1.58-12.77-5.18-1.04-1.33-2.17-2.53-3.33-3.59-5.08-4.6-11.91-5.49-18.93-1.99-5.15,2.57-7.34,10.05-11.67,13.65-1.27,1.06-2.62,1.82-4.37,2.07-.43.06-.89.1-1.38.09-.69,0-1.36-.22-2.06-.52-3.44-1.48-6.16-5.92-8.9-6.66,0,0-.04,0-.04,0-.47-.07-1.17.06-1.91.21-1.77.35-3.24.32-4.56.07-2.55-.48-4.23-1.98-6.18-3.98-.73-.74-1.43-1.54-2.17-2.36-.96-1.06-1.77-1.84-2.53-2.32-2.77-1.76-4.66.31-6.81,3.56-1.37,2.07-2.98,4.04-4.8,5.81-2.04,1.98-4.52,3.39-7.88,3.61-1.17.08-2.34,0-3.52-.23-4.46-.83-8.22-3.84-10.1-7.85-.6-1.27-.88-2.51-1.15-3.5-.49-1.81-1.3-2.3-4.34-1.82-.46.07-5.37,1.67-5.37,1.67V16.56Z"/>
          <path class="st52" d="M0,16.32h239.97v51.69c0,1.54-.23,2.91-.6,4.03-1.68,5.14-6.81,9.55-12.51,10.18-6.28.69-9.85-2.73-13.02-7.35-.49-.71-1.17-1.2-2.02-1.52-1.82-.67-4.27-.42-7.12.17-8.29,1.71-19.98,7.17-26.58,10.51-2.18,1.1-4.03,1.8-5.19,1.83h0c-3.42.07-8.83-2.69-13.53-5.95-6.98-4.86-15.46-10.27-18.2-7.92-.51.44-.99.9-1.46,1.36-3.67,3.55-6.91,6.98-11.86,8.19-.96.23-1.97.38-3.04.43-5.34.25-9.94-1.53-12.78-5.1-1.05-1.32-2.17-2.51-3.33-3.57-5.05-4.61-11.87-5.53-18.9-2.07-5.18,2.54-7.44,9.95-11.75,13.56-1.27,1.06-2.6,1.84-4.34,2.11-.43.07-.88.11-1.37.11-.69,0-1.36-.2-2.05-.48-3.46-1.43-6.22-5.73-8.92-6.6,0,0-.04,0-.04,0-.47-.07-1.17.05-1.9.19-1.76.33-3.23.29-4.55.04-2.55-.47-4.24-1.93-6.21-3.91-.73-.74-1.45-1.53-2.18-2.34-.95-1.06-1.77-1.84-2.52-2.33-2.75-1.78-4.66.24-6.82,3.44-1.38,2.04-3,4-4.82,5.79-2.03,1.99-4.48,3.42-7.84,3.67-1.16.09-2.34,0-3.52-.21-4.48-.8-8.24-3.82-10.13-7.81-.6-1.27-.88-2.5-1.15-3.51-.49-1.82-1.3-2.31-4.34-1.84-.5.08-5.37,1.65-5.37,1.65V16.32Z"/>
          <path class="st76" d="M0,16.09h239.97v51.62c0,1.55-.23,2.92-.59,4.03-1.67,5.11-6.77,9.54-12.48,10.17-6.31.7-9.83-2.76-13-7.35-.49-.71-1.17-1.2-2.02-1.52-1.82-.68-4.27-.42-7.11.15-8.29,1.67-20.01,7.06-26.58,10.41-2.16,1.1-4.02,1.8-5.19,1.83h0c-3.45.07-8.88-2.66-13.53-5.9-6.91-4.85-15.42-10.23-18.2-7.9-.51.43-.99.9-1.47,1.35-3.69,3.54-6.88,6.99-11.83,8.22-.96.24-1.97.39-3.03.45-5.33.27-9.94-1.48-12.79-5.02-1.06-1.31-2.18-2.5-3.34-3.56-5.03-4.61-11.82-5.56-18.88-2.16-5.2,2.51-7.54,9.84-11.83,13.47-1.27,1.07-2.58,1.86-4.3,2.15-.43.07-.87.12-1.36.13-.68,0-1.35-.18-2.05-.45-3.48-1.37-6.14-6.05-8.94-6.54,0,0-.04,0-.04,0-.46-.15-1.17.03-1.9.16-1.76.31-3.23.26-4.55.02-2.56-.47-4.25-1.89-6.23-3.83-.74-.73-1.46-1.52-2.19-2.33-.95-1.05-1.76-1.84-2.52-2.34-2.74-1.8-4.66.17-6.84,3.31-1.4,2.01-3.02,3.96-4.84,5.77-2.01,2-4.44,3.46-7.8,3.73-1.16.09-2.34.02-3.52-.19-4.5-.78-8.27-3.79-10.16-7.78-.6-1.27-.89-2.5-1.15-3.51-.48-1.83-1.31-2.31-4.33-1.86-.53.08-5.38,1.64-5.38,1.64V16.09Z"/>
          <path class="st40" d="M0,15.85h239.97v51.56c0,1.56-.23,2.93-.58,4.02-1.65,5.09-6.73,9.54-12.46,10.17-6.33.7-9.82-2.79-12.98-7.36-.49-.71-1.17-1.2-2.02-1.52-1.83-.69-4.27-.43-7.11.13-8.3,1.63-20.04,6.95-26.58,10.32-2.14,1.11-4,1.8-5.18,1.83h0c-3.47.08-8.93-2.63-13.53-5.86-6.84-4.84-15.39-10.2-18.2-7.88-.52.43-1,.89-1.47,1.34-3.7,3.53-6.85,7-11.8,8.25-.96.24-1.97.4-3.03.46-5.31.29-9.94-1.43-12.8-4.94-1.06-1.3-2.19-2.49-3.34-3.55-5.01-4.61-11.77-5.6-18.85-2.24-5.23,2.48-7.63,9.74-11.92,13.37-1.27,1.07-2.57,1.88-4.26,2.19-.42.08-.87.14-1.35.15-.68.02-1.34-.16-2.04-.42-3.5-1.31-6.16-5.96-8.97-6.48,0,0-.04,0-.04,0-.47-.08-1.16.02-1.89.14-1.75.29-3.22.23-4.55-.01-2.56-.46-4.26-1.84-6.26-3.76-.75-.72-1.47-1.51-2.2-2.32-.95-1.05-1.76-1.84-2.51-2.34-2.73-1.81-4.66.1-6.86,3.19-1.41,1.98-3.04,3.91-4.86,5.74-2,2.01-4.41,3.5-7.76,3.78-1.16.1-2.33.03-3.52-.17-4.51-.76-8.3-3.77-10.18-7.74-.61-1.27-.89-2.5-1.15-3.51-.47-1.83-1.32-2.32-4.33-1.88-.56.08-5.38,1.62-5.38,1.62V15.85Z"/>
          <path class="st24" d="M0,15.61h239.96v51.49c0,1.57-.22,2.94-.57,4.02-1.64,5.07-6.7,9.53-12.43,10.16-6.35.7-9.8-2.82-12.97-7.37-.49-.71-1.17-1.2-2.01-1.52-1.83-.7-4.27-.44-7.1.11-8.3,1.59-20.06,6.84-26.58,10.23-2.13,1.11-3.98,1.81-5.17,1.84h0c-3.5.08-8.97-2.6-13.53-5.82-6.77-4.82-15.35-10.16-18.19-7.85-.52.42-1,.88-1.48,1.33-3.71,3.53-6.81,7-11.77,8.27-.96.25-1.96.41-3.02.47-5.3.31-9.93-1.37-12.82-4.86-1.07-1.29-2.2-2.47-3.35-3.54-4.99-4.61-11.72-5.64-18.82-2.33-5.26,2.45-7.73,9.64-12,13.28-1.26,1.08-2.55,1.9-4.23,2.23-.42.08-.86.15-1.34.17-.67.03-1.34-.14-2.04-.39-3.52-1.25-6.18-5.87-8.99-6.42,0,0-.04,0-.04,0-.48-.09-1.16,0-1.89.12-1.74.27-3.21.2-4.55-.04-2.57-.45-4.28-1.79-6.29-3.69-.76-.72-1.48-1.5-2.21-2.31-.95-1.05-1.75-1.84-2.51-2.35-2.72-1.83-4.67.02-6.88,3.06-1.42,1.95-3.07,3.87-4.88,5.72-1.98,2.02-4.37,3.53-7.72,3.84-1.15.11-2.33.04-3.52-.15-4.53-.74-8.32-3.74-10.21-7.71-.61-1.27-.89-2.5-1.15-3.51-.47-1.84-1.33-2.32-4.32-1.9-.59.08-5.39,1.61-5.39,1.61V15.61Z"/>
          <path class="st16" d="M0,15.38h239.96v51.42c0,1.58-.22,2.95-.56,4.01-1.62,5.05-6.66,9.52-12.4,10.15-6.37.7-9.79-2.84-12.95-7.38-.49-.7-1.17-1.2-2.01-1.52-1.83-.7-4.27-.44-7.1.09-8.31,1.55-20.09,6.73-26.58,10.14-2.11,1.11-3.96,1.81-5.17,1.85h0c-3.52.09-9.02-2.56-13.53-5.77-6.71-4.81-15.32-10.12-18.19-7.83-.52.42-1.01.87-1.48,1.32-3.72,3.52-6.78,7.01-11.73,8.3-.95.25-1.96.41-3.02.48-5.29.34-9.93-1.32-12.83-4.78-1.08-1.28-2.21-2.46-3.36-3.53-4.97-4.61-11.67-5.68-18.8-2.41-5.28,2.42-7.83,9.54-12.08,13.19-1.26,1.08-2.53,1.92-4.19,2.28-.41.09-.85.16-1.33.19-.67.04-1.33-.12-2.03-.36-3.54-1.19-6.21-5.78-9.01-6.36,0,0-.04,0-.04,0-.48-.1-1.16-.01-1.88.09-1.73.25-3.2.16-4.54-.07-2.57-.45-4.29-1.74-6.31-3.62-.77-.71-1.49-1.49-2.23-2.3-.95-1.05-1.75-1.85-2.5-2.36-2.71-1.84-4.67-.05-6.89,2.94-1.43,1.92-3.09,3.83-4.9,5.7-1.97,2.03-4.33,3.57-7.69,3.9-1.15.11-2.32.06-3.52-.13-4.55-.72-8.35-3.72-10.24-7.67-.61-1.27-.9-2.5-1.15-3.51-.46-1.85-1.34-2.33-4.32-1.92-.62.08-5.4,1.6-5.4,1.6V15.38Z"/>
          <path class="st10" d="M0,15.14h239.96v51.35c0,1.59-.22,2.96-.56,4.01-1.6,5.02-6.62,9.51-12.37,10.14-6.39.7-9.77-2.88-12.93-7.39-.49-.7-1.17-1.2-2.01-1.52-1.84-.71-4.27-.45-7.09.07-8.31,1.52-20.12,6.62-26.58,10.05-2.09,1.11-3.94,1.81-5.16,1.85h0c-3.55.09-9.08-2.52-13.53-5.73-6.65-4.79-15.28-10.08-18.19-7.8-.53.41-1.01.87-1.49,1.31-3.73,3.51-6.75,7.02-11.7,8.33-.95.25-1.96.42-3.01.49-5.27.36-9.93-1.27-12.84-4.7-1.08-1.27-2.21-2.44-3.36-3.51-4.95-4.61-11.62-5.72-18.77-2.5-5.31,2.39-7.93,9.44-12.16,13.09-1.26,1.09-2.51,1.94-4.16,2.32-.41.1-.84.17-1.32.21-.67.05-1.32-.1-2.03-.33-3.56-1.13-6.35-5.27-9.03-6.31,0,0-.04,0-.04,0-.48-.1-1.16-.03-1.88.07-1.73.23-3.19.13-4.54-.1-2.57-.44-4.3-1.69-6.34-3.55-.77-.7-1.5-1.48-2.24-2.28-.95-1.04-1.74-1.85-2.5-2.37-2.69-1.86-4.67-.12-6.91,2.81-1.44,1.89-3.11,3.79-4.91,5.67-1.96,2.04-4.3,3.61-7.65,3.96-1.15.12-2.32.07-3.52-.11-4.56-.69-8.37-3.69-10.26-7.63-.61-1.27-.9-2.5-1.15-3.52-.45-1.86-1.35-2.34-4.31-1.94-.66.09-5.4,1.58-5.4,1.58V15.14Z"/>
          <path class="st6" d="M0,14.9h239.96v51.28c0,1.6-.22,2.97-.55,4-1.58,5-6.58,9.5-12.34,10.13-6.41.7-9.75-2.9-12.92-7.4-.49-.7-1.17-1.2-2.01-1.52-1.84-.72-4.27-.45-7.09.05-8.32,1.48-20.15,6.51-26.58,9.96-2.07,1.11-3.92,1.82-5.16,1.86h0c-3.57.1-9.12-2.49-13.53-5.69-6.58-4.77-15.24-10.05-18.18-7.78-.53.41-1.01.86-1.49,1.3-3.74,3.5-6.72,7.03-11.67,8.36-.95.26-1.96.43-3.01.5-5.26.38-9.92-1.22-12.85-4.62-1.09-1.26-2.22-2.43-3.37-3.5-4.92-4.61-11.57-5.76-18.75-2.58-5.33,2.36-8.03,9.34-12.24,13-1.26,1.1-2.49,1.96-4.12,2.36-.41.1-.84.19-1.31.23-.66.06-1.32-.08-2.02-.29-3.58-1.07-6.25-5.59-9.06-6.25,0,0-.04,0-.04,0-.48-.11-1.16-.04-1.87.05-1.72.21-3.19.1-4.54-.13-2.58-.43-4.31-1.64-6.36-3.48-.78-.7-1.52-1.47-2.25-2.27-.95-1.04-1.74-1.85-2.49-2.38-2.68-1.87-4.67-.19-6.93,2.69-1.46,1.86-3.13,3.75-4.93,5.65-1.94,2.05-4.26,3.65-7.61,4.01-1.14.13-2.32.08-3.52-.09-4.58-.67-8.4-3.67-10.29-7.6-.61-1.26-.9-2.5-1.15-3.52-.45-1.86-1.36-2.35-4.31-1.96-.69.09-5.41,1.57-5.41,1.57V14.9Z"/>
          <path class="st64" d="M0,14.67h239.95v51.21c0,1.61-.22,2.98-.54,4-1.57,4.98-6.55,9.49-12.31,10.12-6.44.7-9.74-2.93-12.9-7.4-.5-.7-1.17-1.2-2.01-1.53-1.85-.72-4.27-.46-7.08.03-8.32,1.44-20.17,6.39-26.58,9.87-2.05,1.12-3.9,1.82-5.15,1.86h0c-3.6.1-9.17-2.46-13.53-5.64-6.51-4.76-15.21-10.01-18.18-7.75-.53.4-1.02.85-1.5,1.29-3.75,3.49-6.68,7.04-11.64,8.39-.95.26-1.95.43-3.01.51-5.24.4-9.92-1.17-12.87-4.54-1.09-1.25-2.23-2.41-3.38-3.49-4.9-4.61-11.52-5.79-18.72-2.67-5.36,2.33-8.12,9.24-12.32,12.91-1.26,1.1-2.48,1.97-4.09,2.4-.4.11-.83.2-1.29.25-.66.07-1.31-.06-2.02-.26-3.6-1.01-6.39-5.12-9.08-6.19,0,0-.04,0-.04,0-.45-.2-1.15-.06-1.87.02-1.71.19-3.18.07-4.54-.15-2.58-.43-4.33-1.6-6.39-3.41-.79-.69-1.53-1.46-2.26-2.26-.95-1.04-1.73-1.85-2.48-2.38-2.67-1.89-4.68-.27-6.95,2.56-1.47,1.83-3.15,3.7-4.95,5.63-1.93,2.06-4.22,3.68-7.57,4.07-1.14.13-2.31.09-3.52-.07-4.6-.65-8.43-3.64-10.32-7.56-.62-1.26-.91-2.5-1.15-3.52-.44-1.87-1.37-2.36-4.3-1.99-.72.09-5.42,1.56-5.42,1.56V14.67Z"/>
          <path class="st1" d="M0,14.43h239.95v51.14c0,1.62-.21,2.99-.53,4-1.55,4.96-6.51,9.49-12.28,10.11-6.46.7-9.72-2.96-12.89-7.41-.5-.7-1.17-1.2-2.01-1.53-1.85-.73-4.27-.47-7.08,0-8.33,1.4-20.2,6.28-26.58,9.78-2.04,1.12-3.88,1.82-5.14,1.87h0c-3.62.11-9.22-2.42-13.53-5.6-6.45-4.75-15.17-9.97-18.18-7.73-.54.4-1.02.84-1.5,1.28-3.77,3.48-6.65,7.04-11.61,8.42-.95.26-1.95.44-3,.53-5.23.42-9.91-1.12-12.88-4.46-1.1-1.24-2.24-2.4-3.38-3.48-4.88-4.61-11.48-5.83-18.7-2.75-5.39,2.3-8.22,9.14-12.4,12.82-1.26,1.11-2.46,1.99-4.05,2.44-.4.11-.82.21-1.28.27-.65.07-1.3-.04-2.01-.23-3.62-.96-6.29-5.41-9.1-6.13,0,0-.04,0-.04,0-.45-.2-1.15-.07-1.86,0-1.71.17-3.17.04-4.53-.18-2.59-.42-4.34-1.55-6.42-3.33-.8-.69-1.54-1.45-2.27-2.25-.95-1.04-1.73-1.85-2.48-2.39-2.66-1.9-4.68-.34-6.96,2.44-1.48,1.8-3.17,3.66-4.97,5.61-1.91,2.07-4.19,3.72-7.53,4.13-1.14.14-2.31.11-3.52-.05-4.61-.62-8.45-3.62-10.35-7.53-.62-1.26-.91-2.5-1.15-3.52-.43-1.88-1.38-2.37-4.3-2.01-.75.09-5.42,1.54-5.42,1.54V14.43Z"/>
          <path class="st46" d="M0,14.19h239.95v51.07c0,1.63-.21,3-.52,3.99-1.54,4.94-6.47,9.48-12.25,10.11-6.48.7-9.71-2.98-12.87-7.42-.5-.7-1.17-1.2-2.01-1.53-1.85-.74-4.27-.47-7.08-.01-8.33,1.36-20.23,6.17-26.58,9.69-2.02,1.12-3.86,1.82-5.14,1.87h0c-3.65.11-9.27-2.39-13.54-5.56-6.38-4.73-15.13-9.93-18.17-7.71-.54.39-1.03.83-1.5,1.27-3.77,3.48-6.62,7.05-11.57,8.44-.95.27-1.95.45-3,.54-5.22.44-9.91-1.06-12.89-4.38-1.11-1.23-2.25-2.39-3.39-3.47-4.86-4.61-11.43-5.87-18.67-2.84-5.41,2.27-8.32,9.04-12.49,12.72-1.26,1.11-2.44,2.01-4.02,2.48-.4.12-.82.22-1.27.28-.65.08-1.3-.02-2.01-.2-3.65-.89-6.31-5.32-9.13-6.07,0,0-.04,0-.04,0-.48-.13-1.15-.09-1.86-.02-1.7.15-3.16.01-4.53-.21-2.59-.42-4.35-1.5-6.44-3.26-.81-.68-1.55-1.44-2.29-2.24-.95-1.03-1.72-1.86-2.47-2.4-2.64-1.92-4.68-.41-6.98,2.31-1.49,1.77-3.2,3.62-4.99,5.58-1.9,2.08-4.15,3.75-7.49,4.19-1.13.15-2.31.12-3.52-.03-4.63-.6-8.48-3.59-10.37-7.49-.62-1.26-.92-2.5-1.15-3.52-.43-1.89-1.38-2.38-4.29-2.03-.79.09-5.43,1.53-5.43,1.53V14.19Z"/>
          <path class="st17" d="M0,13.96h239.95v51c0,1.65-.21,3.01-.51,3.99-1.52,4.91-6.43,9.47-12.23,10.1-6.5.7-9.69-3.01-12.85-7.43-.5-.7-1.17-1.2-2-1.53-1.86-.75-4.27-.48-7.07-.03-8.34,1.33-20.26,6.06-26.58,9.6-2,1.12-3.85,1.83-5.13,1.87h0c-3.68.12-9.32-2.36-13.54-5.51-6.31-4.72-15.09-9.9-18.17-7.68-.54.39-1.03.83-1.51,1.26-3.79,3.47-6.59,7.06-11.54,8.47-.95.27-1.94.46-2.99.55-5.2.46-9.91-1.01-12.91-4.3-1.11-1.22-2.26-2.37-3.39-3.45-4.84-4.61-11.38-5.91-18.64-2.93-5.44,2.24-8.42,8.94-12.57,12.63-1.26,1.12-2.42,2.03-3.98,2.53-.39.12-.81.24-1.26.3-.64.09-1.29,0-2-.17-3.67-.84-6.34-5.23-9.15-6.01,0,0-.04,0-.04,0-.48-.13-1.15-.1-1.85-.05-1.69.13-3.15-.02-4.53-.24-2.59-.41-4.36-1.45-6.47-3.19-.82-.67-1.56-1.43-2.3-2.22-.95-1.03-1.72-1.86-2.47-2.41-2.63-1.93-4.69-.48-7,2.19-1.51,1.74-3.22,3.57-5.01,5.56-1.88,2.09-4.12,3.79-7.46,4.24-1.13.15-2.3.13-3.52-.02-4.65-.58-8.5-3.57-10.4-7.46-.62-1.26-.92-2.5-1.15-3.53-.42-1.9-1.39-2.38-4.29-2.05-.82.09-5.43,1.52-5.43,1.52V13.96Z"/>
          <path class="st18" d="M0,13.72h239.94v50.94c0,1.66-.21,3.02-.5,3.98-1.5,4.89-6.39,9.46-12.2,10.09-6.52.7-9.68-3.03-12.84-7.43-.5-.7-1.17-1.19-2-1.53-1.86-.75-4.27-.49-7.07-.05-8.34,1.29-20.28,5.95-26.58,9.51-1.98,1.12-3.83,1.83-5.13,1.88h0c-3.7.12-9.37-2.33-13.54-5.47-6.25-4.71-15.05-9.86-18.17-7.66-.54.38-1.04.82-1.51,1.25-3.8,3.46-6.55,7.07-11.51,8.5-.94.27-1.94.46-2.99.56-5.19.48-9.9-.96-12.92-4.22-1.12-1.21-2.27-2.36-3.4-3.44-4.82-4.61-11.33-5.95-18.62-3.01-5.47,2.2-8.51,8.83-12.65,12.54-1.25,1.12-2.41,2.05-3.95,2.57-.39.13-.8.25-1.25.32-.64.1-1.29.01-1.99-.13-3.69-.77-6.36-5.13-9.17-5.95,0,0-.04,0-.04,0-.48-.14-1.15-.12-1.85-.07-1.69.11-3.15-.05-4.53-.27-2.6-.41-4.38-1.4-6.5-3.12-.82-.67-1.58-1.42-2.31-2.21-.94-1.03-1.71-1.86-2.46-2.41-2.62-1.95-4.69-.55-7.02,2.06-1.52,1.71-3.24,3.53-5.03,5.54-1.87,2.1-4.08,3.83-7.42,4.3-1.13.16-2.3.15-3.52,0-4.66-.55-8.53-3.54-10.43-7.42-.62-1.26-.92-2.5-1.15-3.53-.41-1.9-1.4-2.4-4.28-2.07-.85.1-5.44,1.5-5.44,1.5V13.72Z"/>
          <path class="st4" d="M0,13.48h239.94v50.87c0,1.67-.21,3.03-.5,3.98-1.49,4.87-6.36,9.45-12.17,10.08-6.54.7-9.66-3.06-12.82-7.44-.5-.7-1.17-1.19-2-1.53-1.86-.76-4.26-.49-7.06-.07-8.35,1.25-20.31,5.84-26.58,9.42-1.97,1.12-3.81,1.83-5.12,1.88h0c-3.73.13-9.42-2.3-13.54-5.43-6.18-4.69-15.02-9.82-18.17-7.63-.55.38-1.04.81-1.52,1.24-3.81,3.45-6.52,7.07-11.48,8.53-.94.28-1.94.47-2.98.57-5.18.5-9.9-.91-12.93-4.14-1.13-1.2-2.27-2.34-3.41-3.43-4.8-4.61-11.28-5.99-18.59-3.1-5.49,2.17-8.61,8.73-12.73,12.44-1.25,1.13-2.39,2.07-3.91,2.61-.39.14-.79.26-1.24.34-.63.11-1.28.03-1.99-.1-3.71-.71-6.38-5.04-9.19-5.9,0,0-.04,0-.04,0-.48-.15-1.14-.13-1.84-.09-1.68.09-3.14-.08-4.52-.29-2.6-.4-4.39-1.35-6.52-3.05-.83-.66-1.59-1.41-2.32-2.2-.94-1.02-1.71-1.86-2.45-2.42-2.61-1.96-4.7-.63-7.03,1.94-1.53,1.68-3.26,3.49-5.05,5.52-1.86,2.11-4.04,3.86-7.38,4.36-1.12.17-2.3.16-3.52.02-4.68-.53-8.56-3.52-10.46-7.39-.62-1.26-.93-2.5-1.14-3.53-.41-1.91-1.41-2.4-4.28-2.09-.88.1-5.45,1.49-5.45,1.49V13.48Z"/>
          <path class="st51" d="M0,13.25h239.94v50.8c0,1.68-.21,3.04-.49,3.97-1.47,4.85-6.32,9.45-12.14,10.07-6.57.7-9.65-3.09-12.81-7.45-.5-.69-1.17-1.19-2-1.53-1.87-.77-4.26-.5-7.06-.09-8.35,1.21-20.34,5.73-26.58,9.33-1.95,1.12-3.79,1.84-5.12,1.89h0c-3.75.14-9.47-2.26-13.54-5.38-6.11-4.68-14.98-9.78-18.16-7.61-.55.37-1.05.8-1.52,1.23-3.82,3.44-6.49,7.08-11.44,8.56-.94.28-1.94.48-2.98.58-5.16.52-9.9-.86-12.94-4.07-1.13-1.19-2.28-2.33-3.41-3.42-4.78-4.61-11.23-6.03-18.57-3.18-5.52,2.14-8.71,8.63-12.81,12.35-1.25,1.13-2.37,2.09-3.88,2.65-.38.14-.79.27-1.23.36-.63.12-1.27.05-1.98-.07-3.74-.65-6.4-4.95-9.22-5.84,0,0-.04,0-.04,0-.48-.15-1.14-.15-1.84-.12-1.67.07-3.13-.11-4.52-.32-2.6-.39-4.4-1.3-6.55-2.98-.84-.66-1.6-1.4-2.33-2.19-.94-1.02-1.71-1.86-2.45-2.43-2.6-1.98-4.7-.7-7.05,1.81-1.55,1.65-3.28,3.45-5.07,5.49-1.84,2.12-4,3.9-7.34,4.42-1.12.17-2.29.17-3.52.04-4.7-.5-8.58-3.49-10.48-7.35-.62-1.26-.93-2.5-1.14-3.53-.4-1.92-1.42-2.41-4.27-2.11-.91.1-5.45,1.47-5.45,1.47V13.25Z"/>
          <path class="st12" d="M0,13.01h239.94v50.73c0,1.69-.2,3.05-.48,3.97-1.45,4.83-6.28,9.44-12.11,10.06-6.59.7-9.64-3.11-12.79-7.46-.5-.69-1.18-1.19-2-1.53-1.87-.77-4.26-.5-7.05-.11-8.36,1.17-20.37,5.61-26.58,9.23-1.93,1.12-3.77,1.84-5.11,1.89h0c-3.78.14-9.52-2.23-13.54-5.34-6.04-4.67-14.94-9.74-18.16-7.59-.55.37-1.05.8-1.53,1.22-3.83,3.43-6.46,7.09-11.41,8.58-.94.28-1.93.49-2.97.59-5.15.54-9.89-.81-12.96-3.99-1.14-1.18-2.29-2.31-3.42-3.41-4.76-4.6-11.19-6.07-18.54-3.27-5.55,2.11-8.81,8.53-12.89,12.26-1.25,1.14-2.35,2.12-3.84,2.69-.38.15-.78.29-1.22.38-.63.13-1.27.07-1.98-.04-3.76-.59-6.54-4.55-9.24-5.78,0,0-.04,0-.04-.01-.48-.16-1.14-.16-1.84-.14-1.67.05-3.12-.14-4.52-.35-2.61-.39-4.42-1.25-6.57-2.9-.85-.65-1.61-1.39-2.34-2.18-.94-1.02-1.7-1.86-2.44-2.44-2.58-1.99-4.71-.77-7.07,1.69-1.56,1.62-3.31,3.4-5.09,5.47-1.83,2.13-3.97,3.94-7.3,4.47-1.12.18-2.29.19-3.52.06-4.72-.48-8.61-3.46-10.51-7.32-.63-1.26-.93-2.5-1.14-3.53-.39-1.93-1.43-2.43-4.26-2.13-.95.1-5.46,1.46-5.46,1.46V13.01Z"/>
          <path class="st55" d="M0,12.77h239.93v50.66c0,1.7-.2,3.07-.47,3.97-1.44,4.8-6.24,9.43-12.08,10.05-6.61.71-9.62-3.14-12.77-7.47-.5-.69-1.17-1.19-2-1.54-1.88-.78-4.26-.51-7.05-.13-8.36,1.13-20.4,5.5-26.58,9.14-1.91,1.13-3.75,1.84-5.1,1.9h0c-3.81.15-9.56-2.2-13.54-5.3-5.98-4.65-14.9-9.7-18.16-7.56-.55.36-1.05.79-1.53,1.21-3.85,3.42-6.42,7.1-11.38,8.61-.94.29-1.93.49-2.97.61-5.13.56-9.89-.76-12.97-3.91-1.14-1.17-2.3-2.3-3.43-3.39-4.74-4.6-11.14-6.11-18.52-3.35-5.57,2.08-8.9,8.43-12.97,12.17-1.25,1.14-2.34,2.13-3.81,2.73-.38.15-.77.3-1.21.4-.62.14-1.26.09-1.97,0-3.79-.53-6.45-4.77-9.26-5.72,0,0-.04,0-.04-.01-.48-.16-1.14-.18-1.83-.16-1.66.03-3.11-.17-4.52-.38-2.61-.38-4.43-1.2-6.6-2.83-.86-.64-1.62-1.38-2.36-2.16-.94-1.02-1.7-1.87-2.44-2.44-2.57-2.01-4.71-.84-7.08,1.56-1.57,1.6-3.33,3.36-5.1,5.45-1.82,2.14-3.93,3.97-7.27,4.53-1.11.19-2.28.2-3.52.08-4.73-.46-8.64-3.44-10.54-7.28-.63-1.26-.94-2.5-1.14-3.54-.39-1.93-1.44-2.44-4.26-2.15-.98.1-5.47,1.45-5.47,1.45V12.77Z"/>
          <path class="st47" d="M0,12.54h239.93v50.59c0,1.71-.2,3.08-.46,3.96-1.42,4.78-6.2,9.42-12.05,10.05-6.63.71-9.61-3.17-12.76-7.47-.5-.69-1.18-1.19-2-1.54-1.88-.79-4.26-.52-7.05-.15-8.37,1.09-20.42,5.39-26.58,9.05-1.89,1.13-3.73,1.84-5.1,1.9h0c-3.83.15-9.61-2.17-13.54-5.25-5.91-4.64-14.87-9.67-18.15-7.54-.56.36-1.06.78-1.54,1.21-3.85,3.42-6.39,7.1-11.35,8.64-.94.29-1.93.5-2.97.62-5.12.58-9.88-.7-12.98-3.83-1.15-1.16-2.31-2.29-3.43-3.38-4.72-4.6-11.09-6.14-18.49-3.44-5.6,2.05-9,8.33-13.05,12.07-1.25,1.15-2.32,2.15-3.77,2.78-.37.16-.76.31-1.2.42-.62.15-1.26.11-1.97.03-3.81-.47-6.67-4.21-9.28-5.66,0,0-.04,0-.04-.01-.48-.17-1.14-.19-1.83-.19-1.65.01-3.11-.2-4.51-.41-2.62-.38-4.44-1.16-6.63-2.76-.87-.64-1.64-1.37-2.37-2.15-.94-1.01-1.69-1.87-2.43-2.45-2.56-2.02-4.71-.92-7.1,1.44-1.59,1.56-3.35,3.32-5.12,5.42-1.8,2.15-3.9,4.01-7.23,4.59-1.11.19-2.28.21-3.52.1-4.75-.43-8.66-3.41-10.57-7.25-.63-1.26-.94-2.5-1.14-3.54-.38-1.94-1.45-2.45-4.25-2.17-1.01.1-5.47,1.43-5.47,1.43V12.54Z"/>
          <path class="st84" d="M0,12.3h239.93v50.52c0,1.72-.2,3.09-.45,3.96-1.4,4.76-6.17,9.41-12.02,10.04-6.65.71-9.59-3.2-12.74-7.48-.5-.69-1.18-1.19-2-1.54-1.88-.8-4.26-.52-7.04-.17-8.37,1.05-20.45,5.28-26.58,8.96-1.88,1.13-3.71,1.85-5.09,1.91h0c-3.86.16-9.66-2.13-13.54-5.21-5.84-4.63-14.83-9.62-18.15-7.51-.56.35-1.06.77-1.54,1.2-3.87,3.41-6.36,7.11-11.31,8.67-.93.29-1.92.51-2.96.63-5.11.6-9.88-.65-12.99-3.75-1.16-1.15-2.32-2.27-3.44-3.37-4.69-4.6-11.04-6.18-18.46-3.52-5.63,2.02-9.1,8.23-13.14,11.98-1.25,1.16-2.3,2.17-3.73,2.82-.37.17-.76.32-1.19.44-.61.16-1.25.13-1.96.06-3.83-.41-6.69-4.14-9.31-5.6,0,0-.04,0-.04-.01-.48-.18-1.13-.21-1.82-.21-1.65,0-3.1-.24-4.51-.43-2.62-.37-4.45-1.11-6.65-2.69-.88-.63-1.65-1.36-2.38-2.14-.94-1.01-1.69-1.87-2.43-2.46-2.55-2.03-4.72-.99-7.12,1.32-1.6,1.54-3.37,3.27-5.14,5.4-1.79,2.15-3.86,4.04-7.19,4.65-1.11.2-2.28.23-3.52.12-4.77-.41-8.69-3.39-10.59-7.21-.63-1.26-.94-2.5-1.14-3.54-.37-1.95-1.46-2.46-4.25-2.19-1.04.1-5.48,1.42-5.48,1.42V12.3Z"/>
          <path class="st71" d="M0,12.07h239.93v50.46c0,1.73-.19,3.1-.44,3.95-1.39,4.74-6.13,9.4-12,10.03-6.67.71-9.58-3.22-12.72-7.49-.51-.69-1.18-1.19-1.99-1.54-1.89-.8-4.26-.53-7.04-.19-8.38,1.01-20.48,5.16-26.58,8.87-1.86,1.13-3.69,1.85-5.09,1.91h0c-3.88.16-9.71-2.1-13.54-5.17-5.78-4.62-14.79-9.59-18.15-7.49-.56.35-1.07.77-1.54,1.19-3.88,3.4-6.33,7.12-11.28,8.7-.93.3-1.92.51-2.96.64-5.09.62-9.88-.6-13-3.67-1.16-1.14-2.33-2.26-3.44-3.36-4.67-4.6-11-6.22-18.44-3.61-5.65,1.98-9.19,8.13-13.22,11.88-1.25,1.16-2.28,2.19-3.7,2.86-.37.17-.75.34-1.18.46-.61.17-1.24.15-1.96.09-3.86-.35-6.71-4.06-9.33-5.54,0,0-.04,0-.04-.01-.48-.18-1.13-.22-1.82-.23-1.64-.03-3.09-.27-4.51-.46-2.62-.36-4.47-1.06-6.68-2.62-.88-.62-1.66-1.35-2.39-2.13-.94-1.01-1.68-1.87-2.42-2.47-2.54-2.05-4.72-1.06-7.14,1.19-1.61,1.5-3.4,3.23-5.16,5.38-1.78,2.16-3.82,4.08-7.15,4.7-1.1.21-2.27.24-3.52.14-4.78-.39-8.71-3.37-10.62-7.18-.63-1.26-.95-2.5-1.14-3.54-.37-1.96-1.47-2.47-4.24-2.21-1.07.1-5.49,1.41-5.49,1.41V12.07Z"/>
          <path class="st28" d="M0,11.83h239.92v50.39c0,1.74-.19,3.11-.43,3.95-1.37,4.72-6.09,9.4-11.97,10.02-6.7.71-9.56-3.25-12.71-7.5-.51-.68-1.18-1.19-1.99-1.54-1.89-.81-4.26-.54-7.03-.21-8.38.98-20.51,5.05-26.58,8.78-1.84,1.13-3.67,1.85-5.08,1.92h0c-3.91.17-9.76-2.07-13.54-5.12-5.71-4.6-14.75-9.55-18.15-7.47-.56.35-1.07.76-1.55,1.17-3.89,3.39-6.3,7.13-11.25,8.72-.93.3-1.92.52-2.95.65-5.08.64-9.87-.55-13.02-3.59-1.17-1.13-2.33-2.24-3.45-3.35-4.65-4.6-10.95-6.26-18.41-3.7-5.68,1.95-9.29,8.03-13.3,11.79-1.24,1.17-2.27,2.21-3.66,2.9-.36.18-.74.35-1.17.47-.6.18-1.24.17-1.95.12-3.88-.28-6.73-3.98-9.35-5.49,0,0-.04,0-.04-.01-.48-.19-1.13-.24-1.81-.26-1.63-.05-3.08-.3-4.51-.49-2.63-.36-4.48-1.01-6.7-2.55-.89-.62-1.67-1.34-2.4-2.12-.94-1-1.68-1.87-2.41-2.47-2.52-2.06-4.73-1.13-7.15,1.06-1.63,1.48-3.42,3.19-5.18,5.36-1.76,2.17-3.79,4.12-7.11,4.76-1.1.21-2.27.25-3.52.16-4.8-.36-8.74-3.34-10.65-7.14-.64-1.26-.95-2.5-1.14-3.54-.36-1.96-1.48-2.48-4.24-2.24-1.11.1-5.49,1.39-5.49,1.39V11.83Z"/>
          <path class="st33" d="M0,11.59h239.92v50.32c0,1.75-.19,3.12-.43,3.94-1.35,4.7-6.05,9.39-11.94,10.01-6.72.71-9.55-3.28-12.69-7.51-.51-.68-1.18-1.19-1.99-1.54-1.9-.82-4.26-.54-7.03-.23-8.39.94-20.54,4.94-26.58,8.69-1.82,1.13-3.66,1.86-5.07,1.92h0c-3.93.17-9.81-2.04-13.54-5.08-5.64-4.59-14.71-9.51-18.14-7.44-.57.34-1.08.75-1.55,1.17-3.9,3.38-6.26,7.14-11.22,8.75-.93.3-1.91.53-2.95.66-5.07.66-9.87-.5-13.03-3.51-1.17-1.12-2.34-2.23-3.46-3.33-4.63-4.6-10.9-6.3-18.39-3.78-5.71,1.92-9.39,7.93-13.38,11.7-1.24,1.17-2.25,2.24-3.63,2.94-.36.18-.73.36-1.16.49-.6.19-1.23.19-1.95.15-3.9-.22-6.75-3.9-9.38-5.43,0,0-.03,0-.04-.01-.48-.19-1.13-.25-1.81-.28-1.62-.07-3.08-.33-4.5-.52-2.63-.35-4.49-.96-6.73-2.47-.9-.61-1.68-1.32-2.41-2.11-.94-1-1.67-1.87-2.41-2.48-2.51-2.08-4.74-1.21-7.17.94-1.64,1.45-3.44,3.15-5.2,5.33-1.75,2.18-3.75,4.15-7.07,4.82-1.1.22-2.27.27-3.52.18-4.82-.34-8.77-3.31-10.67-7.11-.64-1.25-.95-2.5-1.14-3.55-.35-1.97-1.48-2.49-4.23-2.26-1.14.1-5.5,1.38-5.5,1.38V11.59Z"/>
          <path class="st77" d="M0,11.36h239.92v50.25c0,1.76-.19,3.13-.42,3.94-1.34,4.68-6.01,9.38-11.91,10-6.74.71-9.53-3.3-12.67-7.52-.51-.68-1.18-1.19-1.99-1.54-1.9-.83-4.26-.55-7.02-.25-8.39.9-20.56,4.83-26.58,8.6-1.81,1.13-3.64,1.86-5.07,1.93h0c-3.96.18-9.86-2.01-13.55-5.04-5.57-4.58-14.67-9.47-18.14-7.42-.57.34-1.08.74-1.56,1.16-3.91,3.37-6.23,7.14-11.19,8.78-.93.31-1.91.54-2.94.67-5.05.68-9.87-.45-13.04-3.43-1.18-1.11-2.35-2.21-3.46-3.32-4.61-4.6-10.85-6.34-18.36-3.87-5.73,1.89-9.49,7.83-13.46,11.61-1.24,1.18-2.23,2.26-3.59,2.98-.36.19-.73.37-1.15.51-.6.19-1.23.21-1.94.18-3.93-.16-6.58-4.21-9.4-5.37,0,0-.03,0-.04-.01-.45-.28-1.13-.27-1.8-.3-1.62-.09-3.07-.36-4.5-.55-2.63-.34-4.51-.91-6.76-2.4-.91-.6-1.7-1.31-2.42-2.09-.94-1-1.67-1.88-2.4-2.49-2.5-2.09-4.74-1.28-7.19.81-1.66,1.42-3.47,3.1-5.22,5.31-1.74,2.19-3.71,4.19-7.04,4.88-1.09.23-2.26.28-3.52.2-4.83-.32-8.78-3.29-10.7-7.07-.64-1.25-.96-2.5-1.14-3.55-.35-1.98-1.49-2.51-4.23-2.28-1.17.1-5.5,1.37-5.5,1.37V11.36Z"/>
          <path class="st5" d="M0,11.12h239.92v50.18c0,1.77-.18,3.14-.41,3.93-1.32,4.65-5.98,9.37-11.88,10-6.76.71-9.52-3.33-12.66-7.52-.51-.68-1.18-1.19-1.99-1.54-1.9-.83-4.26-.56-7.02-.27-8.4.86-20.59,4.72-26.58,8.51-1.79,1.13-3.62,1.86-5.06,1.93h0c-3.99.18-9.91-1.98-13.55-5-5.51-4.56-14.63-9.43-18.14-7.39-.57.33-1.08.74-1.56,1.15-3.92,3.36-6.2,7.15-11.15,8.81-.93.31-1.91.54-2.94.69-5.04.7-9.86-.39-13.06-3.35-1.19-1.1-2.36-2.2-3.47-3.31-4.59-4.6-10.8-6.38-18.33-3.95-5.76,1.86-9.58,7.73-13.54,11.51-1.24,1.18-2.21,2.28-3.56,3.02-.35.2-.72.39-1.14.53-.59.2-1.22.23-1.93.22-3.95-.09-6.79-3.75-9.42-5.31,0,0-.03,0-.04-.01-.49-.21-1.12-.28-1.8-.33-1.61-.11-3.06-.39-4.5-.58-2.64-.34-4.52-.86-6.78-2.33-.92-.6-1.71-1.3-2.44-2.08-.93-1-1.67-1.88-2.4-2.5-2.49-2.11-4.75-1.35-7.21.69-1.67,1.39-3.49,3.06-5.24,5.29-1.72,2.2-3.68,4.22-7,4.93-1.09.23-2.26.29-3.52.22-4.85-.29-8.81-3.27-10.73-7.04-.64-1.25-.96-2.5-1.14-3.55-.34-1.99-1.5-2.52-4.22-2.3-1.2.1-5.51,1.35-5.51,1.35V11.12Z"/>
          <path class="st29" d="M0,10.88h239.91v50.11c0,1.79-.18,3.15-.4,3.93-1.3,4.63-5.94,9.36-11.85,9.99-6.78.71-9.51-3.35-12.64-7.53-.51-.68-1.18-1.19-1.99-1.54-1.91-.84-4.26-.56-7.02-.29-8.41.82-20.62,4.6-26.58,8.42-1.77,1.13-3.6,1.86-5.06,1.94h0c-4.01.19-9.95-1.94-13.55-4.95-5.44-4.55-14.59-9.39-18.13-7.37-.58.33-1.09.73-1.57,1.14-3.94,3.35-6.17,7.16-11.12,8.84-.92.31-1.91.55-2.94.7-5.02.72-9.86-.34-13.07-3.27-1.19-1.09-2.37-2.19-3.48-3.3-4.57-4.6-10.76-6.42-18.31-4.04-5.79,1.83-9.68,7.63-13.62,11.42-1.24,1.19-2.2,2.3-3.52,3.07-.35.2-.71.4-1.13.55-.59.21-1.21.25-1.93.25-3.97-.03-6.77-3.73-9.44-5.25,0,0-.03,0-.04-.01-.49-.21-1.12-.3-1.79-.35-1.6-.13-3.05-.42-4.5-.6-2.64-.33-4.54-.81-6.81-2.26-.93-.59-1.72-1.29-2.45-2.07-.93-.99-1.66-1.88-2.39-2.5-2.48-2.12-4.75-1.43-7.22.57-1.68,1.36-3.51,3.01-5.26,5.27-1.71,2.21-3.64,4.26-6.96,4.99-1.09.24-2.26.31-3.52.24-4.87-.27-8.84-3.24-10.75-7-.64-1.25-.96-2.5-1.14-3.55-.33-2-1.51-2.53-4.22-2.32-1.24.1-5.52,1.34-5.52,1.34V10.88Z"/>
          <path class="st83" d="M0,10.65h239.91v50.04c0,1.79-.18,3.16-.39,3.92-1.29,4.61-5.9,9.36-11.82,9.98-6.8.71-9.49-3.38-12.63-7.54-.51-.68-1.18-1.19-1.99-1.54-1.91-.85-4.26-.57-7.01-.31-8.41.78-20.65,4.49-26.58,8.33-1.75,1.13-3.58,1.87-5.05,1.94h0c-4.04.2-10-1.91-13.55-4.91-5.37-4.54-14.55-9.35-18.13-7.35-.58.32-1.09.72-1.57,1.12-3.95,3.34-6.13,7.17-11.09,8.87-.92.32-1.9.56-2.93.71-5.01.74-9.85-.29-13.08-3.19-1.2-1.08-2.38-2.17-3.48-3.29-4.55-4.6-10.71-6.46-18.28-4.12-5.81,1.79-9.78,7.53-13.71,11.33-1.24,1.2-2.18,2.32-3.49,3.11-.34.21-.7.41-1.12.57-.58.22-1.21.27-1.92.28-4,.04-6.64-3.94-9.47-5.19,0,0-.03,0-.04-.01-.49-.22-1.12-.31-1.79-.37-1.6-.15-3.04-.45-4.49-.63-2.65-.33-4.55-.76-6.83-2.19-.94-.59-1.73-1.28-2.46-2.06-.93-.99-1.66-1.88-2.38-2.51-2.47-2.14-4.76-1.5-7.24.44-1.7,1.33-3.54,2.97-5.28,5.24-1.7,2.21-3.6,4.29-6.92,5.05-1.08.25-2.25.32-3.52.26-4.89-.24-8.86-3.22-10.78-6.96-.64-1.25-.97-2.5-1.14-3.55-.32-2-1.52-2.54-4.21-2.34-1.27.1-5.52,1.33-5.52,1.33V10.65Z"/>
          <path class="st67" d="M0,10.41h239.91v49.97c0,1.81-.17,3.17-.38,3.92-1.28,4.59-5.86,9.35-11.79,9.97-6.83.71-9.48-3.41-12.61-7.55-.51-.68-1.18-1.18-1.99-1.54-1.91-.85-4.26-.58-7.01-.34-8.42.74-20.68,4.37-26.58,8.24-1.73,1.13-3.56,1.87-5.05,1.95h0c-4.06.2-10.05-1.88-13.55-4.87-5.3-4.53-14.51-9.31-18.13-7.32-.58.32-1.1.71-1.58,1.12-3.96,3.34-6.1,7.17-11.06,8.89-.92.32-1.9.56-2.93.72-5,.76-9.85-.24-13.09-3.11-1.21-1.07-2.39-2.16-3.49-3.28-4.53-4.6-10.66-6.5-18.26-4.21-5.84,1.76-9.87,7.43-13.79,11.23-1.23,1.2-2.16,2.34-3.45,3.15-.34.21-.7.42-1.11.59-.58.23-1.2.29-1.92.31-4.02.1-6.86-3.48-9.49-5.13,0,0-.03,0-.04-.01-.49-.23-1.12-.33-1.78-.4-1.59-.17-3.03-.48-4.49-.66-2.65-.32-4.56-.71-6.86-2.12-.95-.58-1.74-1.27-2.47-2.05-.93-.99-1.65-1.88-2.38-2.52-2.45-2.15-4.77-1.57-7.26.32-1.71,1.3-3.56,2.93-5.3,5.22-1.68,2.22-3.57,4.33-6.88,5.11-1.08.25-2.25.33-3.52.28-4.9-.22-8.89-3.19-10.81-6.93-.64-1.25-.97-2.5-1.14-3.56-.32-2.01-1.53-2.56-4.21-2.36-1.3.09-5.53,1.31-5.53,1.31V10.41Z"/>
          <path class="st57" d="M0,10.17h239.91v49.91c0,1.82-.17,3.18-.37,3.92-1.26,4.57-5.82,9.34-11.76,9.96-6.85.71-9.46-3.44-12.59-7.56-.51-.68-1.18-1.18-1.98-1.55-1.92-.86-4.26-.58-7-.35-8.42.7-20.71,4.26-26.58,8.15-1.72,1.14-3.54,1.87-5.04,1.95h0c-4.09.21-10.1-1.85-13.55-4.82-5.24-4.51-14.47-9.27-18.13-7.3-.58.31-1.1.7-1.58,1.11-3.97,3.33-6.07,7.18-11.03,8.92-.92.32-1.9.57-2.92.73-4.98.78-9.85-.19-13.11-3.03-1.21-1.05-2.39-2.14-3.49-3.26-4.51-4.6-10.61-6.54-18.23-4.29-5.87,1.73-9.97,7.33-13.87,11.14-1.23,1.21-2.14,2.36-3.42,3.19-.34.22-.69.44-1.1.61-.57.24-1.2.31-1.91.34-4.05.17-6.92-3.35-9.51-5.08,0,0-.03-.01-.04-.01-.46-.29-1.12-.34-1.78-.42-1.58-.19-3.03-.51-4.49-.69-2.65-.32-4.58-.66-6.89-2.05-.95-.57-1.75-1.26-2.48-2.03-.93-.99-1.65-1.88-2.37-2.53-2.44-2.16-4.77-1.65-7.28.19-1.73,1.27-3.58,2.88-5.31,5.2-1.67,2.23-3.53,4.37-6.85,5.16-1.08.26-2.25.35-3.52.3-4.92-.2-8.91-3.16-10.84-6.89-.65-1.25-.97-2.5-1.14-3.56-.31-2.02-1.54-2.57-4.2-2.38-1.33.09-5.54,1.3-5.54,1.3V10.17Z"/>
          <path class="st68" d="M0,9.94h239.9v49.84c0,1.83-.17,3.2-.37,3.91-1.24,4.55-5.79,9.33-11.74,9.95-6.87.71-9.45-3.46-12.58-7.56-.51-.67-1.18-1.18-1.98-1.55-1.92-.87-4.26-.59-7-.37-8.43.66-20.74,4.15-26.58,8.06-1.7,1.14-3.52,1.87-5.03,1.96h0c-4.12.21-10.15-1.81-13.55-4.78-5.17-4.5-14.44-9.23-18.12-7.27-.59.31-1.11.7-1.58,1.1-3.98,3.32-6.04,7.19-10.99,8.95-.92.33-1.89.58-2.92.74-4.97.8-9.84-.13-13.12-2.95-1.22-1.05-2.4-2.13-3.5-3.25-4.49-4.6-10.57-6.58-18.21-4.38-5.89,1.7-10.07,7.23-13.95,11.05-1.23,1.21-2.13,2.38-3.38,3.23-.33.23-.68.45-1.09.62-.57.25-1.19.33-1.91.38-4.07.23-6.9-3.32-9.53-5.02,0,0-.03-.01-.04-.02-.44-.32-1.12-.36-1.77-.44-1.58-.21-3.02-.54-4.49-.72-2.66-.31-4.59-.61-6.91-1.97-.96-.56-1.77-1.25-2.5-2.02-.93-.98-1.64-1.88-2.37-2.53-2.43-2.18-4.78-1.72-7.29.07-1.74,1.24-3.6,2.84-5.33,5.18-1.66,2.24-3.49,4.4-6.81,5.22-1.07.27-2.24.36-3.52.32-4.94-.17-8.94-3.14-10.86-6.86-.65-1.25-.98-2.5-1.14-3.56-.3-2.03-1.55-2.58-4.2-2.4-1.36.09-5.54,1.29-5.54,1.29V9.94Z"/>
          <path class="st34" d="M0,9.7h239.9v49.77c0,1.84-.17,3.21-.36,3.91-1.22,4.53-5.75,9.32-11.71,9.94-6.89.71-9.43-3.49-12.56-7.57-.52-.67-1.18-1.18-1.98-1.55-1.92-.88-4.26-.59-6.99-.39-8.43.62-20.76,4.03-26.58,7.96-1.68,1.14-3.5,1.88-5.03,1.96h0c-4.14.22-10.2-1.78-13.55-4.73-5.1-4.49-14.39-9.19-18.12-7.25-.59.31-1.11.69-1.59,1.09-3.99,3.31-6,7.19-10.96,8.98-.92.33-1.89.59-2.91.76-4.96.82-9.84-.08-13.13-2.88-1.22-1.04-2.41-2.11-3.51-3.24-4.47-4.59-10.52-6.62-18.18-4.46-5.92,1.67-10.16,7.13-14.03,10.96-1.23,1.22-2.11,2.4-3.35,3.27-.33.23-.68.46-1.08.64-.56.26-1.18.35-1.9.41-4.09.3-6.91-3.24-9.56-4.96,0,0-.03-.01-.04-.02-.45-.31-1.11-.37-1.77-.47-1.57-.23-3.01-.58-4.48-.74-2.66-.3-4.61-.56-6.94-1.9-.97-.56-1.78-1.24-2.51-2.01-.93-.98-1.64-1.89-2.36-2.54-2.42-2.19-4.79-1.79-7.31-.06-1.76,1.2-3.63,2.8-5.35,5.15-1.65,2.25-3.46,4.44-6.77,5.28-1.07.27-2.24.37-3.51.33-4.95-.15-8.97-3.11-10.89-6.82-.65-1.25-.98-2.5-1.14-3.56-.3-2.03-1.55-2.59-4.19-2.42-1.4.09-5.55,1.27-5.55,1.27V9.7Z"/>
          <path class="st32" d="M0,9.46h239.9v49.7c0,1.85-.16,3.22-.35,3.9-1.21,4.5-5.71,9.31-11.68,9.94-6.91.71-9.42-3.51-12.55-7.58-.52-.67-1.18-1.18-1.98-1.55-1.93-.88-4.26-.6-6.99-.42-8.44.58-20.79,3.92-26.58,7.87-1.66,1.14-3.49,1.88-5.02,1.97h0c-4.17.22-10.25-1.75-13.55-4.69-5.04-4.48-14.36-9.15-18.12-7.23-.59.3-1.11.68-1.59,1.08-4.01,3.3-5.97,7.2-10.93,9-.92.33-1.89.59-2.91.77-4.94.84-9.84-.03-13.14-2.8-1.23-1.02-2.42-2.1-3.51-3.23-4.45-4.59-10.47-6.66-18.15-4.55-5.95,1.63-10.26,7.03-14.11,10.86-1.23,1.22-2.09,2.42-3.31,3.32-.33.24-.67.47-1.07.66-.56.27-1.18.38-1.9.44-4.12.37-7.01-3.05-9.58-4.9,0,0-.03-.01-.04-.02-.45-.32-1.11-.39-1.76-.49-1.56-.25-3-.61-4.48-.77-2.66-.3-4.62-.51-6.97-1.83-.98-.55-1.79-1.23-2.52-2-.93-.98-1.63-1.89-2.36-2.55-2.41-2.21-4.79-1.87-7.33-.18-1.77,1.17-3.65,2.75-5.37,5.13-1.63,2.26-3.42,4.47-6.73,5.34-1.07.28-2.23.39-3.51.35-4.97-.12-8.99-3.09-10.92-6.79-.65-1.25-.98-2.5-1.14-3.56-.29-2.04-1.56-2.61-4.19-2.44-1.43.09-5.55,1.26-5.55,1.26V9.46Z"/>
          <path class="st78" d="M0,9.23h239.9v49.63c0,1.86-.16,3.23-.34,3.9-1.19,4.48-5.67,9.31-11.65,9.93-6.93.72-9.4-3.54-12.53-7.59-.52-.67-1.18-1.18-1.98-1.55-1.93-.89-4.26-.61-6.98-.43-8.44.54-20.82,3.8-26.58,7.78-1.65,1.14-3.47,1.88-5.02,1.97h0c-4.19.23-10.29-1.72-13.55-4.65-4.97-4.46-14.32-9.11-18.12-7.2-.59.3-1.12.67-1.6,1.07-4.02,3.29-5.94,7.21-10.9,9.03-.91.34-1.88.6-2.9.78-4.93.86-9.83.02-13.16-2.72-1.24-1.01-2.43-2.09-3.52-3.22-4.43-4.59-10.42-6.7-18.13-4.63-5.98,1.6-10.36,6.93-14.19,10.77-1.23,1.23-2.07,2.45-3.28,3.36-.32.24-.66.48-1.06.68-.56.28-1.17.4-1.89.47-4.14.43-7.03-2.97-9.6-4.84,0,0-.03-.01-.04-.02-.46-.32-1.11-.4-1.76-.51-1.56-.27-2.99-.64-4.48-.8-2.67-.29-4.63-.46-6.99-1.76-.99-.54-1.8-1.22-2.53-1.99-.93-.98-1.63-1.89-2.35-2.56-2.4-2.22-4.8-1.94-7.35-.31-1.79,1.14-3.67,2.71-5.39,5.11-1.62,2.26-3.39,4.51-6.69,5.39-1.06.29-2.23.4-3.52.37-4.99-.1-9.02-3.06-10.95-6.75-.65-1.25-.99-2.5-1.14-3.57-.28-2.05-1.57-2.62-4.18-2.46-1.46.09-5.56,1.24-5.56,1.24V9.23Z"/>
          <path class="st42" d="M0,8.99h239.89v49.56c0,1.87-.16,3.24-.33,3.89-1.17,4.46-5.63,9.3-11.62,9.92-6.96.72-9.39-3.57-12.51-7.6-.52-.67-1.18-1.18-1.98-1.55-1.94-.9-4.26-.61-6.98-.45-8.45.5-20.85,3.69-26.58,7.69-1.63,1.14-3.45,1.89-5.01,1.98h0c-4.22.23-10.34-1.69-13.56-4.61-4.9-4.45-14.27-9.06-18.11-7.18-.6.29-1.12.67-1.6,1.06-4.03,3.28-5.91,7.21-10.86,9.06-.91.34-1.88.61-2.9.79-4.92.88-9.83.07-13.17-2.64-1.24-1-2.44-2.07-3.53-3.2-4.41-4.59-10.38-6.74-18.1-4.72-6,1.57-10.46,6.83-14.28,10.68-1.23,1.24-2.05,2.47-3.24,3.4-.32.25-.65.5-1.04.7-.55.29-1.16.42-1.89.5-4.16.5-7.05-2.89-9.63-4.78,0,0-.03-.01-.04-.02-.45-.33-1.11-.42-1.75-.54-1.55-.29-2.99-.67-4.48-.83-2.67-.29-4.65-.41-7.02-1.69-1-.54-1.81-1.21-2.54-1.97-.93-.97-1.63-1.89-2.34-2.56-2.38-2.23-4.81-2.01-7.36-.43-1.8,1.11-3.7,2.67-5.41,5.09-1.61,2.27-3.35,4.54-6.66,5.45-1.06.29-2.23.41-3.51.39-5-.08-9.05-3.04-10.97-6.72-.65-1.25-.99-2.5-1.13-3.57-.28-2.06-1.58-2.63-4.18-2.49-1.49.08-5.57,1.23-5.57,1.23V8.99Z"/>
          <path class="st35" d="M0,8.75h239.89v49.49c0,1.88-.16,3.25-.32,3.89-1.16,4.44-5.6,9.29-11.59,9.91-6.98.72-9.38-3.6-12.5-7.6-.52-.67-1.18-1.18-1.98-1.55-1.94-.91-4.26-.62-6.98-.47-8.45.46-20.88,3.57-26.58,7.6-1.61,1.14-3.43,1.89-5,1.98h0c-4.25.24-10.39-1.65-13.56-4.56-4.83-4.44-14.24-9.03-18.11-7.15-.6.29-1.13.66-1.61,1.05-4.04,3.27-5.88,7.22-10.83,9.09-.91.34-1.88.61-2.9.8-4.9.9-9.83.12-13.18-2.56-1.25-.99-2.45-2.06-3.53-3.19-4.39-4.59-10.33-6.78-18.08-4.81-6.03,1.54-10.55,6.73-14.36,10.58-1.22,1.24-2.04,2.49-3.21,3.44-.32.26-.65.51-1.03.72-.55.3-1.16.44-1.88.53-4.19.57-7.03-2.86-9.65-4.72,0,0-.03-.01-.04-.02-.45-.34-1.11-.43-1.75-.56-1.54-.31-2.98-.7-4.47-.86-2.68-.28-4.66-.36-7.04-1.62-1.01-.53-1.83-1.2-2.55-1.96-.93-.97-1.62-1.89-2.34-2.57-2.37-2.25-4.81-2.09-7.38-.56-1.82,1.08-3.72,2.62-5.43,5.06-1.6,2.28-3.31,4.58-6.62,5.51-1.06.3-2.22.43-3.51.41-5.02-.05-9.07-3.01-11-6.68-.66-1.25-.99-2.5-1.13-3.57-.27-2.07-1.59-2.65-4.17-2.51-1.53.08-5.57,1.22-5.57,1.22V8.75Z"/>
          <path class="st22" d="M0,8.52h239.89v49.42c0,1.89-.15,3.26-.31,3.88-1.14,4.42-5.56,9.28-11.56,9.9-7,.72-9.37-3.62-12.48-7.61-.52-.67-1.18-1.18-1.97-1.55-1.94-.91-4.26-.63-6.97-.49-8.46.42-20.91,3.46-26.58,7.51-1.59,1.14-3.41,1.89-5,1.99h0c-4.27.24-10.44-1.62-13.56-4.52-4.77-4.43-14.2-8.98-18.11-7.13-.6.28-1.13.65-1.61,1.04-4.05,3.26-5.84,7.23-10.8,9.12-.91.35-1.88.62-2.89.81-4.89.92-9.82.17-13.19-2.48-1.25-.98-2.45-2.04-3.54-3.18-4.37-4.59-10.28-6.82-18.05-4.89-6.06,1.5-10.65,6.63-14.44,10.49-1.22,1.25-2.02,2.51-3.17,3.48-.31.26-.64.52-1.02.74-.54.3-1.15.46-1.88.57-4.21.63-6.84-3.11-9.67-4.67,0,0-.03-.01-.04-.02-.45-.34-1.1-.44-1.74-.58-1.54-.33-2.97-.73-4.47-.88-2.68-.28-4.67-.31-7.07-1.54-1.02-.52-1.84-1.19-2.57-1.95-.92-.97-1.62-1.89-2.33-2.58-2.36-2.26-4.82-2.16-7.4-.68-1.83,1.05-3.74,2.58-5.45,5.04-1.58,2.29-3.28,4.61-6.58,5.57-1.05.3-2.22.44-3.51.43-5.04-.03-9.1-2.99-11.03-6.65-.66-1.25-1-2.5-1.13-3.57-.26-2.07-1.6-2.66-4.17-2.53-1.56.08-5.58,1.2-5.58,1.2V8.52Z"/>
          <path class="st41" d="M0,8.28h239.89v49.36c0,1.9-.15,3.27-.3,3.88-1.12,4.4-5.52,9.27-11.54,9.89-7.02.72-9.35-3.65-12.46-7.62-.52-.67-1.18-1.18-1.97-1.56-1.95-.92-4.26-.63-6.97-.51-8.47.38-20.94,3.34-26.58,7.42-1.58,1.14-3.39,1.89-4.99,1.99h0c-4.3.25-10.49-1.59-13.56-4.48-4.7-4.41-14.16-8.94-18.1-7.11-.6.28-1.14.64-1.62,1.03-4.07,3.25-5.81,7.23-10.77,9.15-.91.35-1.87.63-2.89.82-4.87.94-9.82.22-13.21-2.4-1.26-.97-2.46-2.03-3.54-3.17-4.35-4.59-10.23-6.86-18.03-4.98-6.08,1.47-10.75,6.53-14.52,10.4-1.22,1.25-2,2.53-3.13,3.52-.31.27-.63.53-1.01.76-.54.31-1.15.48-1.87.6-4.23.7-7.07-2.7-9.69-4.61,0,0-.03-.01-.04-.02-.45-.34-1.1-.46-1.74-.61-1.53-.35-2.96-.76-4.47-.91-2.68-.27-4.69-.26-7.1-1.47-1.02-.52-1.85-1.18-2.58-1.94-.92-.96-1.61-1.9-2.33-2.59-2.35-2.28-4.83-2.24-7.41-.81-1.85,1.02-3.77,2.53-5.47,5.02-1.57,2.29-3.24,4.65-6.54,5.62-1.05.31-2.22.45-3.51.45-5.05,0-9.13-2.96-11.06-6.61-.66-1.25-1-2.5-1.13-3.57-.25-2.08-1.61-2.67-4.16-2.55-1.59.08-5.59,1.19-5.59,1.19V8.28Z"/>
          <path class="st31" d="M0,8.04h239.88v49.29c0,1.92-.15,3.28-.3,3.88-1.11,4.38-5.48,9.27-11.51,9.88-7.04.72-9.33-3.68-12.45-7.63-.52-.66-1.18-1.18-1.97-1.56-1.95-.93-4.26-.64-6.96-.54-8.47.33-20.97,3.23-26.58,7.33-1.56,1.14-3.37,1.9-4.99,2h0c-4.32.25-10.54-1.56-13.56-4.43-4.63-4.4-14.12-8.9-18.1-7.08-.61.28-1.14.64-1.62,1.02-4.08,3.25-5.78,7.24-10.74,9.17-.91.35-1.87.64-2.88.84-4.86.96-9.81.28-13.22-2.32-1.27-.96-2.47-2.01-3.55-3.16-4.33-4.59-10.18-6.9-18-5.06-6.11,1.44-10.84,6.43-14.6,10.3-1.22,1.26-1.98,2.55-3.1,3.56-.31.28-.62.55-1,.78-.53.32-1.14.5-1.86.63-4.26.77-7.12-2.57-9.72-4.55,0,0-.03-.01-.04-.02-.46-.34-1.1-.47-1.74-.63-1.52-.37-2.95-.79-4.47-.94-2.69-.26-4.7-.21-7.12-1.4-1.03-.51-1.86-1.17-2.59-1.93-.92-.96-1.61-1.9-2.32-2.59-2.34-2.29-4.84-2.31-7.43-.93-1.86.99-3.79,2.49-5.49,5-1.56,2.3-3.2,4.68-6.5,5.68-1.05.32-2.21.47-3.51.47-5.07.02-9.16-2.93-11.08-6.58-.66-1.24-1-2.5-1.13-3.58-.25-2.09-1.62-2.68-4.16-2.57-1.62.07-5.59,1.18-5.59,1.18V8.04Z"/>
          <path class="st9" d="M0,7.81h239.88v49.22c0,1.93-.14,3.29-.29,3.87-1.09,4.36-5.45,9.26-11.48,9.88-7.06.72-9.32-3.7-12.43-7.64-.52-.66-1.18-1.18-1.97-1.56-1.96-.94-4.26-.65-6.96-.55-8.48.29-21,3.12-26.58,7.24-1.54,1.14-3.35,1.9-4.98,2h0c-4.35.26-10.59-1.53-13.56-4.39-4.56-4.39-14.08-8.86-18.1-7.06-.61.27-1.15.63-1.62,1.01-4.09,3.24-5.75,7.25-10.7,9.2-.9.36-1.87.64-2.88.85-4.85.98-9.81.33-13.23-2.24-1.27-.95-2.48-2-3.56-3.15-4.31-4.59-10.14-6.94-17.97-5.15-6.14,1.41-10.94,6.33-14.68,10.21-1.22,1.26-1.96,2.58-3.06,3.61-.3.28-.62.56-.99.8-.53.33-1.14.52-1.86.66-4.28.83-7.14-2.49-9.74-4.49,0,0-.03-.01-.04-.02-.44-.37-1.1-.49-1.73-.65-1.51-.39-2.95-.82-4.46-.97-2.69-.26-4.72-.16-7.15-1.33-1.04-.5-1.87-1.16-2.6-1.92-.92-.96-1.6-1.9-2.32-2.6-2.33-2.3-4.84-2.39-7.45-1.06-1.88.96-3.82,2.45-5.5,4.97-1.55,2.31-3.17,4.72-6.47,5.74-1.04.32-2.21.48-3.51.49-5.09.04-9.18-2.91-11.11-6.54-.66-1.24-1.01-2.5-1.13-3.58-.24-2.1-1.62-2.7-4.15-2.59-1.66.07-5.6,1.16-5.6,1.16V7.81Z"/>
          <path class="st65" d="M0,7.57h239.88v49.15c0,1.94-.14,3.31-.28,3.87-1.07,4.34-5.41,9.25-11.45,9.87-7.09.72-9.31-3.73-12.41-7.64-.52-.66-1.18-1.18-1.97-1.56-1.96-.94-4.26-.66-6.95-.58-8.48.25-21.03,3-26.58,7.15-1.53,1.14-3.34,1.9-4.98,2.01h0c-4.38.27-10.63-1.5-13.56-4.35-4.5-4.38-14.04-8.82-18.09-7.03-.61.27-1.15.62-1.63,1-4.1,3.23-5.72,7.25-10.67,9.23-.9.36-1.86.65-2.87.86-4.83,1-9.81.38-13.24-2.16-1.28-.94-2.49-1.98-3.56-3.13-4.29-4.58-10.09-6.98-17.95-5.23-6.17,1.37-11.04,6.23-14.77,10.12-1.22,1.27-1.94,2.6-3.03,3.65-.3.29-.61.57-.98.81-.53.34-1.13.54-1.85.69-4.3.91-7.08-2.51-9.76-4.43,0,0-.03-.01-.04-.02-.44-.37-1.1-.5-1.73-.68-1.51-.41-2.94-.85-4.46-1-2.69-.25-4.73-.11-7.17-1.26-1.05-.5-1.89-1.15-2.61-1.9-.92-.96-1.6-1.9-2.31-2.61-2.32-2.32-4.85-2.46-7.47-1.18-1.89.93-3.84,2.4-5.52,4.95-1.53,2.32-3.13,4.75-6.43,5.79-1.04.33-2.21.49-3.51.51-5.11.07-9.2-2.88-11.14-6.5-.66-1.24-1.01-2.5-1.13-3.58-.23-2.11-1.63-2.71-4.15-2.61-1.69.07-5.61,1.15-5.61,1.15V7.57Z"/>
          <path class="st45" d="M0,7.33h239.88v49.08c0,1.95-.14,3.32-.27,3.86-1.05,4.32-5.37,9.24-11.42,9.86-7.11.72-9.29-3.76-12.4-7.65-.53-.66-1.18-1.18-1.97-1.56-1.96-.95-4.26-.66-6.95-.6-8.49.21-21.06,2.88-26.58,7.06-1.51,1.14-3.32,1.9-4.97,2.01h0c-4.4.27-10.68-1.46-13.56-4.3-4.43-4.36-14-8.78-18.09-7.01-.61.26-1.15.61-1.63.99-4.11,3.22-5.68,7.26-10.64,9.26-.9.36-1.86.66-2.87.87-4.82,1.02-9.8.43-13.26-2.08-1.29-.93-2.5-1.97-3.57-3.12-4.27-4.58-10.04-7.02-17.92-5.32-6.19,1.34-11.13,6.13-14.85,10.03-1.21,1.28-1.93,2.62-2.99,3.69-.29.29-.6.58-.97.83-.52.35-1.12.56-1.85.72-4.33.97-7.14-2.37-9.79-4.37,0,0-.03-.01-.04-.02-.47-.34-1.09-.52-1.72-.7-1.5-.43-2.93-.89-4.46-1.03-2.7-.25-4.75-.05-7.2-1.19-1.06-.49-1.9-1.14-2.62-1.89-.92-.95-1.59-1.9-2.3-2.62-2.31-2.33-4.86-2.54-7.48-1.31-1.91.89-3.86,2.36-5.54,4.93-1.52,2.33-3.09,4.79-6.39,5.85-1.04.34-2.2.51-3.51.53-5.12.09-9.23-2.86-11.16-6.47-.67-1.24-1.01-2.5-1.13-3.58-.23-2.11-1.64-2.72-4.14-2.63-1.72.06-5.61,1.14-5.61,1.14V7.33Z"/>
          <path class="st75" d="M0,7.1h239.87v49.01c0,1.96-.13,3.33-.26,3.86-1.03,4.3-5.33,9.23-11.39,9.85-7.13.72-9.28-3.78-12.38-7.66-.53-.66-1.18-1.18-1.97-1.56-1.96-.96-4.26-.67-6.95-.62-8.49.17-21.09,2.77-26.58,6.97-1.49,1.14-3.3,1.91-4.96,2.02h0c-4.43.28-10.73-1.43-13.56-4.26-4.36-4.35-13.96-8.73-18.09-6.99-.62.26-1.16.6-1.64.98-4.12,3.21-5.65,7.27-10.61,9.29-.9.37-1.86.66-2.87.88-4.81,1.04-9.8.48-13.27-2-1.29-.92-2.51-1.96-3.58-3.11-4.25-4.58-9.99-7.07-17.9-5.4-6.22,1.31-11.23,6.03-14.93,9.93-1.21,1.28-1.91,2.64-2.96,3.73-.29.3-.59.6-.96.85-.52.36-1.12.58-1.84.76-4.35,1.04-7.19-2.24-9.81-4.31,0,0-.03-.01-.04-.02-.46-.37-1.09-.53-1.72-.72-1.49-.45-2.92-.92-4.46-1.05-2.7-.24-4.76,0-7.23-1.11-1.07-.48-1.91-1.13-2.64-1.88-.92-.95-1.59-1.9-2.3-2.62-2.29-2.35-4.87-2.61-7.5-1.43-1.92.86-3.89,2.32-5.56,4.9-1.51,2.33-3.06,4.82-6.35,5.91-1.03.34-2.2.52-3.51.55-5.14.12-9.26-2.83-11.19-6.43-.67-1.24-1.02-2.5-1.13-3.59-.22-2.12-1.65-2.74-4.14-2.65-1.75.06-5.62,1.12-5.62,1.12V7.1Z"/>
          <path class="st63" d="M0,6.86h239.87v48.94c0,1.97-.13,3.34-.25,3.85-1.02,4.28-5.29,9.22-11.36,9.84-7.15.72-9.26-3.81-12.37-7.67-.53-.66-1.18-1.18-1.96-1.56-1.97-.97-4.26-.68-6.94-.64-8.5.13-21.12,2.65-26.58,6.88-1.47,1.14-3.28,1.91-4.96,2.02h0c-4.45.28-10.78-1.4-13.56-4.22-4.29-4.34-13.92-8.69-18.08-6.96-.62.26-1.16.6-1.64.97-4.14,3.2-5.62,7.27-10.57,9.31-.9.37-1.85.67-2.86.89-4.79,1.06-9.8.53-13.28-1.92-1.3-.91-2.51-1.94-3.58-3.1-4.22-4.58-9.95-7.11-17.87-5.49-6.25,1.28-11.33,5.93-15.01,9.84-1.21,1.29-1.89,2.66-2.92,3.77-.29.31-.59.61-.95.87-.51.37-1.11.6-1.84.79-4.37,1.11-7.24-2.12-9.83-4.25,0,0-.03-.02-.04-.02-.46-.37-1.09-.55-1.71-.75-1.49-.47-2.91-.95-4.45-1.08-2.7-.24-4.77.05-7.25-1.04-1.08-.47-1.92-1.12-2.65-1.87-.92-.95-1.59-1.9-2.29-2.63-2.28-2.36-4.88-2.69-7.52-1.56-1.94.83-3.91,2.27-5.58,4.88-1.5,2.34-3.02,4.86-6.31,5.97-1.03.35-2.19.53-3.51.57-5.16.14-9.29-2.81-11.22-6.4-.67-1.24-1.02-2.5-1.13-3.59-.21-2.13-1.66-2.75-4.13-2.67-1.78.05-5.62,1.11-5.62,1.11V6.86Z"/>
          <path class="st74" d="M0,6.62h239.87v48.87c0,1.98-.13,3.35-.24,3.85-1,4.26-5.26,9.22-11.33,9.83-7.17.72-9.25-3.83-12.35-7.68-.53-.66-1.18-1.18-1.96-1.56-1.97-.97-4.26-.68-6.94-.66-8.5.09-21.15,2.54-26.58,6.79-1.46,1.14-3.26,1.91-4.95,2.03h0c-4.48.29-10.83-1.37-13.56-4.17-4.23-4.33-13.88-8.65-18.08-6.94-.62.25-1.17.59-1.65.96-4.15,3.19-5.59,7.28-10.54,9.34-.9.37-1.85.68-2.86.91-4.78,1.08-9.79.59-13.29-1.84-1.3-.9-2.52-1.93-3.59-3.08-4.21-4.58-9.9-7.15-17.85-5.58-6.27,1.24-11.42,5.83-15.09,9.75-1.21,1.29-1.87,2.69-2.89,3.82-.28.31-.58.62-.94.89-.51.38-1.1.62-1.83.82-4.39,1.18-7.23-2.08-9.85-4.2,0,0-.03-.01-.04-.02-.47-.36-1.09-.56-1.71-.77-1.48-.49-2.91-.98-4.45-1.11-2.71-.23-4.79.1-7.28-.97-1.09-.47-1.93-1.11-2.66-1.85-.92-.95-1.58-1.91-2.29-2.64-2.27-2.37-4.88-2.77-7.54-1.68-1.95.8-3.94,2.23-5.6,4.86-1.48,2.35-2.99,4.89-6.27,6.03-1.03.35-2.19.55-3.51.59-5.17.17-9.32-2.78-11.25-6.36-.67-1.24-1.02-2.5-1.13-3.59-.2-2.14-1.67-2.76-4.13-2.69-1.82.05-5.63,1.09-5.63,1.09V6.62Z"/>
          <path class="st7" d="M0,6.39h239.87v48.81c0,1.99-.12,3.36-.23,3.84-.98,4.24-5.22,9.21-11.3,9.82-7.19.72-9.24-3.86-12.33-7.68-.53-.65-1.18-1.18-1.96-1.56-1.98-.98-4.26-.69-6.93-.67-8.51.05-21.18,2.42-26.58,6.69-1.44,1.14-3.24,1.92-4.95,2.03h0c-4.5.29-10.88-1.34-13.57-4.13-4.16-4.32-13.84-8.6-18.08-6.91-.62.25-1.17.58-1.65.95-4.16,3.18-5.56,7.29-10.51,9.37-.89.38-1.85.68-2.85.92-4.76,1.1-9.79.64-13.31-1.76-1.31-.89-2.53-1.91-3.59-3.07-4.19-4.58-9.85-7.19-17.82-5.66-6.3,1.21-11.52,5.73-15.17,9.65-1.21,1.3-1.85,2.71-2.85,3.86-.28.32-.57.63-.93.91-.5.39-1.1.65-1.83.85-4.41,1.25-7.21-2.05-9.88-4.14,0,0-.03-.02-.04-.02-.47-.37-1.09-.58-1.7-.79-1.47-.51-2.9-1.01-4.45-1.14-2.71-.22-4.8.15-7.3-.9-1.1-.46-1.95-1.1-2.67-1.84-.92-.94-1.58-1.91-2.28-2.65-2.26-2.39-4.89-2.84-7.55-1.81-1.97.77-3.96,2.18-5.62,4.84-1.47,2.36-2.95,4.93-6.24,6.08-1.02.36-2.19.56-3.51.61-5.19.19-9.33-2.76-11.27-6.33-.67-1.24-1.03-2.5-1.13-3.59-.2-2.14-1.67-2.78-4.12-2.71-1.85.05-5.64,1.08-5.64,1.08V6.39Z"/>
          <path class="st72" d="M0,6.15h239.86v48.74c0,2-.12,3.37-.23,3.84-.96,4.22-5.18,9.2-11.28,9.82-7.21.73-9.22-3.89-12.32-7.69-.53-.65-1.18-1.17-1.96-1.57-1.98-.99-4.26-.7-6.93-.7-8.52,0-21.21,2.3-26.59,6.6-1.42,1.14-3.22,1.92-4.94,2.04h0c-4.53.3-10.92-1.31-13.57-4.09-4.09-4.3-13.8-8.56-18.08-6.89-.63.24-1.18.57-1.66.94-4.17,3.17-5.52,7.29-10.48,9.4-.89.38-1.85.69-2.85.93-4.75,1.12-9.78.69-13.32-1.68-1.32-.88-2.54-1.9-3.6-3.06-4.17-4.58-9.8-7.23-17.79-5.75-6.33,1.18-11.62,5.63-15.25,9.56-1.21,1.3-1.83,2.73-2.82,3.9-.28.33-.56.65-.92.93-.5.4-1.09.67-1.82.88-4.44,1.32-7.29-1.88-9.9-4.08,0,0-.03-.02-.04-.02-.45-.4-1.08-.59-1.7-.82-1.47-.53-2.89-1.04-4.45-1.17-2.72-.22-4.82.2-7.33-.83-1.11-.45-1.96-1.09-2.68-1.83-.91-.94-1.57-1.91-2.27-2.65-2.25-2.4-4.9-2.92-7.57-1.93-1.99.73-3.98,2.14-5.64,4.81-1.46,2.37-2.91,4.96-6.2,6.14-1.02.37-2.18.58-3.51.63-5.21.22-9.37-2.73-11.3-6.29-.68-1.24-1.03-2.5-1.13-3.59-.19-2.15-1.68-2.79-4.12-2.74-1.88.04-5.64,1.07-5.64,1.07V6.15Z"/>
          <path class="st27" d="M0,5.91h239.86v48.67c0,2.01-.12,3.38-.22,3.83-.94,4.2-5.14,9.19-11.25,9.81-7.24.73-9.21-3.91-12.3-7.7-.53-.65-1.18-1.17-1.96-1.57-1.98-1-4.26-.71-6.92-.72-8.52-.03-21.24,2.18-26.59,6.51-1.41,1.14-3.2,1.92-4.93,2.04h0c-4.56.3-10.97-1.27-13.57-4.04-4.02-4.29-13.76-8.52-18.07-6.87-.63.24-1.18.57-1.66.93-4.19,3.16-5.49,7.3-10.45,9.43-.89.38-1.84.7-2.84.94-4.74,1.14-9.78.74-13.33-1.61-1.32-.87-2.55-1.88-3.61-3.05-4.14-4.58-9.76-7.27-17.77-5.83-6.35,1.14-11.71,5.53-15.33,9.47-1.21,1.31-1.81,2.75-2.78,3.94-.27.33-.56.66-.91.95-.5.41-1.08.69-1.82.92-4.46,1.39-7.17-1.97-9.92-4.02,0,0-.03-.01-.04-.02-.47-.39-1.08-.61-1.69-.84-1.46-.55-2.88-1.07-4.44-1.19-2.72-.21-4.83.25-7.36-.76-1.12-.45-1.97-1.08-2.69-1.82-.91-.94-1.57-1.91-2.27-2.66-2.24-2.41-4.91-3-7.59-2.06-2,.7-4.01,2.09-5.66,4.79-1.45,2.37-2.88,5-6.16,6.2-1.02.37-2.18.59-3.51.65-5.22.24-9.39-2.7-11.33-6.26-.68-1.24-1.03-2.5-1.13-3.59-.18-2.16-1.69-2.8-4.11-2.76-1.91.04-5.65,1.05-5.65,1.05V5.91Z"/>
          <path class="st25" d="M0,5.68h239.86v48.6c0,2.02-.11,3.4-.21,3.83-.93,4.18-5.1,9.18-11.22,9.8-7.26.73-9.19-3.94-12.28-7.71-.53-.65-1.18-1.17-1.96-1.57-1.99-1-4.26-.71-6.92-.74-8.53-.08-21.27,2.07-26.58,6.42-1.39,1.14-3.18,1.92-4.93,2.05h0c-4.58.31-11.02-1.24-13.57-4-3.95-4.28-13.71-8.47-18.07-6.84-.63.24-1.19.56-1.67.92-4.2,3.15-5.46,7.31-10.41,9.46-.89.38-1.84.71-2.84.95-4.72,1.16-9.78.79-13.34-1.53-1.33-.86-2.56-1.87-3.61-3.04-4.12-4.57-9.71-7.31-17.74-5.92-6.38,1.11-11.81,5.43-15.42,9.37-1.2,1.32-1.8,2.77-2.75,3.98-.27.34-.55.67-.9.97-.49.41-1.08.71-1.81.95-4.48,1.46-7.25-1.8-9.94-3.96,0,0-.03-.02-.04-.02-.47-.39-1.08-.62-1.69-.86-1.45-.57-2.87-1.1-4.44-1.22-2.72-.21-4.85.3-7.38-.68-1.12-.44-1.98-1.07-2.71-1.81-.91-.93-1.57-1.91-2.26-2.67-2.23-2.43-4.92-3.07-7.61-2.18-2.02.67-4.03,2.05-5.67,4.77-1.44,2.38-2.84,5.03-6.12,6.25-1.02.38-2.18.6-3.51.67-5.24.26-9.42-2.68-11.36-6.22-.68-1.24-1.04-2.5-1.13-3.6-.18-2.17-1.7-2.82-4.11-2.78-1.95.03-5.66,1.04-5.66,1.04V5.68Z"/>
          <path class="st81" d="M0,5.44h239.86v48.53c0,2.03-.11,3.41-.2,3.83-.91,4.16-5.07,9.17-11.19,9.79-7.28.73-9.18-3.97-12.27-7.72-.53-.65-1.18-1.17-1.96-1.57-1.99-1.01-4.26-.72-6.92-.76-8.53-.12-21.3,1.95-26.59,6.33-1.37,1.14-3.16,1.93-4.92,2.05h0c-4.61.32-11.07-1.21-13.57-3.96-3.89-4.27-13.67-8.43-18.07-6.82-.63.23-1.19.55-1.67.91-4.21,3.14-5.43,7.31-10.38,9.48-.89.39-1.84.71-2.83.96-4.71,1.18-9.77.84-13.36-1.45-1.33-.85-2.57-1.85-3.62-3.03-4.11-4.57-9.66-7.36-17.72-6-6.41,1.08-11.9,5.33-15.5,9.28-1.2,1.32-1.78,2.8-2.71,4.02-.26.35-.54.68-.89.99-.49.42-1.07.73-1.81.98-4.5,1.53-7.27-1.72-9.97-3.9,0,0-.03-.02-.04-.02-.47-.39-1.08-.64-1.68-.89-1.45-.59-2.87-1.13-4.44-1.25-2.73-.2-4.86.36-7.41-.61-1.13-.43-1.99-1.06-2.72-1.8-.91-.93-1.56-1.91-2.26-2.68-2.22-2.44-4.92-3.15-7.62-2.31-2.03.63-4.06,2-5.69,4.74-1.43,2.39-2.81,5.06-6.08,6.31-1.01.39-2.17.62-3.51.69-5.26.3-9.45-2.65-11.38-6.19-.68-1.24-1.04-2.5-1.13-3.6-.17-2.17-1.71-2.83-4.1-2.8-1.98.03-5.66,1.03-5.66,1.03V5.44Z"/>
          <path class="st79" d="M0,5.21h239.85v48.46c0,2.04-.1,3.42-.19,3.82-.89,4.14-5.03,9.17-11.16,9.78-7.3.73-9.17-3.99-12.25-7.72-.54-.65-1.18-1.17-1.96-1.57-1.99-1.02-4.26-.73-6.91-.78-8.54-.16-21.33,1.84-26.59,6.24-1.36,1.14-3.14,1.93-4.92,2.06h0c-4.64.32-11.12-1.18-13.57-3.91-3.82-4.26-13.63-8.39-18.07-6.79-.63.23-1.19.54-1.67.9-4.22,3.13-5.39,7.32-10.35,9.51-.89.39-1.83.72-2.83.97-4.7,1.2-9.77.9-13.37-1.37-1.34-.84-2.58-1.84-3.62-3.01-4.09-4.57-9.61-7.4-17.69-6.09-6.44,1.04-12,5.23-15.58,9.19-1.2,1.33-1.76,2.82-2.68,4.06-.26.35-.54.7-.88,1-.48.43-1.06.75-1.8,1.01-4.52,1.6-7.32-1.59-9.99-3.84,0,0-.03-.02-.04-.02-.48-.39-1.08-.65-1.68-.91-1.44-.61-2.86-1.16-4.44-1.28-2.73-.2-4.87.41-7.44-.54-1.14-.42-2-1.05-2.73-1.78-.91-.93-1.56-1.91-2.25-2.69-2.21-2.46-4.93-3.23-7.64-2.43-2.05.6-4.08,1.96-5.71,4.72-1.41,2.4-2.77,5.1-6.04,6.37-1.01.39-2.17.63-3.51.7-5.28.31-9.47-2.63-11.41-6.15-.69-1.23-1.04-2.49-1.13-3.6-.16-2.18-1.72-2.84-4.1-2.82-2.01.02-5.67,1.01-5.67,1.01V5.21Z"/>
          <path class="st14" d="M0,4.97h239.85v48.39c0,2.05-.1,3.43-.18,3.82-.88,4.12-4.99,9.16-11.13,9.77-7.32.73-9.15-4.02-12.24-7.73-.54-.65-1.18-1.17-1.96-1.57-2-1.03-4.26-.73-6.91-.8-8.54-.2-21.37,1.72-26.58,6.15-1.34,1.14-3.13,1.93-4.91,2.06h0c-4.66.33-11.17-1.15-13.57-3.87-3.75-4.24-13.59-8.34-18.06-6.77-.64.22-1.2.54-1.68.89-4.23,3.12-5.36,7.33-10.32,9.54-.88.39-1.83.73-2.82.98-4.68,1.22-9.77.95-13.38-1.29-1.35-.83-2.58-1.83-3.63-3-4.07-4.57-9.57-7.44-17.67-6.17-6.46,1.01-12.1,5.13-15.66,9.1-1.2,1.33-1.74,2.84-2.64,4.11-.26.36-.53.71-.87,1.02-.48.44-1.06.77-1.79,1.04-4.54,1.67-7.3-1.55-10.01-3.79,0,0-.03-.02-.04-.02-.48-.39-1.07-.67-1.67-.93-1.43-.63-2.85-1.2-4.43-1.31-2.74-.19-4.89.46-7.46-.47-1.15-.42-2.02-1.04-2.74-1.77-.91-.93-1.55-1.91-2.25-2.69-2.2-2.47-4.94-3.3-7.66-2.56-2.06.57-4.11,1.92-5.73,4.7-1.4,2.4-2.73,5.13-6.01,6.43-1,.4-2.16.64-3.51.72-5.29.33-9.5-2.6-11.44-6.12-.69-1.23-1.05-2.5-1.12-3.6-.15-2.19-1.72-2.86-4.09-2.84-2.04.01-5.67,1-5.67,1V4.97Z"/>
          <path class="st80" d="M0,4.73h239.85v48.32c0,2.07-.1,3.44-.17,3.81-.85,4.1-4.95,9.15-11.1,9.76-7.35.73-9.14-4.04-12.22-7.74-.54-.64-1.18-1.17-1.95-1.57-2-1.04-4.26-.74-6.9-.82-8.55-.24-21.4,1.6-26.59,6.06-1.32,1.14-3.11,1.94-4.9,2.07h0c-4.69.33-11.21-1.12-13.57-3.83-3.68-4.23-13.55-8.3-18.06-6.74-.64.22-1.2.53-1.68.88-4.25,3.11-5.33,7.33-10.28,9.57-.88.4-1.83.73-2.82,1-4.67,1.24-9.76,1-13.4-1.21-1.35-.82-2.59-1.81-3.64-2.99-4.05-4.57-9.52-7.48-17.64-6.26-6.49.98-12.19,5.03-15.74,9-1.2,1.34-1.72,2.86-2.6,4.15-.25.37-.52.72-.86,1.04-.47.45-1.05.79-1.79,1.07-4.56,1.74-7.39-1.39-10.03-3.73,0,0-.03-.02-.04-.02-.48-.4-1.07-.68-1.67-.96-1.42-.65-2.84-1.23-4.43-1.33-2.74-.19-4.9.51-7.49-.4-1.16-.41-2.03-1.03-2.75-1.76-.91-.92-1.55-1.92-2.24-2.7-2.19-2.48-4.95-3.38-7.68-2.68-2.08.54-4.13,1.87-5.75,4.68-1.39,2.41-2.7,5.17-5.97,6.49-1,.4-2.16.65-3.51.74-5.31.36-9.53-2.58-11.46-6.08-.69-1.23-1.05-2.49-1.12-3.6-.15-2.2-1.73-2.87-4.09-2.86-2.07,0-5.68.99-5.68.99V4.73Z"/>
          <path class="st56" d="M0,4.49h239.85v48.26c0,2.08-.09,3.45-.17,3.81-.83,4.08-4.91,9.14-11.08,9.76-7.37.73-9.12-4.07-12.2-7.75-.54-.64-1.18-1.17-1.95-1.57-2-1.04-4.26-.75-6.9-.84-8.55-.28-21.43,1.48-26.59,5.97-1.3,1.14-3.09,1.94-4.9,2.07h0c-4.71.34-11.26-1.08-13.57-3.79-3.61-4.22-13.51-8.25-18.06-6.72-.64.22-1.21.52-1.69.87-4.26,3.1-5.3,7.34-10.25,9.59-.88.4-1.83.74-2.82,1.01-4.66,1.26-9.76,1.05-13.41-1.13-1.36-.81-2.6-1.8-3.64-2.98-4.03-4.57-9.47-7.52-17.61-6.34-6.52.94-12.29,4.93-15.82,8.91-1.19,1.35-1.7,2.88-2.57,4.19-.25.37-.51.73-.85,1.06-.47.46-1.05.81-1.78,1.11-4.58,1.81-7.4-1.31-10.06-3.67,0,0-.03-.02-.03-.02-.48-.41-1.07-.7-1.66-.98-1.42-.67-2.84-1.26-4.43-1.36-2.74-.18-4.92.56-7.51-.33-1.17-.4-2.04-1.02-2.77-1.75-.91-.92-1.54-1.92-2.23-2.71-2.17-2.5-4.96-3.46-7.69-2.81-2.1.5-4.16,1.83-5.77,4.66-1.38,2.42-2.66,5.2-5.93,6.54-1,.41-2.16.67-3.51.76-5.33.39-9.55-2.55-11.49-6.05-.69-1.23-1.05-2.49-1.12-3.61-.14-2.21-1.74-2.88-4.08-2.88-2.11,0-5.69.97-5.69.97V4.49Z"/>
          <path class="st73" d="M0,4.26h239.84v48.19c0,2.09-.09,3.46-.16,3.8-.82,4.06-4.88,9.13-11.05,9.75-7.39.73-9.11-4.1-12.19-7.76-.54-.64-1.18-1.17-1.95-1.57-2.01-1.05-4.26-.75-6.89-.86-8.56-.33-21.46,1.36-26.59,5.88-1.29,1.13-3.07,1.94-4.89,2.08h0c-4.74.34-11.31-1.05-13.57-3.74-3.55-4.21-13.47-8.21-18.05-6.7-.65.21-1.21.51-1.69.86-4.27,3.09-5.27,7.35-10.22,9.62-.88.4-1.82.75-2.81,1.02-4.64,1.28-9.75,1.1-13.42-1.05-1.37-.8-2.61-1.78-3.65-2.97-4.01-4.57-9.42-7.56-17.59-6.43-6.55.91-12.39,4.83-15.9,8.82-1.19,1.35-1.68,2.91-2.53,4.23-.24.38-.51.75-.84,1.08-.47.47-1.04.84-1.78,1.14-4.6,1.88-7.32-1.35-10.08-3.61,0,0-.03-.02-.04-.02-.48-.42-1.07-.71-1.66-1-1.41-.69-2.83-1.29-4.43-1.39-2.75-.17-4.93.61-7.54-.26-1.18-.39-2.05-1.01-2.78-1.74-.91-.92-1.54-1.92-2.23-2.71-2.16-2.51-4.96-3.54-7.71-2.93-2.11.47-4.18,1.78-5.79,4.63-1.37,2.43-2.63,5.24-5.89,6.6-1,.42-2.15.68-3.51.78-5.34.42-9.58-2.53-11.52-6.01-.69-1.23-1.06-2.49-1.12-3.61-.13-2.22-1.75-2.9-4.08-2.9-2.14,0-5.69.96-5.69.96V4.26Z"/>
          <path class="st39" d="M0,4.02h239.84v48.12c0,2.1-.08,3.47-.15,3.8-.79,4.04-4.84,9.13-11.02,9.74-7.41.73-9.1-4.12-12.17-7.76-.54-.64-1.18-1.17-1.95-1.58-2.01-1.06-4.26-.76-6.89-.88-8.56-.37-21.49,1.25-26.59,5.79-1.27,1.13-3.05,1.94-4.89,2.08h0c-4.77.35-11.36-1.02-13.58-3.7-3.48-4.2-13.43-8.16-18.05-6.67-.65.21-1.22.5-1.7.85-4.28,3.08-5.24,7.36-10.19,9.65-.88.41-1.82.75-2.81,1.03-4.63,1.3-9.75,1.15-13.43-.97-1.37-.79-2.62-1.77-3.66-2.95-3.99-4.56-9.38-7.6-17.56-6.52-6.57.88-12.48,4.73-15.99,8.72-1.19,1.36-1.66,2.93-2.5,4.27-.24.38-.5.76-.83,1.1-.46.48-1.03.86-1.77,1.17-4.62,1.96-7.37-1.23-10.1-3.55,0,0-.03-.02-.03-.03-.48-.42-1.07-.73-1.65-1.03-1.4-.71-2.82-1.32-4.42-1.42-2.75-.17-4.95.67-7.57-.18-1.19-.38-2.06-1-2.79-1.72-.91-.91-1.54-1.92-2.22-2.72-2.15-2.52-4.97-3.62-7.73-3.05-2.13.43-4.21,1.74-5.81,4.61-1.36,2.43-2.59,5.27-5.85,6.66-.99.42-2.15.69-3.51.8-5.36.44-9.6-2.5-11.55-5.98-.69-1.23-1.06-2.49-1.12-3.61-.12-2.22-1.75-2.91-4.07-2.92-2.17-.01-5.7.95-5.7.95V4.02Z"/>
          <path class="st69" d="M0,3.79h239.84v48.05c0,2.11-.08,3.49-.14,3.79-.78,4.02-4.8,9.12-10.99,9.73-7.43.73-9.08-4.15-12.15-7.77-.54-.64-1.18-1.17-1.95-1.58-2.01-1.07-4.26-.77-6.88-.9-8.57-.41-21.53,1.12-26.59,5.7-1.26,1.13-3.03,1.95-4.88,2.09h0c-4.79.35-11.41-.99-13.58-3.66-3.41-4.19-13.39-8.12-18.05-6.65-.65.2-1.22.5-1.7.84-4.3,3.08-5.2,7.36-10.16,9.68-.88.41-1.82.76-2.8,1.04-4.62,1.32-9.75,1.21-13.45-.89-1.38-.78-2.63-1.75-3.66-2.94-3.97-4.56-9.33-7.65-17.54-6.6-6.6.84-12.58,4.63-16.07,8.63-1.19,1.36-1.64,2.95-2.46,4.31-.24.39-.49.77-.81,1.12-.46.49-1.03.88-1.77,1.2-4.64,2.03-7.35-1.18-10.13-3.49,0,0-.03-.02-.03-.03-.49-.41-1.07-.74-1.65-1.05-1.4-.73-2.81-1.35-4.42-1.45-2.75-.16-4.96.72-7.59-.11-1.2-.38-2.08-.99-2.8-1.71-.91-.91-1.53-1.92-2.22-2.73-2.14-2.54-4.98-3.7-7.75-3.18-2.14.4-4.23,1.69-5.83,4.59-1.35,2.44-2.55,5.3-5.82,6.71-.99.43-2.15.71-3.51.82-5.38.46-9.63-2.48-11.57-5.94-.7-1.23-1.06-2.49-1.12-3.61-.12-2.23-1.76-2.92-4.07-2.94-2.2-.02-5.71.93-5.71.93V3.79Z"/>
          <path class="st23" d="M0,3.55h239.84v47.98c0,2.12-.08,3.5-.13,3.79-.76,4-4.76,9.11-10.96,9.72-7.45.73-9.07-4.18-12.14-7.78-.54-.64-1.18-1.17-1.95-1.58-2.02-1.08-4.26-.78-6.88-.92-8.57-.45-21.56,1.01-26.59,5.61-1.24,1.13-3.01,1.95-4.87,2.09h0c-4.82.36-11.45-.96-13.58-3.61-3.34-4.17-13.35-8.07-18.04-6.62-.65.2-1.22.49-1.7.83-4.31,3.07-5.17,7.37-10.12,9.71-.88.41-1.81.77-2.8,1.05-4.6,1.34-9.74,1.26-13.46-.81-1.38-.77-2.64-1.74-3.67-2.93-3.95-4.56-9.28-7.69-17.51-6.69-6.63.81-12.67,4.53-16.15,8.54-1.19,1.37-1.62,2.97-2.43,4.36-.23.4-.48.78-.8,1.14-.45.5-1.02.9-1.76,1.23-4.66,2.1-7.43-1.02-10.15-3.44,0,0-.02-.02-.03-.03-.49-.42-1.06-.76-1.65-1.07-1.39-.75-2.8-1.38-4.42-1.48-2.76-.16-4.97.77-7.62-.04-1.21-.37-2.09-.98-2.81-1.7-.91-.91-1.53-1.92-2.21-2.74-2.13-2.55-4.99-3.77-7.76-3.3-2.16.36-4.26,1.65-5.85,4.56-1.34,2.45-2.52,5.34-5.78,6.77-.99.43-2.14.72-3.51.84-5.39.49-9.66-2.45-11.6-5.91-.7-1.23-1.07-2.49-1.12-3.61-.11-2.24-1.77-2.94-4.06-2.96-2.23-.03-5.71.92-5.71.92V3.55Z"/>
          <path class="st11" d="M0,3.31h239.83v47.91c0,2.13-.07,3.51-.12,3.79-.73,3.99-4.72,9.1-10.93,9.71-7.48.73-9.05-4.2-12.12-7.79-.54-.63-1.18-1.17-1.95-1.58-2.02-1.08-4.26-.79-6.88-.94-8.58-.5-21.59.89-26.59,5.52-1.22,1.13-2.99,1.95-4.87,2.1h0c-4.84.36-11.5-.93-13.58-3.57-3.27-4.16-13.31-8.03-18.04-6.6-.65.2-1.23.48-1.71.82-4.32,3.05-5.14,7.37-10.09,9.74-.88.42-1.81.78-2.79,1.07-4.59,1.36-9.74,1.31-13.47-.73-1.39-.76-2.65-1.72-3.68-2.92-3.93-4.56-9.23-7.73-17.48-6.77-6.65.77-12.77,4.43-16.23,8.45-1.19,1.37-1.6,2.99-2.39,4.4-.23.4-.48.8-.79,1.16-.45.51-1.01.92-1.76,1.27-4.68,2.17-7.39-1.01-10.17-3.38-.01,0-.02-.02-.03-.03-.49-.43-1.06-.77-1.64-1.1-1.38-.77-2.79-1.41-4.42-1.5-2.76-.15-4.99.82-7.65.03-1.21-.36-2.1-.96-2.82-1.69-.9-.91-1.52-1.92-2.2-2.75-2.12-2.56-4.99-3.85-7.78-3.43-2.17.33-4.28,1.61-5.87,4.54-1.32,2.46-2.48,5.37-5.74,6.83-.98.44-2.14.73-3.51.86-5.41.51-9.68-2.42-11.63-5.87-.7-1.23-1.07-2.49-1.12-3.62-.1-2.25-1.78-2.95-4.06-2.99-2.27-.04-5.72.91-5.72.9V3.31Z"/>
          <path class="st70" d="M0,3.08h239.83v47.84c0,2.14-.07,3.52-.11,3.78-.71,3.97-4.69,9.09-10.9,9.71-7.5.74-9.05-4.22-12.11-7.8-.54-.63-1.18-1.17-1.94-1.58-2.02-1.09-4.26-.79-6.87-.96-8.59-.54-21.63.77-26.59,5.42-1.21,1.13-2.97,1.95-4.86,2.1h0c-4.87.37-11.55-.9-13.58-3.53-3.2-4.15-13.27-7.98-18.04-6.58-.66.19-1.23.47-1.71.81-4.34,3.04-5.11,7.38-10.06,9.76-.87.42-1.81.78-2.79,1.08-4.58,1.38-9.74,1.36-13.48-.65-1.4-.75-2.65-1.71-3.68-2.91-3.91-4.56-9.19-7.77-17.46-6.86-6.68.74-12.87,4.33-16.31,8.35-1.18,1.38-1.58,3.01-2.36,4.44-.22.41-.47.81-.78,1.18-.44.52-1.01.94-1.75,1.3-4.7,2.24-7.46-.85-10.19-3.32,0,0-.02-.02-.03-.03-.49-.43-1.06-.79-1.64-1.12-1.38-.79-2.79-1.44-4.41-1.53-2.77-.15-5,.88-7.67.1-1.22-.35-2.11-.95-2.84-1.68-.9-.9-1.52-1.92-2.2-2.75-2.11-2.58-5-3.93-7.8-3.55-2.19.3-4.31,1.56-5.89,4.52-1.31,2.46-2.45,5.41-5.7,6.89-.98.45-2.14.75-3.51.88-5.43.54-9.71-2.4-11.65-5.83-.7-1.23-1.07-2.49-1.12-3.62-.1-2.25-1.79-2.96-4.05-3.01-2.3-.04-5.73.89-5.73.89V3.08Z"/>
          <path class="st8" d="M0,2.84h239.83v47.77c0,2.15-.06,3.53-.1,3.78-.69,3.95-4.65,9.08-10.87,9.7-7.52.74-9.04-4.25-12.09-7.8-.55-.63-1.18-1.17-1.94-1.58-2.03-1.1-4.26-.8-6.87-.98-8.59-.58-21.66.65-26.59,5.33-1.19,1.13-2.95,1.96-4.86,2.1h0c-4.9.38-11.6-.87-13.58-3.48-3.14-4.14-13.23-7.94-18.04-6.55-.66.19-1.24.47-1.72.8-4.35,3.03-5.08,7.39-10.03,9.79-.87.42-1.81.79-2.79,1.09-4.56,1.39-9.73,1.41-13.5-.57-1.4-.74-2.66-1.69-3.69-2.9-3.89-4.56-9.14-7.82-17.43-6.94-6.71.71-12.96,4.23-16.39,8.26-1.18,1.39-1.56,3.04-2.32,4.48-.22.42-.46.82-.77,1.19-.44.52-1,.96-1.74,1.33-4.72,2.31-7.48-.77-10.22-3.26-.01,0-.02-.02-.03-.03-.49-.44-1.06-.8-1.63-1.14-1.37-.81-2.78-1.48-4.41-1.56-2.77-.15-5.02.93-7.7.17-1.23-.35-2.12-.94-2.85-1.67-.9-.9-1.51-1.92-2.19-2.76-2.1-2.59-5.01-4.01-7.82-3.68-2.2.26-4.33,1.52-5.9,4.5-1.3,2.47-2.41,5.44-5.66,6.95-.98.45-2.13.76-3.51.9-5.44.56-9.73-2.37-11.68-5.8-.7-1.23-1.08-2.49-1.12-3.62-.09-2.26-1.79-2.98-4.05-3.03-2.33-.05-5.73.88-5.73.88V2.84Z"/>
          <path class="st3" d="M0,2.6h239.83v47.71c0,2.16-.06,3.54-.1,3.77-.66,3.93-4.61,9.08-10.84,9.69-7.54.74-9.01-4.28-12.07-7.81-.55-.63-1.18-1.17-1.94-1.58-2.03-1.11-4.26-.81-6.86-1-8.59-.62-21.69.53-26.59,5.24-1.17,1.13-2.94,1.96-4.85,2.11h0c-4.92.38-11.65-.83-13.58-3.44-3.07-4.13-13.19-7.89-18.03-6.53-.66.19-1.24.46-1.72.79-4.36,3.02-5.04,7.39-10,9.82-.87.43-1.8.79-2.78,1.1-4.55,1.4-9.73,1.46-13.51-.49-1.41-.73-2.67-1.68-3.69-2.88-3.87-4.56-9.09-7.86-17.41-7.03-6.73.67-13.06,4.13-16.47,8.17-1.18,1.39-1.54,3.06-2.29,4.52-.22.42-.45.83-.76,1.21-.43.53-.99.98-1.74,1.36-4.74,2.38-7.46-.73-10.24-3.2,0,0-.02-.02-.03-.03-.49-.45-1.06-.82-1.63-1.17-1.36-.83-2.77-1.51-4.41-1.59-2.77-.14-5.03.98-7.72.25-1.24-.34-2.14-.93-2.86-1.65-.9-.9-1.51-1.93-2.19-2.77-2.09-2.6-5.02-4.09-7.83-3.8-2.22.23-4.36,1.47-5.92,4.47-1.29,2.48-2.38,5.48-5.63,7-.97.46-2.13.77-3.51.92-5.46.58-9.76-2.35-11.71-5.76-.7-1.23-1.08-2.49-1.12-3.62-.08-2.27-1.8-2.99-4.04-3.05-2.36-.06-5.74.86-5.74.86V2.6Z"/>
          <path class="st15" d="M0,2.37h239.82v47.64c0,2.17-.05,3.55-.09,3.77-.64,3.91-4.57,9.07-10.82,9.68-7.56.74-9.01-4.3-12.06-7.82-.55-.63-1.18-1.17-1.94-1.58-2.04-1.11-4.26-.81-6.86-1.02-8.6-.67-21.73.41-26.59,5.15-1.16,1.13-2.92,1.96-4.85,2.12h0c-4.95.39-11.69-.8-13.58-3.4-3-4.12-13.15-7.85-18.03-6.5-.67.18-1.25.45-1.73.78-4.37,3.01-5.01,7.4-9.96,9.85-.87.43-1.8.8-2.78,1.11-4.54,1.43-9.73,1.51-13.52-.42-1.41-.72-2.68-1.66-3.7-2.87-3.86-4.55-9.04-7.9-17.38-7.11-6.76.64-13.15,4.04-16.56,8.07-1.18,1.4-1.52,3.08-2.25,4.56-.21.43-.45.85-.75,1.23-.43.54-.98,1.01-1.73,1.39-4.75,2.45-7.51-.61-10.26-3.14-.01,0-.02-.02-.03-.03-.5-.44-1.05-.83-1.62-1.19-1.36-.85-2.76-1.54-4.41-1.62-2.78-.14-5.05,1.03-7.75.32-1.25-.33-2.15-.92-2.87-1.64-.9-.9-1.51-1.93-2.18-2.78-2.08-2.62-5.02-4.17-7.85-3.93-2.23.19-4.38,1.43-5.94,4.45-1.28,2.49-2.34,5.51-5.59,7.06-.97.46-2.12.79-3.51.94-5.48.61-9.79-2.32-11.74-5.73-.71-1.23-1.08-2.49-1.12-3.62-.07-2.28-1.81-3-4.04-3.07-2.39-.07-5.74.85-5.74.85V2.37Z"/>
          <path class="st19" d="M0,2.13h239.82v47.57c0,2.18-.05,3.57-.08,3.76-.61,3.9-4.54,9.06-10.79,9.67-7.58.74-8.99-4.33-12.04-7.83-.55-.63-1.18-1.17-1.94-1.58-2.04-1.12-4.26-.82-6.85-1.04-8.6-.71-21.76.29-26.59,5.06-1.14,1.13-2.9,1.96-4.84,2.12h0c-4.98.39-11.74-.77-13.58-3.35-2.93-4.1-13.11-7.8-18.03-6.48-.67.18-1.25.44-1.73.77-4.38,3-4.98,7.4-9.93,9.88-.87.43-1.8.81-2.77,1.12-4.52,1.44-9.72,1.57-13.53-.34-1.42-.71-2.69-1.65-3.71-2.86-3.84-4.54-9-7.94-17.36-7.2-6.79.6-13.25,3.94-16.64,7.98-1.18,1.41-1.5,3.1-2.22,4.6-.21.44-.44.86-.74,1.25-.43.55-.98,1.03-1.73,1.42-4.77,2.52-7.56-.49-10.29-3.08,0,0-.02-.02-.03-.03-.49-.46-1.05-.85-1.62-1.21-1.35-.87-2.75-1.57-4.4-1.64-2.78-.13-5.06,1.09-7.78.39-1.26-.32-2.16-.91-2.88-1.63-.9-.89-1.5-1.93-2.18-2.78-2.07-2.63-5.03-4.25-7.87-4.05-2.25.16-4.41,1.38-5.96,4.43-1.27,2.5-2.3,5.54-5.55,7.12-.97.47-2.12.8-3.51.96-5.5.63-9.81-2.3-11.76-5.69-.71-1.23-1.08-2.49-1.12-3.63-.06-2.29-1.81-3.02-4.03-3.09-2.43-.08-5.75.84-5.75.84V2.13Z"/>
          <path class="st43" d="M0,1.89h239.82v47.5c0,2.2-.04,3.58-.07,3.76-.58,3.88-4.5,9.05-10.76,9.66-7.61.74-8.98-4.35-12.02-7.84-.55-.63-1.18-1.17-1.94-1.58-2.04-1.13-4.26-.83-6.85-1.06-8.61-.75-21.8.17-26.59,4.97-1.13,1.13-2.88,1.97-4.83,2.12h0c-5,.4-11.79-.74-13.58-3.31-2.86-4.09-13.07-7.75-18.02-6.46-.67.18-1.26.43-1.74.76-4.4,2.99-4.95,7.41-9.9,9.9-.87.44-1.79.82-2.77,1.13-4.51,1.46-9.72,1.62-13.55-.26-1.43-.7-2.7-1.63-3.71-2.85-3.82-4.54-8.95-7.98-17.33-7.28-6.81.57-13.35,3.84-16.72,7.89-1.17,1.41-1.48,3.13-2.18,4.65-.2.44-.43.87-.73,1.27-.42.56-.97,1.05-1.72,1.46-4.79,2.6-7.54-.44-10.31-3.03-.01,0-.02-.02-.03-.03-.5-.46-1.05-.86-1.61-1.24-1.34-.89-2.75-1.6-4.4-1.67-2.78-.12-5.07,1.14-7.8.46-1.27-.31-2.17-.9-2.89-1.62-.9-.89-1.5-1.93-2.17-2.79-2.06-2.64-5.04-4.33-7.89-4.18-2.26.12-4.44,1.34-5.98,4.41-1.26,2.5-2.27,5.58-5.51,7.17-.97.48-2.12.81-3.51.98-5.51.65-9.84-2.27-11.79-5.66-.71-1.22-1.09-2.49-1.12-3.63-.06-2.29-1.82-3.03-4.03-3.11-2.46-.09-5.76.82-5.76.82V1.89Z"/>
          <path class="st48" d="M0,1.66h239.82v47.43c0,2.21-.04,3.59-.06,3.75-.55,3.86-4.46,9.04-10.73,9.65-7.63.74-8.96-4.38-12.01-7.84-.55-.62-1.18-1.17-1.94-1.58-2.04-1.14-4.26-.84-6.84-1.08-8.62-.8-21.83.05-26.59,4.88-1.11,1.13-2.86,1.97-4.83,2.13h0c-5.03.4-11.84-.71-13.58-3.27-2.79-4.08-13.03-7.71-18.02-6.43-.67.17-1.26.43-1.74.75-4.41,2.99-4.92,7.42-9.87,9.93-.86.44-1.79.82-2.76,1.15-4.5,1.48-9.71,1.67-13.56-.18-1.43-.69-2.71-1.62-3.72-2.84-3.8-4.54-8.9-8.03-17.3-7.37-6.84.54-13.44,3.74-16.8,7.79-1.17,1.42-1.46,3.15-2.15,4.69-.2.45-.42.88-.72,1.29-.42.57-.96,1.07-1.72,1.49-4.81,2.67-7.55-.36-10.33-2.97,0,0-.02-.02-.03-.03-.5-.46-1.05-.88-1.61-1.26-1.34-.91-2.74-1.63-4.4-1.7-2.79-.12-5.09,1.19-7.83.53-1.28-.31-2.18-.89-2.91-1.6-.9-.89-1.5-1.93-2.16-2.8-2.05-2.66-5.04-4.41-7.9-4.3-2.28.08-4.46,1.29-6,4.38-1.25,2.51-2.23,5.61-5.47,7.23-.96.48-2.11.83-3.51,1-5.53.68-9.87-2.25-11.82-5.62-.71-1.22-1.09-2.49-1.12-3.63-.05-2.3-1.83-3.05-4.02-3.13-2.49-.1-5.76.81-5.76.81V1.66Z"/>
          <path class="st37" d="M0,1.42h239.81v47.36c0,2.22-.03,3.6-.05,3.75-.5,3.85-4.42,9.04-10.7,9.64-7.65.74-8.95-4.41-11.99-7.85-.55-.62-1.18-1.17-1.93-1.59-2.05-1.15-4.25-.85-6.84-1.1-8.62-.84-21.87-.07-26.59,4.79-1.09,1.12-2.84,1.97-4.82,2.13h0c-5.05.41-11.88-.68-13.58-3.22-2.72-4.07-12.99-7.66-18.02-6.41-.68.17-1.26.42-1.75.74-4.43,2.96-4.89,7.41-9.83,9.96-.86.44-1.79.83-2.76,1.16-4.48,1.5-9.71,1.72-13.57-.1-1.44-.68-2.72-1.61-3.73-2.82-3.77-4.54-8.85-8.09-17.28-7.46-6.87.49-13.53,3.65-16.88,7.7-1.17,1.42-1.44,3.17-2.11,4.73-.19.46-.42.89-.71,1.31-.41.58-.96,1.09-1.71,1.52-4.83,2.74-7.54-.31-10.35-2.91-.01,0-.02-.02-.03-.03-.5-.47-1.05-.89-1.6-1.28-1.33-.93-2.73-1.67-4.4-1.73-2.79-.11-5.1,1.24-7.85.6-1.29-.3-2.2-.88-2.92-1.59-.9-.89-1.49-1.93-2.16-2.8-2.04-2.67-5.05-4.49-7.92-4.43-2.29.05-4.49,1.25-6.02,4.36-1.24,2.52-2.2,5.64-5.43,7.29-.96.49-2.11.84-3.51,1.02-5.55.7-9.89-2.22-11.85-5.59-.71-1.22-1.09-2.49-1.12-3.63-.04-2.31-1.84-3.06-4.02-3.15-2.52-.11-5.77.8-5.77.8V1.42Z"/>
          <path class="st36" d="M0,1.18h239.81v47.29c0,2.23-.03,3.61-.04,3.75-.47,3.83-4.38,9.03-10.67,9.64-7.67.74-8.94-4.43-11.97-7.86-.55-.62-1.18-1.17-1.93-1.59-2.05-1.16-4.26-.85-6.84-1.12-8.62-.88-21.91-.19-26.59,4.7-1.08,1.12-2.82,1.98-4.82,2.14h0c-5.08.41-11.93-.65-13.59-3.18-2.65-4.06-12.95-7.61-18.02-6.38-.68.16-1.27.41-1.75.73-4.43,2.96-4.86,7.42-9.8,9.99-.86.44-1.79.84-2.75,1.17-4.47,1.52-9.71,1.77-13.58-.02-1.45-.67-2.73-1.59-3.73-2.81-3.75-4.54-8.81-8.13-17.25-7.54-6.9.46-13.63,3.55-16.96,7.61-1.17,1.43-1.42,3.19-2.08,4.77-.19.46-.41.91-.7,1.33-.41.59-.95,1.11-1.71,1.55-4.84,2.81-7.58-.19-10.38-2.85,0,0-.02-.02-.03-.03-.51-.46-1.04-.91-1.6-1.31-1.32-.95-2.72-1.7-4.39-1.76-2.8-.11-5.11,1.29-7.88.67-1.3-.29-2.21-.87-2.93-1.58-.9-.88-1.49-1.93-2.15-2.81-2.03-2.68-5.05-4.57-7.94-4.55-2.31.01-4.52,1.2-6.04,4.34-1.23,2.52-2.16,5.68-5.4,7.35-.96.49-2.11.85-3.51,1.04-5.56.73-9.92-2.2-11.87-5.55-.71-1.22-1.1-2.49-1.12-3.63-.04-2.32-1.84-3.07-4.01-3.17-2.55-.12-5.78.78-5.78.78V1.18Z"/>
          <path class="st82" d="M0,.95h239.81v47.22c0,2.24-.02,3.62-.04,3.74-.41,3.81-4.35,9.02-10.64,9.63-7.69.74-8.92-4.46-11.96-7.87-.55-.62-1.18-1.17-1.93-1.59-2.05-1.16-4.25-.86-6.83-1.14-8.63-.94-21.94-.31-26.59,4.61-1.06,1.12-2.8,1.98-4.81,2.14h0c-5.11.42-11.97-.62-13.59-3.14-2.58-4.05-12.91-7.57-18.01-6.36-.68.16-1.27.4-1.75.72-4.45,2.95-4.83,7.43-9.77,10.02-.86.45-1.78.84-2.75,1.18-4.46,1.54-9.7,1.82-13.6.06-1.45-.66-2.74-1.58-3.74-2.8-3.73-4.54-8.76-8.17-17.23-7.63-6.92.42-13.72,3.44-17.04,7.52-1.17,1.44-1.4,3.21-2.04,4.81-.19.47-.4.92-.69,1.35-.4.6-.94,1.13-1.7,1.58-4.86,2.88-7.56-.14-10.4-2.79-.01,0-.02-.02-.03-.03-.5-.48-1.04-.92-1.59-1.33-1.31-.97-2.71-1.73-4.39-1.78-2.8-.1-5.13,1.35-7.91.75-1.31-.28-2.22-.86-2.94-1.57-.9-.88-1.49-1.93-2.15-2.82-2.02-2.69-5.06-4.65-7.96-4.68-2.32-.02-4.54,1.16-6.06,4.31-1.21,2.53-2.13,5.7-5.36,7.4-.95.5-2.1.87-3.51,1.06-5.58.75-9.94-2.17-11.9-5.52-.72-1.22-1.1-2.49-1.12-3.64-.03-2.32-1.85-3.09-4-3.19-2.58-.13-5.78.77-5.78.77V.95Z"/>
          <path class="st53" d="M0,.71h239.81v47.16c0,2.25-.02,3.63-.03,3.74-.35,3.8-4.31,9.01-10.62,9.62-7.71.74-8.91-4.49-11.94-7.88-.56-.62-1.18-1.16-1.93-1.59-2.06-1.17-4.25-.87-6.83-1.16-8.63-.98-21.98-.43-26.59,4.52-1.05,1.12-2.78,1.98-4.8,2.15h0c-5.13.42-12.02-.59-13.59-3.09-2.51-4.04-12.87-7.52-18.01-6.33-.68.16-1.28.39-1.76.71-4.46,2.94-4.79,7.43-9.74,10.04-.86.45-1.78.85-2.75,1.19-4.44,1.57-9.7,1.88-13.61.14-1.46-.65-2.74-1.56-3.74-2.79-3.71-4.54-8.71-8.21-17.2-7.71-6.95.39-13.82,3.34-17.13,7.42-1.16,1.44-1.38,3.23-2.01,4.85-.18.47-.39.93-.68,1.37-.4.61-.94,1.16-1.7,1.62-4.88,2.96-7.64,0-10.42-2.73-.01-.01-.02-.02-.03-.03-.52-.47-1.04-.94-1.59-1.35-1.31-.99-2.71-1.76-4.39-1.81-2.8-.09-5.14,1.4-7.93.82-1.31-.27-2.23-.85-2.95-1.56-.9-.88-1.48-1.93-2.14-2.83-2.01-2.71-5.07-4.73-7.97-4.8-2.34-.06-4.57,1.11-6.08,4.29-1.21,2.54-2.1,5.74-5.32,7.46-.95.5-2.1.88-3.51,1.07-5.6.78-9.97-2.15-11.93-5.48-.72-1.22-1.1-2.49-1.12-3.64-.02-2.33-1.85-3.1-4-3.21-2.62-.14-5.79.76-5.79.75V.71Z"/>
          <path class="st59" d="M0,.47h239.8v47.09c0,2.26-.01,3.64-.02,3.73-.28,3.78-4.27,9-10.59,9.61-7.74.74-8.89-4.51-11.93-7.88-.56-.62-1.18-1.16-1.93-1.59-2.06-1.18-4.25-.88-6.82-1.18-8.64-1.02-22.02-.55-26.59,4.43-1.03,1.12-2.76,1.99-4.8,2.16h0c-5.16.43-12.07-.56-13.59-3.05-2.44-4.03-12.83-7.46-18.01-6.31-.69.16-1.28.39-1.76.7-4.47,2.93-4.76,7.44-9.7,10.07-.86.46-1.78.86-2.74,1.2-4.43,1.58-9.7,1.93-13.62.22-1.46-.64-2.75-1.55-3.75-2.78-3.69-4.54-8.66-8.25-17.18-7.8-6.98.36-13.92,3.24-17.21,7.33-1.16,1.45-1.36,3.25-1.97,4.89-.18.48-.39.95-.67,1.38-.4.62-.93,1.18-1.69,1.65-4.9,3.03-7.62.06-10.44-2.67-.01-.01-.02-.02-.03-.03-.51-.49-1.04-.95-1.58-1.38-1.3-1.01-2.7-1.79-4.39-1.84-2.81-.09-5.16,1.46-7.96.89-1.32-.26-2.24-.84-2.96-1.55-.89-.87-1.48-1.94-2.14-2.83-2-2.72-5.07-4.81-7.99-4.93-2.35-.09-4.6,1.07-6.09,4.27-1.2,2.54-2.06,5.77-5.28,7.52-.95.51-2.1.89-3.51,1.09-5.61.8-10-2.12-11.96-5.45-.72-1.22-1.11-2.49-1.12-3.64-.01-2.34-1.86-3.11-3.99-3.24-2.65-.15-5.79.74-5.79.74V.47Z"/>
          <path class="st66" d="M0,.24h239.8v47.02c0,2.27,0,3.66,0,3.73-.17,3.77-4.23,9-10.56,9.6-7.76.74-8.88-4.54-11.91-7.89-.56-.62-1.18-1.16-1.93-1.59-2.06-1.19-4.25-.88-6.82-1.2-8.64-1.06-22.06-.68-26.59,4.34-1.02,1.12-2.75,1.99-4.79,2.16h0c-5.19.44-12.12-.52-13.59-3.01-2.37-4.02-12.79-7.42-18-6.29-.69.15-1.29.38-1.77.69-4.49,2.92-4.73,7.45-9.67,10.1-.85.46-1.77.87-2.74,1.21-4.42,1.61-9.69,1.98-13.64.3-1.47-.63-2.76-1.53-3.76-2.76-3.67-4.54-8.61-8.29-17.15-7.88-7,.33-14.01,3.14-17.29,7.24-1.16,1.45-1.34,3.27-1.94,4.94-.17.49-.38.96-.66,1.4-.39.63-.92,1.2-1.69,1.68-4.91,3.11-7.67.18-10.47-2.62-.01-.01-.02-.02-.03-.03-.52-.48-1.04-.97-1.58-1.4-1.29-1.03-2.69-1.82-4.38-1.87-2.81-.08-5.17,1.51-7.99.96-1.33-.26-2.25-.83-2.98-1.53-.89-.87-1.47-1.94-2.13-2.84-1.99-2.74-5.08-4.9-8.01-5.05-2.36-.14-4.62,1.02-6.11,4.25-1.19,2.55-2.02,5.81-5.25,7.58-.94.52-2.09.91-3.51,1.11-5.63.82-10.02-2.09-11.98-5.41-.72-1.22-1.11-2.49-1.11-3.64,0-2.35-1.87-3.13-3.99-3.26-2.68-.17-5.8.73-5.8.73V.24Z"/>
          <path class="st62" d="M0,50.67V0h239.8v50.67c0,3.75-4.19,8.99-10.53,9.59-9.21.88-9.04-6.73-13.82-9.49-2.07-1.19-4.25-.89-6.81-1.22-8.65-1.1-22.09-.8-26.59,4.25-3.53,3.95-16.4,2.65-18.38-.8-2.61-4.53-15.64-8.26-19.77-5.58-4.5,2.91-4.7,7.46-9.64,10.13-6.22,3.37-15.91,4.11-20.14-1.15-3.65-4.54-8.57-8.33-17.12-7.97-7.03.29-14.11,3.04-17.37,7.14-1.98,2.49-1.06,6.07-4.23,8.11-7.94,5.11-10.09-5.73-16.48-5.91-2.81-.08-5.19,1.56-8.01,1.03-3-.56-3.93-2.72-5.11-4.37-3.57-4.97-10.83-8.21-14.16-.95-1.52,3.31-2.43,7.83-8.72,8.77-7.73,1.16-13.12-4.73-13.12-9.02,0-5.38-9.79-2.56-9.79-2.56Z"/>
        </g>
        <g>
          <path class="st20" d="M0,66.82V0h240v66.82c0,5.17-4.2,12.39-10.54,13.22-9.22,1.22-9.04-9.28-13.83-13.09-2.07-1.65-4.26-1.23-6.82-1.68-8.66-1.52-20.31-16.87-26.61-4.82-3.74,7.16,1.43,15.67-3.07,22.62-3.53,5.45-10.96,2.47-12.95-2.28-2.61-6.24,5.24-20.04-5.25-22.96-5.81-1.61-12.77.8-16.91,4.49-4.5,4.01-4.7,10.28-9.65,13.96-6.23,4.64-15.92,5.67-20.16-1.58-3.66-6.25-8.57-11.48-17.14-10.98-7.04.41-14.12,4.2-17.38,9.85-1.98,3.42-1.06,8.37-4.23,11.18-7.95,7.05-10.1-7.9-16.49-8.14-2.82-.11-5.19,2.15-8.02,1.42-3-.77-3.93-3.76-5.12-6.03-3.58-6.85-10.84-11.32-14.17-1.32-1.52,4.57-2.44,10.79-8.72,12.09-7.73,1.6-13.14-6.52-13.14-12.43,0-7.42-9.8-3.53-9.8-3.53Z"/>
          <path class="st38" d="M125.98,76.63c1.08-.78,2.31-1.35,3.45-2.03,1.18-.71,2.27-1.55,3.32-2.45,2-1.72,3.82-3.85,5.27-6.05.12-.18.45-.07.37.16-1.01,2.69-2.56,4.92-4.65,6.89-2,1.89-4.75,3.93-7.55,4.28-.47.06-.52-.58-.22-.8Z"/>
          <path class="st38" d="M71.45,84.1c.1-.72.67-1.11,1.14-1.61.65-.67,1.16-1.45,1.61-2.27.9-1.65,1.18-3.53,1.53-5.36.09-.47.87-.48.95,0,.34,2.03-.19,4-1.04,5.85-.61,1.32-2.19,4.13-3.93,3.84-.21-.04-.28-.27-.26-.45Z"/>
          <path class="st38" d="M50.67,75.47c.67-.59,1.74-.53,2.57-.79.93-.3,1.5-1.01,2.08-1.75.42-.54,1.34.04,1.13.66-.35,1.07-1.17,1.85-2.16,2.35-.99.5-2.68.98-3.62.2-.19-.16-.18-.51,0-.66Z"/>
          <path class="st38" d="M20.77,80.77c.7-.79,2.09-1.08,3-1.61,1.09-.63,2.05-1.46,2.88-2.4.84-.95,1.48-2.1,1.94-3.28.23-.57.41-1.17.57-1.76.15-.52.22-1.13.51-1.59.07-.11.21-.08.26.03.45,1.09-.08,2.78-.46,3.83-.43,1.22-1.09,2.33-1.89,3.34-.83,1.06-1.89,1.93-3.01,2.67-.95.62-2.48,1.59-3.66,1.31-.25-.06-.3-.37-.14-.55Z"/>
          <path class="st38" d="M227.96,77.16c.76-.67,1.95-.67,2.89-.97,1.1-.35,2.12-.92,3.05-1.59,1.96-1.4,2.83-3.38,3.98-5.39.18-.31.7-.18.68.19-.09,2.39-1.9,4.6-3.68,6.03-.96.77-2.03,1.35-3.16,1.82-1.03.42-2.65,1.06-3.69.44-.18-.11-.23-.38-.07-.52Z"/>
          <path class="st38" d="M173.82,83.18c.37-.72,1.22-1.18,1.8-1.73.69-.65,1.27-1.4,1.75-2.22.92-1.56,1.41-3.64,1.43-5.43,0-.2.32-.26.37-.05.4,2.1.34,3.91-.61,5.88-.45.94-1.12,1.78-1.84,2.53-.67.69-1.54,1.57-2.53,1.68-.35.04-.52-.39-.38-.66Z"/>
        </g>
      </g>
    </g>
  </g>
</svg>