<?xml version="1.0" encoding="UTF-8"?>
<svg id="Livello_1" xmlns="http://www.w3.org/2000/svg" version="1.1" viewBox="0 0 150 150">
  <!-- Generator: Adobe Illustrator 30.1.0, SVG Export Plug-In . SVG Version: 2.1.1 Build 136)  -->
  <defs>
    <style>
      .st0 {
        fill: #995826;
      }

      .st1 {
        fill: #bf7e4c;
      }

      .st2 {
        fill: #bd5b26;
      }

      .st3 {
        fill: #f28b46;
      }

      .st4 {
        fill: #261810;
      }

      .st5 {
        fill: #e4d4af;
      }

      .st6 {
        fill: #bc6e38;
      }

      .st7 {
        fill: #7f3f12;
      }
    </style>
  </defs>
  <path class="st0" d="M63.47,40.94s5.88-36.87,25.19-35.98c19.31.89,12.79,37.13,12.79,37.13h-2.43s8.44-34.84-10.23-35.23c-18.67-.38-23.14,33.24-23.14,33.24l-2.17.83Z"/>
  <path class="st2" d="M27.41,46.63l16.72-2.85,2.17-5.9c25.97-.23,50.93,1.01,74.54,4.21l-7.49,42.11-61.56,9.26-24.38-46.83Z"/>
  <path class="st7" d="M113.74,85.84l-6.8-.68-62.71-6.24-10.56-20.28,4-7.56,6.73-3.19-.4-4.1.13-.02,2.17-5.9h.23s.34,7.31.34,7.31c18.29,3.21,39.5,4.44,62.21,4.66l4.37,33.79.29,2.2Z"/>
  <path class="st4" d="M48.26,72.01c-.1,0-.19-.08-.19-.19l-1.74-33.66c0-.11.08-.2.18-.21.12,0,.2.08.2.19l1.74,33.66c0,.11-.08.2-.19.21,0,0,0,0,0,0Z"/>
  <path class="st4" d="M44.68,69.59c-.11,0-.19-.08-.2-.19l-.54-25.61c0-.11.08-.2.19-.2h0c.11,0,.19.08.2.19l.54,25.61c0,.11-.08.2-.19.2h0Z"/>
  <path class="st3" d="M27.21,141.95c22.5,2.5,44.04,3.65,66.43,2.87,9.43-.33,19.74-1.21,29.15-2.13-3.15-34.41-4.09-68.05-1.94-100.6l-18.55,1.69-6.08,7.64c-25.96-1.94-46.98-4.88-68.79-4.79,6.3,35.47,4.41,68.8-.2,95.32Z"/>
  <path class="st6" d="M106.47,132.79s-12.47,12.03-12.82,12.03h0c-.25-.1,5.24-24.59,3.68-49.05-.67-10.43-.93-31.62-1.42-44.38.1,0,.2.02.31.02l6.08-7.64s.96,47.99,1.63,57.72c.67,9.73,2.55,31.29,2.55,31.29Z"/>
  <path class="st0" d="M74.62,58.41c.14.46,1.12,13.32.38,25.39-.47,7.74-3.31,15.48-2.43,16.33,2.25,2.18,21.46,4.71,22.92,2.05,1.46-2.65,2.54-37.29-.54-43.77-1.07-4.05-20.33,0-20.33,0Z"/>
  <path class="st2" d="M93.64,144.77s-.03,0-.04,0c-.1-.02-.17-.13-.15-.23,4.84-20.84,3.97-55.93,2.56-93.11,0-.11.08-.2.19-.2.11,0,.2.08.2.19,1.42,37.2,2.28,72.32-2.57,93.21-.02.09-.1.15-.19.15Z"/>
  <path class="st2" d="M93.64,144.77c-.08,0-.15-.05-.18-.12-.04-.1,0-.21.11-.25,1.09-.44,5-4.28,8.14-7.38,2.02-1.99,3.78-3.71,4.55-4.32-3.04-31.22-4.29-57.81-4.17-88.92,0-.11.09-.19.2-.19h0c.11,0,.19.09.19.2-.12,31.13,1.13,57.74,4.18,88.99,0,.07-.02.14-.08.18-.7.52-2.51,2.3-4.6,4.35-3.33,3.28-7.11,6.99-8.27,7.46-.02,0-.05.01-.07.01Z"/>
  <path class="st2" d="M122.48,142.64s-.04,0-.06,0c-.05-.01-.06-.02-3.14-1.89-3.51-2.14-9.39-5.72-12.91-7.78-.09-.05-.12-.17-.07-.27.05-.09.17-.12.27-.07,3.52,2.06,9.4,5.64,12.91,7.78,1.66,1.01,2.98,1.81,3.07,1.86.1.03.15.13.12.23-.02.09-.11.14-.2.14Z"/>
  <path class="st1" d="M48.53,48.87s-6.14-38.61,15.73-39.89c21.86-1.28,18.41,42.11,18.41,42.11h-2.81s3.84-40.19-15.34-39.81c-19.18.38-14.19,37.97-14.19,37.97l-1.79-.38Z"/>
  <path class="st5" d="M72.7,54.31c-.71.44,2.34,22.94-1.48,31.04-3.83,8.1-8.41,7.3-8.41,8.11s24.74,5.5,27.46,4.54c1.51-.53,5.24-8.67,5.53-18.47.23-7.89-.04-21.42-1.38-22.31-1.34-.88-21-3.35-21.71-2.92Z"/>
  <path class="st4" d="M86.34,58.6s-.02,0-.04,0l-6.38-1.18c-.11-.02-.18-.12-.16-.23.02-.11.12-.18.23-.16l6.38,1.18c.11.02.18.12.16.23-.02.09-.1.16-.19.16Z"/>
</svg>