<?xml version="1.0" encoding="UTF-8"?>
<svg id="Livello_1" xmlns="http://www.w3.org/2000/svg" version="1.1" viewBox="0 0 150 150" style="filter: drop-shadow(0 2px 3px rgba(0, 0, 0, 0.22));">
  <!-- Generator: Adobe Illustrator 30.1.0, SVG Export Plug-In . SVG Version: 2.1.1 Build 136)  -->
  <defs>
    <style>
      .st0 {
        fill: #f8b9a1;
      }

      .st1 {
        fill: #e4967e;
      }

      .st2 {
        fill: #f6b29d;
      }

      .st3 {
        fill: #e79881;
      }

      .st4 {
        fill: #394a56;
      }

      .st5 {
        opacity: .45;
      }

      .st6 {
        fill: #00aec9;
      }

      .st7 {
        fill: #f0a08b;
      }

      .st8 {
        fill: #f28e69;
      }
    </style>
  </defs>
  <path class="st0" d="M153.13,39.31l-4.73,42.6c-25.24,9.9-33.76,13.27-33.78,13.26-1.53.09-9.06.25-12.03,1.34-2.54-5.23-3.91-8.04-4.99-10.26-.03-.02-33.79-24.8-33.79-24.83,2.24-.1,44.28.14,56.7-5.5,0,0,0,0,0,0,.45-.2.28-.16.39-.14,1.23.14,14.56-7.34,30.67-16.63l1.55.17Z"/>
  <path class="st0" d="M74.54,62.57c-.09.54-5.26,10.62-3.41,10.57,7.23-.18,14.84,4.11,16.11,7.49,2.43,6.47-3.75,10.56-4.45,10.97l24.68-3.99c3.65-3.45,21.21-24.41,19.88-25.4-5.48-4.07-52.57-1.03-52.8.36Z"/>
  <path class="st0" d="M106.33,74.93s-37.35-13.61-42.51-13.5c-5.16.1-13.2,12.29-15.31,16.4-2.11,4.1.99,17.74,3.45,19.64,3.02,2.32,5.71-5.47,5.9-11.56.17-5.6,5.62-9.69,6.99-11.48.92-1.2,8.02-1.88,12.29-.54,8.18,2.57,8.96,14.64,8.96,14.64l20.23-13.59Z"/>
  <path class="st0" d="M88.57,59.66s-26.26-4.66-32.47-1.32c-6.21,3.34-12.38,7.98-13.11,12.89-.73,4.92.18,15.71,1.43,16.42,1.25.71,5.61-4.69,6.99-9.49,1.38-4.8,13.36-11.35,13.36-11.35l20.4-1.59,3.41-5.57Z"/>
  <path class="st0" d="M127.58,53.72s-13.91,5.38-25.2,4.03c-15.69-1.88-33.36-6.12-35.97-5.8-4.49.55-15.85,4.89-17.81,6.95-1.96,2.06-8.79,8.37-9.35,10.29-.56,1.91,7.92,1.45,15.09-1.78,7.17-3.23,16.79-5.22,16.79-5.22l34.16,12.35,22.3-20.82Z"/>
  <path class="st6" d="M160.13,20.51c-12.85,7.44-50.08,32.3-47.95,35.82.15.25.38.47.65.66,5.4,3.78,11.08,9.88,12.76,15.4.09.23.22.73.22.74,1.1,3.55,1.97,8.88,1.96,8.98.25,1.92,1.29,7.34,1.32,7.38.44,1.7,1.15,4.15,2.56,5.2,1.87,1.11,59.64-10.84,67.34-13.72l15.2-39.84-54.07-20.62Z"/>
  <path class="st1" d="M48.37,85.82c-.3.27-.77.09-.82-.31-.32-2.61-.46-6.01.52-7.92,2.01-3.91,9.05-14.69,14.43-16.43.39-.13.76.26.61.64h0c-.05.15-.17.26-.31.3-4.73,1.5-11.67,11.71-13.84,15.94-.68,1.33-.82,4.02-.42,7.34.02.16-.04.32-.16.43,0,0,0,0,0,0Z"/>
  <path class="st0" d="M81.21,76.51s2.02,1.52,3.2,4.96c1.67,4.85,1.57,6.06,1.57,6.06l1.36-9.06-6.14-1.97Z"/>
  <g>
    <path class="st8" d="M80.35,112.8l-11.98,2.19-3.51.64-48.35,8.85c-2.51.46-4.92-1.2-5.38-3.72l-6.11-33.37c-.46-2.51,1.2-4.92,3.72-5.38l21.34-3.91,6.85-1.25,35.65-6.52c2.51-.46,4.92,1.2,5.38,3.72l6.11,33.37c.46,2.51-1.2,4.92-3.72,5.38Z"/>
    <g class="st5">
      <path class="st2" d="M80.35,112.8l-11.98,2.19c-10.24-10.5-25.26-30.06-31.44-38.14l35.65-6.52c2.51-.46,4.92,1.2,5.38,3.72l6.11,33.37c.46,2.51-1.2,4.92-3.72,5.38Z"/>
    </g>
    <rect class="st2" x="11.24" y="84.72" width="13.52" height="12.25" rx=".62" ry=".62" transform="translate(-16.06 4.73) rotate(-10.37)"/>
    <rect class="st4" x="7.82" y="95.69" width="74.15" height="8.68" transform="translate(-17.28 9.72) rotate(-10.37)"/>
    <path class="st4" d="M15.14,115.01c3.59-.74,7.21-1.38,10.84-1.9.67-.1.55-1.14-.11-1.04-3.63.52-7.25,1.16-10.84,1.9-.65.14-.55,1.18.11,1.04h0Z"/>
    <path class="st4" d="M31.2,112.25c3.94-.73,7.88-1.5,11.81-2.31.65-.13.55-1.18-.11-1.04-3.93.81-7.87,1.58-11.81,2.31-.66.12-.55,1.16.11,1.04h0Z"/>
    <path class="st4" d="M15.71,118.13c5.8-1.07,11.63-1.96,17.49-2.65.67-.08.56-1.12-.11-1.04-5.86.69-11.69,1.58-17.49,2.65-.66.12-.55,1.16.11,1.04h0Z"/>
    <path class="st8" d="M11.12,91.6c.91-.24,1.83-.48,2.74-.72.62-.16,1.4-.23,1.72-.86.29-.57.1-1.31,0-1.9-.16-.93-.37-1.84-.61-2.75-.13-.51-.9-.2-.76.3.19.7.35,1.4.48,2.12.1.53.44,1.49.04,1.9-.39.4-1.32.46-1.86.6-.68.18-1.37.36-2.05.54-.51.13-.2.89.3.76h0Z"/>
    <path class="st8" d="M16.36,84.78c.17,1.14.34,2.28.52,3.41.09.57.17,1.14.26,1.71.09.57.4,1.47.1,1.95-.31.5-1.1.54-1.64.65-.56.11-1.12.22-1.68.33-1.17.23-2.33.46-3.5.68-.51.1-.43.92.09.81,1.4-.27,2.8-.55,4.2-.82.97-.19,2.52-.26,3.26-1.02.35-.36.27-.8.2-1.25-.11-.76-.23-1.52-.34-2.28-.22-1.42-.43-2.85-.65-4.27-.08-.52-.89-.43-.81.09h0Z"/>
    <path class="st8" d="M20.63,84.08c.1.78.2,1.56.33,2.33.08.5.1,1.14.56,1.46.41.29,1.04.27,1.52.28.71.02,1.41-.03,2.11-.16.52-.1.43-.91-.09-.81-.77.14-2.42.5-3.01-.09-.34-.34-.32-1.02-.39-1.49-.08-.53-.15-1.07-.22-1.61-.06-.52-.88-.43-.81.09h0Z"/>
    <path class="st8" d="M18.75,84.47c.15,1.28.3,2.57.45,3.85.08.69.16,1.38.24,2.07.06.48.06,1.02.29,1.45.39.74,1.21.77,1.95.76,1.28-.01,2.57-.04,3.85-.06.53,0,.43-.82-.09-.81-.95.01-1.9.03-2.86.04-.47,0-.96.06-1.43.01-.75-.07-.81-.71-.88-1.33-.23-2.02-.47-4.05-.7-6.07-.06-.52-.88-.44-.81.09h0Z"/>
    <path class="st8" d="M23.76,97.6c-.08-.96-.23-2.71-1.14-3.3-.33-.21-.7-.19-1.07-.16-.77.06-1.54.19-2.31.31-.77.12-1.53.26-2.29.42-.51.11-1.16.15-1.61.42-.87.53-.61,1.98-.36,2.78.16.5.93.2.76-.3-.14-.41-.23-.89-.15-1.33.12-.6.66-.58,1.16-.69.9-.19,1.81-.36,2.72-.5.73-.11,2-.52,2.63-.14.7.42.77,1.83.83,2.59.05.53.86.44.81-.09h0Z"/>
    <g>
      <path class="st2" d="M51.69,77.36c.37,2.51.8,5.02,1.31,7.51.14.69,1.24.58,1.1-.12-.51-2.49-.94-4.99-1.31-7.51-.1-.7-1.2-.58-1.1.12h0Z"/>
      <path class="st2" d="M52.66,77.85c.91-.33,2.33-.74,2.55.61.19,1.18-1.11,1.44-2,1.59-.7.12-.58,1.21.12,1.1,1.62-.27,3.36-1.06,2.93-3.02-.45-2.01-2.46-1.87-4-1.3-.67.25-.26,1.27.41,1.02h0Z"/>
      <path class="st2" d="M52.88,81.32c.73-.05,1.44-.3,2.17-.33.87-.03,1.38.47,1.69,1.24.14.34.29.75.03,1.05-.22.25-.69.29-.99.35-.81.17-1.63.33-2.44.5.2.21.4.42.6.64.01-.08.02-.17.03-.25.22-.67-.79-1.12-1.01-.45-.06.2-.1.32-.12.53-.02.32.22.71.6.64,1.66-.34,5.22-.41,4.45-3-.26-.88-.76-1.74-1.62-2.13-1.14-.52-2.36.03-3.53.12-.71.05-.59,1.15.12,1.1h0Z"/>
      <g>
        <path class="st2" d="M61.45,79.48c-.72-.18-1.68.12-2.19.67-.49.53-.54,1.37-.32,2.03.25.73.8,1.3,1.59,1.31.75.01,1.61-.16,1.86-.97.21-.67-.79-1.12-1.01-.45-.1.32-.6.38-.9.31-.34-.08-.51-.47-.56-.8-.04-.28-.01-.57.21-.76.29-.25.77-.36,1.13-.27.69.17.86-.92.17-1.09h0Z"/>
        <path class="st2" d="M60.98,79.31c.24.77.62,4.36,2.05,3.85.67-.24.26-1.26-.41-1.02-.02,0-.05.02-.07.03.18.03.37.05.55.08-.4-.29-.57-1.19-.68-1.65-.13-.57-.25-1.14-.42-1.69-.21-.68-1.23-.27-1.02.41h0Z"/>
      </g>
      <g>
        <path class="st2" d="M64.05,78.69c.26,1.17.44,2.35.54,3.55.06.71,1.16.59,1.1-.12-.1-1.2-.28-2.38-.54-3.55-.15-.69-1.25-.57-1.1.12h0Z"/>
        <path class="st2" d="M65.75,79.8c.23-.53.89-.7,1.25-.18.34.49.44,1.29.55,1.86.14.69,1.24.58,1.1-.12-.21-1.04-.39-2.47-1.46-2.98-.96-.45-2.04.03-2.45.98-.28.65.73,1.1,1.01.45h0Z"/>
      </g>
      <g>
        <path class="st2" d="M69.18,77.69c.33,1.13.56,2.28.77,3.44.12.69,1.22.58,1.1-.12-.22-1.25-.48-2.5-.84-3.72-.2-.68-1.23-.27-1.02.41h0Z"/>
        <path class="st2" d="M70.91,79.76c.82-.57,1.43-1.61,1.71-2.56.09-.29.02-.59-.28-.73-.24-.11-.64,0-.73.28-.23.77-.69,1.65-1.36,2.12-.58.41.07,1.29.66.89h0Z"/>
        <path class="st2" d="M71.34,79.11c.47.47.93.95,1.4,1.42.21.21.6.13.77-.09.2-.25.12-.56-.09-.77-.47-.47-.93-.95-1.4-1.42-.21-.21-.6-.13-.77.09-.2.25-.12.56.09.77h0Z"/>
      </g>
    </g>
  </g>
  <g>
    <path class="st0" d="M119.52,93.76c-9.71,8.76-30.59,11.32-36.57,11.04-11.19-.51-20.51,4.29-21.89,3.16-1.39-1.13-1.98-6.64,6.22-11.03,7.79-4.18,16.67-4.78,19.17-9.23.99-1.76,6.78-1.67,6.78-1.67,0,0,30.01,4.37,26.3,7.72Z"/>
    <path class="st3" d="M63.48,107c-.58-.41.37-.89.65-.98.21-.07.44-.12.65-.18.5-.12,1-.23,1.51-.34.89-.19,2.62-.91,2.86.47.07.38.64.21.57-.17-.35-2.03-2.91-1.03-4.19-.75-.81.18-1.99.27-2.55.97-.4.5-.29,1.15.21,1.5.31.22.59-.31.28-.53h0Z"/>
  </g>
  <path class="st1" d="M60.6,55.58c-3.29,2.65-7.41,3.73-10.88,6.07-2.79,1.88-6.01,4.61-6.72,8.08-.1.48.64.69.73.21.72-3.52,4.19-6.29,7.08-8.09,1.59-.99,3.32-1.71,5.02-2.51,1.89-.89,3.68-1.91,5.31-3.22.38-.31-.16-.85-.54-.54h0Z"/>
  <path class="st7" d="M118.21,95.29c1.81-2.09,3.13-4.51,3.91-7.16.15-.52-.67-.71-.82-.19-.74,2.51-2,4.8-3.71,6.78-.35.41.26.98.62.57h0Z"/>
</svg>
