<?xml version="1.0" encoding="UTF-8"?>
<svg xmlns="http://www.w3.org/2000/svg" version="1.1" viewBox="0 0 150 150" style="filter: drop-shadow(0 2px 3px rgba(0, 0, 0, 0.22));">
  <!-- Generator: Adobe Illustrator 30.1.0, SVG Export Plug-In . SVG Version: 2.1.1 Build 136)  -->
  <defs>
    <style>
      .st0 {
        opacity: .6;
      }

      .st0, .st1, .st2 {
        mix-blend-mode: multiply;
      }

      .st0, .st3 {
        fill: #fcecd3;
      }

      .st1, .st4 {
        fill: #7abe74;
      }

      .st1, .st2 {
        opacity: .4;
      }

      .st5, .st2 {
        fill: #fcd2a9;
      }

      .st6 {
        isolation: isolate;
      }

      .st7 {
        fill: #65b162;
      }

      .st8 {
        fill: #3d3d3b;
      }
    </style>
  </defs>
  <g class="st6">
    <g id="Livello_1">
      <g>
        <path class="st5" d="M48.79,77.07l11.72,2.55.88.1c2.31-3.3,4.7-6.05,9.64-6.94,7.11-1.28,22.93-7.12,31.65,13.43,0,0-9.67,2.61-14.82,4.36,0,0,.39,2.39.14,5.27,8.62-3.31,20.22-6.7,23.5-10.71,3.28-4.02,9-7.39,13.81-8.61,4.81-1.22,9.44-2.98,9.44-2.98,0,0-.36-13.05-8.77-24.29,0,0-16.01,6.42-20.66,10.05-4.4,3.44-11.25,3.79-18.36,6.87-.89.39-1.84.64-2.8.76-10.15,1.26-11.33-.02-15.12.52-3.98.56-8.61,3.56-12.07,4.47-1.11.29-4.47,2.2-8.18,5.14Z"/>
        <path class="st2" d="M78.11,71.4s-15.25.49-18.91,7.93c7.79,2.29,16.29-4.59,18.91-7.93Z"/>
        <path class="st5" d="M74.98,91.13s.04.01.06.02c0-.06.01-.12,0-.19-.02.06-.04.11-.07.17Z"/>
        <path class="st5" d="M38.76,104.61c2.95,3.19,7.33,6.84,9.11,4.61,1.04-1.17,1.59-2.71,1.03-4.24-.14-.41-.37-.82-.69-1.22-.1.01-.21.02-.32.03-2.95.31-6.02.58-9.12.81Z"/>
        <path class="st5" d="M74.98,91.13s.04.01.06.02c0-.06.01-.12,0-.19-.02.06-.04.11-.07.17Z"/>
        <path class="st5" d="M72.36,107.89c.07.06.16.14.25.21.98.81,2.9,2.12,4.8,1.93,1.8-.18,3.71-1.62,5.65-3.87,1.06-.99,1.42-1.37,1.85-1.69.56-.43,2.01-2.33,2.75-6.33,0,0,0-.01,0-.02.13-.69.24-1.45.31-2.27,0,0,.02,0,.03,0,.25-2.88-.14-5.27-.14-5.27-.42.14-.81.28-1.16.41-.86.31-1.83.52-2.87.63-.83,2.71-3.11,9.76-4.68,11.36-1,1.02-3.7,3.08-6.79,4.91Z"/>
        <path class="st5" d="M87.97,95.85c-.08.82-.18,1.58-.31,2.27.17-.77.28-1.54.34-2.28,0,0-.02,0-.03,0Z"/>
        <path class="st2" d="M72.36,107.89c.07.06.16.14.25.21.98.81,2.9,2.12,4.8,1.93,1.8-.18,3.71-1.62,5.65-3.87,1.06-.99,1.42-1.37,1.85-1.69.56-.43,2.01-2.33,2.75-6.33,0,0,0-.01,0-.02.17-.77.28-1.54.34-2.28,8.62-3.31,20.22-6.7,23.5-10.71,3.28-4.02,9-7.39,13.81-8.61,4.81-1.22,9.44-2.98,9.44-2.98,0,0-.03-1-.24-2.69-2.57,1.1-6.62,2.75-9.66,3.52-4.81,1.22-10.52,4.59-13.81,8.61-3.28,4.01-14.88,7.4-23.5,10.71-.06.74-.17,1.51-.34,2.28,0,0,0,0,0,.02-.74,4-2.19,5.9-2.75,6.33-.43.32-.78.71-1.85,1.69-1.94,2.25-3.85,3.69-5.65,3.87-1.13.11-2.26-.31-3.2-.83-.44.28-.91.57-1.38.85Z"/>
        <path class="st5" d="M62.41,111.15c.09.09.19.15.31.2.22.09.51.13.87.1,1.51-.14,3.32-.77,5.18-1.63,0,0,.01,0,.02,0,.76-.35,1.53-.75,2.28-1.16.44-.24.88-.5,1.3-.76,1.71-1.02,3.31-2.1,4.56-3.05.15-.12.31-.23.46-.34.1-.08.2-.15.29-.23.65-.51,1.16-.96,1.48-1.29,1.58-1.6,3.85-8.65,4.68-11.36-.27.03-.55.06-.83.08-.21.01-.42.03-.64.03-2.47.11-5.13-.18-7.32-.59-.17,2.52-1,5.04-2.46,6.99-.42.57-1.29,1.1-2.52,1.6,0,1.31-1.22,2.52-2.87,4.03-1.44,1.31-2.8,3.53-4.71,5.02-.27.21-.55.4-.84.58-.11.07-.17.1-.14.35.01.65.59,1.12.9,1.44Z"/>
        <path class="st5" d="M74.98,91.13s.04.01.06.02c0-.06.01-.12,0-.19-.02.06-.04.11-.07.17Z"/>
        <path class="st5" d="M74.98,91.13s.04.01.06.02c0-.06.01-.12,0-.19-.02.06-.04.11-.07.17Z"/>
        <path class="st5" d="M48.9,104.98c1.81,1.99,4.84,4.73,8.17,5.25.74.12,1.43.12,2.06.03t0,0c.25-.03.49-.08.72-.14,0,0,.01,0,.02,0,.64-.17,1.22-.43,1.76-.76.29-.18.58-.37.84-.58,1.91-1.49,3.27-3.71,4.71-5.02,1.66-1.51,2.88-2.71,2.87-4.03,0-.26-.04-.52-.14-.78-.16-.45-.47-.91-.95-1.42-2.25-2.35-6.19-.07-6.19-.07-1.86.75-5.67,4.65-6.28,5.21-.05.05-.17.09-.33.13-.02,0-.03,0-.05.01-.13.02-.27.04-.44.06-.02,0-.04,0-.06,0-2.33.32-4.8.61-7.38.88-.01,0-.03,0-.05,0,.32.4.55.81.69,1.22Z"/>
        <path class="st2" d="M69.94,98.95c.09.26.14.52.14.78,0,1.31-1.22,2.52-2.88,4.03-1.44,1.31-2.8,3.53-4.71,5.02-.27.21-.55.4-.84.58-.54.33-1.12.59-1.76.76,0,0-.01,0-.02,0-.23.06-.48.11-.73.14t0,0c-.63.09-1.32.09-2.06-.03-3.34-.52-6.36-3.26-8.18-5.25-.1-.29-.25-.58-.44-.87,1.84,1.95,4.71,4.41,7.85,4.9.74.12,1.43.12,2.06.03t0,0c.25-.03.49-.08.73-.14,0,0,.01,0,.02,0,.64-.17,1.22-.43,1.76-.76.29-.18.58-.37.84-.58,1.91-1.49,3.27-3.71,4.71-5.02,1.66-1.51,2.88-2.71,2.88-4.03,0-.25-.04-.51-.14-.77.38.43.62.83.77,1.22Z"/>
        <path class="st7" d="M2.52,104.14c-.29.73.21,1.52.99,1.55,7.85.31,21.87-.06,35.26-1.07,3.1-.24,6.17-.51,9.12-.81.11,0,.22-.02.32-.03.02,0,.04,0,.05,0,2.57-.27,5.05-.56,7.38-.88.02,0,.04,0,.06,0,.15-.03.3-.04.44-.06.01,0,.03-.01.05-.01.16-.04.27-.08.33-.13.61-.56,4.42-4.46,6.28-5.21,0,0,3.95-2.28,6.19.07.48.5.78.97.95,1.42.09.27.14.52.14.78,1.23-.5,2.1-1.04,2.52-1.6,1.45-1.95,2.29-4.46,2.46-6.99-.03,0-.05,0-.06-.02-1.59-.29-2.92-.65-3.73-.97-2.68-1.03-4.94-.71-7.3,1.85-2.36,2.56-9.85,8.47-16.88,8.04-7.03-.43-7.63-4.78-6.72-5.92.91-1.13,1.5-2.49,7.75-3.6,3.52-.96,6.25-1.21,10.12-6.26,1.17-1.54,2.17-3.1,3.18-4.55l-.88-.1-11.72-2.55-41.41-9.02c-.39-.08-.76.21-.75.61.05,4.25.08,24.89-4.11,35.48Z"/>
        <path class="st3" d="M86.99,91.49s.62,2.81-.78,3.06c-1.4.26-2.7-.61-2.54-2.79,1.47-.52,3.33-.27,3.33-.27Z"/>
        <path class="st0" d="M84.25,93.97c.48.54,1.21.72,1.96.59,1.4-.26.78-3.07.78-3.07,0,0-.13-.02-.36-.03.11.73.28,2.56-.84,2.76-.56.1-1.1.03-1.54-.24Z"/>
        <path class="st3" d="M69.89,100.02s-3.79-1.39-4.5-1.05c-.71.34-3.15,3.15-2.02,4.43,1.47,1.67,4.21.25,6.51-3.39Z"/>
        <path class="st0" d="M63.37,103.4c1.47,1.68,4.21.25,6.52-3.38,0,0-.1-.04-.28-.1-2.21,3.16-4.71,4.32-6.09,2.75-.22-.25-.3-.56-.29-.89-.21.61-.23,1.2.14,1.63Z"/>
        <path class="st2" d="M62.41,111.15c.09.09.19.15.31.2.22.09.51.13.87.1,1.51-.14,3.32-.77,5.18-1.63,0,0,.01,0,.02,0,2.74-1.34,5.81-3.25,8.14-4.97.15-.12.31-.23.46-.34.1-.08.2-.15.29-.23,4.41-3.68,5.3-12.22,5.33-12.57h0s-.64.03-.64.03c.06,14.47-19.96,19.42-19.96,19.42Z"/>
        <path class="st3" d="M82.26,92.21s-.06,4.54-2.42,4.86-3.01-1.95-2.82-2.53.51-2.91.51-2.91c0,0,4.34-.18,4.73.59Z"/>
        <path class="st0" d="M79.84,97.07c2.36-.32,2.42-4.86,2.42-4.86-.06-.12-.22-.22-.44-.29-.04.86-.34,4.39-2.41,4.68-.87.12-1.52-.12-1.97-.49.43.62,1.19,1.13,2.4.97Z"/>
        <path class="st2" d="M58.11,101.14s-2.53,2.39-2.26,3.65l-1.21-1.77,1.88-.34,1.6-1.54Z"/>
        <path class="st2" d="M46.56,103.93s2.44.96,2.28,3.77c.97-1.77-.63-3.93-.63-3.93l-1.65.17Z"/>
        <path class="st4" d="M6.61,102.24c19.17.11,40.22-.32,51.74-1.33,1.42-1.34,3.31-3,4.46-3.46,0,0,3.95-2.28,6.19.07l.04.04c1.74-1.94,3.16-4.7,3.39-7.04-.45-.13-.85-.26-1.16-.38-2.68-1.03-4.94-.71-7.3,1.85-2.36,2.56-9.85,8.47-16.88,8.04-7.03-.43-7.63-4.78-6.72-5.92.91-1.13,1.5-2.49,7.75-3.6,3.52-.96,6.25-1.21,10.12-6.26.54-.71,1.04-1.42,1.53-2.13l-50.25-10.33s.8,16.72-2.89,30.44Z"/>
        <path class="st5" d="M47.07,100.05c7.04.43,14.52-5.48,16.88-8.04,2.36-2.56,4.62-2.88,7.3-1.85.82.32,2.14.68,3.73.97.03-.06.05-.11.07-.17,0,.06,0,.13,0,.19,2.19.41,4.84.7,7.32.59.51-.02.99-.06,1.47-.12,1.04-.11,2.01-.32,2.87-.63.35-.13.74-.27,1.16-.41,5.15-1.75,14.82-4.36,14.82-4.36-8.72-20.55-24.54-14.71-31.65-13.43-4.94.88-7.34,3.64-9.64,6.94-1.01,1.45-2,3-3.18,4.55-3.87,5.05-6.61,5.3-10.12,6.26-6.25,1.1-6.85,2.47-7.75,3.6-.91,1.14-.3,5.49,6.72,5.92Z"/>
        <path class="st3" d="M47.98,91.89s1.06,4.72.68,5.07c-.38.35-5.12,1.89-6.35.92-1.23-.97-2.27-4.66.62-5.43,2.89-.78,5.06-.56,5.06-.56Z"/>
        <path class="st2" d="M97.17,83.86s-6.64,7.09-11.89,7.52c-5.24.43-10.66,0-14.53-1.4,11.24.4,10.08,3.47,26.42-6.12Z"/>
        <path class="st0" d="M43.4,98.19c1.86.09,4.94-.95,5.25-1.23.38-.35-.67-5.07-.67-5.07,0,0-.06,0-.17-.01.52,1.77.95,5.54-4.4,6.31Z"/>
        <path class="st3" d="M118.26,47.75h3.24c1.03,0,1.88.84,1.88,1.88v31.88c0,1.03-.84,1.88-1.88,1.88h-3.24v-35.63h0Z" transform="translate(257.43 80.8) rotate(157.87)"/>
        <path class="st8" d="M132.84,84.67l14.73-5.55-16.5-40.58-14.73,5.55c-.71.29-1.05,1.09-.76,1.8l15.46,38.02c.29.71,1.09,1.05,1.8.76Z"/>
        <path class="st1" d="M40.35,94.09c-.62.77-.53,3.03,1.79,4.54-6.04-.22-10.85-3.87-10.85-8.34s5.12-8.35,11.44-8.35c5.44,0,9.99,2.77,11.15,6.48-1.92,1.19-3.71,1.51-5.78,2.07-6.25,1.1-6.85,2.46-7.75,3.59Z"/>
      </g>
    </g>
  </g>
</svg>
