<?xml version="1.0" encoding="UTF-8"?>
<svg id="Logo_Formattato" xmlns="http://www.w3.org/2000/svg" xmlns:xlink="http://www.w3.org/1999/xlink" version="1.1" viewBox="0 0 32 32">
  <!-- Generator: Adobe Illustrator 30.1.0, SVG Export Plug-In . SVG Version: 2.1.1 Build 136)  -->
  <defs>
    <style>
      .st0, .st1 {
        fill: none;
      }

      .st2 {
        fill: #1d1d1b;
      }

      .st3 {
        clip-path: url(#clippath-1);
      }

      .st1 {
        stroke: #1d1d1b;
        stroke-miterlimit: 10;
      }

      .st4 {
        fill: #fcc00b;
      }

      .st5 {
        clip-path: url(#clippath);
      }
    </style>
    <clipPath id="clippath">
      <rect class="st0" x=".13" y="3.3" width="31.66" height="18.21" transform="translate(.37 -.47) rotate(1.7)"/>
    </clipPath>
    <clipPath id="clippath-1">
      <path class="st1" d="M14.62,3.66l4.89,10.14c.04.08.13.13.22.12l11.15-1.51c.21-.03.33.22.18.37l-8.13,7.78c-.07.06-.09.16-.04.25l4.89,10.14c.09.19-.11.38-.29.28l-9.91-5.33c-.08-.04-.18-.03-.25.03l-8.13,7.78c-.15.14-.4.01-.36-.19l2.01-11.07c.02-.09-.03-.18-.11-.23L.8,16.88c-.18-.1-.13-.37.07-.4l11.15-1.51c.09-.01.17-.08.18-.17l2.01-11.07c.04-.2.31-.24.4-.05Z"/>
    </clipPath>
  </defs>
  <path class="st4" d="M3.16,22.38c.16.02.24.1.24.24.01.02.02.04.02.07-.01.08-.02.14-.02.18l.06.05s.03-.02.04-.05c0-.16-.01-.26-.01-.31,0-.09.07-.15.2-.18.14,0,.21.12.24.36,0,.02,0,.03.02.03.04,0,.07-.11.1-.34.05-.03.08-.05.12-.05h.02c.14,0,.21.17.23.52,0,.04.05.11.14.22.05.11.12.17.2.17.07-.03.11-.05.14-.05h.01c.06,0,.11.25.14.75l-.05.17c.06,0,.12.46.2,1.38,0,.01-.03.08-.08.21.09.19.14.3.14.32v.13c0,.1-.14.19-.41.25-.09.06-.19.09-.3.09-.02,0-.07,0-.15-.02-.05,0-.09.09-.14.27-.04.03-.08.04-.12.04-.21,0-.36-.05-.45-.15h-.02s-.05.07-.07.22l-.03.02h-.04c-.07,0-.12-.26-.14-.78-.02-.11-.06-.49-.11-1.16-.03-.28-.06-.42-.09-.42-.03.17-.12.98-.25,2.42-.02.04-.1.09-.23.14v.05l.17.15v.07s-.04.1-.13.25c0,.02-.02.07-.05.15.03.18.06.27.08.27h.03s.09-.04.21-.11c.08-.05.15-.07.2-.07h.03c.18.04.27.11.27.22v.09s-.05.05-.09.07c-.11-.08-.18-.12-.21-.12h-.01c-.1,0-.17.07-.2.21.02.16.06.24.1.24h.04s.11-.05.25-.16c.01,0,.03,0,.05-.01.07.03.12.04.14.04h.03c.07,0,.11-.04.11-.11-.07-.25-.1-.42-.1-.52-.18-.14-.27-.23-.27-.25v-.03s.04-.07.13-.08l.22.07h.02c.09-.03.14-.08.14-.16-.03-.04-.14-.09-.32-.15-.03-.04-.05-.07-.05-.09,0-.1.1-.16.31-.19.04,0,.16.06.36.18h.01s.14-.06.32-.18c.04-.03.17-.05.41-.06.13-.17.23-.25.31-.27.08,0,.13.25.15.75.26,2.52.39,3.81.39,3.87,0,.12-.05.19-.16.19h-.02c-.11,0-.18-.14-.21-.43,0,0-.01,0-.01-.03h-.01s-.03.01-.03.04c0,.05,0,.13.01.24-.02.12-.07.19-.15.19h-.05c-.09,0-.14-.08-.18-.25h-.03s-.04.07-.08.2c-.05.05-.11.07-.17.07-.15,0-.23-.16-.23-.49,0,0-.01,0-.01-.03h-.04s0,.04-.02.05l.03.23c-.01.13-.06.2-.14.2-.07,0-.13-.08-.18-.24h-.03s-.05.07-.12.21c-.03.02-.05.03-.08.03-.11,0-.17-.32-.17-.97,0-.07.12-.14.35-.21.18-.18.28-.31.31-.41,0-.03-.06-.04-.18-.04h-.39c-.11,0-.17-.11-.17-.32-.03-.06-.1-.09-.2-.09h-.42c-.14,0-.21.06-.21.17-.06,1.22-.12,1.83-.17,1.83-.04.04-.08.06-.14.06-.09,0-.14-.12-.17-.35h-.01c-.04.2-.08.3-.1.3,0,.03-.05.05-.16.07h-.02c-.15,0-.23-.1-.23-.3v-.29s0-.03-.03-.03c-.02,0-.03.01-.03.03v.28c0,.16-.05.24-.14.24-.05,0-.11-.08-.18-.23-.02,0-.03-.01-.06-.01-.03,0-.04.06-.05.18-.03.02-.05.03-.07.03-.05-.02-.07-.04-.07-.08,0-.03.01-.05.01-.06,0-.02-.01-.03-.01-.04h-.06s-.06.08-.14.24c-.06.02-.1.03-.11.03-.08,0-.13-.06-.16-.19.03-.54.09-.81.17-.81.02,0,.03,0,.03-.02v-.02c-.06-.05-.09-.11-.09-.18,0-.07.02-.14.07-.21-.02-.08-.02-.14-.02-.17.12-1.34.21-2.02.25-2.02.07-.07.1-.13.1-.19-.06-.11-.09-.17-.09-.2,0-.13.09-.2.28-.2l.04-.05v-.03c0-.07-.08-.13-.23-.19-.03-.03-.04-.06-.04-.1.25-2.51.4-3.83.43-3.94.11-.1.17-.16.17-.16-.09-.05-.14-.11-.14-.16h0c0-.08.03-.14.08-.17h.04c.08,0,.12.04.12.13v.03s0,.06-.03.14c.18,0,.31.11.38.34l-.04.14v.04c.03.11.05.17.08.17h.06c.07-.04.1-.09.1-.14-.06-.1-.09-.17-.09-.19.06-.1.11-.23.14-.39.03-.05.08-.07.14-.07.13.02.21.03.24.03s.08-.08.14-.23c.05-.05.11-.07.17-.07ZM1.43,26.11c.03.09.07.14.12.14.04,0,.09-.05.15-.14v-.06c-.04-.12-.08-.18-.11-.18h-.01c-.1.01-.14.09-.14.24ZM1.74,23.38v.05s.02.07.06.09h.03s.03,0,.03-.03v-.06s-.02-.03-.06-.05h-.06ZM2.17,22.38c.13.02.2.08.2.16,0,.07-.1.12-.31.16-.06-.02-.09-.06-.09-.12.03-.13.1-.2.2-.2ZM2.03,23.94h0c0,.09.06.14.17.18h.04l.02-.07v-.04c-.01-.09-.03-.14-.06-.14h-.01c-.07,0-.13.02-.16.07ZM2.65,22.4h.06s.03.02.05.05v.03s-.07.07-.15.07c-.04-.01-.06-.03-.06-.04v-.06s.05-.05.1-.05ZM3.47,25.29v.03c0,.07.05.12.16.15.09-.03.14-.1.14-.21v-.03c0-.07-.02-.12-.07-.14h-.04c-.09,0-.15.07-.19.2ZM3.93,24.88v.04h.06v-.02s0-.02-.03-.02h-.03ZM3.95,27.85v.05l.03.04s.03-.02.05-.02v-.04s0-.03-.03-.03h-.05ZM3.97,23.73c.01.08.05.13.13.13.08,0,.13-.06.13-.17v-.07c0-.05-.02-.08-.06-.1h-.04c-.09,0-.14.06-.16.19v.02ZM4.69,28.41h-.05s-.08-.02-.14-.07h-.02s-.05.05-.1.14c.12.21.22.32.31.32h.18c.07,0,.13-.05.17-.14v-.17s.2-.28.2-.28v-.04c-.03-.06-.09-.09-.17-.09h-.01c-.08,0-.15.09-.23.27-.05.04-.09.06-.13.06ZM4.69,22.38c.12,0,.19.09.21.27v.11c0,.05-.01.08-.04.09h-.05s-.07-.08-.13-.19c-.12-.05-.19-.1-.19-.15v-.03c.04-.07.1-.1.2-.1ZM4.61,25.59v.05s.01.03.03.03h.04c.14-.02.21-.05.21-.08v-.05s-.04,0-.06-.01c-.09,0-.16.03-.22.06ZM4.68,24.11c.02.05.06.08.1.08.05-.02.08-.04.08-.05,0-.08-.04-.13-.11-.13-.05.01-.07.04-.07.1Z"/>
  <path class="st4" d="M7.11,26.03h0c.08,0,.12.03.12.09-.02.05-.04.11-.05.2,0,0,0,0,0,.03h.01s.04-.03.04-.03h.01s.11.25.2.76c0,.02.03.13.07.32,0,.03-.03.06-.09.09,0,.02-.03.05-.09.08v.04s.03.03.09.04c.01,0,.04-.01.1-.04.02,0,.05.04.07.13h0s.05-.12.09-.32c.01-.05.03-.09.07-.11,0,0,0,0,.01-.02v-.06s0-.07,0-.07c0-.03,0-.05,0-.07.03-.08.04-.15.04-.2,0-.08.04-.12.08-.12.03,0,.05,0,.05-.02v-.02s-.07-.06-.07-.06v-.03s.03-.17.1-.41c.02-.13.05-.2.09-.2h.01c.05,0,.08.06.08.18h.01s.01,0,.01,0v-.04s0-.02,0-.03c0-.08.05-.12.11-.12.09,0,.13.04.13.12v.06c0,.07,0,.12,0,.15,0,.03,0,.05,0,.05,0,0,0,.01,0,.02h.02c0-.11.02-.17.06-.17.04-.02.07-.04.07-.05,0,0-.03-.02-.1-.04v-.04c0-.06.02-.09.06-.09h.03s.07.03.08.1h0s-.02.07-.02.08c.01.02.02.04.03.08,0,0,0,.02,0,.03v.03h.03c0-.05.03-.08.06-.08.03,0,.05.02.06.07l-.02.06v.02c.01.05.03.08.04.08h.03s.04-.04.04-.07l-.04-.08h0s.03-.09.04-.17c.02-.03.05-.05.07-.05h0c.05,0,.09.04.1.13h.01c.02-.15.04-.22.06-.22,0,0,.01-.01.03-.01h.03s.07.03.08.1v.71s-.04.06-.11.09h0v.03s.03.02.08.02c.02.02.03.04.03.06h0c0,.09,0,.14,0,.15,0,.2.01.56.01,1.05v1.01s-.01.06-.03.07h-.01s-.06-.04-.08-.13c-.02-.01-.03-.02-.04-.02h-.02s-.01,0-.01.01v.02c.02.05.03.11.04.17.03.03.05.07.05.12h.02s.05-.01.05-.01c.02.03.03.05.03.08v.43c0,.05-.03.08-.07.08-.02,0-.05-.03-.07-.09h-.01s-.04.02-.1.06c-.03,0-.04-.04-.04-.11v-.12h-.02v.03s0,.09,0,.09c0,.07-.04.11-.11.11l-.07-.03s-.02.04-.04.11c-.01.01-.03.02-.04.02h-.02s-.04-.04-.06-.12h0s-.02.03-.03.1c-.01,0-.03.01-.04.01h0s-.06-.03-.07-.08v-.74s.02-.07.06-.16h0c-.04-.06-.06-.1-.06-.13v-.99s.02-.07.05-.15l-.03-.04h0s.03-.07.08-.12v-.02c-.02-.06-.03-.08-.05-.08h0s-.06.04-.07.12h0s0,.07,0,.07l-.19.71c0,.06-.04.11-.09.16,0,0-.01.01-.02.03h0s.04.06.04.08v.02s-.05.24-.16.66c-.1.39-.16.61-.18.65-.02.01-.03.02-.04.02-.04,0-.06-.07-.07-.21,0-.03.01-.07.04-.11,0-.02-.02-.06-.06-.11-.02.02-.04.06-.04.11v.04c.02.06.02.1.02.12v.06s0,.05-.02.06h-.01c-.04-.05-.08-.08-.1-.08h0s-.03.04-.05.11c-.01,0-.03.01-.04.01-.04,0-.08-.11-.12-.32-.02-.07-.04-.13-.04-.17,0-.02.02-.05.06-.08-.02-.12-.03-.19-.03-.2.01-.05.02-.08.02-.1-.03-.13-.06-.2-.09-.2-.02.02-.04.03-.05.03-.06,0-.11-.14-.17-.43-.12-.41-.17-.65-.17-.72,0-.02-.01-.05-.04-.1h-.02c0,.05,0,.09,0,.11v2.04c0,.06-.02.1-.04.1h0s-.07-.03-.07-.03c-.04.05-.06.08-.07.08h-.04s-.05-.05-.07-.1h0s-.02.03-.04.08c-.01.01-.03.02-.04.02-.05,0-.08-.1-.08-.31,0,0,0-.05-.02-.15h-.01s-.01.03-.02.09c-.07.07-.13.11-.17.11h-.04s-.04,0-.06,0h0s-.03-.03-.03-.06v-2.11c0-.05,0-.1,0-.15,0-.01,0-.05,0-.12v-.41c0-.07,0-.12,0-.15,0-.04,0-.1,0-.16v-.59s.01-.05.04-.07h.01s.06.03.07.1c0,.02.04.05.12.06,0,0,.03.04.1.09.02.05.03.08.03.09,0,.02-.04.04-.13.05-.02.01-.04.03-.05.04.02.04.03.06.03.08,0,.02-.05.06-.12.14v.02s.05.08.14.15c.02.05.04.08.05.08h.01s.03-.04.03-.08c0-.02-.03-.04-.08-.06-.03-.03-.04-.05-.04-.07h0c0-.05.04-.07.13-.07,0-.01.02-.05.04-.12l.11-.15c0-.19.03-.29.05-.29h.02s.03.05.04.14h.02s0-.02,0-.02v-.04s0-.03,0-.03c0-.09.02-.13.07-.13h0s.07.04.07.12v.1h.02s0-.01,0-.02v-.06c0-.09.02-.14.09-.15h0s.08.06.1.19h0s.01,0,.01-.01v-.09c0-.06.04-.08.12-.08ZM6.1,29.38c.04.09.07.15.07.18h0s-.03.08-.08.14c0,.02-.01.03-.01.04,0,.02.02.03.03.03.1-.06.15-.13.15-.21.03-.05.04-.09.04-.12v-.17s0-.04-.02-.04c-.11.03-.16.06-.16.1,0,0,0,.02,0,.04ZM6.07,26.49v.02s0,.01.02.02c.02,0,.03-.01.03-.02h0s0-.04,0-.04h-.03s-.01,0-.02.03ZM6.27,29.91s.06.04.06.08v.03c0,.06-.01.1-.04.12h-.02c-.06,0-.1-.05-.11-.15v-.02s.06-.05.12-.05ZM6.26,27.95v.03s0,.22,0,.22c0,.02.02.05.07.1h.01s.11-.02.22-.06h0s-.02-.03-.06-.06c-.05-.05-.11-.12-.19-.22l-.02-.02h-.02ZM6.73,27.7s.03.04.08.04c.05-.02.08-.04.08-.06,0-.03-.01-.05-.03-.06h-.02c-.06,0-.09.03-.1.09ZM6.76,27.45h.02s.04-.01.04-.04c0-.03-.02-.04-.03-.04h0s-.02.03-.03.08ZM7.22,28.56s-.01.03-.01.04v.07s0,.04.02.04h.04s.06-.02.06-.06v-.04s-.04-.03-.11-.04ZM7.78,28.83v.09s.01.04.03.04c.04,0,.07,0,.09-.01h.06s0,0,0,0c-.02-.06-.03-.1-.03-.13,0-.07.03-.11.08-.11h.06s.01,0,.01-.01c-.02-.03-.03-.05-.03-.06,0-.07.02-.11.06-.11.03,0,.04,0,.04-.02v-.04s0-.01-.01-.01c0,0-.02,0-.05,0h-.07s-.07.03-.12.04c-.04.06-.07.14-.1.24,0,0-.02.03-.03.09ZM7.88,28.09h0s.04.09.05.25c0,0,.01,0,.03,0,.01,0,.04-.03.09-.08.04,0,.06-.02.06-.05-.02-.05-.04-.08-.06-.08,0,0-.02,0-.05,0-.04,0-.06-.03-.06-.06v-.03h-.02s-.04.03-.04.03ZM7.96,27.54s.02,0,.02.01c.08-.02.13-.03.13-.05-.01-.03-.04-.04-.07-.04-.03.01-.06.04-.08.08ZM8.03,27.24h0s.01.03.02.03h0v-.03h-.02ZM8.06,28.01h0c.06.06.1.11.13.18h.02c.04-.06.06-.11.08-.13h0s-.01-.05-.03-.05c0,0-.03,0-.07,0-.06,0-.09-.01-.1-.01,0,0-.01,0-.02,0ZM8.3,27.76v.02s-.01,0-.01,0h.03s0-.02-.01-.02ZM8.57,26.49v.03s0,.02.02.03h.01s.01,0,.01-.01v-.03s0-.02-.03-.03h-.01s-.01,0-.01.01ZM8.76,26.04h0s.06.02.06.06c0,.03-.03.05-.08.06-.03,0-.04-.01-.04-.04,0-.05.03-.07.07-.07ZM8.7,26.74h0c.02.07.05.1.08.1l.02-.03v-.06s0-.04-.03-.04h0s-.05.01-.07.03ZM8.75,28.64h0s0,.02.02.02c.02,0,.03-.03.04-.09,0,0,0,0,0,0-.04.02-.06.05-.06.08ZM8.89,30.1s.01,0,.01.01h0s0,.02-.02.03h0s-.01,0-.02-.02h0s.02-.02.04-.02ZM8.95,26.04s.04,0,.04.02v.03s-.03.03-.05.03h0s-.02,0-.03-.03v-.02s.03-.03.04-.03ZM8.91,29.39s.01.03.02.03h0s.06-.03.07-.08c0-.02-.01-.03-.03-.04-.02,0-.04.03-.06.09ZM9.24,29.42v.02h-.01s0-.02.01-.02Z"/>
  <path class="st4" d="M10.04,26c.06,0,.1.07.1.2h.01s0,0,0,0v-.03s0-.08,0-.08c0-.05.02-.08.07-.08.05,0,.08.07.08.2h.01v-.03s0-.04,0-.04c0-.09.03-.13.08-.13h.01s.07.03.08.09v1.24s-.03.06-.08.08h0c.06.04.08.07.08.09v.59s-.01.05-.04.06c-.01,0-.04,0-.08-.01-.03,0-.04.02-.04.03,0,.03.03.04.09.04.05,0,.07.02.07.05,0,.03-.01.06-.01.08,0,.05.01.08.01.09v1.14s-.03.08-.08.13h0c.06.06.08.09.08.12v.23s-.01.06-.04.07h-.01c-.06-.02-.09-.03-.09-.03-.06.02-.09.03-.09.03h0s-.07-.04-.07-.12v-.09s.03-.06.08-.1c0,0,0-.02,0-.02-.09.02-.13.04-.13.06.02.05.03.09.03.13v.07c0,.07-.03.1-.1.1-.04,0-.07-.04-.1-.11h0c-.03.06-.06.09-.07.1h-.02s-.07-.04-.09-.12h-.01s-.03.09-.03.09c-.02.03-.04.04-.08.04-.06-.01-.08-.04-.08-.08v-1.12s0-.05.01-.08c0-.03,0-.06,0-.08,0-.01.03-.05.08-.12v-.02c-.06-.05-.08-.08-.08-.1v-.5s.02-.07.06-.13v-.02c0-.05-.02-.09-.06-.12v-.03s0-.08,0-.08c0-.02.01-.04.03-.05h0c.06.02.09.03.09.03.02,0,.05-.02.08-.07,0,0,.03-.02.06-.07h0s-.06.02-.08.02c-.13,0-.19-.04-.19-.08v-1.36c0-.06.03-.08.06-.08h.01c.06.01.08.07.08.16h0s0,.01,0,.01c.08-.08.12-.13.13-.13.03,0,.04.03.04.1v.13h.02v-.03s0-.11,0-.11c0-.09.03-.14.09-.14ZM9.8,26.58c.01.05.04.08.07.08.04,0,.06-.03.07-.08h0s-.03-.07-.08-.07c-.04.02-.05.04-.05.07ZM9.87,28.03h0c.04.06.07.08.1.08v-.02s.01,0,.01,0c0-.02-.03-.04-.1-.05h-.01ZM9.88,29.11h0s.02.1.02.1c0,.02,0,.04,0,.06,0,0,0,0,0,0,.03-.03.06-.04.08-.04.06,0,.1.01.12.01.07-.04.12-.07.15-.07.03,0,.05,0,.05-.02h0s-.02-.07-.07-.08c-.08.02-.14.04-.16.04-.04,0-.07-.03-.1-.1,0,0,0,0,0,0-.05.02-.08.06-.08.09ZM9.95,28.86s.01.02.03.03c.02,0,.04-.01.06-.04v-.02s-.02-.03-.04-.03c-.03.01-.04.03-.04.05ZM9.99,28.55h0s0,.02.02.03h0s.05-.02.09-.07v-.02s-.04,0-.04-.01c-.05,0-.08.03-.08.07ZM10.11,27.95h0s0,.02.02.02c.02,0,.04-.02.04-.04h0s0-.02-.02-.03h-.01s-.02.02-.03.05ZM10.2,26.86l.02.02s.04-.03.04-.09h0s0-.02-.02-.03c-.02,0-.03.03-.04.09ZM10.23,27.75c.02.06.04.09.08.09h0s.05-.02.06-.07c-.01-.05-.04-.08-.08-.08-.04,0-.06.03-.06.05Z"/>
  <path class="st4" d="M11.76,26.01s.05.03.08.08h.03s.02,0,.03,0c.09,0,.14.04.14.1,0,.05.02.07.03.07h.01v-.08s.03-.07.08-.07c.06,0,.09.02.09.04v.03s-.04.05-.04.07h0s.03.04.04.04c.02,0,.04-.04.06-.13.02-.02.04-.03.07-.03h.01c.08,0,.12.05.12.14h0s-.02.06-.06.09h.04s.08,0,.13,0c.07,0,.11.06.11.17,0,.02.01.03.02.03,0,0,.01,0,.01-.01v-.07s.01-.05.03-.06h.03c.06.02.11.23.12.64v.34c0,.09-.02.14-.06.14-.02,0-.04-.02-.05-.07h-.01c-.03.05-.05.08-.06.09,0,0-.01,0-.02,0-.05,0-.08-.09-.08-.26v-.06s0-.01,0-.02h0s-.02.02-.02.04v.11s0,.06,0,.1c-.01.06-.04.09-.08.09h-.02s-.07-.05-.07-.15c0,0-.01,0-.01-.01,0,0-.01,0-.02,0,0,.1-.03.15-.1.15-.03,0-.05-.04-.07-.11h0s-.03.03-.04.09c-.02.01-.04.02-.05.02-.04,0-.06-.04-.06-.09,0-.37-.02-.56-.07-.56,0-.02-.06-.04-.17-.05-.1,0-.16.03-.19.09-.03.11-.05.38-.05.82v.24s-.03.06-.08.07h0s.03.04.08.06v.04s.01.2.01.2c0,.54.02.81.07.81.01.04.07.06.17.06h0c.11,0,.17-.03.19-.1.03-.11.04-.25.04-.42v-.04c0-.06.02-.09.04-.09h.03s.03.03.06.09c0,0,.01,0,.01,0h0s0-.06,0-.06c0-.04.02-.06.05-.06h.02s.04.05.05.14h.02s.01-.01.01-.03h0s0-.02,0-.03c0-.07.03-.11.1-.11.04,0,.07.04.09.11,0,.02-.02.06-.07.12h0s.02.05.06.05h0s.03-.03.03-.06v-.1c0-.06.02-.1.08-.11.04,0,.07.04.09.12h0c.02-.07.04-.11.07-.11h.02s.06.04.06.11v.06s-.01.05-.03.1c.02.04.04.07.04.08v.15s-.02.07-.02.08c.01.03.02.05.02.06-.03.38-.08.57-.16.57-.01,0-.03,0-.05-.02h-.03s0,0,0,.02c0,.06,0,.1,0,.12,0,.04-.03.06-.06.06-.04,0-.07-.08-.08-.25,0-.05,0-.1-.02-.15h-.02v.02c.02.17.03.3.03.4v.03c0,.05-.05.09-.14.11-.02,0-.05-.03-.09-.09h0s-.02.04-.04.12c-.02.02-.05.02-.07.02-.04,0-.08-.04-.1-.12h0c-.02.09-.05.13-.08.13h-.02s-.05-.02-.09-.07h0c-.03.06-.06.09-.1.09h0c-.06,0-.09-.05-.09-.15v-.04s.02-.06.02-.06c-.04-.04-.06-.1-.06-.2,0,0-.01-.01-.01-.03h-.02c0,.07.01.2.04.39,0,.03-.01.05-.04.07h-.03s-.05-.03-.07-.09c0,0-.03.02-.06.07-.03,0-.04.01-.05.01-.06,0-.1-.03-.12-.1,0-.02,0-.02-.01-.02h-.01s-.05.05-.07.05h-.01c-.08,0-.11-.09-.11-.28,0,0,0-.03,0-.09h0s-.04-.08-.04-.12v-.09s0-.03-.02-.04c-.06.05-.09.1-.09.16l-.02.03h-.01c-.06,0-.1-.27-.13-.8,0-.03.02-.04.03-.04h.03c.08.08.14.13.19.15.02,0,.04-.02.04-.07h0s-.03-.06-.08-.11c0-.04-.06-.08-.18-.11l-.02-.03h0s.02-.05.05-.1v-.03c0-.05,0-.08,0-.08-.05-.03-.07-.05-.07-.08v-.3s.02-.06.05-.08c-.03-.04-.05-.07-.05-.1h0s.02-.06.07-.1h0s0-.07,0-.09c0,0,0-.03.02-.07h0s-.02-.02-.07-.04c0-.01-.01-.02-.01-.03,0-.63.06-1.02.19-1.18h.03s.06.02.08.09h.01s0,0,0,0c0-.02,0-.08,0-.17,0-.06.02-.1.06-.12h.04l.05.04h0s.02-.03.03-.09c.03-.04.06-.06.09-.06h.05s.06.07.08.21h0s.01,0,.01-.01v-.02s0-.07,0-.11c0-.06.04-.09.09-.09.03,0,.06.04.08.12h.01s.02-.04.03-.1c.02-.02.03-.03.05-.03ZM11.01,29.76h.01s.05.02.05.05c0,.03-.02.05-.05.05-.03,0-.05-.02-.06-.06,0-.02.01-.04.04-.04ZM11.15,29.37h0s0,.02.02.03h.01s.03-.03.03-.05c0-.02-.01-.03-.02-.03-.03,0-.04.01-.04.04ZM11.19,29.65l.02.02h0s.03,0,.04-.02c0-.02-.02-.03-.04-.03-.02,0-.02.02-.02.03ZM11.22,28.9v.02s0,.01.01.01h0s.01,0,.02-.02v-.03h-.02s-.01,0-.02.02ZM11.43,28.85s0,.01.02.02h.01s.04-.01.06-.04v-.02s-.02-.02-.04-.02c-.04.01-.06.04-.06.07ZM12.13,26.03h.02s.01,0,.01.01h0s0,.02-.02.02h-.01s-.01,0-.01-.01h0s0-.03.01-.03ZM12.13,29.78s0,.01,0,.02h.01s.03-.05.06-.15h-.01s0,0,0,0c-.02,0-.04.05-.06.14ZM12.15,26.38s0,.04.02.04h.01s.02-.02.02-.04c0-.02-.02-.03-.03-.03-.02,0-.03.02-.03.03ZM12.32,29.28h0s.01.01.01.01c0,0,.01,0,.01-.01h0s-.01-.01-.01-.01c0,0-.01,0-.01.01ZM12.38,26.35h0s.02,0,.02,0h0s-.02,0-.02,0ZM12.61,26.16s.06.03.07.08v.03s0,.02-.03.03c-.06-.01-.09-.04-.09-.08.01-.03.03-.05.05-.05Z"/>
  <path class="st4" d="M14.12,26.01c.05,0,.09.03.11.08,0,.03.01.05.03.06,0-.09.03-.14.08-.14.05,0,.08.05.08.14v.02s0,.01.01.01c0,0,.01,0,.01-.01v-.03c0-.09.03-.14.09-.14.06,0,.09.04.09.13v.14h.02v-.03s0-.05,0-.05c0-.1.04-.15.11-.15.1,0,.15.08.15.23.02.16.03.26.04.3h0s.01,0,.01-.01c0-.16-.02-.27-.02-.32,0-.04.01-.06.04-.08h.03c.08.02.16.12.25.3.08.21.11.4.11.56,0,.02-.02.04-.03.06h0s.05.12.05.27c0,.19,0,.38,0,.57v.37c0,.82-.05,1.31-.15,1.45-.03.08-.06.12-.11.12-.04-.02-.06-.02-.06-.02-.01,0-.02.05-.02.14-.05.07-.09.11-.14.11h-.02s-.06-.03-.08-.1h-.02c0,.1-.03.15-.07.15,0,0-.02.01-.06.01h-.03c-.06,0-.09-.08-.09-.24v-.1c0-.06.02-.12.06-.18h0s-.03-.02-.03-.02h-.01s-.04.01-.04.03v.2s0,.11,0,.22c0,.08-.04.11-.1.11h-.02c-.05,0-.09-.04-.1-.12,0,0,0-.01,0-.02h-.02c0,.09-.03.14-.09.14h-.05c-.07,0-.1-.06-.1-.17,0-.02-.01-.02-.02-.02-.02,0-.03.05-.04.14-.01.02-.03.03-.07.04-.08-.01-.12-.05-.12-.1,0-.02.02-.04.06-.07h0s-.07-.07-.07-.11v-.09s0-.03-.02-.04h-.01s0,.07,0,.15c0,.12-.03.17-.08.17h-.01c-.05,0-.08-.07-.08-.22v-.04h-.01s0,0,0,0c-.01.09-.04.14-.07.14h-.01c-.05,0-.12-.11-.2-.34,0-.02-.01-.04-.01-.07v-.07s-.03-.05-.04-.09c0-.04.01-.07.01-.07-.04-.05-.06-.28-.06-.7h0s.03-.08.08-.09h0v-.03s-.02-.01-.07-.02c-.02-.02-.02-.04-.02-.06v-.26c0-1.02.05-1.58.14-1.67.02-.08.06-.12.09-.12.05,0,.07.04.07.13,0,0,0,0,0,.01h0s.01,0,.01-.02c0-.03,0-.05,0-.07,0-.04,0-.08,0-.12v-.04c0-.06.04-.1.11-.12h.02s.04.02.08.06c.02-.05.03-.09.04-.11.04-.03.08-.04.12-.04.06,0,.09.05.09.14v.2h.02v-.22c0-.1.04-.15.12-.15ZM13.41,29.4v.06s0,.01.02.02h.02c.08,0,.11-.02.11-.04-.03-.05-.06-.07-.1-.07-.03.01-.05.02-.06.04ZM13.5,28.33h0s0,.03.01.03h0s.01,0,.02-.02h0s0-.02-.01-.02h-.01s-.01,0-.01.01ZM13.51,28.16h.02s.01.01.01.01c.04-.05.09-.07.15-.07.02-.01.03-.03.03-.04,0-.03-.02-.04-.07-.04-.02,0-.05.03-.08.09-.04.01-.06.03-.06.06ZM13.53,29.19v.02s.03.06.11.06c0,0,.02.05.03.11h.03s.02-.03.02-.06h0s-.02-.07-.06-.11c-.01-.05-.04-.08-.07-.08h-.02s-.03.03-.03.05ZM13.61,28.82s0,.01,0,.03c0,0,0,.01,0,.02h.02s.01,0,.01-.01v-.02s0-.01-.01-.01h-.02ZM13.64,28.35h0s0,.03.03.04c.03-.02.05-.04.05-.07h-.03s-.04.01-.05.03ZM13.65,26.85s0,.04.03.04h.03s.06-.02.06-.05c0-.03-.02-.04-.06-.05-.04,0-.06.02-.06.06ZM13.72,29.58s.02.03.04.03h0s.01,0,.02-.02v-.02s-.01-.02-.03-.02c-.02,0-.03.02-.03.03ZM14.07,27.03h0s.02.07.02.07c0,.2-.01.36-.01.49v.2s0,.06-.02.14c.01.05.02.09.02.13v.15c0,.06-.02.1-.07.13-.01.06-.04.09-.07.09-.04,0-.06-.06-.07-.17h0s.01-.07.01-.07h0s-.02-.01-.02-.01c-.08.08-.12.13-.12.14.04,0,.06.03.07.09v.09h.06s.04.02.1.06c0,0,.01,0,.02,0,0,0,.02-.01.04-.03h.02s.02.02.02.04c0,.02-.02.03-.07.05-.04.04-.06.08-.06.11h0s0,.04,0,.04h.01s.06-.05.08-.05c.02,0,.04.02.04.05v.02s-.01.04-.03.05h-.02s-.05-.01-.05-.01h-.01c0,.06.03.1.08.12.04.02.06.06.06.12v.03l-.03.07c.09.04.16.06.2.06h.07c.1,0,.14-.04.14-.1.02-.12.04-.19.07-.19.03,0,.04-.03.04-.05h0s-.03-.03-.08-.06c0-.01,0-.02,0-.03,0-.3,0-.54,0-.71v-.03c0-.76-.02-1.14-.06-1.14-.02-.05-.07-.07-.14-.07h-.05c-.08,0-.13.03-.15.08,0,0-.02.03-.06.08ZM13.75,27.37c0,.08.02.12.06.12.03,0,.07-.05.11-.16v-.02s-.01-.02-.01-.02h-.03s-.04,0-.07-.02c-.03,0-.05.04-.05.11ZM13.84,29v.03s.02.02.04.02h.02s.02-.02.02-.04c0-.02-.02-.03-.06-.04-.02,0-.03.01-.03.02ZM13.87,29.69h0s.03.03.11.03c0,0,.01.01.03.02h0s-.02-.06-.05-.09h-.02s-.05.01-.06.04ZM13.88,27.12s.01.05.03.13h0s.02-.02.03-.06h0c0-.06-.02-.09-.06-.09,0,0-.01,0-.01.02ZM14.3,29.7s.03.04.06.04h.01s.05-.06.05-.19v-.07s0-.03-.03-.04c-.06.02-.09.11-.09.25ZM14.49,29.36h0s0,.02.02.03h.01s.03-.03.03-.05c0-.02-.01-.02-.02-.02-.03,0-.04.01-.04.04ZM14.73,29.03h0s0,.02.01.02h.03s.01,0,.01-.01h0s0-.02-.02-.02c-.02,0-.04,0-.04.02ZM14.77,28.85s0,.01.02.02h.01s.05-.01.06-.04v-.02s-.02-.03-.04-.03c-.04.01-.06.04-.06.07ZM14.91,28.07v.02s0,.01.01.01h.02s0-.03,0-.03h-.03Z"/>
  <path class="st4" d="M18.43,22.31c.16,0,.24.1.24.29v.1s0,.03.02.03h.02c0-.28.08-.42.25-.42h.29c.16,0,.24.1.24.31.02.04.03.06.05.06.02,0,.02,0,.02-.03v-.11c.02-.15.09-.22.22-.22.16,0,.24.09.24.27v.17s.02.06.05.06c.13-.07.19-.13.19-.18,0,0,0-.04-.01-.11.07-.12.16-.18.27-.18.11.03.17.14.17.32v.07s.01.03.03.03c.02,0,.03,0,.03-.03v-.11c0-.2.08-.29.24-.29h.1c.17,0,.25.07.25.21v.33s-.02.1-.05.18c.03.06.05.12.05.17v.89c0,.14-.08.21-.25.21h-.03c-.16,0-.24-.11-.24-.32v-.2s0-.02-.03-.02h-.01l-.02.07v.15c0,.22-.08.32-.24.32h-.11c-.17,0-.25-.13-.25-.39h-.03c0,.26-.08.39-.25.39h-.05c-.15,0-.24-.12-.27-.36h-.01s-.03.01-.03.03v.06c0,.15-.07.26-.21.31-.02.05-.03.07-.04.07,0,.15.01.27.01.35v.89s0,.1-.03.2c0,.09.08.15.25.18.05.04.08.08.08.13v.05c-.15.17-.31.25-.48.25-.07,0-.12.02-.13.06,0,.03.08.06.25.07.04,0,.17-.04.38-.13h.04s.09.03.17.1h.04c.14-.13.21-.2.21-.22,0-.2.05-.31.14-.31.02,0,.04-.01.07-.01h.06c.16,0,.24.12.24.36s.02.36.05.36h.02s0-.02.01-.04c0-.15-.01-.27-.01-.36v-.07c0-.15.1-.23.29-.25h.14c.15,0,.22.07.22.22v.71c0,.18,0,.43-.01.75-.02.06-.04.09-.07.1h-.06s-.06-.12-.07-.35l-.04-.03h-.02s-.02.01-.02.03v.25c0,.08-.03.14-.1.18h-.09s-.09-.08-.13-.25h-.01s-.04.09-.09.22c-.04.05-.09.07-.15.07h-.02c-.11,0-.18-.11-.22-.32h-.02s-.03.08-.07.25c-.06.05-.12.08-.18.08-.13,0-.21-.08-.24-.25h-.03s-.1.16-.1.16h-.07c-.13-.03-.21-.06-.24-.06-.07.01-.1.04-.1.1v.03c.07.08.11.15.11.22v2.09c0,.09-.03.14-.08.14l-.21-.07c-.07,0-.12.06-.15.17,0,.07.08.16.25.25.13.02.2.07.2.18v.14c0,.14-.03.21-.08.21h-.06l-.13-.09c-.05.1-.1.15-.13.17h-.02c-.12,0-.17-.2-.17-.61v-.22s-.01-.07-.04-.2h0c0-.06.04-.15.13-.29v-.02s0-.03-.03-.03c-.1.12-.22.19-.36.21-.03.04-.05.08-.05.14v.05c0,.07.08.14.24.2.03,0,.06.2.08.6-.02.15-.09.22-.21.22-.12-.01-.18-.06-.18-.14v-.03s.03-.09.1-.16v-.05s-.02-.04-.07-.05c-.19.04-.31.06-.36.06h-.05s-.1-.04-.2-.11h-.09s-.02.01-.02.01c-.02,0-.03-.01-.05-.04,0-.04.09-.1.27-.18.08.01.15.02.2.02h.02c.05-.03.08-.07.08-.13-.05-.11-.08-.18-.08-.2v-.03c0-.06.07-.13.21-.22,0-.02.01-.04.01-.06-.03-.2-.07-.29-.13-.29-.13.08-.21.12-.25.12-.05-.01-.09-.02-.13-.02-.04,0-.12.05-.24.16h-.03c-.09,0-.14-.09-.14-.28v-.21c.02-.1.06-.16.11-.16s.14,0,.27.02c.14-.1.28-.16.4-.16l.02-.03h0c0-.09-.05-.14-.16-.17-.18.06-.3.09-.35.09-.1,0-.17-.09-.21-.27-.04-.03-.06-.07-.06-.11,0-.07.06-.12.18-.16l.05-.06v-.04s-.07-.06-.21-.1c-.02-.04-.03-.07-.03-.08l.02-.07s0-.07-.03-.16c0-.09.07-.14.22-.14l.17-.16v-.04c-.07,0-.1-.02-.1-.03l-.21.07h-.03s-.05-.05-.06-.14v-.54c0-.07.04-.14.13-.21h0s-.04-.1-.12-.2v-.08s-.01-.99-.01-.99c0-.01,0-.09.03-.22-.02-.1-.03-.16-.03-.19v-1.39s0-.1.03-.28c-.02-.1-.03-.16-.03-.2v-.82c.02-.14.08-.21.2-.21.13,0,.2.12.2.36h.03c0-.24.07-.36.22-.36.12,0,.18.17.18.51.02.05.03.07.04.07.02,0,.03,0,.03-.03v-.02c0-.08,0-.17-.02-.27,0-.18.08-.28.24-.28ZM17.71,26.59l.04.03s.07-.04.07-.06v-.02s-.01-.02-.04-.02-.05.02-.07.07ZM17.91,24.2l.04.06c.07,0,.1-.07.1-.2v-.02s-.01-.02-.04-.04c-.04,0-.07.07-.1.2ZM17.97,26.13c.03.13.09.2.17.2h.01c.07,0,.12-.05.13-.14-.03-.12-.08-.17-.17-.17-.09.02-.14.06-.14.12ZM18.19,27.03c0,.07.05.1.14.1.05,0,.09-.02.11-.07,0-.05-.05-.08-.16-.1-.06.02-.09.04-.1.07ZM18.39,25.37v.04h.02s.03,0,.03-.02l-.03-.02h-.02ZM18.58,24.54s.01.03.03.03h.01s.03,0,.03-.03h0s0-.04-.03-.04c-.01,0-.02.01-.04.04ZM18.71,27.47h0c.05.15.09.22.13.22h.05c.08-.05.12-.12.12-.21v-.02s-.02-.04-.07-.07h-.03s-.09.03-.2.08ZM18.85,28.86h0s.02.05.06.07h.04s.03-.02.06-.06c0-.05-.02-.07-.05-.08-.05,0-.09.02-.11.07ZM19.03,25.82v.04s.02,0,.04.01c.03-.01.05-.02.05-.04h0s0-.04-.02-.04h-.05s-.02.01-.02.03ZM19.44,27.44v.03h.03v-.03h-.03ZM19.8,26.04h.04c.07.01.11.05.11.12-.02.07-.05.1-.1.1-.08-.02-.12-.06-.12-.12.02-.06.04-.09.07-.1ZM21.1,22.98s0,.03-.02.04c0,.02.02.03.06.06l.08-.04s-.03-.06-.08-.06h-.04Z"/>
  <path class="st4" d="M22.57,26.06c.06,0,.09.04.09.13v.08h.02v-.03s0-.04,0-.04c0-.09.03-.14.08-.14h0c.05,0,.08.03.08.07v.06c0,.15.01.23.02.24h.02s0-.02,0-.02c0-.04-.01-.11-.02-.21,0-.09.04-.14.12-.14h.01c.06,0,.1.05.12.14h.01s.01-.02.03-.06c.05-.03.08-.04.09-.04h0c.05,0,.08.04.08.13,0,.05.02.08.02.08h0c0-.1.02-.15.07-.15.09.04.13.1.13.17,0,.07,0,.13,0,.18,0,.02,0,.04.02.04s.01,0,.01-.01v-.08c0-.05.02-.08.06-.08.07,0,.12.19.15.58v.26c0,.4-.06.65-.19.75-.07.05-.11.08-.11.1h0c.09.1.14.24.17.41.04.12.09.44.14.97,0,.02-.02.04-.05.08.06.02.09.07.09.18,0,.02,0,.04,0,.08v.04s-.04.05-.08.05-.07-.04-.09-.11h0s-.02.03-.03.08c-.02.02-.04.02-.05.02-.03,0-.06-.03-.09-.09h-.02c-.02.06-.03.08-.05.08h-.04s-.06-.11-.08-.32c0-.09-.01-.13-.02-.13,0,0-.01,0-.01.01v.03l.03.33s-.03.08-.09.08h0c-.07,0-.1-.06-.1-.19h-.01s0,0,0,0v.03s0,.05,0,.05c0,.06-.02.09-.05.09-.05,0-.08-.09-.1-.28-.07-.6-.12-.93-.13-.99-.01-.11-.05-.17-.12-.17-.01,0-.03,0-.04,0-.04,0-.06.03-.06.08v.39s-.02.06-.06.09v.02s.06.06.06.09v.46s-.01.05-.03.1h0c.02.06.03.09.03.1v.02c0,.07-.03.1-.08.1s-.08-.03-.09-.1c0-.04-.01-.06-.02-.06,0,0-.01,0-.01.02v.06c0,.06-.03.09-.07.09-.04,0-.07-.03-.09-.1h0l-.04.08s-.02.02-.05.03c-.07,0-.1-.08-.1-.23,0-.07,0-.12-.01-.13h-.02v.02c0,.11,0,.19,0,.22h0c0,.07-.03.1-.07.1-.03,0-.05-.03-.06-.09h-.02s-.03.07-.05.07c-.03,0-.04-.05-.04-.15v-.08c0-.06.01-.08.01-.09,0-.03-.01-.06-.01-.08v-.34s.03-.07.09-.09c.01-.02.02-.03.02-.05,0-.03-.03-.06-.09-.09-.01-.02-.02-.03-.02-.05v-1.68s0-.04.03-.1c-.02-.04-.03-.07-.03-.09v-.06s.04-.07.11-.09c.01-.02.03-.06.05-.12,0,0,.02-.01.03-.04v-.02s-.07-.06-.17-.09c-.02-.02-.02-.04-.02-.07v-.19c0-.06.02-.09.05-.09.02,0,.04.02.05.03h.02s0-.02,0-.02v-.03s0,0,0,0c0-.03.01-.06.04-.08h.04s.05.1.05.3c0,0,0,.03,0,.09v.08s0,.03.02.04c0,0,0,0,0-.02,0-.08-.01-.21-.02-.39,0-.07.03-.11.08-.11.01,0,.03.03.06.08.01,0,.03.03.05.09h0s.01,0,.01-.01c0-.11.02-.16.07-.16h.03s.06.06.07.15h0s.01,0,.01,0v-.06c0-.06.03-.09.09-.09ZM21.93,29.19h0s.02.03.03.04c.02,0,.04-.02.05-.07,0-.02-.02-.03-.02-.03h0s-.05.02-.06.06ZM21.99,27.01s.02.05.05.05c.03,0,.05-.04.06-.12,0-.05-.02-.08-.03-.08h-.02s-.06.08-.06.15ZM22.27,28.7s.01.03.03.03h.01s.05-.02.05-.05c0-.02-.02-.03-.05-.03-.02,0-.03.01-.04.04ZM22.3,29.54v.02s0,.01.01.01h0s.01,0,.01-.01h0s0-.02-.01-.02h-.02ZM22.64,27.61s.02.05.05.05h.1c.1,0,.16-.03.18-.09.02-.06.04-.15.04-.26v-.13c0-.13-.02-.21-.07-.25-.03-.03-.09-.04-.17-.04s-.12.01-.12.04v.69ZM22.86,28.29h0s0,.02.01.02h.01s.01,0,.02-.02v-.02s-.01,0-.01,0c-.02,0-.03.01-.03.02ZM23.66,29.56v.02s0,.01,0,.01h.01s.01,0,.02-.02h0s0-.02-.01-.02h-.02s-.01,0-.02.02Z"/>
  <path class="st4" d="M24.47,26.02c.06,0,.09.06.09.18h.01s0,0,0,0v-.03s0-.08,0-.08c0-.05.02-.07.07-.08.05,0,.07.06.07.18h.01v-.03s0-.04,0-.04c0-.08.03-.12.08-.12h.01s.07.03.07.08v1.14s-.03.06-.08.07h0c.05.04.08.06.08.09v.55s-.01.04-.04.05c0,0-.03,0-.07-.01-.02,0-.04.02-.04.03,0,.03.03.04.09.04.04,0,.07.02.07.05,0,.03-.01.06-.01.08,0,.04.01.07.01.08v1.06s-.03.07-.08.12h0c.05.05.08.08.08.11v.21s-.01.05-.04.07h0c-.05-.02-.08-.03-.09-.03-.05.02-.08.03-.08.03h0s-.06-.04-.06-.11v-.08s.02-.05.07-.09c0,0,0-.01,0-.02-.08.02-.12.04-.12.05.02.05.02.09.02.12v.07c0,.06-.03.09-.09.09-.04,0-.07-.03-.09-.1h0c-.03.05-.05.08-.07.09h-.02s-.07-.04-.08-.11h-.01s-.02.09-.02.09c-.02.02-.04.04-.07.04-.05-.01-.08-.04-.08-.08v-1.04s0-.04.01-.07c0-.03,0-.05,0-.07,0-.01.02-.05.07-.11v-.02c-.05-.04-.08-.07-.08-.09v-.46s.02-.07.06-.12v-.02s-.02-.08-.05-.11v-.03s0-.08,0-.08c0-.02,0-.04.03-.05h0c.05.02.08.03.09.03.02,0,.04-.02.07-.06,0,0,.02-.02.06-.06h0s-.06.02-.08.02c-.12,0-.18-.03-.18-.08v-1.26c0-.05.02-.08.06-.08h.01c.05.01.08.06.08.15h0s0,.01,0,.01c.07-.08.11-.12.12-.12.02,0,.04.03.04.09v.12h.02v-.03s0-.1,0-.1c0-.09.03-.13.08-.13ZM24.26,26.55s.03.07.07.07c.04,0,.06-.02.06-.07h0s-.03-.06-.08-.07c-.03.02-.05.04-.05.07ZM24.32,27.9h0c.04.05.07.07.09.07v-.02s.01,0,.01,0c0-.02-.03-.03-.09-.05h-.01ZM24.33,28.9h0s.02.09.02.09c0,.02,0,.04,0,.05,0,0,0,0,0,0,.03-.02.05-.04.07-.04.06,0,.09.01.11.01.07-.04.11-.06.14-.06.03,0,.05,0,.05-.02h0s-.02-.06-.07-.07c-.08.02-.13.03-.15.03-.04,0-.07-.03-.09-.09,0,0,0,0,0,0-.05.02-.07.05-.07.09ZM24.4,28.67s0,.02.03.03c.02,0,.04-.01.05-.03v-.02s-.02-.02-.04-.02c-.03.01-.04.03-.04.05ZM24.42,28.38h0s0,.02.02.03h0s.05-.02.09-.07v-.02s-.04,0-.04-.01c-.05,0-.07.03-.07.07ZM24.54,27.83h0s0,.02.02.02c.02,0,.03-.02.03-.04h0s0-.02-.02-.02h-.01s-.02.02-.02.05ZM24.63,26.82l.02.02s.04-.03.04-.08h0s0-.02-.02-.02c-.02,0-.03.03-.04.09ZM24.65,27.64c.01.06.04.09.07.09h0s.05-.02.05-.06c-.01-.05-.03-.07-.07-.07-.04,0-.06.02-.06.05Z"/>
  <path class="st4" d="M25.3,26.06c.06,0,.1.05.1.16,0,.07,0,.11.02.11h0s0,0,0-.02v-.15c0-.07.03-.11.09-.11.07,0,.1.05.1.16l.02.02h.03s.03,0,.03,0c.01,0,.04.03.08.09,0,0,.01,0,.02,0,.01-.02.02-.05.03-.08,0-.03,0-.05,0-.07v-.03c0-.07.04-.1.1-.1h0c.08,0,.12.04.12.12.03.3.06.47.08.5h.01v-.02c-.04-.28-.05-.46-.05-.52,0-.05.03-.08.09-.08h.04c.07,0,.11.05.11.16v.07s0,0,0,0c0,0,.01,0,.01,0v-.09c0-.09.03-.13.1-.13h0c.08,0,.12.04.12.13v.07h.02v-.03s0-.05,0-.05c0-.09.04-.13.12-.13h0c.07,0,.1.04.1.13v.18s0,.03.02.03h.01c0-.08,0-.14,0-.18h0c0-.12.03-.17.1-.17h.02c.06,0,.09.03.09.09v.66c0,.06-.03.08-.07.08h-.01s-.06-.03-.08-.09h-.01c-.02.06-.06.09-.11.09h-.02c-.06,0-.08-.03-.08-.06,0-.03.03-.05.09-.07,0,0,0-.01,0-.02,0-.02-.02-.03-.03-.03-.02,0-.05,0-.1,0-.03.01-.04.02-.05.02h0c.02.05.03.08.03.09,0,.04-.02.05-.05.05,0,0-.03-.02-.07-.06-.01,0-.02.04-.02.13v2.82s-.02.07-.05.07c-.04,0-.06-.05-.06-.15,0-.08,0-.12-.02-.12h0c0,.08,0,.13,0,.17h0c0,.09-.02.13-.07.13h-.03s-.04-.04-.06-.11h-.02c0,.08-.03.12-.09.12h0c-.07,0-.1-.07-.1-.22,0-.06-.01-.09-.02-.09h0s0,0,0,.02c0,.09,0,.16,0,.22-.02.04-.04.06-.06.06-.03,0-.06-.03-.08-.1h0s-.02.02-.05.06h-.01s-.05-.05-.07-.16v-.76s0-.08.02-.14c-.01-.04-.02-.06-.02-.09v-.45c0-.06.03-.09.09-.09.1-.03.15-.04.15-.05,0,0-.02-.03-.06-.05-.04-.05-.08-.08-.1-.08h-.01s-.02,0-.02,0c-.03,0-.04-.02-.05-.06v-.94s-.01-.07-.04-.14c0-.08-.01-.12-.04-.12h-.04s-.02.02-.02.04h0s0,.05.03.1c-.01.03-.03.04-.05.04-.04,0-.07-.03-.08-.09h-.02c-.02.06-.05.09-.09.09h-.01s-.07-.03-.09-.1h-.02c0,.06-.02.09-.07.1-.04,0-.06-.03-.06-.08v-.64c0-.06.02-.08.06-.08s.07.04.08.12h.01s0,0,0,0c0-.1.03-.15.1-.15ZM26.33,26.88s0,.01,0,.01c.01.06.02.09.04.09v-.02s.01-.03.01-.03c0-.01,0-.03-.02-.06h-.02ZM26.48,26.73v.03h.01s.01,0,.02-.02h0s0-.02-.01-.02c0,0-.01,0-.02,0Z"/>
  <path class="st4" d="M27.24,26.06c.06,0,.1.05.1.16,0,.07,0,.11.02.11h0s0,0,0-.02v-.15c0-.07.03-.11.09-.11.07,0,.1.05.1.16l.02.02h.03s.03,0,.03,0c.01,0,.04.03.08.09,0,0,.01,0,.02,0,.01-.02.02-.05.03-.08,0-.03,0-.05,0-.07v-.03c0-.07.04-.1.1-.1h0c.08,0,.12.04.12.12.03.3.06.47.08.5h.01v-.02c-.04-.28-.05-.46-.05-.52,0-.05.03-.08.09-.08h.04c.07,0,.11.05.11.16v.07s0,0,0,0c0,0,.01,0,.01,0v-.09c0-.09.03-.13.1-.13h0c.08,0,.12.04.12.13v.07h.02v-.03s0-.05,0-.05c0-.09.04-.13.12-.13h0c.07,0,.1.04.1.13v.18s0,.03.02.03h.01c0-.08,0-.14,0-.18h0c0-.12.03-.17.1-.17h.02c.06,0,.09.03.09.09v.66c0,.06-.03.08-.07.08h-.01s-.06-.03-.08-.09h-.01c-.02.06-.06.09-.11.09h-.02c-.06,0-.08-.03-.08-.06,0-.03.03-.05.09-.07,0,0,0-.01,0-.02,0-.02-.02-.03-.03-.03-.02,0-.05,0-.1,0-.03.01-.04.02-.05.02h0c.02.05.03.08.03.09,0,.04-.02.05-.05.05,0,0-.03-.02-.07-.06-.01,0-.02.04-.02.13v2.82s-.02.07-.05.07c-.04,0-.06-.05-.06-.15,0-.08,0-.12-.02-.12h0c0,.08,0,.13,0,.17h0c0,.09-.02.13-.07.13h-.03s-.04-.04-.06-.11h-.02c0,.08-.03.12-.09.12h0c-.07,0-.1-.07-.1-.22,0-.06-.01-.09-.02-.09h0s0,0,0,.02c0,.09,0,.16,0,.22-.02.04-.04.06-.06.06-.03,0-.06-.03-.08-.1h0s-.02.02-.05.06h-.01s-.05-.05-.07-.16v-.76s0-.08.02-.14c-.01-.04-.02-.06-.02-.09v-.45c0-.06.03-.09.09-.09.1-.03.15-.04.15-.05,0,0-.02-.03-.06-.05-.04-.05-.08-.08-.1-.08h-.01s-.02,0-.02,0c-.03,0-.04-.02-.05-.06v-.94s-.01-.07-.04-.14c0-.08-.01-.12-.04-.12h-.04s-.02.02-.02.04h0s0,.05.03.1c-.01.03-.03.04-.05.04-.04,0-.07-.03-.08-.09h-.02c-.02.06-.05.09-.09.09h-.01s-.07-.03-.09-.1h-.02c0,.06-.02.09-.07.1-.04,0-.06-.03-.06-.08v-.64c0-.06.02-.08.06-.08s.07.04.08.12h.01s0,0,0,0c0-.1.03-.15.1-.15ZM28.28,26.88s0,.01,0,.01c.01.06.02.09.04.09v-.02s.01-.03.01-.03c0-.01,0-.03-.02-.06h-.02ZM28.42,26.73v.03h.01s.01,0,.02-.02h0s0-.02-.01-.02c0,0-.01,0-.02,0Z"/>
  <path class="st4" d="M29.91,26.03s.08.03.1.08c0,.03,0,.05.03.06,0-.09.02-.13.07-.13.05,0,.08.04.08.13v.02s0,.01,0,.01c0,0,.01,0,.01-.01v-.03c0-.09.03-.13.09-.13.05,0,.08.04.08.12v.13h.02v-.03s0-.05,0-.05c0-.1.03-.14.1-.14.1,0,.14.07.14.21.02.15.03.24.03.28h0s.01,0,.01-.01c0-.15-.02-.25-.02-.3,0-.03.01-.06.04-.08h.03c.07.02.15.11.23.28.07.2.1.37.1.52,0,.02-.01.04-.03.06h0s.05.11.05.25c0,.18,0,.35,0,.53v.34c0,.76-.05,1.21-.14,1.35-.03.07-.06.11-.1.11-.03-.01-.05-.02-.06-.02,0,0-.02.04-.02.13-.04.06-.08.1-.13.1h-.02s-.06-.03-.07-.09h-.02c0,.1-.03.14-.07.14,0,0-.02.01-.06.01h-.03c-.06,0-.08-.07-.08-.22v-.09c0-.06.02-.11.05-.17h0s-.02-.02-.02-.02h-.01s-.03,0-.04.03v.18s0,.1,0,.2c0,.07-.04.1-.09.1h-.02c-.05,0-.08-.04-.09-.11,0,0,0-.01,0-.02h-.02c0,.08-.03.13-.09.13h-.05c-.06,0-.09-.05-.09-.16,0-.01-.01-.02-.02-.02-.01,0-.03.04-.03.13,0,.02-.03.03-.06.03-.08-.01-.11-.04-.11-.09,0-.02.02-.04.06-.06h0s-.06-.07-.06-.1v-.08s0-.03-.02-.03h-.01s0,.06,0,.14c0,.11-.02.16-.07.16h0c-.05,0-.08-.07-.08-.21v-.04h-.01s0,0,0,0c-.01.08-.03.13-.06.13h-.01s-.11-.1-.18-.31c0-.01-.01-.04-.01-.06v-.06s-.03-.05-.03-.09c0-.04.01-.06.01-.06-.04-.05-.05-.26-.05-.65h0s.03-.07.08-.09h0v-.02s-.02-.01-.07-.02c-.01-.02-.02-.04-.02-.06v-.24c0-.94.04-1.46.13-1.55.02-.08.05-.11.09-.11.04,0,.06.04.06.12,0,0,0,0,0,0h0s0,0,0-.02c0-.03,0-.05,0-.07,0-.04,0-.07,0-.11v-.04c0-.06.03-.09.1-.11h.02s.04.02.07.05c.02-.05.03-.08.04-.1.04-.02.08-.04.11-.04.06,0,.08.04.08.13v.19h.02v-.2c0-.09.04-.14.11-.14ZM29.25,29.17v.06s0,.01.02.02h.02c.07,0,.1-.02.1-.04-.03-.05-.06-.07-.09-.07-.03,0-.05.02-.05.03ZM29.33,28.18h0s0,.02.01.02h0s.01,0,.02-.02h0s0-.02-.01-.02h0s-.01,0-.01,0ZM29.34,28.02h.02s0,.01,0,.01c.04-.04.09-.06.14-.06.02-.01.02-.03.02-.04,0-.03-.02-.04-.06-.04-.02,0-.04.03-.08.08-.03.01-.05.03-.05.05ZM29.36,28.98v.02s.03.06.1.06c0,0,.01.04.02.1h.03s.02-.03.02-.05h0s-.02-.06-.06-.1c0-.05-.03-.07-.07-.07h-.02s-.03.03-.03.05ZM29.43,28.63s0,0,0,.02c0,0,0,.01,0,.02h.02s0,0,0-.01v-.02s0-.01,0-.01h-.02ZM29.46,28.2h0s0,.02.02.03c.03-.02.05-.04.05-.06h-.02s-.04,0-.05.03ZM29.47,26.81s0,.03.02.04h.03s.05-.02.05-.05c0-.02-.02-.04-.05-.05-.03,0-.05.02-.05.05ZM29.54,29.33s.01.02.03.02h0s.01,0,.02-.02v-.02s0-.02-.03-.02c-.02,0-.03.02-.03.03ZM29.86,26.97h0s.02.07.02.07c0,.19-.01.34-.01.45v.18s0,.06-.02.13c.01.04.02.08.02.12v.14c0,.06-.02.09-.06.12-.01.06-.03.09-.06.09-.03,0-.06-.05-.07-.16h0s0-.06,0-.07h0s-.02-.01-.02-.01c-.08.08-.11.12-.11.13.04,0,.06.03.07.09v.08h.05s.04.02.09.06c0,0,.01,0,.02,0,0,0,.02,0,.04-.03h.02s.02.01.02.03c0,.01-.02.03-.06.05-.03.04-.05.07-.05.1h0s0,.04,0,.04h.01s.05-.04.07-.05c.02,0,.04.02.04.05v.02s0,.04-.03.05h-.02s-.04-.01-.05-.01h-.01c0,.05.03.09.08.11.04.02.06.06.06.11v.02l-.03.07c.08.04.14.06.18.06h.07c.09,0,.13-.04.13-.09.02-.12.04-.17.07-.17.03,0,.04-.02.04-.05h0s-.02-.03-.07-.05c0-.01,0-.02,0-.03,0-.28,0-.5,0-.66v-.02c0-.7-.02-1.05-.05-1.05-.02-.04-.07-.07-.13-.07h-.05c-.07,0-.12.02-.14.07,0,0-.02.03-.05.08ZM29.57,27.29c0,.07.02.11.05.11.03,0,.06-.05.1-.15v-.02s-.01-.02-.01-.02h-.03s-.04,0-.06-.02c-.03,0-.04.03-.05.1ZM29.65,28.8v.02s.02.02.04.02h.02s.02-.01.02-.03c0-.02-.02-.03-.05-.03-.02,0-.03.01-.03.02ZM29.68,29.44h0s.03.03.1.03c0,0,0,.01.03.02h0s-.02-.06-.05-.08h-.02s-.04.01-.06.03ZM29.69,27.06s0,.05.03.12h0s.02-.02.03-.05h0c0-.06-.02-.08-.05-.08,0,0,0,0,0,.02ZM30.07,29.45s.03.04.05.04h.01s.05-.06.05-.17v-.07s0-.03-.02-.03c-.06.02-.09.1-.09.24ZM30.25,29.13h0s0,.02.02.03h.01s.03-.03.03-.05c0-.01-.01-.02-.02-.02-.03,0-.04.01-.04.04ZM30.47,28.83h0s0,.02.01.02h.03s0,0,0-.01h0s0-.02-.02-.02c-.02,0-.03,0-.03.02ZM30.51,28.66s0,.01.02.02h0s.04-.01.06-.04v-.02s-.02-.02-.03-.02c-.03.01-.05.03-.05.06ZM30.64,27.93v.02s0,0,.01,0h.02s0-.02,0-.03h-.02Z"/>
  <path class="st2" d="M2.95,22.38c.16.02.24.1.24.24.01.02.02.04.02.07-.01.08-.02.14-.02.18l.06.05s.03-.02.04-.05c0-.16-.01-.26-.01-.31,0-.09.07-.15.2-.18.14,0,.21.12.24.36,0,.02,0,.03.02.03.04,0,.07-.11.1-.34.05-.03.08-.05.12-.05h.02c.14,0,.21.17.23.52,0,.04.05.11.14.22.05.11.12.17.2.17.07-.03.11-.05.14-.05h.01c.06,0,.11.25.14.75l-.05.17c.06,0,.12.46.2,1.38,0,.01-.03.08-.08.21.09.19.14.3.14.32v.13c0,.1-.14.19-.41.25-.09.06-.19.09-.3.09-.02,0-.07,0-.15-.02-.05,0-.09.09-.14.27-.04.03-.08.04-.12.04-.21,0-.36-.05-.45-.15h-.02s-.05.07-.07.22l-.03.02h-.04c-.07,0-.12-.26-.14-.78-.02-.11-.06-.49-.11-1.16-.03-.28-.06-.42-.09-.42-.03.17-.12.98-.25,2.42-.02.04-.1.09-.23.14v.05l.17.15v.07s-.04.1-.13.25c0,.02-.02.07-.05.15.03.18.06.27.08.27h.03s.09-.04.21-.11c.08-.05.15-.07.2-.07h.03c.18.04.27.11.27.22v.09s-.05.05-.09.07c-.11-.08-.18-.12-.21-.12h-.01c-.1,0-.17.07-.2.21.02.16.06.24.1.24h.04s.11-.05.25-.16c.01,0,.03,0,.05-.01.07.03.12.04.14.04h.03c.07,0,.11-.04.11-.11-.07-.25-.1-.42-.1-.52-.18-.14-.27-.23-.27-.25v-.03s.04-.07.13-.08l.22.07h.02c.09-.03.14-.08.14-.16-.03-.04-.14-.09-.32-.15-.03-.04-.05-.07-.05-.09,0-.1.1-.16.31-.19.04,0,.16.06.36.18h.01s.14-.06.32-.18c.04-.03.17-.05.41-.06.13-.17.23-.25.31-.27.08,0,.13.25.15.75.26,2.52.39,3.81.39,3.87,0,.12-.05.19-.16.19h-.02c-.11,0-.18-.14-.21-.43,0,0-.01,0-.01-.03h-.01s-.03.01-.03.04c0,.05,0,.13.01.24-.02.12-.07.19-.15.19h-.05c-.09,0-.14-.08-.18-.25h-.03s-.04.07-.08.2c-.05.05-.11.07-.17.07-.15,0-.23-.16-.23-.49,0,0-.01,0-.01-.03h-.04s0,.04-.02.05l.03.23c-.01.13-.06.2-.14.2-.07,0-.13-.08-.18-.24h-.03s-.05.07-.12.21c-.03.02-.05.03-.08.03-.11,0-.17-.32-.17-.97,0-.07.12-.14.35-.21.18-.18.28-.31.31-.41,0-.03-.06-.04-.18-.04h-.39c-.11,0-.17-.11-.17-.32-.03-.06-.1-.09-.2-.09h-.42c-.14,0-.21.06-.21.17-.06,1.22-.12,1.83-.17,1.83-.04.04-.08.06-.14.06-.09,0-.14-.12-.17-.35h-.01c-.04.2-.08.3-.1.3,0,.03-.05.05-.16.07h-.02c-.15,0-.23-.1-.23-.3v-.29s0-.03-.03-.03c-.02,0-.03.01-.03.03v.28c0,.16-.05.24-.14.24-.05,0-.11-.08-.18-.23-.02,0-.03-.01-.06-.01-.03,0-.04.06-.05.18-.03.02-.05.03-.07.03-.05-.02-.07-.04-.07-.08,0-.03.01-.05.01-.06,0-.02-.01-.03-.01-.04h-.06s-.06.08-.14.24c-.06.02-.1.03-.11.03-.08,0-.13-.06-.16-.19.03-.54.09-.81.17-.81.02,0,.03,0,.03-.02v-.02c-.06-.05-.09-.11-.09-.18,0-.07.02-.14.07-.21-.02-.08-.02-.14-.02-.17.12-1.34.21-2.02.25-2.02.07-.07.1-.13.1-.19-.06-.11-.09-.17-.09-.2,0-.13.09-.2.28-.2l.04-.05v-.03c0-.07-.08-.13-.23-.19-.03-.03-.04-.06-.04-.1.25-2.51.4-3.83.43-3.94.11-.1.17-.16.17-.16-.09-.05-.14-.11-.14-.16h0c0-.08.03-.14.08-.17h.04c.08,0,.12.04.12.13v.03s0,.06-.03.14c.18,0,.31.11.38.34l-.04.14v.04c.03.11.05.17.08.17h.06c.07-.04.1-.09.1-.14-.06-.1-.09-.17-.09-.19.06-.1.11-.23.14-.39.03-.05.08-.07.14-.07.13.02.21.03.24.03s.08-.08.14-.23c.05-.05.11-.07.17-.07ZM1.22,26.11c.03.09.07.14.12.14.04,0,.09-.05.15-.14v-.06c-.04-.12-.08-.18-.11-.18h-.01c-.1.01-.14.09-.14.24ZM1.53,23.38v.05s.02.07.06.09h.03s.03,0,.03-.03v-.06s-.02-.03-.06-.05h-.06ZM1.96,22.38c.13.02.2.08.2.16,0,.07-.1.12-.31.16-.06-.02-.09-.06-.09-.12.03-.13.1-.2.2-.2ZM1.82,23.94h0c0,.09.06.14.17.18h.04l.02-.07v-.04c-.01-.09-.03-.14-.06-.14h-.01c-.07,0-.13.02-.16.07ZM2.43,22.4h.06s.03.02.05.05v.03s-.07.07-.15.07c-.04-.01-.06-.03-.06-.04v-.06s.05-.05.1-.05ZM3.26,25.29v.03c0,.07.05.12.16.15.09-.03.14-.1.14-.21v-.03c0-.07-.02-.12-.07-.14h-.04c-.09,0-.15.07-.19.2ZM3.72,24.88v.04h.06v-.02s0-.02-.03-.02h-.03ZM3.73,27.85v.05l.03.04s.03-.02.05-.02v-.04s0-.03-.03-.03h-.05ZM3.76,23.73c.01.08.05.13.13.13.08,0,.13-.06.13-.17v-.07c0-.05-.02-.08-.06-.1h-.04c-.09,0-.14.06-.16.19v.02ZM4.47,28.41h-.05s-.08-.02-.14-.07h-.02s-.05.05-.1.14c.12.21.22.32.31.32h.18c.07,0,.13-.05.17-.14v-.17s.2-.28.2-.28v-.04c-.03-.06-.09-.09-.17-.09h-.01c-.08,0-.15.09-.23.27-.05.04-.09.06-.13.06ZM4.47,22.38c.12,0,.19.09.21.27v.11c0,.05-.01.08-.04.09h-.05s-.07-.08-.13-.19c-.12-.05-.19-.1-.19-.15v-.03c.04-.07.1-.1.2-.1ZM4.39,25.59v.05s.01.03.03.03h.04c.14-.02.21-.05.21-.08v-.05s-.04,0-.06-.01c-.09,0-.16.03-.22.06ZM4.46,24.11c.02.05.06.08.1.08.05-.02.08-.04.08-.05,0-.08-.04-.13-.11-.13-.05.01-.07.04-.07.1Z"/>
  <path class="st2" d="M7.01,26.03h0c.08,0,.12.03.12.09-.02.05-.04.11-.05.2,0,0,0,0,0,.03h.01s.04-.03.04-.03h.01s.11.25.2.76c0,.02.03.13.07.32,0,.03-.03.06-.09.09,0,.02-.03.05-.09.08v.04s.03.03.09.04c.01,0,.04-.01.1-.04.02,0,.05.04.07.13h0s.05-.12.09-.32c.01-.05.03-.09.07-.11,0,0,0,0,.01-.02v-.06s0-.07,0-.07c0-.03,0-.05,0-.07.03-.08.04-.15.04-.2,0-.08.04-.12.08-.12.03,0,.05,0,.05-.02v-.02s-.07-.06-.07-.06v-.03s.03-.17.1-.41c.02-.13.05-.2.09-.2h.01c.05,0,.08.06.08.18h.01s.01,0,.01,0v-.04s0-.02,0-.03c0-.08.05-.12.11-.12.09,0,.13.04.13.12v.06c0,.07,0,.12,0,.15,0,.03,0,.05,0,.05,0,0,0,.01,0,.02h.02c0-.11.02-.17.06-.17.04-.02.07-.04.07-.05,0,0-.03-.02-.1-.04v-.04c0-.06.02-.09.06-.09h.03s.07.03.08.1h0s-.02.07-.02.08c.01.02.02.04.03.08,0,0,0,.02,0,.03v.03h.03c0-.05.03-.08.06-.08.03,0,.05.02.06.07l-.02.06v.02c.01.05.03.08.04.08h.03s.04-.04.04-.07l-.04-.08h0s.03-.09.04-.17c.02-.03.05-.05.07-.05h0c.05,0,.09.04.1.13h.01c.02-.15.04-.22.06-.22,0,0,.01-.01.03-.01h.03s.07.03.08.1v.71s-.04.06-.11.09h0v.03s.03.02.08.02c.02.02.03.04.03.06h0c0,.09,0,.14,0,.15,0,.2.01.56.01,1.05v1.01s-.01.06-.03.07h-.01s-.06-.04-.08-.13c-.02-.01-.03-.02-.04-.02h-.02s-.01,0-.01.01v.02c.02.05.03.11.04.17.03.03.05.07.05.12h.02s.05-.01.05-.01c.02.03.03.05.03.08v.43c0,.05-.03.08-.07.08-.02,0-.05-.03-.07-.09h-.01s-.04.02-.1.06c-.03,0-.04-.04-.04-.11v-.12h-.02v.03s0,.09,0,.09c0,.07-.04.11-.11.11l-.07-.03s-.02.04-.04.11c-.01.01-.03.02-.04.02h-.02s-.04-.04-.06-.12h0s-.02.03-.03.1c-.01,0-.03.01-.04.01h0s-.06-.03-.07-.08v-.74s.02-.07.06-.16h0c-.04-.06-.06-.1-.06-.13v-.99s.02-.07.05-.15l-.03-.04h0s.03-.07.08-.12v-.02c-.02-.06-.03-.08-.05-.08h0s-.06.04-.07.12h0s0,.07,0,.07l-.19.71c0,.06-.04.11-.09.16,0,0-.01.01-.02.03h0s.04.06.04.08v.02s-.05.24-.16.66c-.1.39-.16.61-.18.65-.02.01-.03.02-.04.02-.04,0-.06-.07-.07-.21,0-.03.01-.07.04-.11,0-.02-.02-.06-.06-.11-.02.02-.04.06-.04.11v.04c.02.06.02.1.02.12v.06s0,.05-.02.06h-.01c-.04-.05-.08-.08-.1-.08h0s-.03.04-.05.11c-.01,0-.03.01-.04.01-.04,0-.08-.11-.12-.32-.02-.07-.04-.13-.04-.17,0-.02.02-.05.06-.08-.02-.12-.03-.19-.03-.2.01-.05.02-.08.02-.1-.03-.13-.06-.2-.09-.2-.02.02-.04.03-.05.03-.06,0-.11-.14-.17-.43-.12-.41-.17-.65-.17-.72,0-.02-.01-.05-.04-.1h-.02c0,.05,0,.09,0,.11v2.04c0,.06-.02.1-.04.1h0s-.07-.03-.07-.03c-.04.05-.06.08-.07.08h-.04s-.05-.05-.07-.1h0s-.02.03-.04.08c-.01.01-.03.02-.04.02-.05,0-.08-.1-.08-.31,0,0,0-.05-.02-.15h-.01s-.01.03-.02.09c-.07.07-.13.11-.17.11h-.04s-.04,0-.06,0h0s-.03-.03-.03-.06v-2.11c0-.05,0-.1,0-.15,0-.01,0-.05,0-.12v-.41c0-.07,0-.12,0-.15,0-.04,0-.1,0-.16v-.59s.01-.05.04-.07h.01s.06.03.07.1c0,.02.04.05.12.06,0,0,.03.04.1.09.02.05.03.08.03.09,0,.02-.04.04-.13.05-.02.01-.04.03-.05.04.02.04.03.06.03.08,0,.02-.05.06-.12.14v.02s.05.08.14.15c.02.05.04.08.05.08h.01s.03-.04.03-.08c0-.02-.03-.04-.08-.06-.03-.03-.04-.05-.04-.07h0c0-.05.04-.07.13-.07,0-.01.02-.05.04-.12l.11-.15c0-.19.03-.29.05-.29h.02s.03.05.04.14h.02s0-.02,0-.02v-.04s0-.03,0-.03c0-.09.02-.13.07-.13h0s.07.04.07.12v.1h.02s0-.01,0-.02v-.06c0-.09.02-.14.09-.15h0s.08.06.1.19h0s.01,0,.01-.01v-.09c0-.06.04-.08.12-.08ZM6,29.38c.04.09.07.15.07.18h0s-.03.08-.08.14c0,.02-.01.03-.01.04,0,.02.02.03.03.03.1-.06.15-.13.15-.21.03-.05.04-.09.04-.12v-.17s0-.04-.02-.04c-.11.03-.16.06-.16.1,0,0,0,.02,0,.04ZM5.98,26.49v.02s0,.01.02.02c.02,0,.03-.01.03-.02h0s0-.04,0-.04h-.03s-.01,0-.02.03ZM6.17,29.91s.06.04.06.08v.03c0,.06-.01.1-.04.12h-.02c-.06,0-.1-.05-.11-.15v-.02s.06-.05.12-.05ZM6.16,27.95v.03s0,.22,0,.22c0,.02.02.05.07.1h.01s.11-.02.22-.06h0s-.02-.03-.06-.06c-.05-.05-.11-.12-.19-.22l-.02-.02h-.02ZM6.64,27.7s.03.04.08.04c.05-.02.08-.04.08-.06,0-.03-.01-.05-.03-.06h-.02c-.06,0-.09.03-.1.09ZM6.67,27.45h.02s.04-.01.04-.04c0-.03-.02-.04-.03-.04h0s-.02.03-.03.08ZM7.13,28.56s-.01.03-.01.04v.07s0,.04.02.04h.04s.06-.02.06-.06v-.04s-.04-.03-.11-.04ZM7.69,28.83v.09s.01.04.03.04c.04,0,.07,0,.09-.01h.06s0,0,0,0c-.02-.06-.03-.1-.03-.13,0-.07.03-.11.08-.11h.06s.01,0,.01-.01c-.02-.03-.03-.05-.03-.06,0-.07.02-.11.06-.11.03,0,.04,0,.04-.02v-.04s0-.01-.01-.01c0,0-.02,0-.05,0h-.07s-.07.03-.12.04c-.04.06-.07.14-.1.24,0,0-.02.03-.03.09ZM7.78,28.09h0s.04.09.05.25c0,0,.01,0,.03,0,.01,0,.04-.03.09-.08.04,0,.06-.02.06-.05-.02-.05-.04-.08-.06-.08,0,0-.02,0-.05,0-.04,0-.06-.03-.06-.06v-.03h-.02s-.04.03-.04.03ZM7.87,27.54s.02,0,.02.01c.08-.02.13-.03.13-.05-.01-.03-.04-.04-.07-.04-.03.01-.06.04-.08.08ZM7.93,27.24h0s.01.03.02.03h0v-.03h-.02ZM7.96,28.01h0c.06.06.1.11.13.18h.02c.04-.06.06-.11.08-.13h0s-.01-.05-.03-.05c0,0-.03,0-.07,0-.06,0-.09-.01-.1-.01,0,0-.01,0-.02,0ZM8.2,27.76v.02s-.01,0-.01,0h.03s0-.02-.01-.02ZM8.47,26.49v.03s0,.02.02.03h.01s.01,0,.01-.01v-.03s0-.02-.03-.03h-.01s-.01,0-.01.01ZM8.66,26.04h0s.06.02.06.06c0,.03-.03.05-.08.06-.03,0-.04-.01-.04-.04,0-.05.03-.07.07-.07ZM8.61,26.74h0c.02.07.05.1.08.1l.02-.03v-.06s0-.04-.03-.04h0s-.05.01-.07.03ZM8.65,28.64h0s0,.02.02.02c.02,0,.03-.03.04-.09,0,0,0,0,0,0-.04.02-.06.05-.06.08ZM8.8,30.1s.01,0,.01.01h0s0,.02-.02.03h0s-.01,0-.02-.02h0s.02-.02.04-.02ZM8.85,26.04s.04,0,.04.02v.03s-.03.03-.05.03h0s-.02,0-.03-.03v-.02s.03-.03.04-.03ZM8.82,29.39s.01.03.02.03h0s.06-.03.07-.08c0-.02-.01-.03-.03-.04-.02,0-.04.03-.06.09ZM9.14,29.42v.02h-.01s0-.02.01-.02Z"/>
  <path class="st2" d="M9.94,26c.06,0,.1.07.1.2h.01s0,0,0,0v-.03s0-.08,0-.08c0-.05.02-.08.07-.08.05,0,.08.07.08.2h.01v-.03s0-.04,0-.04c0-.09.03-.13.08-.13h.01s.07.03.08.09v1.24s-.03.06-.08.08h0c.06.04.08.07.08.09v.59s-.01.05-.04.06c-.01,0-.04,0-.08-.01-.03,0-.04.02-.04.03,0,.03.03.04.09.04.05,0,.07.02.07.05,0,.03-.01.06-.01.08,0,.05.01.08.01.09v1.14s-.03.08-.08.13h0c.06.06.08.09.08.12v.23s-.01.06-.04.07h-.01c-.06-.02-.09-.03-.09-.03-.06.02-.09.03-.09.03h0s-.07-.04-.07-.12v-.09s.03-.06.08-.1c0,0,0-.02,0-.02-.09.02-.13.04-.13.06.02.05.03.09.03.13v.07c0,.07-.03.1-.1.1-.04,0-.07-.04-.1-.11h0c-.03.06-.06.09-.07.1h-.02s-.07-.04-.09-.12h-.01s-.03.09-.03.09c-.02.03-.04.04-.08.04-.06-.01-.08-.04-.08-.08v-1.12s0-.05.01-.08c0-.03,0-.06,0-.08,0-.01.03-.05.08-.12v-.02c-.06-.05-.08-.08-.08-.1v-.5s.02-.07.06-.13v-.02c0-.05-.02-.09-.06-.12v-.03s0-.08,0-.08c0-.02.01-.04.03-.05h0c.06.02.09.03.09.03.02,0,.05-.02.08-.07,0,0,.03-.02.06-.07h0s-.06.02-.08.02c-.13,0-.19-.04-.19-.08v-1.36c0-.06.03-.08.06-.08h.01c.06.01.08.07.08.16h0s0,.01,0,.01c.08-.08.12-.13.13-.13.03,0,.04.03.04.1v.13h.02v-.03s0-.11,0-.11c0-.09.03-.14.09-.14ZM9.71,26.58c.01.05.04.08.07.08.04,0,.06-.03.07-.08h0s-.03-.07-.08-.07c-.04.02-.05.04-.05.07ZM9.77,28.03h0c.04.06.07.08.1.08v-.02s.01,0,.01,0c0-.02-.03-.04-.1-.05h-.01ZM9.79,29.11h0s.02.1.02.1c0,.02,0,.04,0,.06,0,0,0,0,0,0,.03-.03.06-.04.08-.04.06,0,.1.01.12.01.07-.04.12-.07.15-.07.03,0,.05,0,.05-.02h0s-.02-.07-.07-.08c-.08.02-.14.04-.16.04-.04,0-.07-.03-.1-.1,0,0,0,0,0,0-.05.02-.08.06-.08.09ZM9.86,28.86s.01.02.03.03c.02,0,.04-.01.06-.04v-.02s-.02-.03-.04-.03c-.03.01-.04.03-.04.05ZM9.89,28.55h0s0,.02.02.03h0s.05-.02.09-.07v-.02s-.04,0-.04-.01c-.05,0-.08.03-.08.07ZM10.01,27.95h0s0,.02.02.02c.02,0,.04-.02.04-.04h0s0-.02-.02-.03h-.01s-.02.02-.03.05ZM10.11,26.86l.02.02s.04-.03.04-.09h0s0-.02-.02-.03c-.02,0-.03.03-.04.09ZM10.13,27.75c.02.06.04.09.08.09h0s.05-.02.06-.07c-.01-.05-.04-.08-.08-.08-.04,0-.06.03-.06.05Z"/>
  <path class="st2" d="M11.67,26.01s.05.03.08.08h.03s.02,0,.03,0c.09,0,.14.04.14.1,0,.05.02.07.03.07h.01v-.08s.03-.07.08-.07c.06,0,.09.02.09.04v.03s-.04.05-.04.07h0s.03.04.04.04c.02,0,.04-.04.06-.13.02-.02.04-.03.07-.03h.01c.08,0,.12.05.12.14h0s-.02.06-.06.09h.04s.08,0,.13,0c.07,0,.11.06.11.17,0,.02.01.03.02.03,0,0,.01,0,.01-.01v-.07s.01-.05.03-.06h.03c.06.02.11.23.12.64v.34c0,.09-.02.14-.06.14-.02,0-.04-.02-.05-.07h-.01c-.03.05-.05.08-.06.09,0,0-.01,0-.02,0-.05,0-.08-.09-.08-.26v-.06s0-.01,0-.02h0s-.02.02-.02.04v.11s0,.06,0,.1c-.01.06-.04.09-.08.09h-.02s-.07-.05-.07-.15c0,0-.01,0-.01-.01,0,0-.01,0-.02,0,0,.1-.03.15-.1.15-.03,0-.05-.04-.07-.11h0s-.03.03-.04.09c-.02.01-.04.02-.05.02-.04,0-.06-.04-.06-.09,0-.37-.02-.56-.07-.56,0-.02-.06-.04-.17-.05-.1,0-.16.03-.19.09-.03.11-.05.38-.05.82v.24s-.03.06-.08.07h0s.03.04.08.06v.04s.01.2.01.2c0,.54.02.81.07.81.01.04.07.06.17.06h0c.11,0,.17-.03.19-.1.03-.11.04-.25.04-.42v-.04c0-.06.02-.09.04-.09h.03s.03.03.06.09c0,0,.01,0,.01,0h0s0-.06,0-.06c0-.04.02-.06.05-.06h.02s.04.05.05.14h.02s.01-.01.01-.03h0s0-.02,0-.03c0-.07.03-.11.1-.11.04,0,.07.04.09.11,0,.02-.02.06-.07.12h0s.02.05.06.05h0s.03-.03.03-.06v-.1c0-.06.02-.1.08-.11.04,0,.07.04.09.12h0c.02-.07.04-.11.07-.11h.02s.06.04.06.11v.06s-.01.05-.03.1c.02.04.04.07.04.08v.15s-.02.07-.02.08c.01.03.02.05.02.06-.03.38-.08.57-.16.57-.01,0-.03,0-.05-.02h-.03s0,0,0,.02c0,.06,0,.1,0,.12,0,.04-.03.06-.06.06-.04,0-.07-.08-.08-.25,0-.05,0-.1-.02-.15h-.02v.02c.02.17.03.3.03.4v.03c0,.05-.05.09-.14.11-.02,0-.05-.03-.09-.09h0s-.02.04-.04.12c-.02.02-.05.02-.07.02-.04,0-.08-.04-.1-.12h0c-.02.09-.05.13-.08.13h-.02s-.05-.02-.09-.07h0c-.03.06-.06.09-.1.09h0c-.06,0-.09-.05-.09-.15v-.04s.02-.06.02-.06c-.04-.04-.06-.1-.06-.2,0,0-.01-.01-.01-.03h-.02c0,.07.01.2.04.39,0,.03-.01.05-.04.07h-.03s-.05-.03-.07-.09c0,0-.03.02-.06.07-.03,0-.04.01-.05.01-.06,0-.1-.03-.12-.1,0-.02,0-.02-.01-.02h-.01s-.05.05-.07.05h-.01c-.08,0-.11-.09-.11-.28,0,0,0-.03,0-.09h0s-.04-.08-.04-.12v-.09s0-.03-.02-.04c-.06.05-.09.1-.09.16l-.02.03h-.01c-.06,0-.1-.27-.13-.8,0-.03.02-.04.03-.04h.03c.08.08.14.13.19.15.02,0,.04-.02.04-.07h0s-.03-.06-.08-.11c0-.04-.06-.08-.18-.11l-.02-.03h0s.02-.05.05-.1v-.03c0-.05,0-.08,0-.08-.05-.03-.07-.05-.07-.08v-.3s.02-.06.05-.08c-.03-.04-.05-.07-.05-.1h0s.02-.06.07-.1h0s0-.07,0-.09c0,0,0-.03.02-.07h0s-.02-.02-.07-.04c0-.01-.01-.02-.01-.03,0-.63.06-1.02.19-1.18h.03s.06.02.08.09h.01s0,0,0,0c0-.02,0-.08,0-.17,0-.06.02-.1.06-.12h.04l.05.04h0s.02-.03.03-.09c.03-.04.06-.06.09-.06h.05s.06.07.08.21h0s.01,0,.01-.01v-.02s0-.07,0-.11c0-.06.04-.09.09-.09.03,0,.06.04.08.12h.01s.02-.04.03-.1c.02-.02.03-.03.05-.03ZM10.92,29.76h.01s.05.02.05.05c0,.03-.02.05-.05.05-.03,0-.05-.02-.06-.06,0-.02.01-.04.04-.04ZM11.05,29.37h0s0,.02.02.03h.01s.03-.03.03-.05c0-.02-.01-.03-.02-.03-.03,0-.04.01-.04.04ZM11.09,29.65l.02.02h0s.03,0,.04-.02c0-.02-.02-.03-.04-.03-.02,0-.02.02-.02.03ZM11.12,28.9v.02s0,.01.01.01h0s.01,0,.02-.02v-.03h-.02s-.01,0-.02.02ZM11.33,28.85s0,.01.02.02h.01s.04-.01.06-.04v-.02s-.02-.02-.04-.02c-.04.01-.06.04-.06.07ZM12.03,26.03h.02s.01,0,.01.01h0s0,.02-.02.02h-.01s-.01,0-.01-.01h0s0-.03.01-.03ZM12.03,29.78s0,.01,0,.02h.01s.03-.05.06-.15h-.01s0,0,0,0c-.02,0-.04.05-.06.14ZM12.05,26.38s0,.04.02.04h.01s.02-.02.02-.04c0-.02-.02-.03-.03-.03-.02,0-.03.02-.03.03ZM12.22,29.28h0s.01.01.01.01c0,0,.01,0,.01-.01h0s-.01-.01-.01-.01c0,0-.01,0-.01.01ZM12.29,26.35h0s.02,0,.02,0h0s-.02,0-.02,0ZM12.52,26.16s.06.03.07.08v.03s0,.02-.03.03c-.06-.01-.09-.04-.09-.08.01-.03.03-.05.05-.05Z"/>
  <path class="st2" d="M14.03,26.01c.05,0,.09.03.11.08,0,.03.01.05.03.06,0-.09.03-.14.08-.14.05,0,.08.05.08.14v.02s0,.01.01.01c0,0,.01,0,.01-.01v-.03c0-.09.03-.14.09-.14.06,0,.09.04.09.13v.14h.02v-.03s0-.05,0-.05c0-.1.04-.15.11-.15.1,0,.15.08.15.23.02.16.03.26.04.3h0s.01,0,.01-.01c0-.16-.02-.27-.02-.32,0-.04.01-.06.04-.08h.03c.08.02.16.12.25.3.08.21.11.4.11.56,0,.02-.02.04-.03.06h0s.05.12.05.27c0,.19,0,.38,0,.57v.37c0,.82-.05,1.31-.15,1.45-.03.08-.06.12-.11.12-.04-.02-.06-.02-.06-.02-.01,0-.02.05-.02.14-.05.07-.09.11-.14.11h-.02s-.06-.03-.08-.1h-.02c0,.1-.03.15-.07.15,0,0-.02.01-.06.01h-.03c-.06,0-.09-.08-.09-.24v-.1c0-.06.02-.12.06-.18h0s-.03-.02-.03-.02h-.01s-.04.01-.04.03v.2s0,.11,0,.22c0,.08-.04.11-.1.11h-.02c-.05,0-.09-.04-.1-.12,0,0,0-.01,0-.02h-.02c0,.09-.03.14-.09.14h-.05c-.07,0-.1-.06-.1-.17,0-.02-.01-.02-.02-.02-.02,0-.03.05-.04.14-.01.02-.03.03-.07.04-.08-.01-.12-.05-.12-.1,0-.02.02-.04.06-.07h0s-.07-.07-.07-.11v-.09s0-.03-.02-.04h-.01s0,.07,0,.15c0,.12-.03.17-.08.17h-.01c-.05,0-.08-.07-.08-.22v-.04h-.01s0,0,0,0c-.01.09-.04.14-.07.14h-.01c-.05,0-.12-.11-.2-.34,0-.02-.01-.04-.01-.07v-.07s-.03-.05-.04-.09c0-.04.01-.07.01-.07-.04-.05-.06-.28-.06-.7h0s.03-.08.08-.09h0v-.03s-.02-.01-.07-.02c-.02-.02-.02-.04-.02-.06v-.26c0-1.02.05-1.58.14-1.67.02-.08.06-.12.09-.12.05,0,.07.04.07.13,0,0,0,0,0,.01h0s.01,0,.01-.02c0-.03,0-.05,0-.07,0-.04,0-.08,0-.12v-.04c0-.06.04-.1.11-.12h.02s.04.02.08.06c.02-.05.03-.09.04-.11.04-.03.08-.04.12-.04.06,0,.09.05.09.14v.2h.02v-.22c0-.1.04-.15.12-.15ZM13.31,29.4v.06s0,.01.02.02h.02c.08,0,.11-.02.11-.04-.03-.05-.06-.07-.1-.07-.03.01-.05.02-.06.04ZM13.4,28.33h0s0,.03.01.03h0s.01,0,.02-.02h0s0-.02-.01-.02h-.01s-.01,0-.01.01ZM13.41,28.16h.02s.01.01.01.01c.04-.05.09-.07.15-.07.02-.01.03-.03.03-.04,0-.03-.02-.04-.07-.04-.02,0-.05.03-.08.09-.04.01-.06.03-.06.06ZM13.44,29.19v.02s.03.06.11.06c0,0,.02.05.03.11h.03s.02-.03.02-.06h0s-.02-.07-.06-.11c-.01-.05-.04-.08-.07-.08h-.02s-.03.03-.03.05ZM13.51,28.82s0,.01,0,.03c0,0,0,.01,0,.02h.02s.01,0,.01-.01v-.02s0-.01-.01-.01h-.02ZM13.54,28.35h0s0,.03.03.04c.03-.02.05-.04.05-.07h-.03s-.04.01-.05.03ZM13.55,26.85s0,.04.03.04h.03s.06-.02.06-.05c0-.03-.02-.04-.06-.05-.04,0-.06.02-.06.06ZM13.62,29.58s.02.03.04.03h0s.01,0,.02-.02v-.02s-.01-.02-.03-.02c-.02,0-.03.02-.03.03ZM13.97,27.03h0s.02.07.02.07c0,.2-.01.36-.01.49v.2s0,.06-.02.14c.01.05.02.09.02.13v.15c0,.06-.02.1-.07.13-.01.06-.04.09-.07.09-.04,0-.06-.06-.07-.17h0s.01-.07.01-.07h0s-.02-.01-.02-.01c-.08.08-.12.13-.12.14.04,0,.06.03.07.09v.09h.06s.04.02.1.06c0,0,.01,0,.02,0,0,0,.02-.01.04-.03h.02s.02.02.02.04c0,.02-.02.03-.07.05-.04.04-.06.08-.06.11h0s0,.04,0,.04h.01s.06-.05.08-.05c.02,0,.04.02.04.05v.02s-.01.04-.03.05h-.02s-.05-.01-.05-.01h-.01c0,.06.03.1.08.12.04.02.06.06.06.12v.03l-.03.07c.09.04.16.06.2.06h.07c.1,0,.14-.04.14-.1.02-.12.04-.19.07-.19.03,0,.04-.03.04-.05h0s-.03-.03-.08-.06c0-.01,0-.02,0-.03,0-.3,0-.54,0-.71v-.03c0-.76-.02-1.14-.06-1.14-.02-.05-.07-.07-.14-.07h-.05c-.08,0-.13.03-.15.08,0,0-.02.03-.06.08ZM13.65,27.37c0,.08.02.12.06.12.03,0,.07-.05.11-.16v-.02s-.01-.02-.01-.02h-.03s-.04,0-.07-.02c-.03,0-.05.04-.05.11ZM13.74,29v.03s.02.02.04.02h.02s.02-.02.02-.04c0-.02-.02-.03-.06-.04-.02,0-.03.01-.03.02ZM13.77,29.69h0s.03.03.11.03c0,0,.01.01.03.02h0s-.02-.06-.05-.09h-.02s-.05.01-.06.04ZM13.78,27.12s.01.05.03.13h0s.02-.02.03-.06h0c0-.06-.02-.09-.06-.09,0,0-.01,0-.01.02ZM14.2,29.7s.03.04.06.04h.01s.05-.06.05-.19v-.07s0-.03-.03-.04c-.06.02-.09.11-.09.25ZM14.39,29.36h0s0,.02.02.03h.01s.03-.03.03-.05c0-.02-.01-.02-.02-.02-.03,0-.04.01-.04.04ZM14.63,29.03h0s0,.02.01.02h.03s.01,0,.01-.01h0s0-.02-.02-.02c-.02,0-.04,0-.04.02ZM14.67,28.85s0,.01.02.02h.01s.05-.01.06-.04v-.02s-.02-.03-.04-.03c-.04.01-.06.04-.06.07ZM14.82,28.07v.02s0,.01.01.01h.02s0-.03,0-.03h-.03Z"/>
  <path class="st2" d="M18.22,22.31c.16,0,.24.1.24.29v.1s0,.03.02.03h.02c0-.28.08-.42.25-.42h.29c.16,0,.24.1.24.31.02.04.03.06.05.06.02,0,.02,0,.02-.03v-.11c.02-.15.09-.22.22-.22.16,0,.24.09.24.27v.17s.02.06.05.06c.13-.07.19-.13.19-.18,0,0,0-.04-.01-.11.07-.12.16-.18.27-.18.11.03.17.14.17.32v.07s.01.03.03.03c.02,0,.03,0,.03-.03v-.11c0-.2.08-.29.24-.29h.1c.17,0,.25.07.25.21v.33s-.02.1-.05.18c.03.06.05.12.05.17v.89c0,.14-.08.21-.25.21h-.03c-.16,0-.24-.11-.24-.32v-.2s0-.02-.03-.02h-.01l-.02.07v.15c0,.22-.08.32-.24.32h-.11c-.17,0-.25-.13-.25-.39h-.03c0,.26-.08.39-.25.39h-.05c-.15,0-.24-.12-.27-.36h-.01s-.03.01-.03.03v.06c0,.15-.07.26-.21.31-.02.05-.03.07-.04.07,0,.15.01.27.01.35v.89s0,.1-.03.2c0,.09.08.15.25.18.05.04.08.08.08.13v.05c-.15.17-.31.25-.48.25-.07,0-.12.02-.13.06,0,.03.08.06.25.07.04,0,.17-.04.38-.13h.04s.09.03.17.1h.04c.14-.13.21-.2.21-.22,0-.2.05-.31.14-.31.02,0,.04-.01.07-.01h.06c.16,0,.24.12.24.36s.02.36.05.36h.02s0-.02.01-.04c0-.15-.01-.27-.01-.36v-.07c0-.15.1-.23.29-.25h.14c.15,0,.22.07.22.22v.71c0,.18,0,.43-.01.75-.02.06-.04.09-.07.1h-.06s-.06-.12-.07-.35l-.04-.03h-.02s-.02.01-.02.03v.25c0,.08-.03.14-.1.18h-.09s-.09-.08-.13-.25h-.01s-.04.09-.09.22c-.04.05-.09.07-.15.07h-.02c-.11,0-.18-.11-.22-.32h-.02s-.03.08-.07.25c-.06.05-.12.08-.18.08-.13,0-.21-.08-.24-.25h-.03s-.1.16-.1.16h-.07c-.13-.03-.21-.06-.24-.06-.07.01-.1.04-.1.1v.03c.07.08.11.15.11.22v2.09c0,.09-.03.14-.08.14l-.21-.07c-.07,0-.12.06-.15.17,0,.07.08.16.25.25.13.02.2.07.2.18v.14c0,.14-.03.21-.08.21h-.06l-.13-.09c-.05.1-.1.15-.13.17h-.02c-.12,0-.17-.2-.17-.61v-.22s-.01-.07-.04-.2h0c0-.06.04-.15.13-.29v-.02s0-.03-.03-.03c-.1.12-.22.19-.36.21-.03.04-.05.08-.05.14v.05c0,.07.08.14.24.2.03,0,.06.2.08.6-.02.15-.09.22-.21.22-.12-.01-.18-.06-.18-.14v-.03s.03-.09.1-.16v-.05s-.02-.04-.07-.05c-.19.04-.31.06-.36.06h-.05s-.1-.04-.2-.11h-.09s-.02.01-.02.01c-.02,0-.03-.01-.05-.04,0-.04.09-.1.27-.18.08.01.15.02.2.02h.02c.05-.03.08-.07.08-.13-.05-.11-.08-.18-.08-.2v-.03c0-.06.07-.13.21-.22,0-.02.01-.04.01-.06-.03-.2-.07-.29-.13-.29-.13.08-.21.12-.25.12-.05-.01-.09-.02-.13-.02-.04,0-.12.05-.24.16h-.03c-.09,0-.14-.09-.14-.28v-.21c.02-.1.06-.16.11-.16s.14,0,.27.02c.14-.1.28-.16.4-.16l.02-.03h0c0-.09-.05-.14-.16-.17-.18.06-.3.09-.35.09-.1,0-.17-.09-.21-.27-.04-.03-.06-.07-.06-.11,0-.07.06-.12.18-.16l.05-.06v-.04s-.07-.06-.21-.1c-.02-.04-.03-.07-.03-.08l.02-.07s0-.07-.03-.16c0-.09.07-.14.22-.14l.17-.16v-.04c-.07,0-.1-.02-.1-.03l-.21.07h-.03s-.05-.05-.06-.14v-.54c0-.07.04-.14.13-.21h0s-.04-.1-.12-.2v-.08s-.01-.99-.01-.99c0-.01,0-.09.03-.22-.02-.1-.03-.16-.03-.19v-1.39s0-.1.03-.28c-.02-.1-.03-.16-.03-.2v-.82c.02-.14.08-.21.2-.21.13,0,.2.12.2.36h.03c0-.24.07-.36.22-.36.12,0,.18.17.18.51.02.05.03.07.04.07.02,0,.03,0,.03-.03v-.02c0-.08,0-.17-.02-.27,0-.18.08-.28.24-.28ZM17.5,26.59l.04.03s.07-.04.07-.06v-.02s-.01-.02-.04-.02-.05.02-.07.07ZM17.7,24.2l.04.06c.07,0,.1-.07.1-.2v-.02s-.01-.02-.04-.04c-.04,0-.07.07-.1.2ZM17.76,26.13c.03.13.09.2.17.2h.01c.07,0,.12-.05.13-.14-.03-.12-.08-.17-.17-.17-.09.02-.14.06-.14.12ZM17.98,27.03c0,.07.05.1.14.1.05,0,.09-.02.11-.07,0-.05-.05-.08-.16-.1-.06.02-.09.04-.1.07ZM18.18,25.37v.04h.02s.03,0,.03-.02l-.03-.02h-.02ZM18.37,24.54s.01.03.03.03h.01s.03,0,.03-.03h0s0-.04-.03-.04c-.01,0-.02.01-.04.04ZM18.5,27.47h0c.05.15.09.22.13.22h.05c.08-.05.12-.12.12-.21v-.02s-.02-.04-.07-.07h-.03s-.09.03-.2.08ZM18.64,28.86h0s.02.05.06.07h.04s.03-.02.06-.06c0-.05-.02-.07-.05-.08-.05,0-.09.02-.11.07ZM18.82,25.82v.04s.02,0,.04.01c.03-.01.05-.02.05-.04h0s0-.04-.02-.04h-.05s-.02.01-.02.03ZM19.22,27.44v.03h.03v-.03h-.03ZM19.59,26.04h.04c.07.01.11.05.11.12-.02.07-.05.1-.1.1-.08-.02-.12-.06-.12-.12.02-.06.04-.09.07-.1ZM20.88,22.98s0,.03-.02.04c0,.02.02.03.06.06l.08-.04s-.03-.06-.08-.06h-.04Z"/>
  <path class="st2" d="M22.48,26.06c.06,0,.09.04.09.13v.08h.02v-.03s0-.04,0-.04c0-.09.03-.14.08-.14h0c.05,0,.08.03.08.07v.06c0,.15.01.23.02.24h.02s0-.02,0-.02c0-.04-.01-.11-.02-.21,0-.09.04-.14.12-.14h.01c.06,0,.1.05.12.14h.01s.01-.02.03-.06c.05-.03.08-.04.09-.04h0c.05,0,.08.04.08.13,0,.05.02.08.02.08h0c0-.1.02-.15.07-.15.09.04.13.1.13.17,0,.07,0,.13,0,.18,0,.02,0,.04.02.04s.01,0,.01-.01v-.08c0-.05.02-.08.06-.08.07,0,.12.19.15.58v.26c0,.4-.06.65-.19.75-.07.05-.11.08-.11.1h0c.09.1.14.24.17.41.04.12.09.44.14.97,0,.02-.02.04-.05.08.06.02.09.07.09.18,0,.02,0,.04,0,.08v.04s-.04.05-.08.05-.07-.04-.09-.11h0s-.02.03-.03.08c-.02.02-.04.02-.05.02-.03,0-.06-.03-.09-.09h-.02c-.02.06-.03.08-.05.08h-.04s-.06-.11-.08-.32c0-.09-.01-.13-.02-.13,0,0-.01,0-.01.01v.03l.03.33s-.03.08-.09.08h0c-.07,0-.1-.06-.1-.19h-.01s0,0,0,0v.03s0,.05,0,.05c0,.06-.02.09-.05.09-.05,0-.08-.09-.1-.28-.07-.6-.12-.93-.13-.99-.01-.11-.05-.17-.12-.17-.01,0-.03,0-.04,0-.04,0-.06.03-.06.08v.39s-.02.06-.06.09v.02s.06.06.06.09v.46s-.01.05-.03.1h0c.02.06.03.09.03.1v.02c0,.07-.03.1-.08.1s-.08-.03-.09-.1c0-.04-.01-.06-.02-.06,0,0-.01,0-.01.02v.06c0,.06-.03.09-.07.09-.04,0-.07-.03-.09-.1h0l-.04.08s-.02.02-.05.03c-.07,0-.1-.08-.1-.23,0-.07,0-.12-.01-.13h-.02v.02c0,.11,0,.19,0,.22h0c0,.07-.03.1-.07.1-.03,0-.05-.03-.06-.09h-.02s-.03.07-.05.07c-.03,0-.04-.05-.04-.15v-.08c0-.06.01-.08.01-.09,0-.03-.01-.06-.01-.08v-.34s.03-.07.09-.09c.01-.02.02-.03.02-.05,0-.03-.03-.06-.09-.09-.01-.02-.02-.03-.02-.05v-1.68s0-.04.03-.1c-.02-.04-.03-.07-.03-.09v-.06s.04-.07.11-.09c.01-.02.03-.06.05-.12,0,0,.02-.01.03-.04v-.02s-.07-.06-.17-.09c-.02-.02-.02-.04-.02-.07v-.19c0-.06.02-.09.05-.09.02,0,.04.02.05.03h.02s0-.02,0-.02v-.03s0,0,0,0c0-.03.01-.06.04-.08h.04s.05.1.05.3c0,0,0,.03,0,.09v.08s0,.03.02.04c0,0,0,0,0-.02,0-.08-.01-.21-.02-.39,0-.07.03-.11.08-.11.01,0,.03.03.06.08.01,0,.03.03.05.09h0s.01,0,.01-.01c0-.11.02-.16.07-.16h.03s.06.06.07.15h0s.01,0,.01,0v-.06c0-.06.03-.09.09-.09ZM21.84,29.19h0s.02.03.03.04c.02,0,.04-.02.05-.07,0-.02-.02-.03-.02-.03h0s-.05.02-.06.06ZM21.9,27.01s.02.05.05.05c.03,0,.05-.04.06-.12,0-.05-.02-.08-.03-.08h-.02s-.06.08-.06.15ZM22.18,28.7s.01.03.03.03h.01s.05-.02.05-.05c0-.02-.02-.03-.05-.03-.02,0-.03.01-.04.04ZM22.21,29.54v.02s0,.01.01.01h0s.01,0,.01-.01h0s0-.02-.01-.02h-.02ZM22.55,27.61s.02.05.05.05h.1c.1,0,.16-.03.18-.09.02-.06.04-.15.04-.26v-.13c0-.13-.02-.21-.07-.25-.03-.03-.09-.04-.17-.04s-.12.01-.12.04v.69ZM22.77,28.29h0s0,.02.01.02h.01s.01,0,.02-.02v-.02s-.01,0-.01,0c-.02,0-.03.01-.03.02ZM23.57,29.56v.02s0,.01,0,.01h.01s.01,0,.02-.02h0s0-.02-.01-.02h-.02s-.01,0-.02.02Z"/>
  <path class="st2" d="M24.38,26.02c.06,0,.09.06.09.18h.01s0,0,0,0v-.03s0-.08,0-.08c0-.05.02-.07.07-.08.05,0,.07.06.07.18h.01v-.03s0-.04,0-.04c0-.08.03-.12.08-.12h.01s.07.03.07.08v1.14s-.03.06-.08.07h0c.05.04.08.06.08.09v.55s-.01.04-.04.05c0,0-.03,0-.07-.01-.02,0-.04.02-.04.03,0,.03.03.04.09.04.04,0,.07.02.07.05,0,.03-.01.06-.01.08,0,.04.01.07.01.08v1.06s-.03.07-.08.12h0c.05.05.08.08.08.11v.21s-.01.05-.04.07h0c-.05-.02-.08-.03-.09-.03-.05.02-.08.03-.08.03h0s-.06-.04-.06-.11v-.08s.02-.05.07-.09c0,0,0-.01,0-.02-.08.02-.12.04-.12.05.02.05.02.09.02.12v.07c0,.06-.03.09-.09.09-.04,0-.07-.03-.09-.1h0c-.03.05-.05.08-.07.09h-.02s-.07-.04-.08-.11h-.01s-.02.09-.02.09c-.02.02-.04.04-.07.04-.05-.01-.08-.04-.08-.08v-1.04s0-.04.01-.07c0-.03,0-.05,0-.07,0-.01.02-.05.07-.11v-.02c-.05-.04-.08-.07-.08-.09v-.46s.02-.07.06-.12v-.02s-.02-.08-.05-.11v-.03s0-.08,0-.08c0-.02,0-.04.03-.05h0c.05.02.08.03.09.03.02,0,.04-.02.07-.06,0,0,.02-.02.06-.06h0s-.06.02-.08.02c-.12,0-.18-.03-.18-.08v-1.26c0-.05.02-.08.06-.08h.01c.05.01.08.06.08.15h0s0,.01,0,.01c.07-.08.11-.12.12-.12.02,0,.04.03.04.09v.12h.02v-.03s0-.1,0-.1c0-.09.03-.13.08-.13ZM24.17,26.55s.03.07.07.07c.04,0,.06-.02.06-.07h0s-.03-.06-.08-.07c-.03.02-.05.04-.05.07ZM24.23,27.9h0c.04.05.07.07.09.07v-.02s.01,0,.01,0c0-.02-.03-.03-.09-.05h-.01ZM24.24,28.9h0s.02.09.02.09c0,.02,0,.04,0,.05,0,0,0,0,0,0,.03-.02.05-.04.07-.04.06,0,.09.01.11.01.07-.04.11-.06.14-.06.03,0,.05,0,.05-.02h0s-.02-.06-.07-.07c-.08.02-.13.03-.15.03-.04,0-.07-.03-.09-.09,0,0,0,0,0,0-.05.02-.07.05-.07.09ZM24.31,28.67s0,.02.03.03c.02,0,.04-.01.05-.03v-.02s-.02-.02-.04-.02c-.03.01-.04.03-.04.05ZM24.34,28.38h0s0,.02.02.03h0s.05-.02.09-.07v-.02s-.04,0-.04-.01c-.05,0-.07.03-.07.07ZM24.45,27.83h0s0,.02.02.02c.02,0,.03-.02.03-.04h0s0-.02-.02-.02h-.01s-.02.02-.02.05ZM24.54,26.82l.02.02s.04-.03.04-.08h0s0-.02-.02-.02c-.02,0-.03.03-.04.09ZM24.56,27.64c.01.06.04.09.07.09h0s.05-.02.05-.06c-.01-.05-.03-.07-.07-.07-.04,0-.06.02-.06.05Z"/>
  <path class="st2" d="M25.21,26.06c.06,0,.1.05.1.16,0,.07,0,.11.02.11h0s0,0,0-.02v-.15c0-.07.03-.11.09-.11.07,0,.1.05.1.16l.02.02h.03s.03,0,.03,0c.01,0,.04.03.08.09,0,0,.01,0,.02,0,.01-.02.02-.05.03-.08,0-.03,0-.05,0-.07v-.03c0-.07.04-.1.1-.1h0c.08,0,.12.04.12.12.03.3.06.47.08.5h.01v-.02c-.04-.28-.05-.46-.05-.52,0-.05.03-.08.09-.08h.04c.07,0,.11.05.11.16v.07s0,0,0,0c0,0,.01,0,.01,0v-.09c0-.09.03-.13.1-.13h0c.08,0,.12.04.12.13v.07h.02v-.03s0-.05,0-.05c0-.09.04-.13.12-.13h0c.07,0,.1.04.1.13v.18s0,.03.02.03h.01c0-.08,0-.14,0-.18h0c0-.12.03-.17.1-.17h.02c.06,0,.09.03.09.09v.66c0,.06-.03.08-.07.08h-.01s-.06-.03-.08-.09h-.01c-.02.06-.06.09-.11.09h-.02c-.06,0-.08-.03-.08-.06,0-.03.03-.05.09-.07,0,0,0-.01,0-.02,0-.02-.02-.03-.03-.03-.02,0-.05,0-.1,0-.03.01-.04.02-.05.02h0c.02.05.03.08.03.09,0,.04-.02.05-.05.05,0,0-.03-.02-.07-.06-.01,0-.02.04-.02.13v2.82s-.02.07-.05.07c-.04,0-.06-.05-.06-.15,0-.08,0-.12-.02-.12h0c0,.08,0,.13,0,.17h0c0,.09-.02.13-.07.13h-.03s-.04-.04-.06-.11h-.02c0,.08-.03.12-.09.12h0c-.07,0-.1-.07-.1-.22,0-.06-.01-.09-.02-.09h0s0,0,0,.02c0,.09,0,.16,0,.22-.02.04-.04.06-.06.06-.03,0-.06-.03-.08-.1h0s-.02.02-.05.06h-.01s-.05-.05-.07-.16v-.76s0-.08.02-.14c-.01-.04-.02-.06-.02-.09v-.45c0-.06.03-.09.09-.09.1-.03.15-.04.15-.05,0,0-.02-.03-.06-.05-.04-.05-.08-.08-.1-.08h-.01s-.02,0-.02,0c-.03,0-.04-.02-.05-.06v-.94s-.01-.07-.04-.14c0-.08-.01-.12-.04-.12h-.04s-.02.02-.02.04h0s0,.05.03.1c-.01.03-.03.04-.05.04-.04,0-.07-.03-.08-.09h-.02c-.02.06-.05.09-.09.09h-.01s-.07-.03-.09-.1h-.02c0,.06-.02.09-.07.1-.04,0-.06-.03-.06-.08v-.64c0-.06.02-.08.06-.08s.07.04.08.12h.01s0,0,0,0c0-.1.03-.15.1-.15ZM26.24,26.88s0,.01,0,.01c.01.06.02.09.04.09v-.02s.01-.03.01-.03c0-.01,0-.03-.02-.06h-.02ZM26.39,26.73v.03h.01s.01,0,.02-.02h0s0-.02-.01-.02c0,0-.01,0-.02,0Z"/>
  <path class="st2" d="M27.15,26.06c.06,0,.1.05.1.16,0,.07,0,.11.02.11h0s0,0,0-.02v-.15c0-.07.03-.11.09-.11.07,0,.1.05.1.16l.02.02h.03s.03,0,.03,0c.01,0,.04.03.08.09,0,0,.01,0,.02,0,.01-.02.02-.05.03-.08,0-.03,0-.05,0-.07v-.03c0-.07.04-.1.1-.1h0c.08,0,.12.04.12.12.03.3.06.47.08.5h.01v-.02c-.04-.28-.05-.46-.05-.52,0-.05.03-.08.09-.08h.04c.07,0,.11.05.11.16v.07s0,0,0,0c0,0,.01,0,.01,0v-.09c0-.09.03-.13.1-.13h0c.08,0,.12.04.12.13v.07h.02v-.03s0-.05,0-.05c0-.09.04-.13.12-.13h0c.07,0,.1.04.1.13v.18s0,.03.02.03h.01c0-.08,0-.14,0-.18h0c0-.12.03-.17.1-.17h.02c.06,0,.09.03.09.09v.66c0,.06-.03.08-.07.08h-.01s-.06-.03-.08-.09h-.01c-.02.06-.06.09-.11.09h-.02c-.06,0-.08-.03-.08-.06,0-.03.03-.05.09-.07,0,0,0-.01,0-.02,0-.02-.02-.03-.03-.03-.02,0-.05,0-.1,0-.03.01-.04.02-.05.02h0c.02.05.03.08.03.09,0,.04-.02.05-.05.05,0,0-.03-.02-.07-.06-.01,0-.02.04-.02.13v2.82s-.02.07-.05.07c-.04,0-.06-.05-.06-.15,0-.08,0-.12-.02-.12h0c0,.08,0,.13,0,.17h0c0,.09-.02.13-.07.13h-.03s-.04-.04-.06-.11h-.02c0,.08-.03.12-.09.12h0c-.07,0-.1-.07-.1-.22,0-.06-.01-.09-.02-.09h0s0,0,0,.02c0,.09,0,.16,0,.22-.02.04-.04.06-.06.06-.03,0-.06-.03-.08-.1h0s-.02.02-.05.06h-.01s-.05-.05-.07-.16v-.76s0-.08.02-.14c-.01-.04-.02-.06-.02-.09v-.45c0-.06.03-.09.09-.09.1-.03.15-.04.15-.05,0,0-.02-.03-.06-.05-.04-.05-.08-.08-.1-.08h-.01s-.02,0-.02,0c-.03,0-.04-.02-.05-.06v-.94s-.01-.07-.04-.14c0-.08-.01-.12-.04-.12h-.04s-.02.02-.02.04h0s0,.05.03.1c-.01.03-.03.04-.05.04-.04,0-.07-.03-.08-.09h-.02c-.02.06-.05.09-.09.09h-.01s-.07-.03-.09-.1h-.02c0,.06-.02.09-.07.1-.04,0-.06-.03-.06-.08v-.64c0-.06.02-.08.06-.08s.07.04.08.12h.01s0,0,0,0c0-.1.03-.15.1-.15ZM28.19,26.88s0,.01,0,.01c.01.06.02.09.04.09v-.02s.01-.03.01-.03c0-.01,0-.03-.02-.06h-.02ZM28.33,26.73v.03h.01s.01,0,.02-.02h0s0-.02-.01-.02c0,0-.01,0-.02,0Z"/>
  <path class="st2" d="M29.82,26.03s.08.03.1.08c0,.03,0,.05.03.06,0-.09.02-.13.07-.13.05,0,.08.04.08.13v.02s0,.01,0,.01c0,0,.01,0,.01-.01v-.03c0-.09.03-.13.09-.13.05,0,.08.04.08.12v.13h.02v-.03s0-.05,0-.05c0-.1.03-.14.1-.14.1,0,.14.07.14.21.02.15.03.24.03.28h0s.01,0,.01-.01c0-.15-.02-.25-.02-.3,0-.03.01-.06.04-.08h.03c.07.02.15.11.23.28.07.2.1.37.1.52,0,.02-.01.04-.03.06h0s.05.11.05.25c0,.18,0,.35,0,.53v.34c0,.76-.05,1.21-.14,1.35-.03.07-.06.11-.1.11-.03-.01-.05-.02-.06-.02,0,0-.02.04-.02.13-.04.06-.08.1-.13.1h-.02s-.06-.03-.07-.09h-.02c0,.1-.03.14-.07.14,0,0-.02.01-.06.01h-.03c-.06,0-.08-.07-.08-.22v-.09c0-.06.02-.11.05-.17h0s-.02-.02-.02-.02h-.01s-.03,0-.04.03v.18s0,.1,0,.2c0,.07-.04.1-.09.1h-.02c-.05,0-.08-.04-.09-.11,0,0,0-.01,0-.02h-.02c0,.08-.03.13-.09.13h-.05c-.06,0-.09-.05-.09-.16,0-.01-.01-.02-.02-.02-.01,0-.03.04-.03.13,0,.02-.03.03-.06.03-.08-.01-.11-.04-.11-.09,0-.02.02-.04.06-.06h0s-.06-.07-.06-.1v-.08s0-.03-.02-.03h-.01s0,.06,0,.14c0,.11-.02.16-.07.16h0c-.05,0-.08-.07-.08-.21v-.04h-.01s0,0,0,0c-.01.08-.03.13-.06.13h-.01s-.11-.1-.18-.31c0-.01-.01-.04-.01-.06v-.06s-.03-.05-.03-.09c0-.04.01-.06.01-.06-.04-.05-.05-.26-.05-.65h0s.03-.07.08-.09h0v-.02s-.02-.01-.07-.02c-.01-.02-.02-.04-.02-.06v-.24c0-.94.04-1.46.13-1.55.02-.08.05-.11.09-.11.04,0,.06.04.06.12,0,0,0,0,0,0h0s0,0,0-.02c0-.03,0-.05,0-.07,0-.04,0-.07,0-.11v-.04c0-.06.03-.09.1-.11h.02s.04.02.07.05c.02-.05.03-.08.04-.1.04-.02.08-.04.11-.04.06,0,.08.04.08.13v.19h.02v-.2c0-.09.04-.14.11-.14ZM29.16,29.17v.06s0,.01.02.02h.02c.07,0,.1-.02.1-.04-.03-.05-.06-.07-.09-.07-.03,0-.05.02-.05.03ZM29.24,28.18h0s0,.02.01.02h0s.01,0,.02-.02h0s0-.02-.01-.02h0s-.01,0-.01,0ZM29.25,28.02h.02s0,.01,0,.01c.04-.04.09-.06.14-.06.02-.01.02-.03.02-.04,0-.03-.02-.04-.06-.04-.02,0-.04.03-.08.08-.03.01-.05.03-.05.05ZM29.28,28.98v.02s.03.06.1.06c0,0,.01.04.02.1h.03s.02-.03.02-.05h0s-.02-.06-.06-.1c0-.05-.03-.07-.07-.07h-.02s-.03.03-.03.05ZM29.34,28.63s0,0,0,.02c0,0,0,.01,0,.02h.02s0,0,0-.01v-.02s0-.01,0-.01h-.02ZM29.37,28.2h0s0,.02.02.03c.03-.02.05-.04.05-.06h-.02s-.04,0-.05.03ZM29.38,26.81s0,.03.02.04h.03s.05-.02.05-.05c0-.02-.02-.04-.05-.05-.03,0-.05.02-.05.05ZM29.45,29.33s.01.02.03.02h0s.01,0,.02-.02v-.02s0-.02-.03-.02c-.02,0-.03.02-.03.03ZM29.77,26.97h0s.02.07.02.07c0,.19-.01.34-.01.45v.18s0,.06-.02.13c.01.04.02.08.02.12v.14c0,.06-.02.09-.06.12-.01.06-.03.09-.06.09-.03,0-.06-.05-.07-.16h0s0-.06,0-.07h0s-.02-.01-.02-.01c-.08.08-.11.12-.11.13.04,0,.06.03.07.09v.08h.05s.04.02.09.06c0,0,.01,0,.02,0,0,0,.02,0,.04-.03h.02s.02.01.02.03c0,.01-.02.03-.06.05-.03.04-.05.07-.05.1h0s0,.04,0,.04h.01s.05-.04.07-.05c.02,0,.04.02.04.05v.02s0,.04-.03.05h-.02s-.04-.01-.05-.01h-.01c0,.05.03.09.08.11.04.02.06.06.06.11v.02l-.03.07c.08.04.14.06.18.06h.07c.09,0,.13-.04.13-.09.02-.12.04-.17.07-.17.03,0,.04-.02.04-.05h0s-.02-.03-.07-.05c0-.01,0-.02,0-.03,0-.28,0-.5,0-.66v-.02c0-.7-.02-1.05-.05-1.05-.02-.04-.07-.07-.13-.07h-.05c-.07,0-.12.02-.14.07,0,0-.02.03-.05.08ZM29.48,27.29c0,.07.02.11.05.11.03,0,.06-.05.1-.15v-.02s-.01-.02-.01-.02h-.03s-.04,0-.06-.02c-.03,0-.04.03-.05.1ZM29.56,28.8v.02s.02.02.04.02h.02s.02-.01.02-.03c0-.02-.02-.03-.05-.03-.02,0-.03.01-.03.02ZM29.59,29.44h0s.03.03.1.03c0,0,0,.01.03.02h0s-.02-.06-.05-.08h-.02s-.04.01-.06.03ZM29.6,27.06s0,.05.03.12h0s.02-.02.03-.05h0c0-.06-.02-.08-.05-.08,0,0,0,0,0,.02ZM29.98,29.45s.03.04.05.04h.01s.05-.06.05-.17v-.07s0-.03-.02-.03c-.06.02-.09.1-.09.24ZM30.16,29.13h0s0,.02.02.03h.01s.03-.03.03-.05c0-.01-.01-.02-.02-.02-.03,0-.04.01-.04.04ZM30.38,28.83h0s0,.02.01.02h.03s0,0,0-.01h0s0-.02-.02-.02c-.02,0-.03,0-.03.02ZM30.42,28.66s0,.01.02.02h0s.04-.01.06-.04v-.02s-.02-.02-.03-.02c-.03.01-.05.03-.05.06ZM30.55,27.93v.02s0,0,.01,0h.02s0-.02,0-.03h-.02Z"/>
  <polygon class="st2" points="32.01 22.08 .46 22.08 .46 21.18 32.01 22.08 32.01 22.08"/>
  <g class="st5">
    <g>
      <g class="st3">
        <g>
          <path class="st0" d="M10.16,22.49s.07.06.17.08l.09-.03c.07-.03.09-.17.05-.43v-.04c-.04-.06-.1-.07-.19-.04-.15.11-.2.25-.15.4l.02.06Z"/>
          <path class="st0" d="M24.79,16.41l-.02-.06c-.39-.23-.69-.31-.9-.24l-.04.18v.04c.06.13.34.17.86.11l.09-.03Z"/>
          <path class="st0" d="M19.68,9.92c.53-.38.87-.6,1.03-.66.28-.1.59.06.94.47.02,0,.04,0,.05.02.29-.3.39-.58.3-.85l-.02-.06-.35-.58c-.03-.17-.07-.31-.11-.42-.02,0-.04,0-.06-.04-.17.27-.31.42-.43.47-.44.09-.72.15-.84.2-.39.49-.68.76-.86.83-.22.08-.33.17-.32.26v.04c.11.26.33.36.69.32Z"/>
          <path class="st0" d="M18.03,13.23l.03.09c.45.05.7.17.78.34l-.42-1.17c.07.24-.06.48-.4.73Z"/>
          <path class="st0" d="M21.18,20.19l-.41-1.14c.02.25.06.45.12.61.15.25.24.43.29.54Z"/>
          <path class="st0" d="M22.68,19.85c.27-.17.38-.34.32-.51-.26-.39-.52-.54-.76-.45h-.04c-.23.1-.31.3-.24.62.21.32.45.44.72.34Z"/>
          <path class="st0" d="M22.32,13.75c.34-.18.46-.41.36-.69l-.03-.09s-.07-.06-.17-.08l-.06.02c-.13.05-.3.29-.48.73l.05.13c.22-.05.33-.06.35-.02Z"/>
          <path class="st0" d="M15.9,19l-.09.03.02.06c.39.23.69.31.9.24l.04-.18v-.04c-.06-.13-.34-.17-.86-.11Z"/>
          <path class="st0" d="M12.27,30.63s.08.08.18.1c.14-.05.16-.3.08-.76l-.19-.12c-.21.07-.24.32-.09.74v.04Z"/>
          <path class="st0" d="M11.84,20.97l.09-.03-.02-.06c-.39-.23-.69-.31-.9-.24l-.04.18v.04c.06.13.34.17.86.11Z"/>
          <path class="st0" d="M19.71,15.79c-.15-.25-.24-.43-.29-.54l.41,1.14c-.02-.25-.06-.45-.12-.61Z"/>
          <path class="st0" d="M15.29,9.23c-.14.05-.16.3-.08.76l.19.12c.21-.07.24-.32.09-.74v-.04s-.09-.08-.19-.1Z"/>
          <path class="st0" d="M17.27,17.9c.02.06.08.07.18.04.15-.11.2-.25.15-.4l-.02-.06s-.07-.06-.17-.08l-.09.03c-.07.03-.09.17-.05.43v.04Z"/>
          <path class="st0" d="M16.52,7.18c-.07-.25.02-.61.27-1.08l-.03-.09c-.48-.15-.76-.32-.85-.52l.61,1.69Z"/>
          <path class="st0" d="M18.37,16.56h.04c.23-.1.31-.3.24-.62-.21-.32-.45-.44-.72-.34-.27.17-.38.34-.32.51.26.39.52.54.76.45Z"/>
          <path class="st0" d="M23.2,18.05l.09-.03c.07-.03.09-.17.05-.43v-.04c-.04-.06-.1-.07-.19-.04-.15.11-.2.25-.15.4l.02.06s.07.06.17.08Z"/>
          <path class="st0" d="M29.95,12.96c.02.06.08.07.18.04.15-.11.2-.25.15-.4l-.02-.06s-.07-.06-.17-.08l-.09.03c-.07.03-.09.17-.05.43v.04Z"/>
          <path class="st0" d="M20.14,18.85c.32-.11.52-.06.61.16l-.41-1.15c.05.17-.01.33-.18.48-.07.03-.26.06-.57.1-.16.13-.24.24-.23.33.07.21.33.23.77.08Z"/>
          <path class="st0" d="M31.15,19.67c.03.09.13.13.3.14.16-.06.26-.19.31-.4l-.05-.13c-.09-.1-.22-.13-.38-.07-.17.17-.24.33-.19.46Z"/>
          <path class="st0" d="M30.96,16.75c-.34.18-.46.41-.36.69l.03.09s.07.06.17.08l.06-.02c.13-.05.3-.29.48-.73l-.05-.13c-.22.05-.33.06-.35.02Z"/>
          <path class="st0" d="M12.62,8.57c-.1-.28-.35-.36-.75-.23-.2.21-.26.42-.19.63.21.33.44.44.69.36.27-.1.36-.33.27-.7l-.02-.06Z"/>
          <path class="st0" d="M31.05,11.62h.04c.23-.1.31-.3.24-.62-.21-.32-.46-.44-.72-.34-.27.17-.38.34-.32.51.26.39.52.54.76.45Z"/>
          <path class="st0" d="M25.21,25.33c-.21.07-.24.32-.09.74v.04s.09.08.19.1c.14-.05.16-.3.08-.76l-.19-.12Z"/>
          <path class="st0" d="M21,17.01c.16-.13.24-.24.23-.33-.07-.21-.33-.23-.77-.08-.32.11-.52.06-.61-.16l.41,1.15c-.05-.17.01-.33.18-.48.07-.03.26-.06.57-.1Z"/>
          <path class="st0" d="M24.88,10.41c.04.1-.05.45-.25,1.04l.05.13c.48.17.75.33.83.48,0-.1.04-.2.12-.28l.06-.02c.46,0,.7,0,.74-.02.13-.05.26-.27.38-.68.04-.01.13-.22.28-.62v-.04c-.21.19-.38.32-.54.38-.92.26-1.43.23-1.55-.09l-.39-1.1c.01.08.02.17.03.27.12.21.2.38.25.53Z"/>
          <path class="st0" d="M28.07,5.17c.21-.07.24-.32.09-.74v-.04s-.09-.08-.19-.1c-.14.05-.16.3-.08.76l.19.12Z"/>
          <path class="st0" d="M29.4,14.38l.04-.18v-.04c-.06-.13-.34-.17-.86-.11l-.09.03.02.06c.39.23.69.31.9.24Z"/>
          <path class="st0" d="M26.66,16.66l.06.17c.13.37.36.59.69.66l.02.04-.62-1.73c.01.21-.04.5-.15.87Z"/>
          <path class="st0" d="M25.05,4.39c.27-.1.36-.33.27-.7l-.02-.06c-.1-.28-.35-.36-.75-.23-.2.21-.26.42-.19.63.21.33.44.44.69.36Z"/>
          <path class="st0" d="M21.94,11.29c.17-.17.24-.33.19-.46-.03-.09-.13-.13-.3-.14-.16.06-.26.19-.31.4l.05.13c.09.1.22.13.38.07Z"/>
          <path class="st0" d="M18.63,21.67c-.22.05-.33.06-.35.02-.34.18-.46.41-.36.69l.03.09s.07.06.17.08l.06-.02c.13-.05.3-.29.48-.73l-.05-.13Z"/>
          <path class="st0" d="M15.37,30.64c-.27.1-.36.33-.27.7l.02.06c.1.28.35.36.75.23.2-.21.26-.42.19-.63-.21-.33-.44-.44-.69-.36Z"/>
          <path class="st0" d="M15.72,25.04c-.04-.1.05-.45.25-1.04l-.05-.13c-.51-.18-.79-.35-.85-.51l-1.26-3.51c-.07-.21-.04-.56.12-1.06l-.06-.17c-.13-.37-.36-.59-.69-.66l-.12-.23-.03-.07.88,2.46c.07.21.04.56-.12,1.06l.06.17c.13.37.36.59.69.66l.12.23.2.57c.06.17.03.32-.09.45l-.06.02c-.46,0-.7,0-.74.02-.13.05-.26.27-.38.68-.04.01-.13.22-.28.62v.04c.21-.19.38-.32.54-.38.92-.26,1.43-.23,1.55.09l.65,1.8c-.05-.15-.09-.34-.1-.57-.12-.21-.2-.38-.25-.53Z"/>
          <path class="st0" d="M6.23,28.82l-.05-.13c-.09-.1-.22-.13-.38-.07-.17.17-.24.33-.19.46.03.09.13.13.3.14.16-.06.26-.19.31-.4Z"/>
          <path class="st0" d="M20.92,25.52c-.53.38-.87.6-1.03.66-.28.1-.59-.06-.94-.47-.02,0-.04,0-.05-.02-.29.3-.39.58-.3.85l.02.06.35.58c.03.17.07.31.11.42.02,0,.04,0,.06.04.17-.27.31-.42.43-.47.44-.09.72-.15.84-.2.39-.49.68-.76.86-.83.22-.08.33-.17.32-.26v-.04c-.11-.26-.33-.36-.69-.32Z"/>
          <path class="st0" d="M8.06,29.99c-.53.38-.87.6-1.03.66-.28.1-.59-.06-.94-.47-.02,0-.04,0-.05-.02-.29.3-.39.58-.3.85l.02.06.35.58c.03.17.07.31.11.42.02,0,.04,0,.06.04.17-.27.31-.42.43-.47.44-.09.72-.15.84-.2.39-.49.68-.76.86-.83.22-.08.33-.17.32-.26v-.04c-.11-.26-.33-.36-.69-.32Z"/>
          <path class="st0" d="M9.71,26.74l-.03-.09c-.37-.04-.61-.13-.73-.26l.34.96c0-.2.14-.4.41-.61Z"/>
          <path class="st0" d="M19.09,24.35l-.05-.13c-.09-.1-.22-.13-.38-.07-.17.17-.24.33-.19.46.03.09.13.13.3.14.16-.06.26-.19.31-.4Z"/>
          <path class="st0" d="M22.57,22.21l-.03-.09c-.45-.05-.7-.17-.78-.34l.42,1.17c-.07-.24.06-.48.4-.73Z"/>
          <path class="st0" d="M28.4,20.1c-.04-.1.05-.45.25-1.04l-.05-.13c-.48-.17-.75-.33-.83-.48,0,.1-.04.2-.12.28l-.06.02c-.46,0-.7,0-.74.02-.13.05-.26.27-.38.68-.04.01-.13.22-.28.62v.04c.21-.19.38-.32.54-.38.92-.26,1.43-.23,1.55.09l.39,1.1c-.01-.08-.02-.17-.03-.27-.12-.21-.2-.38-.25-.53Z"/>
          <path class="st0" d="M33.6,20.58c-.53.38-.87.6-1.03.66-.28.1-.59-.06-.94-.47-.02,0-.04,0-.05-.02-.29.3-.39.58-.3.85l.02.06.35.58c.03.17.07.31.11.42.02,0,.04,0,.06.04.17-.27.31-.42.43-.47.44-.09.72-.15.84-.2.39-.49.68-.76.86-.83.22-.08.33-.17.32-.26v-.04c-.11-.26-.33-.36-.69-.32Z"/>
          <path class="st0" d="M9.37,23.41h-.04c-.23.1-.31.3-.24.62.21.32.46.44.72.34.27-.17.38-.34.32-.51-.26-.39-.52-.54-.76-.45Z"/>
          <path class="st0" d="M28.23,26.12c-.27.1-.36.33-.27.7l.02.06c.1.28.35.36.75.23.2-.21.26-.42.19-.63-.21-.33-.44-.44-.69-.36Z"/>
          <path class="st0" d="M26.62,13.85l-.06-.17c-.13-.37-.36-.59-.69-.66l-.02-.04.62,1.73c-.01-.21.04-.5.15-.87Z"/>
          <path class="st0" d="M24.08,28.26c.07.25-.02.61-.27,1.08l.03.09c.48.15.76.32.85.52l-.61-1.69Z"/>
          <path class="st0" d="M6.85,20.31c-.08-.14-.15-.26-.2-.35l.31.85c-.02-.2-.06-.37-.11-.5Z"/>
          <path class="st0" d="M8.24,24.48l-.31-.86c.02.2.06.37.11.5.08.14.15.26.2.35Z"/>
          <path class="st0" d="M7.29,23.32c.26-.09.44-.07.55.05l-.33-.92c0,.13-.07.25-.19.36-.07.03-.26.06-.57.1-.16.13-.24.24-.23.33.07.21.33.23.77.08Z"/>
          <path class="st0" d="M9.11,18.29c.22-.05.33-.06.35-.02.34-.18.46-.41.36-.69l-.03-.09s-.07-.06-.17-.08l-.06.02c-.13.05-.3.29-.48.73l.05.13Z"/>
          <path class="st0" d="M5.77,26.15c-.22.05-.33.06-.35.02-.34.18-.46.41-.36.69l.03.09s.07.06.17.08l.06-.02c.13-.05.3-.29.48-.73l-.05-.13Z"/>
          <path class="st0" d="M8.13,21.53c.16-.13.24-.24.23-.33-.07-.21-.33-.23-.77-.08-.26.09-.44.07-.55-.05l.33.92c0-.13.07-.25.19-.36.07-.03.26-.06.57-.1Z"/>
          <path class="st0" d="M8.65,15.62l.05.13c.09.1.22.13.38.07.17-.17.24-.33.19-.46-.03-.09-.13-.13-.3-.14-.16.06-.26.19-.31.4Z"/>
          <path class="st0" d="M6.82,14.45c.53-.38.87-.6,1.03-.66.28-.1.59.06.94.47.02,0,.04,0,.05.02.29-.3.39-.58.3-.85l-.02-.06-.35-.58c-.03-.17-.07-.31-.11-.42-.02,0-.04,0-.06-.04-.17.27-.31.42-.43.47-.44.09-.72.15-.84.2-.39.49-.68.76-.86.83-.22.08-.33.17-.32.26v.04c.11.26.33.36.69.32Z"/>
          <path class="st0" d="M3.05,23.47l-.09.03.02.06c.39.23.69.31.9.24l.04-.18v-.04c-.06-.13-.34-.17-.86-.11Z"/>
          <path class="st0" d="M4.73,21.95s-.07-.06-.17-.08l-.09.03c-.07.03-.09.17-.05.43v.04c.04.06.1.07.19.04.15-.11.2-.25.15-.4l-.02-.06Z"/>
          <path class="st0" d="M5.51,21.03h.04c.23-.1.31-.3.24-.62-.21-.32-.46-.44-.72-.34-.27.17-.38.34-.32.51.26.39.52.54.76.45Z"/>
          <path class="st0" d="M2.61,13.81s-.08-.08-.18-.1c-.14.05-.16.3-.08.76l.19.12c.21-.07.24-.32.09-.74v-.04Z"/>
          <path class="st0" d="M5.17,17.71l.03.09c.37.04.61.13.73.26l-.34-.96c0,.2-.14.4-.41.61Z"/>
          <path class="st0" d="M3.64,11.57c-.01-.24.08-.55.29-.95l-.03-.09c-.4-.12-.66-.26-.79-.42l.52,1.46Z"/>
          <path class="st4" d="M37.96,26.66l-.58-1.62c-.07-.21-.36-.39-.86-.54l-.03-.09c.26-.5.35-.87.27-1.11l-2.86-7.98c-.04-.1-.14-.3-.32-.59-.06-.16-.1-.37-.12-.62-.09-.25-.3-.31-.63-.19-.44.16-.7.13-.77-.08,0-.09.07-.21.23-.33.3-.04.49-.07.57-.1.18-.16.23-.33.17-.52l-1.48-4.14c-.07-.18-.33-.3-.79-.36l-.03-.09c.35-.26.48-.52.39-.76l-3.11-8.66c-.19-.4-.44-.55-.76-.43l-.09.03c-.37.13-.46.5-.27,1.11l.11.31.04.23-.09.03c-.33-.93-.68-1.33-1.03-1.21-.31.17-.41.42-.29.77l.21.59.02.24h-.04s-.11,0-.11,0c-.33-.93-.73-1.32-1.18-1.15-.42.15-.51.56-.27,1.22l.27.75.04.23-.09.03-.13-.2-.24-.66c-.2-.47-.39-.67-.57-.61-.04.01-.23.42-.58,1.21h-.04s-.03-.08-.03-.08c-.24-.66-.57-.97-.99-.91l-.09.03c-.26.09-.33.34-.23.75l.04.11c-.14-.18-.37-.24-.7-.2-.22.08-.37.23-.43.47l.07.78-.11-.02c-.32-.52-.63-.73-.93-.62l-.13.05c-.09.1-.17.39-.25.86h-.04c-.34-.44-.66-.62-.96-.52-.48.17-.63.5-.46.97l.18.5c.09.25.26.52.51.84.04.11-.21.35-.76.73-.01-.04-.05-.08-.11-.13.26-.44.36-.74.29-.91l-.22-.63c-.2-.56-.46-.79-.76-.68h-.04s-.21.17-.55.46c-.04.01-.28.02-.72.01l-.07.03c-.14.14-.18.33-.11.55-.19-.4-.44-.54-.76-.43l-.09.03c-.37.13-.46.5-.27,1.11l.11.31.04.23-.09.03c-.33-.93-.68-1.33-1.03-1.21-.31.17-.41.42-.29.77l.21.59.02.24h-.04s-.11,0-.11,0c-.33-.93-.73-1.32-1.18-1.15-.42.15-.51.56-.27,1.22l.27.75.04.23-.09.03-.13-.2-.24-.66c-.2-.47-.39-.67-.57-.61-.04.01-.23.42-.58,1.21h-.04s-.03-.08-.03-.08c-.24-.66-.57-.97-.99-.91l-.09.03c-.26.09-.33.34-.23.75l3.42,9.53c.11.32.63.35,1.55.09.16-.06.34-.18.53-.38v.04c-.13.4-.23.6-.26.62-.12.4-.25.63-.38.68-.04.01-.28.02-.74.02l-.06.02c-.12.13-.15.28-.09.45l-.2-.55c-.06-.16-.34-.33-.85-.51l-.05-.13c.2-.6.28-.95.25-1.04-.05-.15-.14-.32-.25-.53-.01-.23-.05-.42-.1-.57l-2.82-7.85c-.11-.31-.38-.43-.8-.38-.22.08-.37.23-.43.47l.07.78-.11-.02c-.32-.52-.63-.73-.93-.62l-.13.05c-.09.1-.17.39-.25.86h-.04c-.34-.44-.66-.62-.96-.52-.48.17-.63.5-.46.97l.18.5c.09.25.26.52.51.84.04.11-.21.35-.76.73-.01-.04-.05-.08-.11-.13.26-.44.36-.74.29-.92l-.22-.63c-.2-.56-.46-.79-.76-.68h-.04s-.21.17-.55.46c-.04.01-.28.02-.72.01l-.07.03c-.12.12-.16.26-.14.43-.18-.35-.42-.47-.72-.36l-.09.03c-.37.13-.46.5-.27,1.11l.11.31.04.23-.09.03c-.33-.93-.68-1.33-1.03-1.21-.31.17-.41.42-.29.77l.21.59.02.24h-.04s-.11,0-.11,0c-.33-.93-.73-1.32-1.18-1.15-.42.15-.51.56-.27,1.22l.27.75.04.23-.09.03-.13-.2-.24-.66c-.2-.47-.39-.67-.57-.61-.04.01-.23.42-.58,1.21h-.04s-.03-.08-.03-.08c-.24-.66-.57-.97-.99-.91l-.09.03c-.26.09-.33.34-.23.75L-.54,20.11c.11.32.63.35,1.55.09.16-.06.34-.18.53-.38v.04c-.13.4-.23.6-.26.62-.12.4-.25.63-.38.68-.04.01-.28.02-.74.02l-.06.02c-.12.13-.15.28-.09.45l.2.57.12.23c.33.08.56.3.69.66l.06.17c-.15.5-.19.85-.12,1.06l1.26,3.51c.06.16.34.33.85.51l.05.13c-.2.6-.28.95-.25,1.04.05.15.14.32.25.53.01.23.05.42.1.57l2.82,7.85c.11.31.38.43.8.38.22-.08.37-.23.43-.47l-.07-.78.11.02c.32.52.63.73.93.62l.13-.05c.09-.1.17-.39.25-.86h.04c.34.44.66.62.96.52.48-.17.63-.5.46-.97l-.18-.5c-.09-.25-.26-.52-.51-.84-.04-.11.21-.35.76-.73.01.04.05.08.11.13-.26.44-.36.74-.29.92l.22.63c.2.56.46.79.76.68h.04s.21-.17.55-.46c.04-.01.28-.02.72-.01l.07-.03c.12-.12.16-.26.14-.43.18.35.42.47.72.36l.09-.03c.37-.13.46-.5.27-1.11l-.11-.31-.04-.23.09-.03c.33.93.68,1.33,1.03,1.21.31-.17.41-.42.29-.77l-.21-.59-.02-.24h.04s.11,0,.11,0c.33.93.73,1.32,1.18,1.15.42-.15.51-.56.27-1.22l-.27-.75-.04-.23.09-.03.13.2.24.66c.2.47.39.67.57.61.04-.01.23-.42.58-1.21h.04s.03.08.03.08c.24.66.57.97.99.91l.09-.03c.26-.09.33-.34.23-.75l-1.13-3.15,1.18,3.28c.11.31.38.43.8.38.22-.08.37-.23.43-.47l-.07-.78.11.02c.32.52.63.73.93.62l.13-.05c.09-.1.17-.39.25-.86h.04c.34.44.66.62.96.52.48-.17.63-.5.46-.97l-.18-.5c-.09-.25-.26-.52-.51-.84-.04-.11.21-.35.76-.73.01.04.05.08.11.13-.26.44-.36.74-.29.92l.22.63c.2.56.46.79.76.68h.04s.21-.17.55-.46c.04-.01.28-.02.72-.01l.07-.03c.14-.14.18-.33.11-.55.19.4.44.54.76.43l.09-.03c.37-.13.46-.5.27-1.11l-.11-.31-.04-.23.09-.03c.33.93.68,1.33,1.03,1.21.31-.17.41-.42.29-.77l-.21-.59-.02-.24h.04s.11,0,.11,0c.33.93.73,1.32,1.18,1.15.42-.15.51-.56.27-1.22l-.27-.75-.04-.23.09-.03.13.2.24.66c.2.47.39.67.57.61.04-.01.23-.42.58-1.21h.04s.03.08.03.08c.24.66.57.97.99.91l.09-.03c.26-.09.33-.34.23-.75l-.04-.11c.14.18.37.24.7.2.22-.08.37-.23.43-.47l-.07-.78.11.02c.32.52.63.73.93.62l.13-.05c.09-.1.17-.39.25-.86h.04c.34.44.66.62.96.52.48-.17.63-.5.46-.97l-.18-.5c-.09-.25-.26-.52-.51-.84-.04-.11.21-.35.76-.73.01.04.05.08.11.13-.26.44-.36.74-.29.92l.22.63c.2.56.46.79.76.68h.04s.21-.17.55-.46c.04-.01.28-.02.72-.01l.07-.03c.15-.15.19-.35.1-.6ZM12.37,9.33c-.25.09-.47-.03-.69-.36-.07-.21-.01-.42.19-.63.4-.13.65-.05.75.23l.02.06c.09.37,0,.6-.27.7ZM-.48,13.8c-.25.09-.47-.03-.69-.36-.07-.21-.01-.42.19-.63.4-.13.65-.05.75.23l.02.06c.09.37,0,.6-.27.7ZM31.72,19.28l.05.13c-.05.21-.15.35-.31.4-.17,0-.27-.06-.3-.14-.05-.13.01-.29.19-.46.16-.06.29-.03.38.07ZM31.3,16.73l.05.13c-.19.44-.35.69-.48.73l-.06.02c-.1-.02-.16-.05-.17-.08l-.03-.09c-.1-.28.02-.51.36-.69.01.04.13.03.35-.02ZM30.6,10.66c.27-.1.51.02.72.34.07.32,0,.52-.24.6h-.04c-.25.1-.5-.05-.76-.44-.06-.17.04-.34.32-.51ZM29.99,12.49l.09-.03c.1.02.16.05.17.08l.02.06c.06.16,0,.29-.15.4-.1.04-.16.02-.18-.04v-.04c-.05-.26-.03-.41.04-.43ZM28.58,14.06c.52-.06.8-.02.85.11v.04s-.03.18-.03.18c-.21.07-.51,0-.9-.24l-.02-.06.09-.03ZM27.96,4.29c.1.02.16.05.18.1v.04c.16.42.13.66-.08.74l-.19-.12c-.08-.46-.05-.71.08-.76ZM27.44,17.52l-.02-.04c-.33-.08-.56-.3-.69-.66l-.06-.17c.11-.37.16-.66.15-.87l.62,1.73ZM24.55,3.4c.4-.13.65-.05.75.23l.02.06c.09.37,0,.6-.27.7-.25.09-.47-.03-.69-.36-.07-.21-.01-.42.19-.63ZM24.99,10.7c.11.32.63.35,1.55.09.16-.06.34-.18.53-.38v.04c-.13.4-.23.61-.26.62-.12.4-.25.63-.38.68-.04.01-.28.02-.74.02l-.06.02c-.08.08-.12.18-.12.28-.08-.15-.35-.31-.83-.48l-.05-.13c.2-.6.28-.95.25-1.04-.05-.15-.14-.32-.25-.53,0-.1-.02-.19-.03-.27l.39,1.1ZM25.31,26.21c-.1-.02-.16-.05-.18-.1v-.04c-.16-.42-.13-.66.08-.74l.19.12c.08.46.05.71-.08.76ZM20.25,17.58l-.41-1.15c.09.22.3.27.61.16.44-.16.7-.13.77.08,0,.09-.07.21-.23.33-.3.04-.49.07-.57.1-.17.15-.22.31-.18.48ZM19.6,18.44c.3-.04.49-.07.57-.1.17-.15.22-.31.18-.48l.41,1.15c-.09-.22-.3-.27-.61-.16-.44.16-.7.13-.77-.08,0-.09.07-.21.23-.33ZM19.42,15.25c.05.11.15.29.29.54.06.16.1.36.12.61l-.41-1.14ZM21.18,20.19c-.05-.11-.15-.29-.29-.54-.06-.16-.1-.36-.12-.61l.41,1.14ZM21.51,11.09c.05-.21.15-.35.31-.4.17,0,.27.06.3.14.05.13-.01.29-.19.46-.16.06-.29.03-.38-.07l-.05-.13ZM21.93,13.64c.19-.44.35-.69.48-.73l.06-.02c.1.02.16.05.17.08l.03.09c.1.28-.02.51-.36.69-.01-.04-.13-.03-.35.02l-.05-.13ZM22.19,18.9h.04c.25-.1.5.05.76.44.06.17-.04.34-.32.51-.27.1-.51-.02-.72-.34-.07-.32,0-.52.24-.6ZM23.15,17.5c.1-.04.16-.02.18.04v.04c.05.26.03.41-.04.43l-.09.03c-.1-.02-.16-.05-.17-.08l-.02-.06c-.06-.16,0-.29.15-.4ZM23.85,16.34v-.04s.03-.18.03-.18c.21-.07.51,0,.9.24l.02.06-.09.03c-.52.06-.8.02-.85-.11ZM19.31,9.31c.18-.07.47-.34.86-.83.12-.04.4-.11.84-.2.12-.04.27-.2.43-.47.01.04.03.05.06.04.04.11.08.25.11.42l.35.58.02.06c.1.27,0,.55-.3.85,0-.02-.03-.03-.05-.02-.34-.42-.66-.57-.94-.47-.16.06-.5.28-1.03.66-.36.05-.58-.06-.67-.32v-.04c-.02-.09.09-.18.31-.26ZM18.84,13.66c-.08-.17-.34-.29-.78-.34l-.03-.09c.33-.25.47-.5.4-.73l.42,1.17ZM16.76,19.14l-.04.18c-.21.07-.51,0-.9-.24l-.02-.06.09-.03c.52-.06.8-.02.85.11v.04ZM17.31,17.43l.09-.03c.1.02.16.05.17.08l.02.06c.06.16,0,.29-.15.4-.1.04-.16.02-.18-.04v-.04c-.05-.26-.03-.41.04-.43ZM17.6,16.1c-.06-.17.04-.34.32-.51.27-.1.51.02.72.34.07.32,0,.52-.24.6h-.04c-.25.1-.5-.05-.76-.44ZM16.76,6.01l.03.09c-.25.48-.34.84-.27,1.08l-.61-1.69c.09.2.37.37.85.52ZM15.39,10.11l-.19-.12c-.08-.46-.05-.71.08-.76.1.02.16.05.18.1v.04c.16.42.13.66-.08.74ZM12.35,29.86l.19.12c.08.46.05.71-.08.76-.1-.02-.16-.05-.18-.1v-.04c-.16-.42-.13-.66.08-.74ZM11.01,20.64c.21-.07.51,0,.9.24l.02.06-.09.03c-.52.06-.8.02-.85-.11v-.04s.03-.18.03-.18ZM10.28,22.03c.1-.04.16-.02.18.04v.04c.05.26.03.41-.04.43l-.09.03c-.1-.02-.16-.05-.17-.08l-.02-.06c-.06-.16,0-.29.15-.4ZM10.13,23.86c.06.17-.04.34-.32.51-.27.1-.51-.02-.72-.34-.07-.32,0-.52.24-.6h.04c.25-.1.5.05.76.44ZM9.55,17.43l.06-.02c.1.02.16.05.17.08l.03.09c.1.28-.02.51-.36.69-.01-.04-.13-.03-.35.02l-.05-.13c.19-.44.35-.69.48-.73ZM7.37,21.99l-.33-.92c.11.13.29.15.55.05.44-.16.7-.13.77.08,0,.09-.07.21-.23.33-.3.04-.49.07-.57.1-.13.11-.19.24-.19.36ZM6.75,22.91c.3-.04.49-.07.57-.1.13-.11.19-.24.19-.36l.33.92c-.11-.13-.29-.15-.55-.05-.44.16-.7.13-.77-.08,0-.09.07-.21.23-.33ZM6.65,19.96c.05.1.12.21.2.35.05.13.08.3.11.5l-.31-.85ZM8.24,24.48c-.05-.1-.12-.21-.2-.35-.05-.13-.08-.3-.11-.5l.31.86ZM9.26,15.36c.05.13-.01.29-.19.46-.16.06-.29.03-.38-.07l-.05-.13c.05-.21.15-.35.31-.4.17,0,.27.06.3.14ZM6.45,13.83c.18-.07.47-.34.86-.83.12-.04.4-.11.84-.2.12-.04.27-.2.43-.47.01.04.03.05.06.04.04.11.08.25.11.42l.35.58.02.06c.1.27,0,.55-.3.85,0-.02-.03-.03-.05-.02-.34-.42-.66-.57-.94-.47-.16.06-.5.28-1.03.66-.36.05-.58-.06-.67-.32v-.04c-.02-.09.09-.18.31-.26ZM5.93,18.05c-.12-.13-.36-.21-.73-.26l-.03-.09c.28-.21.41-.41.41-.61l.34.96ZM3.9,10.53l.03.09c-.21.4-.31.71-.29.95l-.52-1.46c.13.16.39.3.79.42ZM2.54,14.58l-.19-.12c-.08-.46-.05-.71.08-.76.1.02.16.05.18.1v.04c.16.42.13.66-.08.74ZM3.87,23.8c-.21.07-.51,0-.9-.24l-.02-.06.09-.03c.52-.06.8-.02.85.11v.04s-.03.18-.03.18ZM4.6,22.41c-.1.04-.16.02-.18-.04v-.04c-.05-.26-.03-.41.04-.43l.09-.03c.1.02.16.05.17.08l.02.06c.06.16,0,.29-.15.4ZM4.75,20.58c-.06-.17.04-.34.32-.51.27-.1.51.02.72.34.07.32,0,.52-.24.6h-.04c-.25.1-.5-.05-.76-.44ZM5.33,27.01l-.06.02c-.1-.02-.16-.05-.17-.08l-.03-.09c-.1-.28.02-.51.36-.69.01.04.13.03.35-.02l.05.13c-.19.44-.35.69-.48.73ZM5.62,29.08c-.05-.13.01-.29.19-.46.16-.06.29-.03.38.07l.05.13c-.05.21-.15.35-.31.4-.17,0-.27-.06-.3-.14ZM8.43,30.61c-.18.07-.47.34-.86.83-.12.04-.4.11-.84.2-.12.04-.27.2-.43.47-.01-.04-.03-.05-.06-.04-.04-.11-.08-.25-.11-.42l-.35-.58-.02-.06c-.1-.27,0-.55.3-.85,0,.02.03.03.05.02.34.42.66.57.94.47.16-.06.5-.28,1.03-.66.36-.05.58.06.67.32v.04c.02.09-.09.18-.31.26ZM8.95,26.39c.12.13.36.21.73.26l.03.09c-.28.21-.41.41-.41.61l-.34-.96ZM10.98,33.91l-.03-.09c.21-.4.31-.71.29-.95l.52,1.46c-.13-.16-.39-.3-.79-.42ZM15.86,31.63c-.4.13-.65.05-.75-.23l-.02-.06c-.09-.37,0-.6.27-.7.25-.09.47.03.69.36.07.21.01.42-.19.63ZM15.43,24.33c-.11-.32-.63-.35-1.55-.09-.16.06-.34.18-.53.38v-.04c.13-.4.23-.6.26-.62.12-.4.25-.63.38-.68.04-.01.28-.02.74-.02l.06-.02c.12-.13.15-.28.09-.45l-.2-.57-.12-.23c-.33-.08-.56-.3-.69-.66l-.06-.17c.15-.5.19-.85.12-1.06l-.88-2.46.03.07.12.23c.33.08.56.3.69.66l.06.17c-.15.5-.19.85-.12,1.06l1.26,3.51c.06.16.34.33.85.51l.05.13c-.2.6-.28.95-.25,1.04.05.15.14.32.25.53.01.23.05.42.1.57l-.65-1.8ZM18.19,22.54l-.06.02c-.1-.02-.16-.05-.17-.08l-.03-.09c-.1-.28.02-.51.36-.69.01.04.13.03.35-.02l.05.13c-.19.44-.35.69-.48.73ZM18.48,24.61c-.05-.13.01-.29.19-.46.16-.06.29-.03.38.07l.05.13c-.05.21-.15.35-.31.4-.17,0-.27-.06-.3-.14ZM21.29,26.14c-.18.07-.47.34-.86.83-.12.04-.4.11-.84.2-.12.04-.27.2-.43.47-.01-.04-.03-.05-.06-.04-.04-.11-.08-.25-.11-.42l-.35-.58-.02-.06c-.1-.27,0-.55.3-.85,0,.02.03.03.05.02.34.42.66.57.94.47.16-.06.5-.28,1.03-.66.36-.05.58.06.67.32v.04c.02.09-.09.18-.31.26ZM21.76,21.78c.08.17.34.29.78.34l.03.09c-.33.25-.47.5-.4.73l-.42-1.17ZM23.84,29.43l-.03-.09c.25-.48.34-.84.27-1.08l.61,1.69c-.09-.2-.37-.37-.85-.52ZM25.84,12.98l.02.04c.33.08.56.3.69.66l.06.17c-.11.37-.16.66-.15.87l-.62-1.73ZM28.73,27.1c-.4.13-.65.05-.75-.23l-.02-.06c-.09-.37,0-.6.27-.7.25-.09.47.03.69.36.07.21.01.42-.19.63ZM28.29,19.81c-.11-.32-.63-.35-1.55-.09-.16.06-.34.18-.53.38v-.04c.13-.4.23-.6.26-.62.12-.4.25-.63.38-.68.04-.01.28-.02.74-.02l.06-.02c.08-.08.12-.18.12-.28.08.15.35.31.83.48l.05.13c-.2.6-.28.95-.25,1.04.05.15.14.32.25.53,0,.1.02.19.03.27l-.39-1.1ZM33.96,21.2c-.18.07-.47.34-.86.83-.12.04-.4.11-.84.2-.12.04-.27.2-.43.47-.01-.04-.03-.05-.06-.04-.04-.11-.08-.25-.11-.42l-.35-.58-.02-.06c-.1-.27,0-.55.3-.85,0,.02.03.03.05.02.34.42.66.57.94.47.16-.06.5-.28,1.03-.66.36-.05.58.06.67.32v.04c.02.09-.09.18-.31.26Z"/>
        </g>
      </g>
      <path class="st1" d="M14.62,3.66l4.89,10.14c.04.08.13.13.22.12l11.15-1.51c.21-.03.33.22.18.37l-8.13,7.78c-.07.06-.09.16-.04.25l4.89,10.14c.09.19-.11.38-.29.28l-9.91-5.33c-.08-.04-.18-.03-.25.03l-8.13,7.78c-.15.14-.4.01-.36-.19l2.01-11.07c.02-.09-.03-.18-.11-.23L.8,16.88c-.18-.1-.13-.37.07-.4l11.15-1.51c.09-.01.17-.08.18-.17l2.01-11.07c.04-.2.31-.24.4-.05Z"/>
    </g>
  </g>
</svg>